<?xml version="1.0" encoding="UTF-8"?>
<svg width="600" height="450" version="1.1" xmlns="http://www.w3.org/2000/svg">
 <path d="m518.02 316.15c-0.94558 0.0271-1.8641 0.0271-2.8097 0-5.4845-0.18907-27.26 1.2428-36.095 33.906 0 0-15.292 46.037 23.505 46.037 0 0 29.854 1.8102 39.553-30.502 14.265-47.496-16.751-49.603-24.153-49.441zm7.5107 23.127-10.618 36.365s-2.9178 8.8075-10.888 8.8075c0 0-10.456 1.9993-6.295-13.427l10.294-38.121s2.2423-8.3754 8.4833-8.3754h4.1606c-0.0271 0 8.9697 0.64842 4.8631 14.751zm-78.647-23.073h-22.343l-21.56 79.808h24.477c19.668 0 37.121-12.887 42.606-31.772 0.0814-0.27011 0.1621-0.54032 0.24316-0.81052l1.9993-7.3216c10.942-39.904-25.423-39.904-25.423-39.904zm7.5107 22.37-8.8345 32.204c-2.0803 7.6188-8.9967 12.887-16.886 12.887l14.508-53.71h4.62c4.5118 0 7.7808 4.2687 6.5921 8.6185zm-114.61 57.411h10.996l11.915-42.39 5.5385 42.39h22.127l20.479-79.808h-11.185l-12.644 48.496-6.6192-48.496h-18.209zm-26.855-16.751h23.1l-4.5929 16.751h-46.334l23.343-79.808h44.686l-3.9445 14.535h-23.1l-4.5118 16.643h18.101l-4.2417 15.67h-18.128zm-59.14-49.549-21.289 66.3h26.99l21.262-66.3h13.968l4.4578-13.509h-54.061l-4.3497 13.509zm-199.66 66.3h13.725l13.536-40.769 3.5122 40.769h26.693l24.585-79.808h-13.292l-17.102 55.547-4.9441-55.547h-20.209zm102.77 0h12.158l14.643-45.632 5.8086 45.578 23.316 0.0543 22.64-79.808h-12.374l-13.968 49.306-6.4571-49.306h-20.128zm-9.618-79.808h22.829l-25.639 79.808h-22.829z"/>
 <path d="m508.31 59.62c-0.78526-0.0127-2.1332 0.48759-4.4444 1.9271-3.6979 2.3032-9.8609 7.0101-16.864 15.754-7.0035 8.7438-14.847 21.524-18.769 27.97-1.3255 2.1787-2.099 3.4616-2.6869 4.4387-0.31556-0.50912-0.65783-1.0226-1.0254-1.5509-1.6837-2.4195-3.8624-5.143-6.3384-6.8404-1.625-1.114-3.3778-1.7862-5.5273-1.824-1.126-0.0195-2.3608 0.13455-3.7431 0.49038-4.0212 1.0351-9.2902 3.777-13.094 7.3508-3.8034 3.5737-6.1406 7.979-7.2696 11.985-0.91599 3.25-1.0366 6.2363-0.43612 8.5359-1.008 1.2576-2.109 2.4802-3.2118 3.4045-1.0281 0.86139-2.409 1.8466-4.0113 2.427-1.4037 0.50827-3.0895 0.66732-3.3535 0.67038-1.9539 0.0229-4.3353-0.14939-5.778-0.54702-1.4426-0.39755-1.9469-1.0204-2.1641-2.277-0.21713-1.2566-0.14701-3.1466 0.7494-5.7328 0.89649-2.5862 2.6194-5.8688 5.1756-9.0769 2.5563-3.2082 5.9456-6.3421 7.7454-8.671 1.7999-2.3287 2.0102-3.8519 1.6812-4.9419-0.32904-1.09-1.1976-1.7464-3.4948-1.5324-2.2972 0.21408-6.0226 1.2986-10.106 2.9454-4.083 1.6467-8.5234 3.8558-10.989 5.1322-2.4652 1.2763-2.9555 1.62-3.3266 1.8251-0.37118 0.20509-0.62315 0.27173-0.31505-0.3404s1.1764-1.9031 1.8979-3.0279c0.72133-1.1248 1.2953-2.0834 0.83316-3.3713s-1.9607-2.9048-4.1177-3.3752c-2.1571-0.47046-4.9724 0.20628-9.2796 2.3682-4.3072 2.162-10.106 8.8928-15.758 12.731-5.6517 3.8387-11.156 7.8683-16.318 10.831-5.1615 2.9628-9.9798 4.8586-13.551 5.8048-3.5717 0.94634-5.8969 0.94304-7.5568 0.19941-1.6598-0.74363-2.6543-2.2278-3.0115-4.2706-0.19229-1.0995-0.19517-2.3637 0.26469-3.9458 0.55753-0.10954 0.56822-0.11072 1.319-0.25842 5.4177-1.0659 16.253-3.1976 23.552-6.3873 7.2994-3.1898 11.063-7.4374 13.064-10.738 2.0007-3.3008 2.2383-5.6546 1.446-7.2995-0.79221-1.645-2.6146-2.5806-4.645-3.0736-1.269-0.3081-2.6194-0.44358-4.0945-0.4546-0.88496-8e-3 -1.8147 0.0314-2.799 0.10377-2.6246 0.19237-5.6354 0.62731-10.875 3.1912-5.2395 2.5639-12.707 7.2567-17.491 12.243-1.9802 2.0642-4.0576 5.4957-6.6509 8.5353-3.1103 3.6457-6.6922 6.8327-8.1063 7.8318-3.2189 2.2742-6.1505 3.8394-9.4189 4.4787-3.2684 0.63935-6.8737 0.35295-9.2904-0.98695-2.4166-1.3399-3.6446-3.7333-3.8526-6.4798-0.20806-2.7464 0.60407-5.8452 2.1491-8.3302 0.2078-0.33413 0.65028-1.0162 1.19-1.6057 0.5148-0.56245 1.1275-1.0367 1.3256-1.2031 6.7547-5.6732 16.698-14.73 23.929-22.299 1.7231-1.8038 3.2876-3.5202 4.7088-5.1479 16.134 0.54778 32.436 1.8522 48.556 1.7268 16.758-0.13048 33.318-1.8084 43.421-2.9003 10.103-1.0918 13.747-1.5975 15.57-1.8502l1.8222-0.25273-10.38 0.17677c-10.38 0.17686-31.139 0.53074-54.117-0.0763-13.386-0.35371-27.52-1.0309-41.104-1.3533 2.5152-3.1893 4.3461-5.9037 5.5472-8.0599 2.2781-4.0895 2.3178-6.1886 1.7632-7.543-0.29462-0.71955-0.75694-1.2292-1.9572-1.2361-1.0591-8e-3 -2.6929 0.37898-5.2928 1.356-5.243 1.9702-14.415 6.3504-23.1 15.42-1.6326 0.0432-3.2454 0.0978-4.8299 0.16846-20.799 0.92769-37.2 4.351-45.401 6.0627l-8.2009 1.7118 4.3184-0.51624c4.3184-0.51624 12.955-1.5486 25.553-2.27 7.1905-0.41171 15.674-0.72142 24.746-0.8185-8.1821 10.064-20.098 33.564-22.094 35.898-1.1814 1.381-3.3802 2.6111-4.3195 3.0696-2.6578 1.2973-7.2727 3.5062-10.225 4.7472-2.9525 1.2411-4.2425 1.5144-5.142 1.139-0.89938-0.37542-1.408-1.3994-1.1628-2.9042 0.24519-1.5047 1.2446-3.4899 3.1433-5.9808 1.8986-2.4908 4.6967-5.4875 6.3682-7.6088 1.6716-2.1214 2.2194-3.3742 2.5904-4.7104 0.37101-1.3361 0.57093-2.7688 0.33472-4.171-0.23612-1.4021-0.90819-2.7737-2.3435-3.3564-1.4354-0.58271-3.6338-0.37618-6.5772 0.7288-2.9435 1.1049-6.6317 3.108-9.3843 4.688-2.7526 1.5798-4.5693 2.7363-5.4779 3.3147l-0.90854 0.57831 0.27241-0.71421c0.27249-0.71396 0.81748-2.1418 0.88115-3.3037 0.0636-1.1619-0.35397-2.0578-1.0898-2.7582s-1.8048-1.2125-3.1963-1.0734c-1.3916 0.13905-3.1357 0.91506-5.4704 2.5188-2.3348 1.6037-5.26 4.0351-8.7121 6.6866-3.4521 2.6516-7.4308 5.5232-10.774 7.9854-3.3431 2.4623-6.0503 4.5151-8.0306 5.6604-1.9804 1.1452-3.234 1.3826-4.1607 1.2248-0.92659-0.15778-1.5262-0.71116-1.8624-1.3062-0.33616-0.595-0.40882-1.2316-0.12726-2.2726 0.28165-1.041 0.91752-2.4858 3.434-5.4952 2.5164-3.0094 6.9132-7.5832 9.9384-10.722 1.1497-1.193 2.1002-2.1781 2.8577-3.0446l-5.6302-4.285c-3.8162 3.6233-9.6941 9.3886-12.762 12.398-1.2536 1.2298-1.7085 1.6781-2.193 2.1557l-20.46 11.852 2.1349 0.92558 17.836-9.835c-0.0534 0.16084-0.10174 0.30124-0.1616 0.48708-0.45418 1.411-1.0904 3.5646-1.2812 5.6788s0.0636 4.189 0.79052 5.5796c0.72684 1.3906 1.926 2.0969 3.5612 2.1098 1.6351 0.0127 3.7063-0.66741 5.6958-1.5763 1.9894-0.90887 3.8973-2.0462 6.0594-3.6613 2.162-1.6151 4.5785-3.7082 7.4401-6.0043 2.8617-2.2961 6.1684-4.7949 8.4122-6.4362 2.244-1.6413 3.4249-2.4248 4.3789-2.748 0.95398-0.32328 1.6806-0.18627 2.0258 0.25452 0.34507 0.44079 0.30878 1.1851-1.2538 3.5532-1.5625 2.3681-4.6513 6.36-7.1132 9.7426-0.8073 1.1092-1.5383 2.1455-2.1912 3.1188l4.7104 4.5562c0.0543-0.0814 0.0975-0.14778 0.15261-0.2301 1.7374-2.599 4.0496-5.8696 6.4842-8.8624 2.4346-2.9927 4.9912-5.7073 7.7663-8.0724 2.7751-2.365 5.7684-4.3805 8.1901-5.9602 2.4218-1.5797 4.2719-2.7237 5.8008-3.5189 1.5289-0.79517 2.7364-1.2416 3.61-1.2812 0.87369-0.0399 1.4134 0.32752 1.5033 1.3244 0.0898 0.99688-0.27003 2.624-1.9787 4.8877-1.7086 2.2637-4.7662 5.1645-6.8347 7.6932-2.0685 2.5288-3.1476 4.6849-3.6936 6.4828-0.546 1.7977-0.55889 3.2368 0.0195 4.4393 0.57822 1.2026 1.7474 2.1689 3.2763 2.6905 1.5288 0.52167 3.4172 0.59865 5.0874 0.46054 1.6701-0.13803 3.1219-0.4909 5.5628-1.4344s5.8712-2.4776 8.4793-3.7657c2.5617-1.2652 7.6235-3.6496 9.5055-4.6188 0.0568-0.0288 0.11742-0.0619 0.17533-0.0924 0.24655 1.1553 0.74142 2.37 1.4093 3.5606 1.2876 2.2954 3.2089 4.5004 5.4275 6.1546s4.7344 2.7576 7.458 3.0419c2.7237 0.28427 5.6555-0.25071 9.0328-1.6314 3.3773-1.3807 7.2002-3.6067 10.132-5.4093 2.0152-1.2392 3.599-2.6546 4.7783-3.3323 0.24528 0.78848 1.7352 5.3183 4.3061 7.4154 2.7684 2.2583 6.6918 2.0633 8.7914 2.0678 4.0492 8e-3 8.6812-0.87292 14.877-4.1886 6.1959-3.3158 13.956-9.0658 19.95-13.285 5.995-4.2192 10.225-9.9906 13.251-11.603 3.0256-1.612 4.8465-2.1477 5.7465-1.7214s0.87877 1.8143-0.0627 4.1002c-0.94143 2.2859-2.8033 5.4699-6.3292 10.315-3.526 4.8452-11.8 17.306-12.185 17.821l9.6072-3.2437c0.0891-0.20135 0.16949-0.37787 0.2602-0.58423 1.4461-3.2886 3.0705-7.1492 6.9531-11.277 3.8826-4.1273 10.023-8.521 14.678-11.37 4.6551-2.8491 7.8244-4.1536 9.4883-4.4084 1.6639-0.25477 1.8223 0.53999 1.5375 1.7411-0.28479 1.2011-0.98323 2.7434-3.0631 5.3697-2.0799 2.6262-5.5264 6.3035-7.8441 9.3625-2.3176 3.0589-3.5062 5.4992-3.9221 7.633-0.41595 2.1338-0.0593 3.9609 2.4762 4.9854 2.5356 1.0246 7.2502 1.2465 10.855 1.097 1.7394-0.0721 5.4665-0.52515 8.5773-1.3252 2.7325-0.70277 4.9365-1.7386 5.6236-2.1227 1.1401-0.63723 2.1698-1.6464 3.0071-2.6756 1.2385 1.8123 3.2381 2.7991 5.77 3.3636 2.9317 0.65351 6.5764 0.74245 11.588-0.69547 5.0115-1.4378 11.389-4.4024 15.054-6.096 1.3048-0.60306 2.1766-1.0025 2.8881-1.3259 0.18034 1.3743 0.48521 2.6645 0.99679 3.8837 1.0226 2.437 2.8714 4.5909 4.4542 5.6907s2.8993 1.1456 4.5521 0.90166c1.6528-0.24375 3.6417-0.77737 6.317-2.114 2.6752-1.3366 6.037-3.4759 8.1099-5.1008 2.073-1.6248 4.8135-4.172 4.8135-4.172s0.22315 1.8834 1.0835 3.7821c0.96432 2.1279 2.6107 4.3376 3.2918 5.1813 1.2887 1.5966 2.7453 2.3448 5.0424 2.712 2.297 0.36711 5.4343 0.35338 7.8015-0.0772 2.367-0.43036 3.964-1.2772 5.7289-2.1918 1.461-0.75719 3.2299-2.167 4.9904-2.9517 0.0805-0.0356-0.0805 0.0348 0 0 0.0602-0.0161-0.0627 0.017 0 0 2.0484-0.54456 5.5814-1.0337 7.3216-1.4203 2.1991-0.4886 4.356-0.96381 6.9752-1.993 2.6193-1.0292 5.701-2.612 7.4798-3.9046 1.4754-1.0721 2.0513-1.9434 2.4378-2.7341l-3.1859-0.0432c-1.2243 1.0391-2.6262 2.3153-4.2662 3.4515-1.1516 0.79789-3.478 1.9033-5.6177 2.3739-1.5817 0.34794-3.2159 0.19423-3.3961 0.11539 0.42196-0.7238 4.5455-5.9814 6.0303-8.5106 1.4847-2.5292 2.3248-5.7956 2.647-8.6205 0.32218-2.825 0.12625-5.2085-1.2043-7.3135-1.3305-2.105-3.7956-3.9313-5.9807-5.0674-1.2291-0.63909-6.2411-0.94092-7.914-0.44265-3.824 1.139-9.5664 3.8627-13.684 6.7066-4.1181 2.8439-6.6116 5.8074-8.5305 8.4429-1.919 2.6355-3.2634 4.9423-5.5465 7.6428-2.283 2.7005-5.5046 5.7944-8.8382 8.2706s-6.779 4.3347-9.2441 4.9038c-2.4652 0.56914-3.95-0.15109-4.6925-1.8278-0.74244-1.6768-0.74244-4.3099-0.42027-7.4151 0.2101-2.0255 0.55533-4.2456 0.80247-6.1471 2.1977-1.392 5.1087-3.7878 9.1702-8.6641 4.9724-5.9698 11.667-15.656 16.416-23.8 4.7484-8.144 7.5499-14.745 9.1608-18.758 1.6108-4.0123 2.0309-5.4355 1.6248-6.1975-0.15227-0.28571-0.42094-0.47834-0.89217-0.48614zm-176.7 9.9894c0.32057 8e-3 0.58873 0.067 0.8129 0.17168 0.89641 0.4184 1.0923 1.5415-2.6196 7.024-1.0939 1.6159-2.533 3.6157-4.1711 5.7927-3.7841-0.0704-7.5161-0.10886-11.165-0.0981 0.11353-0.1365 0.22909-0.27979 0.34159-0.4134 5.2316-6.2116 9.3774-9.181 12.249-10.809 2.1536-1.221 3.5901-1.6874 4.552-1.6678zm169.2 0.14574c0.44299 0.0348 0.66682 0.48597 0.65105 1.3682-0.028 1.5684-0.81256 4.499-3.5299 9.925-2.7173 5.4259-7.3677 13.347-11.192 18.38-3.8239 5.0328-6.8204 7.1772-8.3196 8.2497l-1.4993 1.0725 0.74278-1.9653c0.74244-1.965 2.227-5.8944 5.0704-11.319 2.8434-5.4244 7.0452-12.343 10.155-16.979 3.1096-4.6364 5.1263-6.9903 6.4991-8.0643 0.6006-0.46995 1.0777-0.6948 1.4221-0.66775zm-189.82 17.172c1.0946 8e-3 2.1936 0.0127 3.2974 0.0254 0.65148 8e-3 1.3043 0.0153 1.9584 0.0254 1.9623 0.0297 3.9354 0.0721 5.9122 0.12488-3.2017 4.0374-6.7467 8.2315-9.9402 11.568-6.261 6.5407-11.162 9.7795-13.614 11.4l-2.4518 1.6198 0.13294-0.74728c0.13311-0.74744 0.39924-2.2423 3.6909-7.7168 2.5159-4.1843 6.7987-10.69 11.014-16.299zm51.11 12.949c0.4485 8e-3 0.87123 0.0263 1.2639 0.0602 2.094 0.18237 3.3266 0.74533 3.9989 1.4758 0.67225 0.73049 0.7845 1.6286-0.41679 3.639-1.2012 2.0105-3.7295 5.1502-7.4554 7.8733-3.7258 2.723-8.6558 5.0378-13.208 6.4541-4.5522 1.4162-8.7261 1.9342-11.471 2.3104-1.5261 0.20916-2.6038 0.37423-3.4959 0.54167 0.33446-0.6318 0.72786-1.3019 1.1986-2.0222 2.7314-4.1793 7.914-9.9363 12.13-13.542 4.2161-3.606 7.4654-5.0606 10.568-5.8872 2.5208-0.67156 4.9446-0.92837 6.8881-0.90327zm164.02 0.11302c3.3817 0.0738 5.3881 1.9741 6.0523 4.0116 0.73278 2.2483-0.16838 4.6632-1.6789 7.619-1.5104 2.9559-3.6299 6.4528-6.5715 10.157-0.87734 1.1047-1.8285 2.2272-2.8122 3.3153-0.0973-0.0356-0.19517-0.0738-0.29776-0.1187-1.0004-0.43926-2.3079-1.2886-3.4172-2.7298-1.1094-1.4411-2.0204-3.4742-2.3275-5.9247s-0.0102-5.3187 1.1288-8.1558c1.0776-2.684 2.9036-5.3279 4.3225-7.041 1.6031-0.57712 3.1503-0.97534 4.5074-1.0949 0.37924-0.0331 0.74414-0.0458 1.094-0.0381zm-72.213 2.531c1.3652 0.0297 2.5056 0.74414 3.6515 2.2366 0.5488 0.71464 2.6089 2.9609 3.1388 6.006 0.73464 4.2219-0.33498 9.6954-2.2744 12.209-3.0033 3.8919-9.1039 6.4493-10.613 7.0127-3.1866 1.1896-4.5172 1.382-5.9319 0.99882-1.4146-0.38313-2.9135-1.3422-3.845-2.4332-0.93151-1.0912-1.2955-2.3143-1.0784-4.4194 0.21705-2.1052 1.0154-5.092 2.9064-8.4492 1.8909-3.3572 4.8744-7.0847 7.3537-9.4814 2.4792-2.3968 4.4542-3.4627 6.0931-3.6507 0.20484-0.0237 0.40416-0.0331 0.59916-0.0288zm59.624 2.0237c-0.73736 2.4732-2.0462 6.9689-2.2073 10.249-0.16838 3.4246 0.92116 5.4993 2.7733 7.416 1.6718 1.7301 3.4684 3.6519 5.1882 4.6421-1.9162 1.9935-3.3972 3.4458-5.1483 4.6385-3.0802 2.0978-5.4771 2.3827-7.5472 2.1271-2.07-0.25571-3.8132-1.0519-5.0018-2.613-1.1886-1.561-1.8225-3.8874-1.4561-6.7647 0.36635-2.8773 1.7331-6.3054 3.4664-9.4415s3.8332-5.9799 7.7454-8.7994c0.67971-0.48996 1.4166-0.97839 2.1874-1.4541zm-280.11-9.2825-4.8319-3.7506-12.116 3.8289 9.5461-5.2738-6.9377-2.8657 10.732 0.49132 7.8285-5.6001-2.9136 5.5774 11.776-0.59526-12.532 2.9557zm45.533-41.37-1.4316 0.75626c-1.4311 0.75601-4.2929 2.2683-7.8304 4.3206-3.5376 2.0523-7.7502 4.6442-15.095 6.3725-7.3449 1.7282-17.364 3.7384-28.084 7.1948-10.721 3.4565-22.143 8.359-32.728 15.866-10.586 7.5071-20.793 16.473-25.924 21.09-0.55304 0.49776-0.84274 0.76737-1.2845 1.1692 0.89776-3.088 1.4589-6.3317 2.6208-10.62 1.6607-6.1299 4.5503-14.393 7.573-21.281 3.0228-6.8883 6.1788-12.402 7.7566-15.158l1.5782-2.7561c-3.7264 1.5121-7.5535 3.0695-12.593 6.5755-5.0399 3.506-11.28 8.9343-18.648 16.33-7.3687 7.3958-15.85 16.745-23.772 25.314-7.9217 8.5694-15.245 16.29-23.678 20.619-8.4334 4.3289-18.134 5.3637-26.477 3.8194-8.3431-1.5444-15.333-5.6661-19.564-11.134-4.2315-5.4682-5.7831-12.41-5.4064-17.893 0.37669-5.483 2.6391-9.5576 5.8068-14.035 3.1676-4.4774 7.0987-9.1402 13.085-12.74 5.9866-3.5999 14.138-6.1648 21-6.5993 6.8614-0.4346 12.442 1.213 16.695 4.6646s7.2221 8.802 8.2076 13.898c0.98552 5.0966 0.0331 9.9738-2.3658 14.367-2.3985 4.3928-6.2581 8.2821-10.813 10.874-4.5548 2.5916-9.8536 3.9124-14.736 4.0569-4.8826 0.14438-9.337-0.9037-12.261-2.8865-2.9243-1.9828-4.4627-4.9313-4.8688-8.2171-0.40602-3.2857 0.35414-6.8857 2.1791-10.225 1.825-3.3394 4.7324-6.4261 7.9803-8.3593 3.2478-1.9332 6.8999-2.7669 10.431-2.8319 3.5308-0.0653 6.9289 0.74168 8.6695 1.7117 1.7649 0.98365 2.0779 1.9632 3.4196 3.4222-0.43197-1.6199-0.27928-3.6202-2.5099-4.9497-2.2307-1.3295-5.8249-2.0302-9.6123-1.9604-3.7876 0.0695-7.7497 0.96576-11.307 3.0832-3.5574 2.1174-6.646 5.4037-8.6287 9.0316-1.9826 3.6279-2.8429 7.5868-2.3846 11.295 0.45834 3.7084 2.2679 7.1866 5.6358 9.4701 3.3677 2.2835 8.148 3.3425 13.311 3.1898 5.1627-0.15278 10.72-1.531 15.563-4.2862 4.8424-2.7552 8.9218-6.8604 11.492-11.568 2.5702-4.7074 3.6167-10.037 2.55-15.553-1.0666-5.516-4.1991-11.184-8.8304-14.942-4.6313-3.7588-10.718-5.5121-17.926-5.0556-7.2079 0.45647-15.529 3.0758-21.802 6.8481-6.2735 3.7724-10.389 8.6686-13.621 13.238-3.2323 4.569-5.722 9.0269-6.1282 14.94-0.40628 5.9128 1.2284 13.229 5.7735 19.102s11.92 10.175 20.644 11.79c8.7234 1.6148 18.79 0.54295 27.612-3.9855 8.8218-4.5283 16.243-12.414 24.173-20.992s16.406-17.916 23.728-25.265c7.3215-7.3484 13.504-12.721 18.402-16.128 1.2906-0.89785 2.3052-1.5935 3.1804-2.1704-0.10386 0.14701-0.20255 0.28037-0.31268 0.44299-1.7013 2.5114-4.1856 6.94-6.724 12.395-2.5383 5.4548-5.1302 11.936-7.5065 19.335-2.3764 7.3991-4.5368 15.716-7.7773 22.494-3.2404 6.778-7.561 12.017-9.7214 14.636l-2.1603 2.6189 2.1333-1.6203c2.1334-1.6202 6.4-4.8606 10.262-8.9381 1.2405-1.3099 4.5655-5.8704 9.3748-10.688 6.6505-6.6626 15.585-14.224 20.788-18.016 8.9654-6.535 18.849-12.962 27.652-17.066 8.8034-4.1047 16.526-5.8866 25.221-7.9119 8.6952-2.0253 18.362-4.2938 25.194-7.7503s10.828-8.1007 12.826-10.423z"/>
 <path d="m535.96 218.44s-13.208-1.7387-18.593 15.814c0 0-0.78119 5.1694-7.2104 5.1694h-22.978c-3.9165 0-2.0879-2.869-2.0879-2.869l1.5299-3.4486 1.9692-4.435 3.0382-6.8145 3.2471-7.3148 3.1282-5.8353c2.347-4.435-1.2996-5.4754-1.2996-5.4754-3.9058-2.869-5.7345 1.0404-5.7345 1.0404l-7.1853 16.336c-0.18 0.42112-0.38873 0.83876-0.60832 1.2491l-1.4076 3.2075c-3.2686-3.7475-10.792-3.6683-10.792-3.6683-13.73 0-15.987 12.43-15.987 12.43 0 2.7682 0.52922 4.9173 1.3608 6.5948h-29.339c-5.7345 0-2.7791-3.9058-2.7791-3.9058l2.4299-4.525c4.867-8.1643-2.9482-7.9952-2.9482-7.9952-2.9591 0-6.0837 1.6991-6.0837 1.6991l-5.3854 2.6963c4.3378-8.4344-4.867-8.4344-4.867-8.4344l-10.781 20.465h-37.244s-9.9427 0.73803-9.9427-3.9561c0 0 20.335 1.2203 23.802-2.6063 0 0 2.2571-0.86758 2.2571-6.0766 0 0 1.0476-7.8224-11.642-7.8224 0 0-20.465-0.16915-21.592 16.077 0 0 0.0322 0.35999 0.15837 0.94312-2.3291 2.2319-5.4141 2.4443-5.4141 2.4443h-29.187c-3.9166 0-2.088-2.869-2.088-2.869l3.4991-7.8836 7.7145-0.0288 0.011-0.011c0.20873 0.0399 0.44994 0 0.68029-0.10081 0.81002-0.35998 1.6092-0.73074 2.2571-1.3391 0.66961-0.64079 1.1484-1.5479 1.1484-2.4767 0-0.96839-0.52921-1.8899-1.3608-2.3795-0.32039-0.19076-0.6803-0.30954-1.0475-0.35999l-0.05-0.11878h-6.3178l7.0161-15.796c2.347-4.435-1.2996-5.4753-1.2996-5.4753-3.9059-2.8691-5.7345 1.0403-5.7345 1.0403l-7.8224 18.986c-0.17999 0.4212-0.38881 0.83875-0.6084 1.2492h-8.9024c-2.0771-0.10081-4.417 0.061-5.6445 1.9979-1.098 1.7171-0.4212 3.8554 1.4975 4.5682 0.91074 0.33836 1.9187 0.34913 2.8762 0.33836 0.77034-0.011 1.5371-0.022 2.3074-0.0288h0.0788l2.3867-0.011c-3.6358 3.499-7.2861 5.7453-7.2861 5.7453-5.4754 4.6978-9.3811 4.957-9.3811 4.957h-21.635c-4.6978 0-2.3471-4.165-2.3471-4.165l2.6063-5.2449c4.687-9.1436-3.6574-9.4028-3.6574-9.4028-4.9462 0-10.162 3.9562-10.162 3.9562-1.8287-4.6978-7.2933-3.9059-7.2933-3.9059l-8.3444 18.766h-25.552c-5.9937 0-1.8179-5.4754-1.8179-5.4754l4.9462-10.162-6.2566-3.1282-12.769 11.991c-7.9916 7.2068-13.427 7.25-13.546 7.25h-27.899c-4.9462 0-2.0772-4.3882-2.0772-4.3882l19.025-34.155c8.8628-16.419-5.7345-16.937-5.7345-16.937-11.21 0-22.683 10.94-22.683 10.94l-25.282 24.241 6.2566-13.031c9.122-20.076-9.9031-19.025-9.9031-19.025-6.5157 0-29.457 0.78119-29.457 0.78119-25.811 0-23.982 12.254-23.982 12.254 0 2.6062 1.5587 5.4753 1.5587 5.4753 1.5695 7.2933 35.192 5.2162 35.192 5.2162 5.9937-0.78839 5.2162-4.1758 5.2162-4.1758 0-3.9058-3.6467-3.1282-3.6467-3.1282h-21.113c-11.732 0-10.173-3.6466-10.173-3.6466 0-4.6978 19.295-5.2162 19.295-5.2162h25.022c10.162 0 5.2161 8.6036 5.2161 8.6036l-20.857 42.558h7.5524c44.58-52.68 56.521-54.458 59.696-55.07 4.435 0 1.5695 5.7345 1.5695 5.7345l-20.335 36.542c-3.3875 5.7958-3.6467 8.294-3.6467 8.294 0 4.4278 6.7749 4.4962 6.7749 4.4962h37.273c4.1758 0 5.2161-1.368 5.2161-1.368l7.5633-5.2162c-1.5696 7.5633 4.1686 6.5842 4.1686 6.5842h39.101c1.5695 0 2.0879-2.1492 2.0879-2.1492l4.2982-8.6036c5.7345-5.7345 9.0824-6.4364 9.0824-6.4364 2.4299 0 1.2204 1.3895 1.2204 1.3895l-2.3471 5.3061c-5.4754 10.94 2.088 10.494 2.088 10.494h34.144c3.3874 0 10.692-6.8433 10.692-6.8433 0 7.5524 4.345 6.8433 4.345 6.8433h35.534c4.2802 0 7.5884-1.854 9.5287-3.3083 1.7639 1.8323 4.471 3.3083 8.6252 3.3083h43.536c3.9958 0 5.3853-3.1463 5.3853-3.1463l3.8267-6.7857 3.4666-2.2571c4.5249-3.1282 6.0838-2.9878 6.0838-2.9878 3.1282 0 0.69836 2.8186 0.69836 2.8186l-2.2572 3.4774c-4.867 7.9953 0.16922 8.8844 0.16922 8.8844h42.226s1.4723-0.3204 2.4767-1.9008c2.5451 1.7568 5.1694 1.9008 5.1694 1.9008 4.6366 0 8.672-3.7978 10.583-5.9253 0.33845 6.5733 4.3271 5.9253 4.3271 5.9253h35.534s2.9338-0.05 5.1837-2.6423c1.6344 1.5587 4.0966 2.6854 7.8081 2.6854 0 0 14.248 2.1168 17.553-17.916 0 0 0.34193-9.9571-9.9103-9.9571zm-171.61 7.2537s3.4774-0.16922 3.4774 2.959c0 0 0.8675 3.2363-15.638 2.2572 0 0 3.6466-5.2162 12.16-5.2162zm101.4 11.692s-3.4774 0.16923-3.4774-3.4774c0 0 1.7387-6.6057 9.7339-6.6057 0 0 3.6574 0 4.867 1.5587 0 0-2.4335 8.5244-11.124 8.5244zm70.816-2.8259s-2.7791 6.2566-8.1681 6.2566c0 0-6.9512 0.34914-3.6502-7.124 0 0 2.4335-9.3848 9.3848-9.3848 0 0 8.5172-0.17635 2.4335 10.252zm-323.4-22.636a4.8238 4.3018 0 0 1-4.8238 4.3018 4.8238 4.3018 0 0 1-4.8237-4.3018 4.8238 4.3018 0 0 1 4.8237-4.3018 4.8238 4.3018 0 0 1 4.8238 4.3018z" fill="#e92616"/>
</svg>
