<svg xmlns="http://www.w3.org/2000/svg" width="600" height="664" viewBox="0 0 600 664" version="1.1"><path d="M 273.500 81.132 C 268.550 81.607, 262.025 82.494, 259 83.105 C 255.975 83.715, 251.250 84.564, 248.500 84.991 C 242.888 85.861, 234.248 88.295, 231.389 89.811 C 230.350 90.361, 227.127 91.299, 224.226 91.894 C 221.325 92.489, 217.725 93.845, 216.226 94.908 C 214.727 95.970, 211.181 97.312, 208.347 97.888 C 205.513 98.465, 201.013 100.210, 198.347 101.765 C 195.681 103.320, 191.025 105.634, 188 106.906 C 184.975 108.179, 181.825 109.782, 181 110.469 C 180.175 111.156, 176.125 113.682, 172 116.082 C 167.875 118.482, 163.912 121.246, 163.193 122.223 C 162.475 123.200, 161.404 124, 160.814 124 C 160.225 124, 158.045 125.463, 155.970 127.250 C 153.895 129.037, 150.186 131.970, 147.729 133.767 C 141.624 138.230, 119.706 160.027, 113.146 168.159 C 106.734 176.108, 96.494 190.516, 94.783 194 C 94.107 195.375, 91.768 199.425, 89.584 203 C 84.481 211.355, 77 225.971, 77 227.588 C 77 228.803, 74.034 234.994, 72.970 235.999 C 71.709 237.190, 62.948 266.433, 60.837 276.500 C 60.260 279.250, 59.386 282.281, 58.894 283.236 C 58.402 284.191, 58 286.669, 58 288.743 C 58 290.817, 57.592 293.936, 57.093 295.676 C 56.594 297.415, 55.640 307.087, 54.972 317.169 C 52.807 349.875, 56.805 388.034, 64.985 412.743 C 68.369 422.965, 72.094 433.412, 73.633 437 C 74.459 438.925, 75.495 441.400, 75.935 442.500 C 77.687 446.882, 83.419 458.530, 84.054 459 C 84.426 459.275, 85.077 460.625, 85.500 462 C 85.923 463.375, 87.499 466.300, 89.002 468.500 C 90.505 470.700, 92.941 474.525, 94.416 477 C 95.891 479.475, 99.539 484.875, 102.523 489 C 110.689 500.290, 113.354 504.218, 114.953 507.314 C 115.752 508.862, 117.327 511.002, 118.453 512.071 C 131.938 524.874, 143.061 535.038, 147.071 538.222 C 150.322 540.804, 152.212 542.187, 161.414 548.721 C 168.902 554.039, 181.522 561.942, 185 563.493 C 186.925 564.351, 189.625 565.720, 191 566.536 C 193.683 568.128, 207.933 575.093, 214.500 578.023 C 216.700 579.004, 220.525 580.308, 223 580.920 C 225.475 581.532, 229.975 582.749, 233 583.624 C 239.688 585.559, 249.916 587.886, 256.004 588.859 C 258.482 589.255, 261.050 589.913, 261.711 590.322 C 263.606 591.492, 289.238 593.448, 303 593.472 C 323.869 593.507, 332.719 592.509, 357 587.380 C 363.626 585.980, 375.491 582.202, 393 575.914 C 400.363 573.271, 413.596 566.540, 424 560.148 C 428.675 557.276, 433.398 554.380, 434.496 553.713 C 435.594 553.046, 438.069 551.337, 439.996 549.916 C 441.923 548.495, 444.175 547.066, 445 546.741 C 445.825 546.416, 450.778 542.404, 456.006 537.825 C 469.051 526.400, 469.460 526.024, 473.729 521.527 C 475.803 519.342, 478.625 516.417, 480.001 515.027 C 481.376 513.637, 483.785 510.609, 485.354 508.297 C 486.923 505.986, 489.186 503.453, 490.383 502.668 C 491.581 501.884, 493.897 499.275, 495.530 496.871 C 497.164 494.467, 499.021 492.050, 499.657 491.500 C 504.154 487.614, 521.817 454.441, 528.410 437.500 C 530.978 430.900, 533.677 424.148, 534.406 422.496 C 535.136 420.844, 536.064 417.919, 536.468 415.996 C 536.873 414.073, 538.059 409.800, 539.105 406.500 C 541.356 399.396, 543.849 388.657, 545.027 381 C 545.492 377.975, 546.376 372.800, 546.991 369.500 C 547.661 365.907, 548.111 351.175, 548.113 332.774 C 548.116 307.606, 547.846 301.455, 546.619 298.774 C 545.796 296.973, 544.930 293.025, 544.695 290 C 544.460 286.975, 542.635 278.200, 540.639 270.500 C 537.297 257.605, 536.067 253.851, 532.448 245.500 C 531.733 243.850, 530.440 240.857, 529.574 238.849 C 528.708 236.841, 528 234.280, 528 233.158 C 528 232.036, 527.597 230.869, 527.104 230.564 C 525.832 229.778, 520 218.366, 520 216.663 C 520 215.883, 519.320 214.680, 518.488 213.990 C 517.657 213.300, 516.123 210.805, 515.079 208.446 C 511.006 199.238, 496.534 178.769, 485.514 166.629 C 483.581 164.500, 482 162.323, 482 161.790 C 482 160.892, 472.362 151.149, 460.500 140.055 C 451.719 131.843, 443.569 125.292, 441.218 124.558 C 439.963 124.166, 437.846 122.755, 436.513 121.422 C 435.181 120.090, 433.496 119, 432.769 119 C 432.041 119, 429.053 117.202, 426.128 115.004 C 419.932 110.348, 397.622 99.132, 387.500 95.584 C 383.650 94.234, 376.675 91.704, 372 89.961 C 367.325 88.218, 359.675 86.179, 355 85.430 C 350.325 84.681, 341.383 83.153, 335.129 82.034 C 325.875 80.379, 319.917 80.025, 303.129 80.135 C 291.783 80.209, 278.450 80.658, 273.500 81.132 M 298.924 93.409 C 298.615 93.719, 294.025 94.180, 288.725 94.435 C 283.424 94.691, 277.380 95.330, 275.294 95.857 C 273.207 96.383, 268.145 97.117, 264.044 97.488 C 259.943 97.858, 255.443 98.728, 254.044 99.420 C 252.645 100.112, 248.125 101.269, 244 101.990 C 239.875 102.712, 234.025 104.405, 231 105.753 C 227.975 107.101, 224.070 108.437, 222.323 108.721 C 220.576 109.005, 217.903 110.535, 216.384 112.121 C 213.713 114.909, 213.685 115.049, 215.528 116.397 C 216.577 117.164, 219.924 118.088, 222.967 118.451 C 230.311 119.327, 237.707 121.307, 239.196 122.796 C 239.858 123.458, 241.024 124, 241.788 124 C 244.480 124, 256.560 131.356, 261.330 135.899 C 273.259 147.263, 283.246 163.367, 284.339 173 C 284.683 176.025, 285.355 181.650, 285.834 185.500 C 286.313 189.350, 286.791 219.034, 286.896 251.465 C 287.001 283.895, 287.491 312.245, 287.983 314.465 C 288.476 316.684, 288.592 325.925, 288.242 335 C 287.534 353.337, 287.539 356.388, 288.361 421 C 288.680 446.025, 289.198 467.850, 289.513 469.500 C 289.902 471.542, 291.639 473.698, 294.952 476.251 L 299.818 480.003 300.159 490.372 C 300.347 496.076, 300.348 505.990, 300.163 512.405 C 299.855 523.063, 299.640 524.190, 297.663 525.481 C 295.191 527.096, 279.924 527.498, 255.500 526.591 C 242.929 526.124, 240.298 525.757, 239.250 524.326 C 238.273 522.991, 237.993 503.286, 237.967 434.059 C 237.948 385.351, 237.628 323.900, 237.256 297.500 C 236.883 271.100, 236.724 242.750, 236.902 234.500 C 237.868 189.731, 237.893 189.894, 228.808 181.483 C 225.551 178.467, 222.292 176, 221.565 176 C 220.839 176, 219.714 175.360, 219.065 174.578 C 217.028 172.124, 210.543 171.661, 204.765 173.558 C 197.206 176.040, 192.746 179.941, 189.725 186.713 C 186.569 193.786, 186.355 198.803, 187.877 230 C 188.955 252.080, 192.335 425.794, 191.992 441.500 C 191.896 445.900, 192.120 464.125, 192.491 482 C 193.228 517.571, 192.847 524.476, 190.069 525.963 C 189.087 526.488, 183.480 527.229, 177.609 527.609 C 171.737 527.988, 166.671 528.724, 166.350 529.243 C 165.361 530.843, 175.146 538.857, 182 542.060 C 185.575 543.731, 189.852 546.407, 191.504 548.006 C 193.156 549.606, 196.448 551.599, 198.819 552.436 C 201.190 553.273, 204.287 554.867, 205.700 555.979 C 207.113 557.090, 208.943 558, 209.767 558 C 210.590 558, 212.892 559.013, 214.882 560.250 C 216.872 561.487, 220.300 563.007, 222.500 563.626 C 226.233 564.677, 229.094 565.656, 246 571.664 C 249.957 573.070, 257.978 574.573, 266.500 575.504 C 274.200 576.346, 283.022 577.522, 286.105 578.119 C 289.252 578.728, 295.829 578.952, 301.105 578.630 C 332.366 576.724, 339.618 575.742, 357 571.065 C 361.125 569.955, 365.936 569.036, 367.691 569.024 C 369.446 569.011, 371.111 568.630, 371.391 568.177 C 371.670 567.724, 376.309 565.603, 381.700 563.464 C 387.090 561.324, 393.319 558.362, 395.543 556.881 C 397.767 555.400, 401.453 553.686, 403.733 553.072 C 406.014 552.458, 408.920 551.068, 410.190 549.983 C 413.488 547.167, 419.929 543, 420.984 543 C 421.476 543, 423.955 541.203, 426.492 539.007 C 429.030 536.811, 432.034 534.517, 433.170 533.909 C 435.006 532.926, 435.068 532.639, 433.730 531.301 C 431.991 529.563, 425.110 529.228, 377.740 528.577 C 350.520 528.204, 346.550 527.945, 343.240 526.328 L 339.500 524.500 338.725 508.500 C 337.395 481.034, 338.683 476.786, 348.735 475.492 C 351.906 475.084, 364.118 474.816, 375.874 474.897 C 400.047 475.063, 403.565 474.672, 405.209 471.634 C 406.549 469.157, 407.762 441.102, 407.009 430.008 C 406.544 423.164, 406.276 422.410, 403.908 421.279 C 401.799 420.273, 399.931 420.336, 393.908 421.616 C 386.050 423.286, 373.566 422.966, 371.645 421.045 C 371.070 420.470, 369.382 420, 367.893 420 C 361.191 420, 349.495 412.746, 336.452 400.500 C 333.315 397.555, 327 386.877, 327 384.519 C 327 383.859, 325.668 380.654, 324.040 377.395 C 318.265 365.840, 317.709 361.534, 317.717 328.500 C 317.727 291.638, 318.490 248.369, 320.003 199 C 321.190 160.250, 321.610 156.656, 326.155 146.382 C 328.380 141.351, 341.855 127.105, 346.750 124.607 C 348.538 123.695, 350 122.593, 350 122.158 C 350 120.956, 357.053 117.312, 361 116.475 C 362.925 116.067, 366.068 114.893, 367.985 113.867 C 369.902 112.840, 372.265 112, 373.235 112 C 376.292 112, 375.131 109.569, 371.239 107.819 C 369.182 106.895, 363.549 104.693, 358.720 102.925 C 353.891 101.158, 349.702 99.327, 349.411 98.856 C 349.120 98.385, 346.321 97.985, 343.191 97.967 C 340.061 97.949, 334.350 97.503, 330.500 96.975 C 326.650 96.448, 319.450 95.591, 314.500 95.071 C 309.550 94.551, 304.147 93.838, 302.493 93.486 C 300.839 93.135, 299.233 93.100, 298.924 93.409 M 442 149.040 C 442 149.612, 442.889 151.822, 443.976 153.952 C 447.606 161.068, 451 171.199, 451 174.919 C 451 176.944, 451.401 179.027, 451.890 179.550 C 452.380 180.072, 453.543 184.325, 454.475 189 C 456.011 196.704, 456.203 211.216, 456.526 344 C 456.722 424.575, 457.189 493.875, 457.564 498 C 458.330 506.436, 459.305 509, 461.749 509 C 463.480 509, 482 490.778, 482 489.075 C 482 488.549, 484.700 484.762, 488 480.660 C 491.300 476.558, 494 472.761, 494 472.223 C 494 471.685, 494.661 470.696, 495.469 470.026 C 496.277 469.355, 499.222 464.026, 502.012 458.184 C 504.803 452.342, 507.663 446.873, 508.367 446.031 C 511.508 442.275, 522 414.522, 522 409.969 C 522 408.951, 522.399 407.871, 522.887 407.570 C 523.374 407.269, 524.076 405.330, 524.447 403.261 C 524.818 401.192, 525.517 398.150, 526.001 396.500 C 526.485 394.850, 527.613 388.325, 528.507 382 C 529.402 375.675, 530.779 366.963, 531.567 362.640 C 533.417 352.493, 533.389 328.871, 531.515 318.500 C 530.720 314.100, 530.054 308.002, 530.035 304.949 C 530 299.456, 527.659 287.640, 524.496 277 C 523.597 273.975, 522.475 270.150, 522.002 268.500 C 520.620 263.675, 518.300 256.700, 517.180 254 C 516.609 252.625, 514.924 248.125, 513.434 244 C 511.944 239.875, 509.887 234.612, 508.863 232.305 C 507.838 229.998, 507 227.626, 507 227.035 C 507 226.444, 505.875 224.178, 504.500 222 C 503.125 219.822, 502 217.557, 502 216.967 C 502 216.376, 499.474 212.478, 496.387 208.304 C 493.300 204.129, 490.037 199.091, 489.137 197.107 C 487.513 193.528, 481.698 185.722, 475.649 179 C 473.917 177.075, 471.311 173.925, 469.859 172 C 468.406 170.075, 466.381 167.733, 465.359 166.796 C 464.336 165.859, 462.391 164.059, 461.036 162.796 C 459.681 161.533, 455.915 158.612, 452.669 156.305 C 449.422 153.997, 446.117 151.185, 445.326 150.055 C 443.793 147.866, 442 147.319, 442 149.040 M 376.661 158.325 C 371.022 159.899, 362.733 169.663, 360.495 177.365 C 359.016 182.456, 358.873 186.289, 359.415 206.365 C 360.608 250.615, 361.041 273.731, 361.400 312.500 C 361.819 357.636, 361.753 357.272, 370.977 364.724 C 376.732 369.374, 380.765 370.562, 387.404 369.567 C 391.025 369.024, 392.867 367.847, 397.898 362.862 C 401.254 359.537, 404.003 356.295, 404.006 355.658 C 404.010 355.021, 404.733 353.150, 405.615 351.500 C 407.050 348.813, 407.206 339.866, 407.111 265.688 C 407.042 212.487, 406.646 182.207, 406.002 181.004 C 405.451 179.974, 405 178.479, 405 177.681 C 405 176.883, 404.246 173.896, 403.325 171.043 C 401.194 164.446, 396.013 159.808, 388.952 158.178 C 383.119 156.832, 381.958 156.846, 376.661 158.325 M 129.231 173.750 C 114.953 188.985, 95.697 219.983, 87.766 240.500 C 86.916 242.700, 85.082 247.425, 83.691 251 C 81.213 257.371, 79.271 263.518, 77.215 271.500 C 76.649 273.700, 75.486 277.975, 74.631 281 C 70.549 295.446, 69.809 303.692, 69.921 333.500 C 69.983 350.180, 70.462 363.825, 71.049 365.619 C 71.610 367.334, 72.469 372.509, 72.958 377.119 C 74.205 388.877, 76.871 401.147, 80.102 410 C 82.885 417.625, 90.152 436.288, 90.945 437.846 C 91.407 438.756, 93.478 443.325, 95.547 448 C 97.615 452.675, 100.138 457.429, 101.154 458.564 C 102.169 459.700, 103 461.300, 103 462.119 C 103 462.939, 105.025 466.485, 107.500 470 C 109.975 473.515, 112 476.952, 112 477.639 C 112 478.325, 112.806 479.475, 113.791 480.193 C 114.776 480.912, 116.685 483.075, 118.032 485 C 120.396 488.375, 127.362 496.546, 132.740 502.250 C 138.589 508.453, 138.331 512.783, 137.599 420.750 C 136.579 292.621, 136.507 214.853, 137.385 190.250 C 138.313 164.229, 138.259 164.117, 129.231 173.750" stroke="none" fill="#fbf5f5" fill-rule="evenodd"/><path d="M 0 332.002 L 0 664.003 300.250 663.752 L 600.500 663.500 600.751 331.750 L 601.003 0 300.501 0 L 0 0 0 332.002 M 0.494 332.500 C 0.494 515.100, 0.609 589.651, 0.750 498.169 C 0.891 406.687, 0.891 257.287, 0.750 166.169 C 0.609 75.051, 0.494 149.900, 0.494 332.500 M 273.500 81.132 C 268.550 81.607, 262.025 82.494, 259 83.105 C 255.975 83.715, 251.250 84.564, 248.500 84.991 C 242.888 85.861, 234.248 88.295, 231.389 89.811 C 230.350 90.361, 227.127 91.299, 224.226 91.894 C 221.325 92.489, 217.725 93.845, 216.226 94.908 C 214.727 95.970, 211.181 97.312, 208.347 97.888 C 205.513 98.465, 201.013 100.210, 198.347 101.765 C 195.681 103.320, 191.025 105.634, 188 106.906 C 184.975 108.179, 181.825 109.782, 181 110.469 C 180.175 111.156, 176.125 113.682, 172 116.082 C 167.875 118.482, 163.912 121.246, 163.193 122.223 C 162.475 123.200, 161.404 124, 160.814 124 C 160.225 124, 158.045 125.463, 155.970 127.250 C 153.895 129.037, 150.186 131.970, 147.729 133.767 C 141.624 138.230, 119.706 160.027, 113.146 168.159 C 106.734 176.108, 96.494 190.516, 94.783 194 C 94.107 195.375, 91.768 199.425, 89.584 203 C 84.481 211.355, 77 225.971, 77 227.588 C 77 228.803, 74.034 234.994, 72.970 235.999 C 71.709 237.190, 62.948 266.433, 60.837 276.500 C 60.260 279.250, 59.386 282.281, 58.894 283.236 C 58.402 284.191, 58 286.669, 58 288.743 C 58 290.817, 57.592 293.936, 57.093 295.676 C 56.594 297.415, 55.640 307.087, 54.972 317.169 C 52.807 349.875, 56.805 388.034, 64.985 412.743 C 68.369 422.965, 72.094 433.412, 73.633 437 C 74.459 438.925, 75.495 441.400, 75.935 442.500 C 77.687 446.882, 83.419 458.530, 84.054 459 C 84.426 459.275, 85.077 460.625, 85.500 462 C 85.923 463.375, 87.499 466.300, 89.002 468.500 C 90.505 470.700, 92.941 474.525, 94.416 477 C 95.891 479.475, 99.539 484.875, 102.523 489 C 110.689 500.290, 113.354 504.218, 114.953 507.314 C 115.752 508.862, 117.327 511.002, 118.453 512.071 C 131.938 524.874, 143.061 535.038, 147.071 538.222 C 150.322 540.804, 152.212 542.187, 161.414 548.721 C 168.902 554.039, 181.522 561.942, 185 563.493 C 186.925 564.351, 189.625 565.720, 191 566.536 C 193.683 568.128, 207.933 575.093, 214.500 578.023 C 216.700 579.004, 220.525 580.308, 223 580.920 C 225.475 581.532, 229.975 582.749, 233 583.624 C 239.688 585.559, 249.916 587.886, 256.004 588.859 C 258.482 589.255, 261.050 589.913, 261.711 590.322 C 263.606 591.492, 289.238 593.448, 303 593.472 C 323.869 593.507, 332.719 592.509, 357 587.380 C 363.626 585.980, 375.491 582.202, 393 575.914 C 400.363 573.271, 413.596 566.540, 424 560.148 C 428.675 557.276, 433.398 554.380, 434.496 553.713 C 435.594 553.046, 438.069 551.337, 439.996 549.916 C 441.923 548.495, 444.175 547.066, 445 546.741 C 445.825 546.416, 450.778 542.404, 456.006 537.825 C 469.051 526.400, 469.460 526.024, 473.729 521.527 C 475.803 519.342, 478.625 516.417, 480.001 515.027 C 481.376 513.637, 483.785 510.609, 485.354 508.297 C 486.923 505.986, 489.186 503.453, 490.383 502.668 C 491.581 501.884, 493.897 499.275, 495.530 496.871 C 497.164 494.467, 499.021 492.050, 499.657 491.500 C 504.154 487.614, 521.817 454.441, 528.410 437.500 C 530.978 430.900, 533.677 424.148, 534.406 422.496 C 535.136 420.844, 536.064 417.919, 536.468 415.996 C 536.873 414.073, 538.059 409.800, 539.105 406.500 C 541.356 399.396, 543.849 388.657, 545.027 381 C 545.492 377.975, 546.376 372.800, 546.991 369.500 C 547.661 365.907, 548.111 351.175, 548.113 332.774 C 548.116 307.606, 547.846 301.455, 546.619 298.774 C 545.796 296.973, 544.930 293.025, 544.695 290 C 544.460 286.975, 542.635 278.200, 540.639 270.500 C 537.297 257.605, 536.067 253.851, 532.448 245.500 C 531.733 243.850, 530.440 240.857, 529.574 238.849 C 528.708 236.841, 528 234.280, 528 233.158 C 528 232.036, 527.597 230.869, 527.104 230.564 C 525.832 229.778, 520 218.366, 520 216.663 C 520 215.883, 519.320 214.680, 518.488 213.990 C 517.657 213.300, 516.123 210.805, 515.079 208.446 C 511.006 199.238, 496.534 178.769, 485.514 166.629 C 483.581 164.500, 482 162.323, 482 161.790 C 482 160.892, 472.362 151.149, 460.500 140.055 C 451.719 131.843, 443.569 125.292, 441.218 124.558 C 439.963 124.166, 437.846 122.755, 436.513 121.422 C 435.181 120.090, 433.496 119, 432.769 119 C 432.041 119, 429.053 117.202, 426.128 115.004 C 419.932 110.348, 397.622 99.132, 387.500 95.584 C 383.650 94.234, 376.675 91.704, 372 89.961 C 367.325 88.218, 359.675 86.179, 355 85.430 C 350.325 84.681, 341.383 83.153, 335.129 82.034 C 325.875 80.379, 319.917 80.025, 303.129 80.135 C 291.783 80.209, 278.450 80.658, 273.500 81.132 M 298.924 93.409 C 298.615 93.719, 294.025 94.180, 288.725 94.435 C 283.424 94.691, 277.380 95.330, 275.294 95.857 C 273.207 96.383, 268.145 97.117, 264.044 97.488 C 259.943 97.858, 255.443 98.728, 254.044 99.420 C 252.645 100.112, 248.125 101.269, 244 101.990 C 239.875 102.712, 234.025 104.405, 231 105.753 C 227.975 107.101, 224.070 108.437, 222.323 108.721 C 220.576 109.005, 217.903 110.535, 216.384 112.121 C 213.713 114.909, 213.685 115.049, 215.528 116.397 C 216.577 117.164, 219.924 118.088, 222.967 118.451 C 230.311 119.327, 237.707 121.307, 239.196 122.796 C 239.858 123.458, 241.024 124, 241.788 124 C 244.480 124, 256.560 131.356, 261.330 135.899 C 273.259 147.263, 283.246 163.367, 284.339 173 C 284.683 176.025, 285.355 181.650, 285.834 185.500 C 286.313 189.350, 286.791 219.034, 286.896 251.465 C 287.001 283.895, 287.491 312.245, 287.983 314.465 C 288.476 316.684, 288.592 325.925, 288.242 335 C 287.534 353.337, 287.539 356.388, 288.361 421 C 288.680 446.025, 289.198 467.850, 289.513 469.500 C 289.902 471.542, 291.639 473.698, 294.952 476.251 L 299.818 480.003 300.159 490.372 C 300.347 496.076, 300.348 505.990, 300.163 512.405 C 299.855 523.063, 299.640 524.190, 297.663 525.481 C 295.191 527.096, 279.924 527.498, 255.500 526.591 C 242.929 526.124, 240.298 525.757, 239.250 524.326 C 238.273 522.991, 237.993 503.286, 237.967 434.059 C 237.948 385.351, 237.628 323.900, 237.256 297.500 C 236.883 271.100, 236.724 242.750, 236.902 234.500 C 237.868 189.731, 237.893 189.894, 228.808 181.483 C 225.551 178.467, 222.292 176, 221.565 176 C 220.839 176, 219.714 175.360, 219.065 174.578 C 217.028 172.124, 210.543 171.661, 204.765 173.558 C 197.206 176.040, 192.746 179.941, 189.725 186.713 C 186.569 193.786, 186.355 198.803, 187.877 230 C 188.955 252.080, 192.335 425.794, 191.992 441.500 C 191.896 445.900, 192.120 464.125, 192.491 482 C 193.228 517.571, 192.847 524.476, 190.069 525.963 C 189.087 526.488, 183.480 527.229, 177.609 527.609 C 171.737 527.988, 166.671 528.724, 166.350 529.243 C 165.361 530.843, 175.146 538.857, 182 542.060 C 185.575 543.731, 189.852 546.407, 191.504 548.006 C 193.156 549.606, 196.448 551.599, 198.819 552.436 C 201.190 553.273, 204.287 554.867, 205.700 555.979 C 207.113 557.090, 208.943 558, 209.767 558 C 210.590 558, 212.892 559.013, 214.882 560.250 C 216.872 561.487, 220.300 563.007, 222.500 563.626 C 226.233 564.677, 229.094 565.656, 246 571.664 C 249.957 573.070, 257.978 574.573, 266.500 575.504 C 274.200 576.346, 283.022 577.522, 286.105 578.119 C 289.252 578.728, 295.829 578.952, 301.105 578.630 C 332.366 576.724, 339.618 575.742, 357 571.065 C 361.125 569.955, 365.936 569.036, 367.691 569.024 C 369.446 569.011, 371.111 568.630, 371.391 568.177 C 371.670 567.724, 376.309 565.603, 381.700 563.464 C 387.090 561.324, 393.319 558.362, 395.543 556.881 C 397.767 555.400, 401.453 553.686, 403.733 553.072 C 406.014 552.458, 408.920 551.068, 410.190 549.983 C 413.488 547.167, 419.929 543, 420.984 543 C 421.476 543, 423.955 541.203, 426.492 539.007 C 429.030 536.811, 432.034 534.517, 433.170 533.909 C 435.006 532.926, 435.068 532.639, 433.730 531.301 C 431.991 529.563, 425.110 529.228, 377.740 528.577 C 350.520 528.204, 346.550 527.945, 343.240 526.328 L 339.500 524.500 338.725 508.500 C 337.395 481.034, 338.683 476.786, 348.735 475.492 C 351.906 475.084, 364.118 474.816, 375.874 474.897 C 400.047 475.063, 403.565 474.672, 405.209 471.634 C 406.549 469.157, 407.762 441.102, 407.009 430.008 C 406.544 423.164, 406.276 422.410, 403.908 421.279 C 401.799 420.273, 399.931 420.336, 393.908 421.616 C 386.050 423.286, 373.566 422.966, 371.645 421.045 C 371.070 420.470, 369.382 420, 367.893 420 C 361.191 420, 349.495 412.746, 336.452 400.500 C 333.315 397.555, 327 386.877, 327 384.519 C 327 383.859, 325.668 380.654, 324.040 377.395 C 318.265 365.840, 317.709 361.534, 317.717 328.500 C 317.727 291.638, 318.490 248.369, 320.003 199 C 321.190 160.250, 321.610 156.656, 326.155 146.382 C 328.380 141.351, 341.855 127.105, 346.750 124.607 C 348.538 123.695, 350 122.593, 350 122.158 C 350 120.956, 357.053 117.312, 361 116.475 C 362.925 116.067, 366.068 114.893, 367.985 113.867 C 369.902 112.840, 372.265 112, 373.235 112 C 376.292 112, 375.131 109.569, 371.239 107.819 C 369.182 106.895, 363.549 104.693, 358.720 102.925 C 353.891 101.158, 349.702 99.327, 349.411 98.856 C 349.120 98.385, 346.321 97.985, 343.191 97.967 C 340.061 97.949, 334.350 97.503, 330.500 96.975 C 326.650 96.448, 319.450 95.591, 314.500 95.071 C 309.550 94.551, 304.147 93.838, 302.493 93.486 C 300.839 93.135, 299.233 93.100, 298.924 93.409 M 442 149.040 C 442 149.612, 442.889 151.822, 443.976 153.952 C 447.606 161.068, 451 171.199, 451 174.919 C 451 176.944, 451.401 179.027, 451.890 179.550 C 452.380 180.072, 453.543 184.325, 454.475 189 C 456.011 196.704, 456.203 211.216, 456.526 344 C 456.722 424.575, 457.189 493.875, 457.564 498 C 458.330 506.436, 459.305 509, 461.749 509 C 463.480 509, 482 490.778, 482 489.075 C 482 488.549, 484.700 484.762, 488 480.660 C 491.300 476.558, 494 472.761, 494 472.223 C 494 471.685, 494.661 470.696, 495.469 470.026 C 496.277 469.355, 499.222 464.026, 502.012 458.184 C 504.803 452.342, 507.663 446.873, 508.367 446.031 C 511.508 442.275, 522 414.522, 522 409.969 C 522 408.951, 522.399 407.871, 522.887 407.570 C 523.374 407.269, 524.076 405.330, 524.447 403.261 C 524.818 401.192, 525.517 398.150, 526.001 396.500 C 526.485 394.850, 527.613 388.325, 528.507 382 C 529.402 375.675, 530.779 366.963, 531.567 362.640 C 533.417 352.493, 533.389 328.871, 531.515 318.500 C 530.720 314.100, 530.054 308.002, 530.035 304.949 C 530 299.456, 527.659 287.640, 524.496 277 C 523.597 273.975, 522.475 270.150, 522.002 268.500 C 520.620 263.675, 518.300 256.700, 517.180 254 C 516.609 252.625, 514.924 248.125, 513.434 244 C 511.944 239.875, 509.887 234.612, 508.863 232.305 C 507.838 229.998, 507 227.626, 507 227.035 C 507 226.444, 505.875 224.178, 504.500 222 C 503.125 219.822, 502 217.557, 502 216.967 C 502 216.376, 499.474 212.478, 496.387 208.304 C 493.300 204.129, 490.037 199.091, 489.137 197.107 C 487.513 193.528, 481.698 185.722, 475.649 179 C 473.917 177.075, 471.311 173.925, 469.859 172 C 468.406 170.075, 466.381 167.733, 465.359 166.796 C 464.336 165.859, 462.391 164.059, 461.036 162.796 C 459.681 161.533, 455.915 158.612, 452.669 156.305 C 449.422 153.997, 446.117 151.185, 445.326 150.055 C 443.793 147.866, 442 147.319, 442 149.040 M 376.661 158.325 C 371.022 159.899, 362.733 169.663, 360.495 177.365 C 359.016 182.456, 358.873 186.289, 359.415 206.365 C 360.608 250.615, 361.041 273.731, 361.400 312.500 C 361.819 357.636, 361.753 357.272, 370.977 364.724 C 376.732 369.374, 380.765 370.562, 387.404 369.567 C 391.025 369.024, 392.867 367.847, 397.898 362.862 C 401.254 359.537, 404.003 356.295, 404.006 355.658 C 404.010 355.021, 404.733 353.150, 405.615 351.500 C 407.050 348.813, 407.206 339.866, 407.111 265.688 C 407.042 212.487, 406.646 182.207, 406.002 181.004 C 405.451 179.974, 405 178.479, 405 177.681 C 405 176.883, 404.246 173.896, 403.325 171.043 C 401.194 164.446, 396.013 159.808, 388.952 158.178 C 383.119 156.832, 381.958 156.846, 376.661 158.325 M 129.231 173.750 C 114.953 188.985, 95.697 219.983, 87.766 240.500 C 86.916 242.700, 85.082 247.425, 83.691 251 C 81.213 257.371, 79.271 263.518, 77.215 271.500 C 76.649 273.700, 75.486 277.975, 74.631 281 C 70.549 295.446, 69.809 303.692, 69.921 333.500 C 69.983 350.180, 70.462 363.825, 71.049 365.619 C 71.610 367.334, 72.469 372.509, 72.958 377.119 C 74.205 388.877, 76.871 401.147, 80.102 410 C 82.885 417.625, 90.152 436.288, 90.945 437.846 C 91.407 438.756, 93.478 443.325, 95.547 448 C 97.615 452.675, 100.138 457.429, 101.154 458.564 C 102.169 459.700, 103 461.300, 103 462.119 C 103 462.939, 105.025 466.485, 107.500 470 C 109.975 473.515, 112 476.952, 112 477.639 C 112 478.325, 112.806 479.475, 113.791 480.193 C 114.776 480.912, 116.685 483.075, 118.032 485 C 120.396 488.375, 127.362 496.546, 132.740 502.250 C 138.589 508.453, 138.331 512.783, 137.599 420.750 C 136.579 292.621, 136.507 214.853, 137.385 190.250 C 138.313 164.229, 138.259 164.117, 129.231 173.750" stroke="none" fill="#fa0707" fill-rule="evenodd"/></svg>