<?xml version="1.0" encoding="UTF-8" standalone="no"?>
<svg
   xmlns:dc="http://purl.org/dc/elements/1.1/"
   xmlns:cc="http://creativecommons.org/ns#"
   xmlns:rdf="http://www.w3.org/1999/02/22-rdf-syntax-ns#"
   xmlns:svg="http://www.w3.org/2000/svg"
   xmlns="http://www.w3.org/2000/svg"
   xmlns:sodipodi="http://sodipodi.sourceforge.net/DTD/sodipodi-0.dtd"
   xmlns:inkscape="http://www.inkscape.org/namespaces/inkscape"
   version="1.1"
   id="svg5102"
   x="0px"
   y="0px"
   width="1000"
   height="344.11902"
   viewBox="0.002 14.004 1000 344.119"
   enable-background="new 0.002 14.004 999.996 543.861"
   xml:space="preserve"
   sodipodi:docname="Netflix_2000.svg"
   inkscape:version="1.0.2 (e86c870879, 2021-01-15)"><metadata
   id="metadata54"><rdf:RDF><cc:Work
       rdf:about=""><dc:format>image/svg+xml</dc:format><dc:type
         rdf:resource="http://purl.org/dc/dcmitype/StillImage" /><dc:title></dc:title></cc:Work></rdf:RDF></metadata><defs
   id="defs52" /><sodipodi:namedview
   pagecolor="#ffffff"
   bordercolor="#666666"
   borderopacity="1"
   objecttolerance="10"
   gridtolerance="10"
   guidetolerance="10"
   inkscape:pageopacity="0"
   inkscape:pageshadow="2"
   inkscape:window-width="1366"
   inkscape:window-height="705"
   id="namedview50"
   showgrid="false"
   inkscape:zoom="0.70710678"
   inkscape:cx="644.26462"
   inkscape:cy="233.09682"
   inkscape:window-x="-8"
   inkscape:window-y="-8"
   inkscape:window-maximized="1"
   inkscape:current-layer="svg5102" />

<g
   id="g151"><g
     id="g125"><path
       style="fill:#fddf00;stroke-width:0.497735"
       d="m 860.32345,347.82247 c -2.88896,-0.48639 -3.97676,-1.06659 -5.58658,-2.97981 -3.7363,-4.4403 -0.71818,-11.32515 6.97645,-15.91451 6.27555,-3.74297 18.75033,-14.52919 31.05106,-26.84796 36.3255,-36.37893 54.22883,-74.67943 54.22883,-116.01159 0,-41.33216 -17.90333,-79.63265 -54.22883,-116.011579 -12.30073,-12.318778 -24.77551,-23.104991 -31.05106,-26.847959 -5.65949,-3.375544 -9.31232,-8.757867 -8.58279,-12.646547 0.34672,-1.848294 2.22756,-4.435447 3.85944,-5.308787 2.76063,-1.477447 10.6029,-1.359872 13.78347,0.206649 20.60798,10.149983 44.4691,25.864141 64.27413,42.328854 8.62644,7.171511 25.54222,23.988252 31.138,30.955771 18.3736,22.877478 29.05335,45.577508 32.9202,69.972648 0.67732,4.27315 0.89623,8.5111 0.89623,17.35095 0,8.83986 -0.21891,13.0778 -0.89623,17.35095 -3.86685,24.39515 -14.5466,47.09517 -32.9202,69.97266 -5.59578,6.96751 -22.51156,23.78426 -31.138,30.95577 -19.73714,16.40828 -44.34088,32.61311 -64.20783,42.28939 -1.18038,0.5749 -3.39515,1.03879 -6.71942,1.40739 -0.82126,0.0911 -2.52984,-0.009 -3.79687,-0.22229 z"
       id="path103" /><path
       style="fill:#fddf00;stroke-width:0.497735"
       d="m 133.54769,347.77921 c -1.58618,-0.22777 -3.49002,-0.71423 -4.23075,-1.08102 C 108.32954,336.30599 84.847046,320.84208 65.006664,304.34798 56.380209,297.17647 39.464459,280.35972 33.868637,273.39221 15.495046,250.51472 4.815326,227.8147 0.94847598,203.41955 c -1.26196745,-7.96148 -1.26196745,-26.74041 0,-34.7019 C 4.815326,144.32251 15.495046,121.62248 33.868637,98.745002 39.464459,91.777483 56.380209,74.960742 65.006664,67.789231 84.811702,51.324518 108.67281,35.61036 129.28077,25.460377 c 3.18058,-1.566521 11.02287,-1.684096 13.78352,-0.206649 1.63184,0.87334 3.51267,3.460493 3.85941,5.308787 0.72952,3.88868 -2.92328,9.271003 -8.58279,12.646547 -6.27553,3.742968 -18.75034,14.529181 -31.05104,26.847959 C 70.964334,106.43595 53.061023,144.73644 53.061023,186.0686 c 0,41.33216 17.903311,79.63266 54.228847,116.01159 12.3007,12.31877 24.77551,23.10499 31.05104,26.84796 5.67727,3.38613 9.31259,8.75638 8.57804,12.67183 -0.90143,4.80504 -6.12633,7.21961 -13.37126,6.17923 z"
       id="path46" /></g><path
     style="fill:#000000;stroke-width:0.497735"
     d="m 461.45265,357.72694 c -113.81123,-4.5485 -216.4848,-27.12153 -288.40274,-63.40602 -13.02442,-6.57115 -20.55107,-10.89765 -31.14318,-17.90178 -31.6743,-20.94496 -50.924084,-42.85678 -59.456089,-67.67821 -2.708142,-7.87856 -3.654983,-13.75194 -3.654983,-22.67233 0,-8.92038 0.946841,-14.79376 3.654983,-22.67233 8.532005,-24.82143 27.781789,-46.73324 59.456089,-67.678199 69.83016,-46.175907 186.95379,-75.957253 319.79479,-81.315097 13.18938,-0.531965 63.46181,-0.531965 76.6512,0 114.36518,4.61266 216.63879,27.080953 288.65159,63.413309 13.02444,6.571158 20.55109,10.897651 31.14319,17.901788 31.67432,20.944959 50.92407,42.856769 59.4561,67.678199 2.70812,7.87857 3.65496,13.75195 3.65496,22.67233 0,8.92039 -0.94684,14.79377 -3.65496,22.67233 -8.53203,24.82143 -27.78178,46.73325 -59.4561,67.67821 -69.82999,46.1758 -186.95761,75.95814 -319.79478,81.31503 -12.9444,0.52201 -63.77724,0.51723 -76.90007,-0.007 z"
     id="path40" /><g
     id="g136"><path
       id="rect60"
       style="fill:#fddf00;fill-opacity:1;stroke-width:0.497735"
       d="m 677.24219,43.90625 c -12.65884,0 -22.84961,10.192725 -22.84961,22.851562 v 33.167969 c 0,12.658839 10.19077,22.849609 22.84961,22.849609 h 52.60742 c 12.65884,0 22.84961,-10.19077 22.84961,-22.849609 V 66.757812 c 0,-12.658837 -10.19077,-22.851562 -22.84961,-22.851562 z m 8.36914,6.291016 h 36.28711 c 13.81773,0 24.9414,11.12368 24.9414,24.941406 v 16.49414 c 0,13.817728 -11.12367,24.941408 -24.9414,24.941408 h -36.28711 c -13.81773,0 -24.94141,-11.12368 -24.94141,-24.941408 v -16.49414 c 0,-13.817726 11.12368,-24.941406 24.94141,-24.941406 z"
       transform="translate(0.002,14.004)" /><path
       style="fill:#ffffff;stroke-width:0.497735"
       d="m 170.20976,258.42119 c 0.72172,-0.72172 1.34053,-1.78563 1.37513,-2.36425 0.0346,-0.57861 0.11348,-17.06665 0.17528,-36.64009 0.12299,-38.95344 0.12811,-39.02892 3.13512,-46.18582 5.97774,-14.22745 19.75503,-23.41565 35.20115,-23.47596 10.57173,-0.0413 19.35081,3.65711 27.12442,11.42678 6.89677,6.89329 10.01872,13.53487 10.9428,23.27949 0.28529,3.00845 0.50659,19.93309 0.50683,38.76032 l 4.2e-4,33.42005 1.44403,1.54584 c 1.84275,1.97267 4.31887,2.10673 6.36754,0.34475 l 1.39652,-1.2011 0.13402,-36.47588 c 0.14699,-40.00736 0.10112,-40.81166 -2.81636,-49.38934 -1.2606,-3.70626 -3.06752,-7.44172 -4.0116,-8.29319 -0.15176,-0.13688 -0.60127,-0.87952 -0.99891,-1.65032 -1.22753,-2.37953 -6.56681,-8.14726 -10.21431,-11.03397 -5.19047,-4.10785 -13.42872,-8.03884 -19.45952,-9.28536 -6.45584,-1.33437 -16.8033,-1.11751 -22.85926,0.47907 -4.08182,1.07613 -11.06704,4.3971 -15.13398,7.19514 -2.17954,1.49952 -8.91525,7.95524 -10.5012,10.06469 -3.24856,4.3209 -6.73801,11.57978 -8.61365,17.91847 -0.99515,3.36309 -1.03714,4.78539 -1.20848,40.93864 -0.15893,33.53541 -0.0942,37.63007 0.61863,39.13225 1.42767,3.00859 5.13062,3.75454 7.39538,1.48979 z"
       id="path89"
       inkscape:label="path89" /><path
       id="path85"
       style="fill:#ffffff;stroke-width:0.497735"
       d="m 331.75977,132.48047 c -4.78772,-0.0599 -9.61089,0.43749 -14.26563,1.50976 -13.22125,3.04568 -26.54183,12.51112 -34.23633,24.33008 -3.33225,5.11841 -6.41998,11.99699 -7.40039,16.48242 -0.41886,1.91628 -1.01889,4.49077 -1.33398,5.72266 -0.7088,2.77115 -0.76438,14.8823 -0.082,17.91992 1.84027,8.19179 3.27954,12.45686 5.83398,17.28321 3.47913,6.57345 4.78353,8.46043 8.93945,12.94726 9.54333,10.3032 23.19374,16.96368 36.85157,17.98242 4.62306,0.34484 5.48781,0.334 11.54687,-0.14843 6.93897,-0.55249 13.79009,-2.66564 20.55664,-6.33985 9.71168,-5.2734 20.90625,-16.37392 20.90625,-20.73242 0,-2.29396 -2.28913,-4.56836 -4.59765,-4.56836 -1.87883,0 -2.17269,0.2394 -6.85157,5.56445 -7.89743,8.98807 -17.37449,14.51643 -28.05468,16.36524 -5.62475,0.97369 -16.57011,0.36655 -21.84375,-1.21094 -7.30142,-2.18405 -16.20645,-7.44634 -20.69532,-12.23047 -6.62647,-7.06235 -11.87021,-17.49695 -13.21484,-26.29883 l -0.32617,-2.13281 51.39648,0.0527 51.39453,0.0527 1.125,-1.30664 c 0.98653,-1.14692 1.125,-1.85621 1.125,-5.75391 0,-4.51468 -0.09,-5.06012 -2.20117,-13.41797 -4.07559,-16.1349 -15.90035,-29.93324 -31.89453,-37.21875 -6.82008,-3.1066 -14.69821,-4.7536 -22.67773,-4.85351 z m -0.76172,9.42383 c 1.96658,-0.03 3.88948,0.0632 5.7207,0.29297 8.82266,1.10677 16.09767,4.03218 23.21094,9.33203 9.13776,6.80823 14.59101,15.19652 17.64648,27.14258 0.82451,3.22364 1.5,6.07899 1.5,6.3457 0,0.31137 -17.1015,0.48633 -47.7832,0.48633 -40.81854,0 -47.7832,-0.10274 -47.7832,-0.70313 0,-1.5975 1.46968,-8.21452 2.43359,-10.95703 1.3727,-3.90557 5.55906,-11.22462 8.64648,-15.11914 2.33804,-2.94923 7.47984,-7.26857 12.13086,-10.19141 6.40124,-4.02273 15.7555,-6.49885 24.27735,-6.6289 z"
       transform="translate(0.002,14.004)" /><path
       style="fill:#ffffff;stroke-width:0.497735"
       d="m 438.79394,259.24196 c 0.50504,-0.27029 1.38624,-1.24865 1.95821,-2.17413 1.03711,-1.67806 1.03996,-1.82301 1.03996,-52.76621 v -51.08353 l 20.03384,-0.007 c 11.01861,-0.004 20.52271,-0.13791 21.12019,-0.29815 0.59753,-0.16025 1.66443,-1.16482 2.37091,-2.23238 l 1.28451,-1.94103 -1.25723,-1.99157 -1.25723,-1.99157 h -46.36835 c -42.44777,0 -46.44532,0.0696 -47.27859,0.82374 -1.24659,1.12815 -1.22345,4.6518 0.0408,6.21384 l 0.95104,1.17505 20.32714,0.24886 20.32714,0.24887 0.12674,51.59048 0.12674,51.59048 1.45005,2.15681 c 1.57641,1.49435 3.73604,1.31093 5.00413,0.43723 z"
       id="path91" /><path
       style="fill:#ffffff;stroke-width:0.497735"
       d="m 506.29858,258.04109 1.6923,-1.69229 v -24.58812 c 0,-18.46044 0.14887,-24.73696 0.59728,-25.18539 0.45264,-0.45262 8.64103,-0.59728 33.80781,-0.59728 h 33.21047 l 1.53144,-1.28858 c 1.96152,-1.65053 1.95779,-3.1685 -0.0134,-5.41353 l -1.54477,-1.75939 h -33.19714 c -25.15633,0 -33.34183,-0.14467 -33.79442,-0.59728 -0.43029,-0.4303 -0.59728,-3.8327 -0.59728,-12.17023 0,-12.42034 0.3285,-14.82632 2.69702,-19.7516 10.23827,-16.82707 27.03857,-11.51813 41.99242,-13.51618 29.45118,0 29.61379,1.72174 30.85076,-1.13638 0.51954,-1.2004 0.50764,-1.69617 -0.0673,-2.80443 -1.48897,-2.87006 -0.15828,-2.75082 -30.89024,-2.76799 -29.60344,-0.0165 -29.39523,-0.0302 -34.37905,2.25196 -3.63586,1.66491 -11.69678,7.84824 -11.69678,8.97233 0,0.30318 -0.46737,0.97422 -1.03862,1.49119 -2.43582,2.00124 -3.26365,5.12363 -4.63795,7.32004 -1.46189,1.95181 -1.76566,4.25401 -1.83609,6.6063 -0.26395,0.16313 -0.4511,17.88708 -0.4511,42.71901 v 42.44021 l 1.1199,1.01426 c 2.88557,2.61335 4.38266,2.7155 6.64477,0.45337 z"
       id="path93" /><path
       style="fill:#ffffff;stroke-width:0.497735"
       d="m 680.41865,257.78079 c 1.54636,-1.5836 1.8461,-2.19381 1.58633,-3.22898 -0.1762,-0.70201 -0.9227,-1.67118 -1.65895,-2.15371 -1.23896,-0.81206 -3.76567,-0.88661 -33.96251,-1.00199 -23.69846,-0.0906 -32.93035,-0.28379 -33.74384,-0.70628 l -1.11991,-0.58162 v -51.13142 -51.13142 l -1.35518,-1.54439 c -1.6266,-1.85373 -4.30556,-2.11077 -6.18013,-0.59296 l -1.17505,0.95142 -0.15291,53.42613 c -0.16161,56.45913 -0.10796,58.01215 2.04017,59.0496 0.74566,0.36013 12.79199,0.54169 37.45725,0.56454 l 36.35806,0.0337 1.90667,-1.9526 z"
       id="path95" /><path
       style="fill:#ffffff;stroke-width:0.497735"
       d="m 704.99377,259.41334 c 0.71574,-0.19171 1.60101,-1.20803 2.36424,-2.7142 l 1.2201,-2.40774 v -52.90979 -52.90979 l -1.26231,-1.85762 c -1.19954,-1.76535 -1.39769,-1.85761 -3.98914,-1.85761 -2.54238,0 -2.79369,0.10947 -3.71326,1.61764 -0.96729,1.58649 -0.98631,2.66388 -0.98815,55.94256 v 54.32492 l 1.44403,1.54584 c 1.43377,1.53487 2.64616,1.83654 4.92633,1.22579 z"
       id="path97" /><path
       style="fill:#ffffff;stroke-width:0.497735"
       d="m 735.8401,258.50811 c 0.80091,-0.6739 2.43448,-2.52174 3.63014,-4.10631 1.19571,-1.58457 2.9654,-3.7975 3.9327,-4.91763 0.9673,-1.12013 2.43064,-2.89097 3.2519,-3.93519 0.82127,-1.04422 2.28575,-2.70353 3.25439,-3.68736 0.96865,-0.98381 2.42452,-2.66737 3.23528,-3.74122 0.81076,-1.07385 2.03405,-2.55246 2.71843,-3.2858 0.68439,-0.73334 2.96894,-3.43842 5.07675,-6.01131 10.05823,-12.27738 15.01851,-18.15039 15.63232,-18.50862 0.8779,-0.51238 3.05325,0.66414 4.88064,2.63961 0.79727,0.86186 3.44781,4.1804 5.89014,7.37451 3.8693,5.06042 9.2406,11.53014 13.31631,16.03946 0.68438,0.7572 2.07486,2.34846 3.08989,3.53614 8.61957,10.08545 11.30426,13.28 12.64665,15.04825 2.33856,3.08051 3.85167,4.29349 5.73764,4.59953 1.45986,0.23691 1.93947,0.0399 3.30665,-1.35853 2.52616,-2.58383 2.44747,-2.79229 -4.00691,-10.61702 -0.88612,-1.07427 -2.28306,-2.88238 -3.10433,-4.01803 -0.82126,-1.13565 -1.82917,-2.41538 -2.2398,-2.84384 -0.41064,-0.42847 -1.9785,-2.29029 -3.48415,-4.13738 -1.50565,-1.84709 -3.66353,-4.39201 -4.79528,-5.65539 -4.2311,-4.72314 -5.65716,-6.40737 -5.65716,-6.68125 0,-0.31039 -1.14688,-1.62084 -5.2401,-5.98735 -1.49799,-1.59805 -2.72366,-3.06572 -2.72366,-3.26149 0,-0.19576 -0.86033,-1.24006 -1.9119,-2.32067 -1.05156,-1.0806 -2.98745,-3.30861 -4.30207,-4.95114 -1.31457,-1.64253 -2.69404,-3.16553 -3.06545,-3.38444 -0.7927,-0.46726 -0.90931,-3.13159 -0.15739,-3.59631 0.45877,-0.28353 2.30735,-2.86338 3.71286,-5.18158 0.27375,-0.45152 1.296,-1.61722 2.27171,-2.59044 0.97571,-0.97321 3.81196,-4.32344 6.30277,-7.44494 3.96376,-5.43484 9.37738,-10.78919 13.05987,-15.40133 0.94878,-1.22087 2.7698,-3.22768 4.04674,-4.45957 1.27694,-1.2319 2.40451,-2.48905 2.50575,-2.79367 0.25205,-0.75838 2.11169,-3.14737 5.65914,-7.26993 3.90782,-4.54138 4.94017,-6.51673 4.1771,-7.99281 -1.11189,-2.15075 -2.06471,-2.84847 -3.88995,-2.84847 -1.51217,0 -2.27231,0.45545 -4.77667,2.86198 -1.63804,1.57409 -3.53785,3.59766 -4.22174,4.49683 -0.68388,0.89917 -1.97138,2.44237 -2.86108,3.42934 -1.57234,2.25377 -3.2181,4.5058 -4.85291,6.13485 -2.54672,3.56345 -5.61326,6.28306 -8.03678,9.58917 -1.63576,2.25668 -8.19815,10.02383 -16.81469,19.90163 -1.55403,1.78148 -2.89079,2.86197 -3.54084,2.86197 -0.69374,0 -1.94066,-1.12787 -3.71439,-3.35971 -1.46852,-1.84784 -2.95735,-3.53477 -3.3085,-3.74874 -0.35115,-0.21397 -1.91907,-2.09061 -3.48429,-4.17033 -1.56528,-2.07971 -3.70325,-4.7044 -4.75108,-5.83265 -3.98741,-4.2933 -19.31292,-22.89101 -19.31292,-23.43647 0,-0.13295 -1.82519,-2.15111 -4.05599,-4.48479 -3.69101,-3.86126 -4.22523,-4.24308 -5.93659,-4.24308 -1.55224,0 -2.13727,0.31142 -3.3507,1.78353 -1.30088,1.57819 -1.41362,1.96772 -0.9791,3.38348 0.27007,0.87997 2.70713,4.03479 5.41576,7.01069 2.70862,2.97592 4.92474,5.69107 4.92474,6.03368 0,0.34261 1.20118,1.70476 2.66935,3.02698 1.46812,1.32224 2.92942,2.90339 3.24728,3.51367 0.31785,0.61029 1.56084,2.17815 2.76213,3.48415 1.20133,1.30599 3.37972,3.85526 4.84092,5.66505 4.87268,6.03516 8.08725,9.86856 13.48245,16.07789 2.94286,3.38695 5.35065,6.41056 5.35065,6.71914 0,1.02595 -2.48126,4.51093 -5.73978,8.06169 -1.7707,1.9295 -3.21945,3.72338 -3.21945,3.9864 0,0.26303 -1.39988,2.01509 -3.11085,3.89349 -6.04549,6.63705 -8.51132,9.47895 -9.39957,10.83296 -1.06033,1.61642 -2.63432,3.50287 -8.5834,10.28731 -2.43078,2.77217 -4.77014,5.60026 -5.19849,6.28464 -1.09815,1.75445 -5.1654,6.64076 -5.92444,7.11746 -0.34856,0.21893 -0.97551,1.05886 -1.39316,1.86651 -0.67976,1.31446 -0.68006,1.62191 -0.005,2.93146 1.61883,3.13045 4.62809,3.88763 7.11935,1.79134 z"
       id="path99" /></g></g></svg>
