<?xml version="1.0" encoding="UTF-8" standalone="no"?>
<svg
   xmlns:dc="http://purl.org/dc/elements/1.1/"
   xmlns:cc="http://creativecommons.org/ns#"
   xmlns:rdf="http://www.w3.org/1999/02/22-rdf-syntax-ns#"
   xmlns:svg="http://www.w3.org/2000/svg"
   xmlns="http://www.w3.org/2000/svg"
   xmlns:xlink="http://www.w3.org/1999/xlink"
   xmlns:sodipodi="http://sodipodi.sourceforge.net/DTD/sodipodi-0.dtd"
   xmlns:inkscape="http://www.inkscape.org/namespaces/inkscape"
   inkscape:version="1.0beta1 (32d4812, 2019-09-19)"
   sodipodi:docname="Netflix.svg"
   viewBox="0 0 171.87601 96.685994"
   height="96.685997"
   width="171.87601"
   id="svg66"
   version="1.1">
  <metadata
     id="metadata72">
    <rdf:RDF>
      <cc:Work
         rdf:about="">
        <dc:format>image/svg+xml</dc:format>
        <dc:type
           rdf:resource="http://purl.org/dc/dcmitype/StillImage" />
        <dc:title></dc:title>
      </cc:Work>
    </rdf:RDF>
  </metadata>
  <defs
     id="defs70">
    <linearGradient
       id="linearGradient1140"
       inkscape:collect="always">
      <stop
         id="stop1134"
         offset="0"
         style="stop-color:#fbf8fe;stop-opacity:1" />
      <stop
         id="stop1136"
         offset="0.52681893"
         style="stop-color:#611a9d;stop-opacity:1" />
      <stop
         id="stop1138"
         offset="1"
         style="stop-color:#000000;stop-opacity:1" />
    </linearGradient>
    <linearGradient
       id="linearGradient1077"
       inkscape:collect="always">
      <stop
         id="stop1071"
         offset="0"
         style="stop-color:#fbf8fe;stop-opacity:1" />
      <stop
         id="stop1073"
         offset="0.64886802"
         style="stop-color:#611a9d;stop-opacity:1" />
      <stop
         id="stop1075"
         offset="1"
         style="stop-color:#000000;stop-opacity:1" />
    </linearGradient>
    <linearGradient
       inkscape:collect="always"
       xlink:href="#linearGradient1077"
       id="linearGradient10496"
       x1="45.554688"
       y1="97.326172"
       x2="105.29102"
       y2="66.701172"
       gradientUnits="userSpaceOnUse" />
    <radialGradient
       inkscape:collect="always"
       xlink:href="#linearGradient10524"
       id="radialGradient10518"
       cx="2.6448529"
       cy="37.639427"
       fx="2.6448529"
       fy="37.639427"
       r="68.21888"
       gradientTransform="matrix(1.1539999,0.21881237,-0.81177698,4.2812501,29.962427,-113.29337)"
       gradientUnits="userSpaceOnUse" />
    <linearGradient
       id="linearGradient10524"
       inkscape:collect="always">
      <stop
         id="stop10520"
         offset="0"
         style="stop-color:#e5d4f9;stop-opacity:1" />
      <stop
         id="stop246"
         offset="0.64886802"
         style="stop-color:#611a9d;stop-opacity:1" />
      <stop
         id="stop10522"
         offset="1"
         style="stop-color:#000000;stop-opacity:1" />
    </linearGradient>
    <linearGradient
       gradientUnits="userSpaceOnUse"
       y2="73.042435"
       x2="104.20105"
       y1="86.914658"
       x1="30.846565"
       id="linearGradient1132"
       xlink:href="#linearGradient1140"
       inkscape:collect="always" />
    <linearGradient
       y2="73.042435"
       x2="104.20105"
       y1="86.914658"
       x1="30.846565"
       gradientUnits="userSpaceOnUse"
       id="linearGradient867"
       xlink:href="#linearGradient1140"
       inkscape:collect="always" />
    <linearGradient
       y2="73.042435"
       x2="104.20105"
       y1="86.914658"
       x1="30.846565"
       gradientUnits="userSpaceOnUse"
       id="linearGradient869"
       xlink:href="#linearGradient1140"
       inkscape:collect="always" />
    <linearGradient
       y2="73.042435"
       x2="104.20105"
       y1="86.914658"
       x1="30.846565"
       gradientUnits="userSpaceOnUse"
       id="linearGradient871"
       xlink:href="#linearGradient1140"
       inkscape:collect="always" />
    <linearGradient
       y2="73.042435"
       x2="104.20105"
       y1="86.914658"
       x1="30.846565"
       gradientUnits="userSpaceOnUse"
       id="linearGradient873"
       xlink:href="#linearGradient1140"
       inkscape:collect="always" />
  </defs>
  <sodipodi:namedview
     inkscape:document-rotation="0"
     inkscape:current-layer="svg66"
     inkscape:window-maximized="0"
     inkscape:window-y="25"
     inkscape:window-x="0"
     inkscape:cy="560"
     inkscape:cx="400"
     inkscape:zoom="0.35"
     inkscape:snap-page="true"
     inkscape:snap-text-baseline="true"
     inkscape:snap-center="true"
     inkscape:snap-object-midpoints="true"
     inkscape:snap-smooth-nodes="true"
     inkscape:snap-midpoints="true"
     inkscape:snap-intersection-paths="true"
     inkscape:object-paths="true"
     inkscape:snap-bbox-midpoints="true"
     inkscape:snap-bbox-edge-midpoints="true"
     inkscape:bbox-nodes="true"
     inkscape:bbox-paths="true"
     inkscape:snap-bbox="true"
     showgrid="false"
     id="namedview68"
     inkscape:window-height="907"
     inkscape:window-width="1600"
     inkscape:pageshadow="2"
     inkscape:pageopacity="0"
     guidetolerance="10"
     gridtolerance="10"
     objecttolerance="10"
     borderopacity="1"
     bordercolor="#666666"
     pagecolor="#ffffff" />
  <g
     id="g74"
     inkscape:label="Image"
     inkscape:groupmode="layer">
    <g
       aria-label="N"
       transform="matrix(0.97673747,0,0,1.0244859,-0.09839209,-0.16901995)"
       id="text24"
       style="font-style:normal;font-variant:normal;font-weight:normal;font-stretch:normal;font-size:37.1562px;line-height:100;font-family:'Goudy Old Style MT Std';-inkscape-font-specification:'Goudy Old Style MT Std';letter-spacing:0px;word-spacing:0px;stroke:#000000;stroke-width:0.499837;stroke-miterlimit:4;stroke-dasharray:none;stroke-opacity:1" />
    <g
       aria-label="ET"
       transform="matrix(0.94499171,0,0,1.0582103,-0.07312861,-0.16901995)"
       id="text28"
       style="font-style:normal;font-variant:normal;font-weight:normal;font-stretch:normal;font-size:29.2649px;line-height:100;font-family:'Goudy Old Style MT Std';-inkscape-font-specification:'Goudy Old Style MT Std';letter-spacing:0px;word-spacing:0px;stroke:#000000;stroke-width:0.5;stroke-miterlimit:4;stroke-dasharray:none;stroke-opacity:1" />
    <g
       aria-label="F"
       transform="matrix(0.95842392,0,0,1.0433796,-0.07312861,-0.16901995)"
       id="text32"
       style="font-style:normal;font-variant:normal;font-weight:normal;font-stretch:normal;font-size:36.6494px;line-height:100;font-family:'Goudy Old Style MT Std';-inkscape-font-specification:'Goudy Old Style MT Std';letter-spacing:0px;word-spacing:0px;stroke:#000000;stroke-width:0.5;stroke-miterlimit:4;stroke-dasharray:none;stroke-opacity:1" />
    <g
       aria-label="LIX"
       transform="matrix(0.94899388,0,0,1.0537476,-2.459766,-1.8263692)"
       id="text36"
       style="font-style:normal;font-variant:normal;font-weight:normal;font-stretch:normal;font-size:28.5756px;line-height:100;font-family:'Goudy Old Style MT Std';-inkscape-font-specification:'Goudy Old Style MT Std';letter-spacing:0px;word-spacing:0px;stroke:none;stroke-width:0;stroke-miterlimit:4;stroke-dasharray:none;stroke-opacity:1">
      <path
         inkscape:connector-curvature="0"
         d="m 168.99373,57.622323 c 1.13392,-1.543083 1.45374,-1.943141 1.97708,-2.628955 0.31984,-0.428634 1.5119,-2.086019 1.71542,-2.314624 0.0291,-0.02858 0.23259,-0.25718 0.34889,-0.25718 0.14538,0 0.52335,0.485785 0.66873,0.71439 l 2.44227,3.229042 c 0.0291,0.05715 2.09338,2.886136 2.09338,3.429072 0,0.45721 -0.4652,0.571512 -0.72687,0.628664 -0.87223,0.171453 -0.98854,0.200029 -0.98854,0.457209 0,0.257181 0.17446,0.314332 0.3489,0.314332 0.2326,0 0.55242,-0.02858 0.78502,-0.05715 0.93039,-0.114303 1.88986,-0.142878 2.5295,-0.142878 0.37797,0 0.87224,0 1.51188,0.08573 0.23261,0 1.33745,0.142878 1.57004,0.142878 0.17446,0 0.43613,-0.02857 0.43613,-0.285756 0,-0.200029 -0.37798,-0.285756 -0.58149,-0.342907 -1.36652,-0.314331 -2.06432,-0.771541 -4.65196,-4.486369 l -3.16915,-4.514945 c -0.63964,-0.914419 -0.72687,-1.028721 -0.72687,-1.200175 0,-0.171453 0.52335,-0.828692 0.69778,-1.057297 l 3.9251,-4.857852 c 1.42466,-1.657385 1.91893,-2.057443 3.08191,-2.286048 0.4652,-0.08573 0.69781,-0.142878 0.69781,-0.428634 0,-0.171454 -0.14538,-0.25718 -0.31982,-0.25718 -0.14538,0 -0.63965,0.02858 -1.13392,0.05715 -0.49427,0.05715 -0.98854,0.08573 -1.19206,0.08573 -0.8141,0 -1.51189,-0.05715 -2.29691,-0.171454 -0.49427,-0.08573 -0.61057,-0.08573 -0.72687,-0.08573 -0.37797,0 -0.49427,0.200029 -0.49427,0.342907 0,0.20003 0.3489,0.285756 0.75595,0.371483 0.46519,0.08573 1.22113,0.257181 1.22113,0.857268 0,0.285756 -0.11629,0.514361 -0.63964,1.228751 l -2.87841,3.943433 c -0.43611,0.628663 -1.10483,1.400204 -1.25021,1.400204 -0.11629,0 -0.61056,-0.571512 -0.90131,-0.97157 l -2.84932,-4.086311 c -0.55243,-0.857268 -0.75595,-1.228751 -0.75595,-1.628809 0,-0.400059 0.26167,-0.542937 0.49427,-0.628663 0.61058,-0.228605 0.75595,-0.314332 0.75595,-0.514361 0,-0.142878 -0.17446,-0.285756 -0.26169,-0.285756 -0.0872,0 -0.87223,0.114302 -0.98853,0.142878 -0.55242,0.05715 -0.81409,0.05715 -1.19207,0.05715 -0.61055,0 -3.51804,-0.285756 -4.18676,-0.285756 -0.17444,0 -0.58149,0.05715 -0.58149,0.342907 0,0.171454 0.14537,0.257181 0.72687,0.371483 1.62818,0.342907 2.12246,1.000146 2.6458,1.657385 0.95946,1.228751 2.47136,3.314769 3.6925,4.972154 1.39559,1.914565 1.86078,2.543229 1.86078,2.743258 0,0.142878 -0.0872,0.342907 -0.20353,0.457209 l -4.56472,6.000876 c -0.0872,0.114303 -1.59913,2.057443 -2.82027,2.457502 -0.98853,0.314331 -1.10484,0.342907 -1.10484,0.600087 0,0.142878 0.14538,0.285756 0.49428,0.285756 0.1163,0 2.32598,-0.228604 2.79117,-0.228604 0.17446,0 0.63966,0.02857 1.13392,0.08573 0.49427,0.02858 1.01762,0.08573 1.19207,0.08573 0.0582,0 0.63964,0 0.63964,-0.25718 0,-0.228605 -0.20352,-0.285756 -0.63964,-0.314332 -0.61058,-0.02858 -1.33745,-0.200029 -1.33745,-1.057297 0,-0.342907 0.14538,-0.685814 0.3489,-0.97157 z m -12.22625,-1.028722 c 0,2.828985 -0.60009,3.514799 -1.54308,3.714828 -0.82869,0.171454 -0.943,0.200029 -0.943,0.485785 0,0.285756 0.28576,0.314332 0.54294,0.314332 0.0857,0 0.85727,-0.02858 1.65739,-0.05715 0.82869,-0.02858 1.71453,-0.05715 2.00029,-0.05715 0.20003,0 0.77154,0.02857 1.34305,0.05715 0.57151,0.02858 1.1716,0.05715 1.37163,0.05715 0.34291,0 0.57151,-0.142878 0.57151,-0.314332 0,-0.114302 -0.0857,-0.171453 -0.1143,-0.228604 -0.20003,-0.114303 -1.31448,-0.285756 -1.54308,-0.371483 -0.8287,-0.342907 -1.22875,-1.685961 -1.22875,-2.571804 V 44.13464 c 0,-0.571512 0.28575,-1.743112 1.85741,-1.943141 0.34291,-0.02858 0.68581,-0.08573 0.68581,-0.400058 0,-0.114303 -0.0571,-0.400059 -0.25718,-0.400059 -0.0857,0 -0.48578,0.05715 -0.57151,0.08573 -0.60009,0.02858 -1.60023,0.05715 -2.3432,0.05715 -0.28575,0 -1.42878,0 -2.5718,-0.08573 -0.14288,0 -0.85727,-0.08573 -1.00015,-0.08573 -0.2286,0 -0.37148,0.08573 -0.37148,0.314331 0,0.257181 0.0857,0.285756 1.02872,0.514361 0.77154,0.200029 1.42878,0.571512 1.42878,2.057443 z m -14.68821,-5.029305 c 0,-7.915441 0.28575,-8.344075 0.77154,-9.001314 0.3429,-0.342907 0.40006,-0.342907 1.14302,-0.485785 0.31433,-0.05715 0.48579,-0.114303 0.48579,-0.428634 0,-0.171454 -0.0857,-0.257181 -0.31434,-0.257181 -0.40005,0 -2.28604,0.171454 -2.71468,0.171454 -0.48578,0 -2.88613,-0.142878 -3.11474,-0.142878 -0.14288,0 -0.91442,0 -0.91442,0.342907 0,0.200029 0.17146,0.285756 0.60009,0.314332 1.65739,0.142878 1.97172,0.97157 1.97172,3.800554 v 12.201781 c 0,0.885844 -0.31433,2.028868 -1.62881,2.371775 -0.45721,0.114303 -0.51436,0.257181 -0.51436,0.45721 0,0.142878 0.0572,0.25718 0.62866,0.25718 0.25718,0 0.97157,-0.05715 1.68596,-0.08573 0.71439,-0.05715 1.42878,-0.08573 1.68596,-0.08573 0.48579,0 1.91457,0.05715 3.37192,0.114302 1.42878,0.08573 2.88614,0.142878 3.42907,0.142878 1.45736,0 2.42893,-0.25718 3.20047,-1.028722 0.65724,-0.628663 1.45736,-2.086018 1.45736,-2.771833 0,-0.114302 -0.0571,-0.25718 -0.22861,-0.25718 -0.17145,0 -0.20003,0.05715 -0.54293,0.485785 -0.42864,0.600088 -1.14303,1.143024 -1.94315,1.457356 -1.94314,0.771541 -5.20075,0.800116 -6.05802,0.800116 -1.42878,0 -2.4575,-0.02857 -2.4575,-1.857414 z m -20.69024,-3.658181 c 0,2.39506 0,9.0722 -0.2591,10.886639 -0.18506,1.270108 -1.14742,1.669285 -2.14678,1.850729 -0.62923,0.07258 -0.77729,0.217733 -0.77729,0.471755 0,0.326599 0.29611,0.362888 0.51819,0.362888 0.29611,0 1.18443,-0.03629 2.07276,-0.07258 0.92534,-0.03629 1.81367,-0.07258 2.14679,-0.07258 0.37014,0 1.3695,0.07258 2.29485,0.145156 0.96234,0.07258 1.85067,0.145155 1.99872,0.145155 0.5182,0 0.59222,-0.471755 0.59222,-0.544332 0,-0.108867 -0.074,-0.181444 -0.14805,-0.254022 -0.22208,-0.108866 -1.44353,-0.29031 -1.70263,-0.399177 -0.88832,-0.29031 -2.03574,-0.979797 -1.96171,-4.100634 l 0.11104,-4.862699 c 0.037,-1.342686 0.037,-1.48784 0.11103,-1.705574 0.18507,-0.435466 0.8143,-0.544332 3.33123,-0.544332 3.5533,0 5.14489,0.399178 5.51502,1.705574 0.48118,1.669285 0.5552,1.850729 0.88833,1.850729 0.29611,0 0.33312,-0.362888 0.33312,-0.616909 0,-0.471756 -0.14806,-2.649084 -0.14806,-3.157126 0,-0.508044 0.2591,-3.01197 0.2591,-3.592592 0,-0.181444 -0.074,-0.399176 -0.40715,-0.399176 -0.25909,0 -0.40715,0.145155 -0.51819,0.725776 -0.37013,1.959594 -1.11041,2.032172 -5.29294,2.032172 -0.5552,0 -3.77539,0 -3.99747,-0.435466 -0.074,-0.108866 -0.074,-1.415262 -0.074,-1.959594 v -3.810322 c 0,-1.306397 0,-2.939393 0.44416,-3.33857 0.40715,-0.362888 3.10914,-0.362888 3.92343,-0.362888 1.36951,0 4.99684,0.07258 5.9592,0.90722 0.33311,0.399177 0.59221,0.870932 0.59221,2.10475 0,0.580622 0.11105,0.798354 0.44416,0.798354 0.14806,0 0.33313,-0.07258 0.40715,-0.145155 0.18507,-0.326599 0.44417,-4.209501 0.5182,-5.080432 -5.44101,0.108867 -7.51376,0.145155 -8.88327,0.145155 -2.03575,0 -3.62733,-0.07258 -4.81176,-0.108866 -0.85132,-0.07258 -3.62733,-0.217733 -3.77539,-0.217733 -0.18507,0 -1.22144,0 -1.22144,0.544332 0,0.435466 0.37013,0.435466 0.62923,0.435466 3.03511,0 3.03511,2.213617 3.03511,4.499811 z M 96.299515,46.939776 c 0,-0.73472 -0.02914,-3.908715 0.407981,-4.349548 0.145707,-0.146944 2.243894,-0.146944 2.622734,-0.146944 0.81596,0 3.089,0.02939 3.70097,0.470221 0.46626,0.323278 0.72853,0.940444 0.81596,1.498831 0.0583,0.382056 0.17485,0.528999 0.37884,0.528999 0.23313,0 0.26227,-0.23511 0.26227,-0.470221 0,-0.293888 -0.17485,-1.851497 -0.20399,-2.204163 -0.0583,-1.028609 -0.17485,-1.028609 -0.58283,-1.028609 -0.64111,0 -7.11052,0.05878 -8.247038,0.05878 -1.340508,0 -6.760824,-0.02938 -8.363606,-0.05878 -0.291414,0 -0.61197,0 -0.728536,0.146944 -0.145708,0.264499 -0.320557,2.586217 -0.320557,3.173995 0,0.176333 0,0.852276 0.203991,0.852276 0.233132,0 0.437122,-0.646554 0.495405,-0.911054 0.437122,-1.792719 0.815962,-2.02783 5.128901,-2.02783 0.407981,0 1.806772,0.02938 1.98162,0.205722 0.17485,0.176333 0.291415,2.174774 0.291415,3.761771 v 10.227316 c 0,3.232772 -0.145707,3.879327 -1.865054,4.143826 -0.37884,0.05878 -0.58283,0.08816 -0.58283,0.352667 0,0.23511 0.174849,0.293888 0.407981,0.293888 0.262273,0 0.99081,-0.08816 1.719347,-0.117555 0.728537,-0.02939 1.486216,-0.08816 1.748489,-0.08816 0.582829,0 1.078235,0.02939 1.486215,0.08816 0.116567,0 1.427933,0.146944 1.457075,0.146944 0.233132,0 0.378839,-0.08816 0.378839,-0.293888 0,-0.235111 -0.08742,-0.382056 -0.699396,-0.440833 -1.369649,-0.146944 -1.894196,-0.675943 -1.894196,-2.79194 z M 77.90441,41.238342 h -2.185611 c -2.681016,0 -5.012335,-0.02939 -5.857437,-0.05878 -0.17485,-0.02939 -0.203991,-0.02939 -0.291415,-0.02939 -0.845103,0 -1.16566,0.02939 -1.282226,0.08816 -0.08742,0.02939 -0.116565,0.146944 -0.116565,0.264499 0,0.382056 0.378838,0.440832 0.757678,0.49961 1.515357,0.176334 1.98162,0.969832 1.98162,3.320939 v 5.08427 c 0,0.940442 -0.05828,5.143046 -0.05828,5.995322 0,2.791941 -0.02914,3.938105 -1.806771,4.290772 -0.437123,0.08816 -0.553688,0.176332 -0.553688,0.411443 0,0.235111 0.174849,0.293888 0.99081,0.293888 0.349698,0 1.253084,-0.05878 2.15647,-0.08816 0.903386,-0.02938 1.806772,-0.05878 2.098187,-0.05878 0.495405,0 1.923337,0.05878 3.292987,0.146944 1.36965,0.08816 2.710158,0.176334 3.001573,0.176334 1.457074,0 2.098186,-0.293889 3.088996,-1.645776 0.641113,-0.881665 1.253084,-1.998441 1.253084,-2.321718 0,-0.176333 -0.08742,-0.293888 -0.233131,-0.293888 -0.145708,0 -0.262274,0.117555 -0.553688,0.49961 -1.486216,1.939664 -5.216326,2.321719 -7.897342,2.321719 -2.389602,0 -2.681017,-0.323278 -2.681017,-2.997662 v -3.849932 c 0,-1.057999 0.02915,-1.322498 0.20399,-1.469442 0.17485,-0.146945 1.602782,-0.235111 3.730111,-0.235111 2.885006,0 3.176421,0.352666 3.467836,2.29233 0.05828,0.382055 0.145707,0.470221 0.553688,0.470221 0.174849,0 0.20399,-0.02939 0.20399,-0.323278 0,-0.323277 -0.116565,-1.792719 -0.116565,-2.086607 0,-0.940442 0.05828,-1.410664 0.145707,-2.909495 l 0.02914,-0.49961 c 0,-0.2645 -0.116566,-0.440832 -0.262273,-0.440832 -0.291415,0 -0.378839,0.117554 -0.466264,0.617164 -0.145707,0.911055 -0.553688,1.381277 -1.340508,1.52822 l -3.817534,0.176334 c -0.641113,0.02939 -1.923337,0.02939 -2.15647,-0.235112 -0.116565,-0.117554 -0.20399,-0.822887 -0.20399,-1.704552 V 45.32339 c 0,-1.645775 0.145708,-2.439273 0.407981,-2.733162 0.262273,-0.264499 0.641113,-0.293888 2.535309,-0.293888 3.467836,0 4.779203,0.176333 5.449456,0.76411 0.349698,0.49961 0.437123,0.822887 0.437123,1.675164 0,0.470221 0.05828,0.587776 0.37884,0.587776 0.116565,0 0.145707,-0.02939 0.262273,-0.08816 0.08742,-0.176333 0.145707,-0.99922 0.262273,-2.703774 l 0.08742,-1.204942 z M 65.235876,53.652647 c -0.03825,0.505741 -0.07648,2.889952 -0.114726,3.431818 0,0.03613 -0.03825,0.25287 -0.114728,0.25287 -0.03825,0 -0.535395,-0.505741 -1.567941,-1.553348 C 58.696417,50.907192 56.40187,48.559105 48.562167,40.105995 47.797318,39.275134 45.846954,37.179918 45.235074,36.818674 44.814407,36.601928 44.69968,36.601928 43.667133,36.638052 l -2.447517,-0.03613 c -0.420667,0 -0.497151,0.32512 -0.497151,0.505742 0,0.25287 0.191212,0.361244 0.382424,0.397368 0.803092,0.108374 1.262001,0.180622 2.02685,0.722488 2.562245,1.697848 2.562245,3.793062 2.485759,9.356221 l -0.114727,4.226555 c -0.07648,1.950717 -0.191212,5.418661 -0.956061,7.152632 -0.30594,0.722488 -0.917819,1.264354 -1.797396,1.4811 -1.10903,0.252871 -1.223758,0.252871 -1.223758,0.614115 0,0.397369 0.382425,0.397369 0.497152,0.397369 0.535394,0 3.059397,-0.180622 3.59479,-0.180622 0.650122,0 3.747761,0.144497 4.474368,0.144497 0.07648,0 0.688363,0 0.688363,-0.325119 0,-0.180622 -0.191212,-0.433493 -0.382424,-0.469618 -3.212366,-0.505741 -3.977215,-0.650239 -3.862488,-4.840669 l 0.15297,-7.188757 c 0.03825,-0.469617 0.191212,-5.16579 0.229455,-5.346412 0.03825,-0.108373 0.03825,-0.288995 0.191212,-0.288995 0.382424,0 1.529698,1.300479 1.912122,1.697847 0.344183,0.433493 13.193646,13.691149 15.641164,16.292106 0.803091,0.830861 0.879576,0.939234 1.185515,0.939234 0.114728,0 0.229456,-0.07225 0.229456,-0.144497 0.03825,-0.108373 0.114727,-2.745455 0.114727,-2.889952 l 0.30594,-14.991628 c 0.07648,-4.912919 0.420666,-5.816029 1.835637,-6.177273 1.223759,-0.32512 1.300243,-0.32512 1.300243,-0.650239 0,-0.361244 -0.611879,-0.361244 -0.726607,-0.361244 l -3.403577,0.03613 c -0.61188,0 -3.594791,-0.108373 -4.283155,-0.108373 -0.15297,0 -0.611879,0 -0.611879,0.32512 0,0.325119 0.573637,0.469617 0.841333,0.505741 3.059397,0.686364 3.786003,0.830861 3.786003,5.852153 z"
         style="stroke:none;stroke-width:0;stroke-miterlimit:4;stroke-dasharray:none;stroke-opacity:1"
         id="path10530" />
    </g>
    <g
       transform="translate(-2.459766,-1.8263692)"
       id="g978">
      <path
         inkscape:connector-curvature="0"
         sodipodi:nodetypes="ssccccccccs"
         d="m 105.91016,64.013672 c -0.0564,0 -1.65235,1.173864 -1.65235,1.214844 0,0.01482 0.0667,0.09749 0.14844,0.183593 0.24124,0.254378 0.47307,0.709509 0.88477,1.289063 9.86006,25.672143 -44.113605,31.889946 -60.294926,30.533203 0,0 0.254759,0.0446 0.558594,0.0918 18.025497,2.270175 39.021401,2.199327 55.714842,-8.617188 0.0129,-0.0081 0.0262,-0.01537 0.0391,-0.02344 -0.004,0.0012 -0.008,0.0027 -0.0117,0.0039 8.95593,-5.807251 16.97397,-15.609305 4.61328,-24.675781 z"
         style="display:inline;fill:url(#linearGradient10496);fill-opacity:1;stroke:none;stroke-width:0.193526"
         id="path885" />
      <path
         inkscape:connector-curvature="0"
         sodipodi:nodetypes="csccscsssssc"
         id="path42"
         d="m 93.294584,37.596325 c -0.07088,0.01403 18.039636,5.697251 14.581646,16.818263 C 104.36161,65.717737 85.523116,75.784786 55.402497,75.355828 6.6796468,74.900953 -5.1217117,39.720364 36.214747,19.759556 54.316681,11.926988 65.793568,6.7882253 91.031842,4.8735977 116.27012,2.95897 138.89753,8.1806818 138.89753,8.1806818 c 0,0 -4.78656,-6.1790257 -43.775347,-6.3530827 C 56.133402,1.653542 -0.75875778,19.966324 2.6021091,49.228285 5.5831277,75.183032 52.941023,81.558882 80.414361,75.279678 104.2383,69.834567 110.56666,60.715145 111.78506,55.319376 113.00346,49.923607 109.83,46.299178 107.21915,43.862379 104.60829,41.42558 93.294584,37.596325 93.294584,37.596325 Z"
         style="display:inline;fill:url(#radialGradient10518);fill-opacity:1;stroke:none;stroke-width:1px;stroke-linecap:butt;stroke-linejoin:miter;stroke-opacity:1" />
    </g>
    <g
       id="g912"
       style="display:inline;fill:#b37fd9;fill-opacity:1"
       inkscape:label="g912"
       transform="matrix(0.99159604,0,0,0.92394384,-1.582505,4.6465559)">
      <path
         inkscape:connector-curvature="0"
         id="path1150"
         d="m 31.09843,74.653339 c -0.0035,-0.0034 14.379175,4.112475 18.96661,4.119163 V 95.28119 c 0,0 -19.367411,-1.115915 -19.300462,-4.375161 z"
         style="display:inline;fill:url(#linearGradient867);fill-opacity:1;stroke:none;stroke-width:1.03255px;stroke-linecap:butt;stroke-linejoin:miter;stroke-opacity:1" />
      <path
         inkscape:connector-curvature="0"
         id="path1148"
         d="m 68.24708,78.711766 -0.119337,15.724128 c 0,0 -16.186756,1.693602 -16.178649,0.790816 L 52.09648,78.814161 c 0,0 8.769799,0.484401 16.1506,-0.102395 z"
         style="display:inline;fill:url(#linearGradient869);fill-opacity:1;stroke:none;stroke-width:1.03255px;stroke-linecap:butt;stroke-linejoin:miter;stroke-opacity:1" />
      <path
         inkscape:connector-curvature="0"
         id="path1146"
         d="m 83.722758,76.263899 c 0,0 -2.033602,0.868424 -14.234596,2.351258 l 0.04559,15.400603 c 0,0 14.257898,-2.557008 14.253482,-3.530896 z"
         style="display:inline;fill:url(#linearGradient871);fill-opacity:1;stroke:none;stroke-width:1.03255px;stroke-linecap:butt;stroke-linejoin:miter;stroke-opacity:1" />
      <path
         inkscape:connector-curvature="0"
         id="path1144"
         d="m 104.20105,66.688017 c 0,0 -1.66741,1.74011 -6.68353,4.680879 l 0.05014,12.722898 c 6.75464,-6.034675 6.5862,-8.026154 6.5862,-8.026154 z"
         style="display:inline;fill:url(#linearGradient873);fill-opacity:1;stroke:none;stroke-width:1.03255px;stroke-linecap:butt;stroke-linejoin:miter;stroke-opacity:1" />
      <path
         inkscape:connector-curvature="0"
         id="path889"
         d="m 95.760348,84.874217 c 0,0 -10.496641,5.518877 -10.505376,4.882363 -0.0127,-0.925506 0,-13.86871 0,-13.86871 -0.659346,0.296745 6.151914,-1.751699 10.429445,-3.845791 z"
         style="display:inline;fill:url(#linearGradient1132);fill-opacity:1;stroke:none;stroke-width:1.03255px;stroke-linecap:butt;stroke-linejoin:miter;stroke-opacity:1" />
    </g>
  </g>
</svg>
