<?xml version="1.0" encoding="UTF-8" standalone="no"?>
<!-- Created with Inkscape (http://www.inkscape.org/) -->

<svg
   version="1.1"
   id="svg824"
   width="1325.3549"
   height="551.15039"
   viewBox="0 0 1325.3548 551.1504"
   sodipodi:docname="Netflix 2000.svg"
   inkscape:version="1.1.2 (b8e25be833, 2022-02-05)"
   xmlns:inkscape="http://www.inkscape.org/namespaces/inkscape"
   xmlns:sodipodi="http://sodipodi.sourceforge.net/DTD/sodipodi-0.dtd"
   xmlns="http://www.w3.org/2000/svg"
   xmlns:svg="http://www.w3.org/2000/svg">
  <defs
     id="defs828" />
  <sodipodi:namedview
     id="namedview826"
     pagecolor="#ffffff"
     bordercolor="#666666"
     borderopacity="1.0"
     inkscape:pageshadow="2"
     inkscape:pageopacity="0.0"
     inkscape:pagecheckerboard="0"
     showgrid="false"
     showguides="true"
     inkscape:guide-bbox="true"
     inkscape:snap-bbox="false"
     inkscape:bbox-nodes="false"
     inkscape:snap-bbox-edge-midpoints="false"
     inkscape:bbox-paths="false"
     inkscape:snap-bbox-midpoints="false"
     inkscape:snap-smooth-nodes="true"
     inkscape:zoom="0.54505634"
     inkscape:cx="540.31112"
     inkscape:cy="343.0838"
     inkscape:window-width="1366"
     inkscape:window-height="697"
     inkscape:window-x="-8"
     inkscape:window-y="-8"
     inkscape:window-maximized="1"
     inkscape:current-layer="g830" />
  <g
     inkscape:groupmode="layer"
     inkscape:label="Image"
     id="g830"
     transform="translate(-3.577,-12.751946)">
    <g
       id="g9762">
      <g
         id="g9756">
        <path
           style="color:#000000;fill:#ffffff;fill-opacity:1;stroke-linecap:round;stroke-linejoin:round;-inkscape-stroke:none"
           d="m 666.56445,12.751946 c -197.9173,0 -324.08798,18.43595 -413.35937,51.05469 -71.25488,26.0357 -114.65249,62.240404 -140.06641,102.009774 -25.41392,39.76937 -32.77539,82.90467 -32.77539,122.50976 0,39.60511 7.36147,82.74235 32.77539,122.51172 25.41393,39.76937 68.81151,75.97408 140.06641,102.00977 89.27139,32.61875 215.44207,51.05468 413.35937,51.05468 197.91729,0 324.08799,-18.43593 413.35945,-51.05468 71.2548,-26.03569 114.6525,-62.2404 140.0664,-102.00977 25.414,-39.76937 32.7754,-82.90661 32.7754,-122.51172 0,-39.60509 -7.3614,-82.74039 -32.7754,-122.50976 C 1194.5764,126.04704 1151.1787,89.842336 1079.9239,63.806636 990.65244,31.187896 864.48174,12.751946 666.56445,12.751946 Z"
           id="path8006-9" />
        <path
           id="path8006"
           style="color:#000000;fill:#000000;fill-opacity:1;stroke-linecap:round;stroke-linejoin:round;-inkscape-stroke:none"
           d="m 666.56445,12.751953 c -197.9173,0 -324.08798,18.435952 -413.35937,51.054688 C 181.9502,89.842337 138.55259,126.04704 113.13867,165.81641 87.724754,205.58578 80.363281,248.72108 80.363281,288.32617 c 0,39.60511 7.361468,82.74235 32.775389,122.51172 25.41393,39.76937 68.81151,75.97408 140.06641,102.00977 89.27139,32.61875 215.44207,51.05468 413.35937,51.05468 197.91731,0 324.08798,-18.43593 413.35935,-51.05468 71.2549,-26.03569 114.6525,-62.2404 140.0664,-102.00977 25.414,-39.76937 32.7754,-82.90661 32.7754,-122.51172 0,-39.60509 -7.3614,-82.74039 -32.7754,-122.50976 C 1194.5763,126.04704 1151.1787,89.842337 1079.9238,63.806641 990.65243,31.187905 864.48176,12.751953 666.56445,12.751953 Z m 0,7.667969 c 197.4403,0 322.77202,18.451578 410.72855,50.589844 70.0493,25.595186 111.8125,60.718704 136.2343,98.935544 24.4218,38.21685 31.5704,79.72364 31.5704,118.38086 0,38.65723 -7.1486,80.16597 -31.5704,118.38281 -24.4218,38.21685 -66.185,73.34037 -136.2343,98.93555 -87.95653,32.13828 -213.28825,50.58986 -410.72855,50.58985 -197.4403,0 -322.77013,-18.45157 -410.72656,-50.58985 C 185.78859,480.04935 144.02337,444.92583 119.60156,406.70898 95.179755,368.49214 88.03125,326.9834 88.03125,288.32617 c 0,-38.65722 7.148509,-80.16401 31.57031,-118.38086 C 144.02337,131.72847 185.78861,96.604952 255.83789,71.009766 343.79432,38.8715 469.12415,20.419922 666.56445,20.419922 Z" />
      </g>
      <path
         id="path8006-6"
         style="color:#000000;fill:#000000;fill-opacity:1;stroke-width:0.924524;stroke-linecap:round;stroke-linejoin:round;-inkscape-stroke:none"
         d="m 666.67838,39.438602 c -186.74981,0 -305.80132,16.700347 -390.03556,46.24826 -67.23433,23.584628 -108.18323,56.380928 -132.16317,92.406288 -23.97993,36.02538 -30.92604,75.0998 -30.92604,110.97637 0,35.87656 6.94611,74.95274 30.92604,110.97812 23.97995,36.02537 64.92882,68.82167 132.16317,92.40629 84.23424,29.54793 203.28575,46.24825 390.03556,46.24825 186.74983,0 305.80132,-16.70032 390.03552,-46.24825 67.2344,-23.58462 108.1832,-56.38092 132.1632,-92.40629 23.98,-36.02538 30.926,-75.10156 30.926,-110.97812 0,-35.87657 -6.946,-74.95099 -30.926,-110.97637 -23.98,-36.02536 -64.9288,-68.82166 -132.1632,-92.406288 C 972.4797,56.138949 853.42821,39.438602 666.67838,39.438602 Z"
         sodipodi:nodetypes="sssssssssssss" />
    </g>
    <g
       id="g9752">
      <path
         id="rect1042"
         style="fill:#ffffff;fill-opacity:1;stroke-width:3.99373;stroke-linecap:round;stroke-linejoin:round;stroke-opacity:0.615686"
         d="m 442.99023,227.53125 c -40.61437,-4.3e-4 -73.53906,31.10629 -73.53906,69.47852 0,38.37223 21.90152,69.50075 73.53906,69.47851 45.49813,-0.0196 65.04114,-27.62186 70.85938,-51.20898 h -18.82617 c -3.678,14.30604 -15.38086,39.88671 -51.33203,39.01172 -35.95117,-0.87499 -54.02055,-25.35175 -54.02149,-56.625 h 108.04297 7.27734 11.48829 c 0.0174,-0.21868 0.0336,-0.43743 0.0488,-0.65625 0,-38.37151 -32.9235,-69.47793 -73.53711,-69.47852 z m -170.27539,0.73242 c -43.04058,0 -66.47744,19.55024 -66.85351,52.22852 h -0.0957 v 2.80664 l 0.29297,79.29687 h 21.5 v -79.29687 -2.46875 h 0.0645 c 1.04702,-21.60697 11.24736,-39.16207 45.09179,-38.73633 33.84443,0.42574 45.1582,18.44776 45.15821,41.20508 v 79.29687 h 6.16211 15.33593 l -0.29297,-79.29687 c -0.14193,-38.49948 -21.69439,-55.03516 -66.36328,-55.03516 z m 256.12696,3.26758 v 14.26367 h 42.77539 V 362.5957 h 21.5 V 245.79492 h 42.77539 v -14.26367 z m 141.98047,0 V 362.5957 h 21.49804 v -69.5625 h 89.92578 v -14.26562 h -89.92578 v -32.97266 h 89.92578 v -14.26367 h -89.92578 z m 145.32617,0 V 362.5957 h 21.5 69.2539 v -14.26367 h -69.2539 V 231.53125 Z m 121.49414,0 V 362.5957 h 21.5 V 231.53125 Z m 65.57222,0 57.1133,60.38672 -66.84568,70.67773 h 23.25388 l 55.2168,-58.38476 55.2188,58.38476 h 23.2539 l -66.8438,-70.67773 57.1114,-60.38672 h -23.252 l -45.4863,48.09375 -45.4863,-48.09375 z m -559.52339,9.50781 c 28.61816,1e-5 47.35643,17.99431 52.55078,42.36328 H 391.14062 c 5.19435,-24.36898 23.93262,-42.36329 52.55079,-42.36328 z" />
      <path
         id="path5446"
         style="color:#000000;fill:#ffde00;fill-opacity:1;stroke-linecap:round;stroke-linejoin:round;-inkscape-stroke:none"
         d="m 947.68945,109.43555 c -27.28069,1.03817 -43.60893,0.50744 -55.95312,7.125 -6.1721,3.30878 -10.6989,9.09798 -12.88086,15.99804 -2.17826,6.88838 -2.67857,14.87666 -2.64649,25.11524 a 7.4640002,7.4640002 0 0 0 0,0.002 c -2e-5,0.008 3e-5,0.0154 0,0.0234 3e-5,0.009 -2e-5,0.0167 0,0.0254 a 7.4640002,7.4640002 0 0 0 0,0.002 c -0.0321,10.23855 0.46823,18.22492 2.64649,25.11328 2.18196,6.90007 6.70876,12.69123 12.88086,16 12.34419,6.61756 28.67242,6.08488 55.95312,7.12305 a 7.4640002,7.4640002 0 0 0 0.28321,-0.0332 7.4640002,7.4640002 0 0 0 0.2832,0.0332 c 27.28067,-1.03817 43.60892,-0.5055 55.95314,-7.12305 6.1721,-3.30877 10.6989,-9.09994 12.8808,-16 2.1783,-6.88836 2.6787,-14.87473 2.6465,-25.11328 0,-6.7e-4 0,-0.001 0,-0.002 10e-5,-0.009 0,-0.0167 0,-0.0254 0,-0.008 10e-5,-0.0154 0,-0.0234 a 7.4640002,7.4640002 0 0 0 0,-0.002 c 0.032,-10.23857 -0.4682,-18.22686 -2.6465,-25.11524 -2.1819,-6.90006 -6.7087,-12.68927 -12.8808,-15.99804 -12.34422,-6.61755 -28.67247,-6.08683 -55.95314,-7.125 a 7.4640002,7.4640002 0 0 0 -0.2832,0.0332 7.4640002,7.4640002 0 0 0 -0.28321,-0.0332 z m 0.28321,14.92968 c 27.23251,1.03934 43.04125,2.05874 49.18359,5.35157 3.08235,1.65241 4.38555,3.18321 5.70115,7.34375 1.3157,4.16054 1.9831,10.95938 1.9512,20.61523 a 7.4640002,7.4640002 0 0 0 0,0.0234 7.4640002,7.4640002 0 0 0 0,0.0254 c 0.032,9.65585 -0.6355,16.4547 -1.9512,20.61523 -1.3156,4.16054 -2.6188,5.69134 -5.70115,7.34375 -6.14234,3.29284 -21.95108,4.31223 -49.18359,5.35157 -27.23254,-1.03934 -43.04126,-2.05874 -49.1836,-5.35157 -3.08236,-1.65241 -4.38551,-3.18321 -5.70117,-7.34375 -1.31566,-4.16053 -1.98312,-10.95938 -1.95117,-20.61523 a 7.4640002,7.4640002 0 0 0 -0.002,-0.0254 7.4640002,7.4640002 0 0 0 0.002,-0.0234 c -0.0319,-9.65585 0.63551,-16.4547 1.95117,-20.61523 1.31566,-4.16054 2.61881,-5.69134 5.70117,-7.34375 6.14234,-3.29283 21.95106,-4.31223 49.1836,-5.35157 z" />
    </g>
    <path
       id="path7405"
       style="fill:#ffde00;fill-opacity:1;stroke:none;stroke-width:15.0596;stroke-linecap:round;stroke-linejoin:round;stroke-miterlimit:4;stroke-dasharray:none;stroke-opacity:1"
       d="M 195.96049,74.073 C 65.930161,116.8986 3.577,198.35922 3.577,291.20605 c 0,92.84683 62.353161,174.30548 192.38349,217.13108 C 78.364552,448.77377 53.344808,368.68156 53.344808,291.20605 c 0,-77.4755 25.019744,-157.56968 142.615682,-217.13305 z" />
    <path
       id="path7405-9"
       style="fill:#ffde00;fill-opacity:1;stroke:none;stroke-width:15.0596;stroke-linecap:round;stroke-linejoin:round;stroke-miterlimit:4;stroke-dasharray:none;stroke-opacity:1"
       d="m 1136.5483,70.073 c 130.0303,42.8256 192.3835,124.28622 192.3835,217.13305 0,92.84683 -62.3532,174.30548 -192.3835,217.13108 117.5959,-59.56336 142.6157,-139.65557 142.6157,-217.13108 0,-77.4755 -25.0198,-157.56968 -142.6157,-217.13305 z" />
    <path
       id="rect1042-6-3"
       style="fill:#ffffff;fill-opacity:1;stroke-width:1.35271;stroke-linecap:round;stroke-linejoin:round;stroke-opacity:0.615686"
       d="m 957.12305,1460.2012 v 5.4023 h 12.66797 v 76.836 h -12.66797 v 5.4023 h 12.66797 6.68359 0.002 v -87.6406 h -0.002 -6.68359 z m -235.29883,1.6152 v 87.6406 h 6.68359 12.66797 v -5.4023 h -12.66797 v -76.8359 h 12.66797 v -5.4024 h -12.66797 z m 59.89062,18.334 c -14.05778,0 -25.45312,10.3587 -25.45312,24.375 0,14.0163 7.60099,26.3808 25.45312,26.3808 13.07659,0 20.64769,-6.6373 23.76563,-15.6953 h -6.5625 c -2.54812,6.5136 -7.89561,11.1621 -16.74024,11.1621 -13.12233,0 -18.86718,-10.2254 -18.86718,-21.6054 0,-11.38 8.37573,-19.6035 18.70898,-19.6035 7.62256,0 14.17564,4.4766 17.0918,11.3925 h 6.73437 c -3.38394,-9.7983 -12.90557,-16.4062 -24.13086,-16.4062 z m 57.66993,0 c -14.05782,0 -25.45313,10.3587 -25.45313,24.375 0,14.0162 7.60098,26.3808 25.45313,26.3808 17.8521,1e-4 25.45507,-12.3645 25.45507,-26.3808 0,-14.0163 -11.39727,-24.375 -25.45507,-24.375 z m 58.41601,0.3633 c -7.5271,10e-5 -13.14975,2.1941 -16.68555,6.1777 v -4.3574 h -5.54687 v 47.0781 h 1.22461 4.32226 v -29.7637 h 0.0215 c 0.3299,-7.8654 5.36084,-14.7295 16.02734,-14.6015 12.9148,0.155 16.09375,7.2158 16.09375,15.5 v 28.8652 h 1.94336 3.51367 0.0918 l -0.0918,-28.8652 v -0.8985 h 0.0195 c 0.32989,-7.8654 5.36084,-14.7295 16.02734,-14.6015 12.9149,0.155 16.0958,7.2158 16.0957,15.5 v 28.8652 h 1.94141 3.60547 l -0.0918,-28.8652 c -0.045,-14.0145 -6.83686,-20.033 -20.91406,-20.0332 -9.2152,10e-5 -15.5756,3.2865 -18.7461,9.123 -2.9762,-6.2944 -9.20116,-9.1229 -18.85156,-9.123 z m -58.11133,4.6504 c 10.3333,0 18.71094,8.2234 18.71094,19.6035 0,11.38 -5.43033,21.6054 -18.55273,21.6054 -13.1223,0 -18.86719,-10.2254 -18.86719,-21.6054 0,-11.3801 8.37558,-19.6035 18.70898,-19.6035 z m -99.13281,35.0371 v 10.5488 h 10.54883 v -10.5488 z"
       transform="translate(3.577,-1072.6257)" />
  </g>
</svg>
