<?xml version="1.0" encoding="UTF-8"?>
<svg width="391.8187pt" height="121.5628pt" preserveAspectRatio="xMidYMid" version="1.1" viewBox="0 0 391.8187 121.5628" xmlns="http://www.w3.org/2000/svg">
 <title>Genshin Impact wordmark</title>
 <g transform="matrix(.01634621 0 0 -.01634621 0 121.5519)">
  <path d="m2215 7434c-16-2-66-9-110-15-654-86-1259-474-1650-1059-303-452-455-962-455-1525 0-373 59-690 190-1020 300-760 936-1337 1670-1519 257-63 479-82 770-66 622 35 1075 156 1505 404 136 79 216 137 308 225l77 74v546c0 602 4 644 58 723 42 61 121 132 178 161 27 13 87 37 134 52 120 39 140 52 140 92v33h-1263c-1212 0-1265-1-1280-18-25-27-21-47 14-76 30-25 63-37 259-91 243-66 423-198 500-365l35-75 5-435c6-477-1-650-31-767-25-99-39-120-104-149-50-23-65-25-212-24-169 0-254 14-384 63-582 219-1014 910-1115 1786-20 169-23 556-6 701 51 421 138 726 297 1040 348 682 918 1008 1480 845 486-141 898-640 1095-1326 28-96 52-153 70-164 13-8 37 43 55 117 45 192 60 1050 20 1219l-17 76-102 6c-210 12-391 69-671 212-327 167-538 241-825 292-122 21-182 26-375 28-126 2-243 1-260-1z"/>
  <path d="m12480 6255c-434-69-787-339-921-706-43-119-59-212-59-354 0-257 66-476 205-685 125-188 170-223 935-746 577-393 688-482 744-592 56-111 66-194 41-336-20-111-65-197-144-276-116-115-233-160-421-160-222 0-428 58-640 181-98 56-106 59-172 59h-68v-397l57-7c32-4 117-24 189-46 240-70 351-85 649-85 202 1 281 5 355 18 628 115 961 502 987 1147 15 389-90 681-345 952-116 123-247 221-807 603-734 500-747 510-810 639-66 134-67 238-4 365 48 95 129 156 264 197 90 28 340 25 450-5 91-24 207-77 274-124 46-32 46-32 154-29l107 3v289h-31c-17 0-123 18-236 41-114 22-254 47-312 55-131 17-328 16-441-1z"/>
  <path d="m4808 5801c-14-5 9-28 97-101 154-126 189-172 237-310 45-130 47-178 48-1302 1-734-2-1080-9-1118-17-86-53-203-71-230-9-14-34-52-56-85-41-63-167-194-299-314l-80-72 65 6c36 3 164 26 285 50 437 88 565 95 1625 95h848l25 68c13 37 32 93 41 124 9 32 19 64 22 73 6 13-76 15-770 15h-776v960h490v780h-452l7 358c4 196 10 400 14 452l6 95h666l667-1-15 51c-8 27-25 82-37 120l-22 70-479 7c-902 12-1176 38-1765 162-219 47-285 57-312 47z"/>
  <path d="m20482 5618c3-29 11-36 81-74 98-52 148-100 184-178l28-61v-2480l-29-59c-42-86-84-127-180-175-83-41-86-44-86-77v-34h1410v23c0 31-29 56-118 102-80 42-117 82-160 172l-27 58-4 1880 22-29c12-16 73-94 136-175 63-80 346-443 629-805l515-659-6-274-7-273h394c365 0 394 1 402 18 13 28 18 1422 5 1422-16 0-15 1269 0 1342 15 69 64 161 106 198 19 17 65 46 103 65 67 34 90 57 90 89 0 14-72 16-706 16h-705l3-32c3-30 10-37 83-75 134-70 195-157 213-306 4-34 5-393 2-797l-5-736-1520 1946h-856z"/>
  <path d="m7752 5558c3-29 11-37 88-79 97-54 150-108 183-189l22-55 3-1190c2-810-1-1210-8-1252-20-119-79-195-200-257-87-45-90-48-90-81v-35h1410v23c0 35-18 53-97 92-87 44-152 112-185 193l-23 57-2 935c-2 887-2 934 15 910 9-13 59-79 111-145s326-417 609-780 525-671 538-686l24-25v-564h399c241 0 402 4 406 9 3 6 0 635-6 1398l-11 1388 21 57c34 89 79 139 163 183 89 46 118 71 118 102v23h-704c-643 0-704-1-710-16-11-28 22-63 88-93 112-51 180-136 206-258 7-31 9-319 8-811l-3-764-759 971-758 971h-859z"/>
  <path d="m14330 5572c0-32 28-58 93-90 112-53 169-118 201-232 14-47 16-161 20-815 2-418 4-764 4-770 0-5-3-219-7-475-8-498-6-476-64-642-14-37-29-73-34-80s-12-17-15-23c-6-10 1211-9 1221 1 2 2-1 15-7 30-8 17-34 35-77 55-107 48-163 109-201 219-17 50-19 87-19 447v391l30 43c59 82 34 79 601 79 479 0 503-1 547-20 32-15 49-30 62-57 21-43 45-130 38-136-2-3-4-146-3-318 0-178-4-338-10-368-24-129-90-218-197-270-86-42-103-57-103-93v-28h704c696 0 704 0 709 20 8 30-20 56-108 103-95 51-145 110-175 206-20 62-20 93-20 1252 0 804 3 1203 10 1236 25 110 90 188 209 248 72 36 96 61 85 89-6 14-79 16-710 16h-704v-24c0-33 20-50 100-91 112-56 172-136 199-263 15-70 15-762 0-815-13-49-61-103-105-117-23-8-190-12-532-13-549-2-523-5-586 62-21 22-32 45-37 83-12 85-10 727 2 794 23 127 85 212 192 265 77 39 107 66 107 96v23h-710c-674 0-710-1-710-18z"/>
  <path d="m18310 5561c0-33 4-35 192-95 159-52 238-111 287-215l26-56v-2390l-23-44c-57-105-182-190-342-231-46-12-96-28-111-36-32-16-48-52-28-65 21-13 1836-11 1860 1 52 28 2 65-139 104-156 44-232 91-319 198-42 52-44 116-41 1323l3 1140 28 56c32 66 104 137 175 173 28 14 100 40 159 57 112 32 161 63 150 93-6 14-97 16-942 16h-935z"/>
  <path d="m13810 1428c0-7 12-41 26-75l26-62-243-548c-220-494-248-552-290-594-31-32-62-52-100-64-110-36-140-66-78-79 17-3 152-6 298-6 208 0 271 3 286 13 26 20 13 33-60 57-36 12-80 33-96 48-29 24-31 30-27 76 3 32 23 92 52 158l49 108h583l48-113c80-184 73-226-46-266-65-22-98-45-98-68 0-12 68-14 464-11 255 2 468 6 472 10 15 15-30 48-94 69-128 43-116 23-431 729l-278 625-232 3c-181 2-231 0-231-10zm255-588 104-235-221-3c-121-1-223 0-225 2-3 3 46 118 108 257 87 193 115 247 121 233 5-11 55-125 113-254z"/>
  <path d="m7582 1403-333-3 7-23c3-12 7-22 8-22 0-1 25-12 55-25 70-32 136-97 150-146 7-25 11-198 11-485v-446l-23-44c-31-57-90-102-173-129-36-12-76-32-88-44l-21-21 50-7c80-10 531-9 559 2 14 5 26 13 26 18s-24 25-54 45c-60 40-97 84-115 136-7 23-11 161-10 440v406l19-40c67-138 104-222 104-236 1-9 6-22 13-30s57-116 111-240c200-455 225-509 238-509 24 0 84 70 118 138 18 37 115 251 216 477s185 412 187 415c2 2 3-178 1-400-3-404-3-405-27-454-15-30-39-58-64-75-56-37-87-68-87-86 0-13 51-15 449-15 442 0 508 4 498 33-2 6-40 25-84 42-112 42-155 73-187 136l-26 53v440c1 342 4 449 14 479 23 64 61 103 133 137 63 29 93 52 93 72 0 4-159 8-354 8h-354l-29-62c-16-35-90-199-164-365-73-166-136-300-140-298-3 3-79 169-169 370l-164 365-30-2c-17-2-181-4-364-5z"/>
  <path d="m5080 1394c0-24 29-46 89-65 89-29 153-75 180-131 20-43 21-56 21-497 0-425-1-454-19-489-34-66-84-102-187-136-52-17-93-50-80-64 4-4 236-8 514-10 422-2 510-1 526 11 10 8 16 19 13 24-4 6-46 25-94 43-70 26-98 42-135 80-68 70-70 85-66 577 3 410 3 419 25 460 32 58 81 95 178 132 88 33 107 47 84 62-15 9-1049 13-1049 3z"/>
  <path d="m10523 1394c-25-11-12-22 76-69 102-53 134-90 151-171 7-34 10-197 8-480-3-483 0-458-82-531-31-27-68-47-116-62-66-21-107-52-94-73 3-4 241-8 530-8 447 0 524 2 524 14 0 25-27 43-95 66-84 28-144 73-172 130-21 40-23 59-23 192v148h114c213 0 366 43 499 141 251 184 206 481-96 629-154 75-142 74-707 77-278 1-511 0-517-3zm833-139c22-13 58-43 78-66 101-111 111-259 27-391-31-49-113-109-166-122-17-4-38-9-47-12-17-5-18 15-18 314v320l43-10c23-5 60-20 83-33z"/>
  <path d="m16835 1389c-249-46-464-200-564-402-250-505 228-1052 853-977 198 24 329 82 447 200 47 47 85 96 101 130 28 60 44 130 30 130-5 0-35-34-67-75-102-134-212-194-371-202-162-10-286 37-394 146-104 105-150 223-150 384 0 313 212 542 484 524 162-10 269-79 375-240 44-66 67-93 73-85 18 29 3 376-17 396-2 3-40-1-84-7-80-12-81-12-182 23-56 20-138 43-182 51-87 16-272 18-352 4z"/>
  <path d="m18938 1193c-2-115-1-212 3-216 18-22 51 8 85 76 71 145 131 179 332 185l132 4v-493c0-479-1-494-21-536-25-52-78-97-139-120-168-61-172-77-23-86 250-16 953-5 953 15 0 14-60 46-127 69-81 27-136 79-157 150-14 44-16 127-16 527v474l133-5c72-3 149-11 170-18 62-21 122-81 161-162s73-112 80-74c12 58 15 160 9 283l-6 134h-1565z"/>
 </g>
</svg>