<?xml version="1.0" encoding="UTF-8" standalone="no"?>
<svg
   xmlns:dc="http://purl.org/dc/elements/1.1/"
   xmlns:cc="http://creativecommons.org/ns#"
   xmlns:rdf="http://www.w3.org/1999/02/22-rdf-syntax-ns#"
   xmlns:svg="http://www.w3.org/2000/svg"
   xmlns="http://www.w3.org/2000/svg"
   xmlns:sodipodi="http://sodipodi.sourceforge.net/DTD/sodipodi-0.dtd"
   xmlns:inkscape="http://www.inkscape.org/namespaces/inkscape"
   version="1.1"
   id="svg4426"
   viewBox="0 0 999.99997 173.13001"
   height="173.13"
   width="1000"
   inkscape:version="0.91 r13725"
   sodipodi:docname="Sony Pictures Animation 2006 (Blue).svg">
  <sodipodi:namedview
     pagecolor="#ffffff"
     bordercolor="#666666"
     borderopacity="1"
     objecttolerance="10"
     gridtolerance="10"
     guidetolerance="10"
     inkscape:pageopacity="0"
     inkscape:pageshadow="2"
     inkscape:window-width="1366"
     inkscape:window-height="705"
     id="namedview30"
     showgrid="false"
     inkscape:zoom="0.5866667"
     inkscape:cx="533.93761"
     inkscape:cy="110.35163"
     inkscape:window-x="-8"
     inkscape:window-y="-8"
     inkscape:window-maximized="1"
     inkscape:current-layer="svg4426"
     units="px"
     showguides="false" />
  <defs
     id="defs4428" />
  <metadata
     id="metadata4431">
    <rdf:RDF>
      <cc:Work
         rdf:about="">
        <dc:format>image/svg+xml</dc:format>
        <dc:type
           rdf:resource="http://purl.org/dc/dcmitype/StillImage" />
        <dc:title></dc:title>
      </cc:Work>
    </rdf:RDF>
  </metadata>
  <g
     id="g7260">
    <path
       inkscape:connector-curvature="0"
       style="fill:#0082bc;fill-opacity:1;fill-rule:nonzero;stroke:none"
       id="path11073"
       d="m 754.03128,62.85067 c -0.0133,-0.013 -0.0133,-0.013 -0.0267,-0.026 -0.04,-0.03921 -0.0924,-0.06534 -0.13203,-0.09148 -0.40923,-0.313589 -0.83121,-0.601069 -1.27929,-0.888537 -0.11869,-0.07838 -0.25038,-0.143759 -0.36886,-0.222139 -0.39514,-0.235208 -0.80315,-0.457337 -1.21098,-0.666404 -0.19737,-0.104552 -0.39461,-0.196002 -0.59184,-0.287451 -0.42074,-0.196001 -0.84148,-0.392006 -1.27496,-0.561873 -0.0657,-0.026 -0.10535,-0.03921 -0.15769,-0.06535 -0.59114,-0.235208 -1.20805,-0.444268 -1.8377,-0.6272 -0.62981,-0.196002 -1.27215,-0.352806 -1.9274,-0.496538 -0.0657,-0.013 -0.10502,-0.02601 -0.17037,-0.03921 -0.64204,-0.130656 -1.31019,-0.261346 -1.97778,-0.352802 -0.0133,0 -0.0393,0 -0.0523,0 -0.68089,-0.104552 -1.38735,-0.169863 -2.09367,-0.222139 -0.052,0 -0.10469,0 -0.17003,-0.013 -0.71923,-0.03921 -1.45129,-0.06535 -2.19609,-0.06535 -0.75787,0 -1.50233,0.02601 -2.23336,0.07838 -0.0133,0 -0.0393,0 -0.0523,0 -0.70493,0.05228 -1.39658,0.117587 -2.07487,0.20907 -0.065,0.013 -0.11735,0.026 -0.16936,0.026 -0.67825,0.09148 -1.33004,0.20907 -1.96838,0.352799 -0.052,0.013 -0.091,0.013 -0.13036,0.026 -0.63834,0.143726 -1.27652,0.30052 -1.88823,0.483469 -0.0133,0.013 -0.0267,0.013 -0.0393,0.013 0,0 -0.0133,0 -0.0267,0.013 -0.61171,0.182932 -1.22309,0.392002 -1.80796,0.627204 -0.052,0.013 -0.091,0.026 -0.13002,0.05228 -0.49392,0.196001 -0.9746,0.405071 -1.44185,0.640273 -0.66209,0.326657 -1.32397,0.666404 -1.93305,1.045338 -0.0267,0.013 -0.0387,0.03921 -0.0647,0.05228 -0.49236,0.313589 -0.97151,0.64027 -1.43719,0.993072 -0.0904,0.06535 -0.15469,0.143726 -0.24538,0.22214 -0.16803,0.117587 -0.31039,0.248277 -0.46518,0.392002 -0.38767,0.326658 -0.74883,0.679474 -1.10983,1.045338 -0.14169,0.156794 -0.30939,0.313622 -0.45091,0.483472 -0.36047,0.405068 -0.69462,0.823205 -1.00231,1.267471 -0.0897,0.117587 -0.19304,0.235208 -0.26938,0.365871 -0.35873,0.535734 -0.69132,1.071472 -0.97114,1.646407 -0.0267,0.03921 -0.038,0.09148 -0.0634,0.143726 -0.0633,0.143758 -0.12668,0.300519 -0.19003,0.457334 -0.2157,0.483472 -0.4051,0.980006 -0.58127,1.489609 -0.0623,0.22214 -0.13769,0.444269 -0.18703,0.666405 -0.13703,0.496534 -0.24804,1.006137 -0.33239,1.528806 -0.0367,0.20907 -0.0857,0.418134 -0.10902,0.64027 -0.095,0.731736 -0.16336,1.489606 -0.1527,2.273611 -8.3e-4,0.940806 0.0897,1.829343 0.20537,2.691749 0.0423,0.235208 0.0847,0.483469 0.12736,0.71867 0.12669,0.666405 0.27872,1.293609 0.48272,1.907744 0.0547,0.182932 0.0964,0.365868 0.15069,0.535734 0.24404,0.679474 0.51429,1.332809 0.83605,1.946944 0.0403,0.06535 0.08,0.117587 0.10702,0.169863 0.0934,0.156795 0.18703,0.30052 0.28038,0.444269 0.30739,0.535734 0.64108,1.045338 1.01325,1.515741 0.97053,1.254408 2.09583,2.352012 3.4016,3.266683 1.99188,1.411209 4.33166,2.456547 6.87564,3.136017 0.11802,0.026 0.22271,0.05228 0.3408,0.07838 2.45183,0.627204 5.08226,0.92774 7.76093,0.92774 2.69175,0 5.32721,-0.30052 7.78848,-0.92774 0.10402,-0.03921 0.22137,-0.05228 0.32572,-0.07838 2.55189,-0.692535 4.89017,-1.724808 6.88365,-3.136017 1.99332,-1.424275 3.64201,-3.214417 4.78881,-5.409628 1.1337,-2.195211 1.77875,-4.782425 1.77775,-7.800841 0.003,-2.67868 -0.57727,-5.082961 -1.63772,-7.199771 -1.06029,-2.103745 -2.60019,-3.920022 -4.51453,-5.396563" />
    <path
       sodipodi:nodetypes="csccscccssscccccccccccccccscccccccscccccc"
       inkscape:connector-curvature="0"
       style="fill:#0082bc;fill-opacity:1;fill-rule:nonzero;stroke:none"
       id="path11077"
       d="m 48.409148,145.12537 c 1.829343,0 3.393796,-0.33973 4.703867,-0.92774 1.310068,-0.588 2.365755,-1.42427 3.204429,-2.44348 0.825606,-1.0192 1.433833,-2.20828 1.822855,-3.50188 0.402088,-1.29361 0.5846,-2.67868 0.584914,-4.08989 3.03e-4,-1.41121 -0.263647,-2.71788 -0.75302,-3.90696 -0.489743,-1.176 -1.205279,-2.22134 -2.108869,-3.08374 -0.916662,-0.86241 -2.02101,-1.55494 -3.274948,-2.03842 -1.254302,-0.4704 -2.658193,-0.73173 -4.200068,-0.73173 -1.528807,0 -2.934999,0.28745 -4.164836,0.81013 -1.22984,0.52268 -2.283329,1.28055 -3.158277,2.19522 -0.874948,0.91467 -1.545583,1.9992 -2.010079,3.18828 -0.451429,1.18907 -0.696713,2.48268 -0.695196,3.82855 -0.001,1.43734 0.195402,2.82242 0.577662,4.10296 0.395714,1.26747 0.990359,2.43041 1.812257,3.41042 0.808833,0.98 1.844922,1.77707 3.123165,2.32587 1.26517,0.54881 2.772136,0.86241 4.536144,0.86241 m 10.229496,-46.844247 36.880972,0 -0.131857,72.847047 -36.676352,-0.026 0.018,-9.55179 -0.888537,0 c -1.759667,1.71174 -3.475743,3.26669 -5.225902,4.63869 -1.736724,1.35894 -3.534024,2.54802 -5.430006,3.52802 -1.908683,0.96694 -3.942179,1.72481 -6.178157,2.24748 -2.222546,0.5096 -4.66064,0.78401 -7.391589,0.78401 -5.383497,0 -10.17,-1.25441 -14.317491,-3.39736 -4.147564,-2.14307 -7.668741,-5.18762 -10.5208491,-8.79404 -2.8524743,-3.59335 -5.0358808,-7.74857 -6.5208967,-12.11286 -1.47231492,-4.35122 -2.23317259,-8.91151 -2.25325066,-13.32807 -0.01495628,-4.59949 0.73088501,-9.30352 2.20151226,-13.75927 1.4709934,-4.46883 3.6802051,-8.70245 6.5923562,-12.3742 2.911785,-3.65869 6.526143,-6.74244 10.833929,-8.92458 4.294353,-2.169077 9.281766,-3.423488 14.900462,-3.423488 2.404281,0 4.711605,0.196001 6.895474,0.601073 2.196941,0.405068 4.270054,1.032272 6.219718,1.868543 1.962363,0.849337 3.788205,1.907742 5.489499,3.214422 1.688588,1.2936 3.265693,2.83548 4.692115,4.62562 l 0.888537,0 -0.07768,-8.663247" />
    <path
       sodipodi:nodetypes="cccccccccccscsscccccccsccc"
       inkscape:connector-curvature="0"
       style="fill:#0082bc;fill-opacity:1;fill-rule:nonzero;stroke:none"
       id="path11089"
       d="m 194.64696,96.612501 c 4.96536,0 9.17876,0.849337 12.69651,2.378147 3.53081,1.528812 6.35259,3.750152 8.56178,6.454962 2.20889,2.71789 3.79182,5.93231 4.81816,9.47339 1.01328,3.54108 1.48305,7.40884 1.46591,11.42033 l -0.23168,44.84503 -38.66385,-0.026 0.10005,-35.47619 c -8e-4,-1.0584 9.3e-4,-2.23441 -0.089,-3.39735 -0.10295,-1.16294 -0.31049,-2.32588 -0.71741,-3.34508 -0.42,-1.01921 -1.03879,-1.92081 -1.96466,-2.54802 -0.92556,-0.64027 -2.17094,-1.0192 -3.81735,-1.0192 -1.62028,0 -2.83144,0.37893 -3.73523,1.0192 -0.90347,0.62721 -1.51295,1.52881 -1.91615,2.54802 -0.40321,1.0192 -0.61384,2.18214 -0.71993,3.34508 -0.10609,1.16294 -0.10799,2.33895 -0.10692,3.39735 l -0.0739,35.47619 -38.65078,-0.026 -0.0157,-72.860117 36.3186,0 0.0681,11.694727 0.9016,0 c 1.87665,-1.98614 3.65809,-3.81549 5.44793,-5.44883 1.78984,-1.63334 3.61358,-3.04455 5.57547,-4.22055 1.97463,-1.162941 4.10047,-2.090678 6.50662,-2.717882 2.41922,-0.627204 5.11906,-0.966938 8.242,-0.966938" />
    <path
       inkscape:connector-curvature="0"
       style="fill:#0082bc;fill-opacity:1;fill-rule:nonzero;stroke:none"
       id="path11093"
       d="m 254.64676,171.19612 -0.24074,-72.938518 38.87356,0 0.0838,72.951588 -38.71656,-0.013 z" />
    <path
       inkscape:connector-curvature="0"
       style="fill:#0082bc;fill-opacity:1;fill-rule:nonzero;stroke:none"
       id="path11097"
       d="m 273.81931,92.876722 c -2.78321,0 -5.52287,-0.326658 -8.0618,-1.006141 -2.52587,-0.679467 -4.86408,-1.711742 -6.84445,-3.122948 -1.98035,-1.411209 -3.61592,-3.201352 -4.76276,-5.383497 -1.14685,-2.182142 -1.79175,-4.769356 -1.80387,-7.774706 -0.004,-2.665614 0.56427,-5.069896 1.5985,-7.173637 1.0604,-2.103745 2.58732,-3.920022 4.50174,-5.396563 1.9015,-1.489609 4.20355,-2.639479 6.78799,-3.410419 2.58463,-0.784005 5.45164,-1.18907 8.50928,-1.18907 3.05761,0 5.92688,0.405065 8.51686,1.176005 2.58981,0.784005 4.88743,1.920809 6.8014,3.410415 1.92721,1.476544 3.4579,3.292818 4.51433,5.396563 1.05642,2.103745 1.63844,4.508026 1.64203,7.17364 -9.4e-4,3.005347 -0.63658,5.592564 -1.77642,7.774706 -1.12692,2.195211 -2.75788,3.972288 -4.73674,5.383497 -1.97886,1.411206 -4.30547,2.443478 -6.83644,3.122948 -2.53111,0.692536 -5.26644,1.019207 -8.04965,1.019207" />
    <path
       sodipodi:nodetypes="cccccccccccsccccccccccscccccccccccccscsccccscc"
       inkscape:connector-curvature="0"
       style="fill:#0082bc;fill-opacity:1;fill-rule:nonzero;stroke:none"
       id="path11109"
       d="m 435.41316,96.583756 c 4.79548,0 8.91334,0.836271 12.39465,2.365078 3.48152,1.515736 6.32685,3.697886 8.56425,6.389636 2.22452,2.67868 3.85438,5.8539 4.91793,9.35578 1.06379,3.48882 1.56128,7.30431 1.5209,11.27659 l 0.007,45.31544 -37.83654,-0.013 0.0467,-36.09032 c 10e-4,-1.07147 0.0167,-2.20828 -0.073,-3.33202 -0.0763,-1.11067 -0.24471,-2.20828 -0.59774,-3.16215 -0.35306,-0.95387 -0.89079,-1.77708 -1.67993,-2.36508 -0.80244,-0.57494 -1.88223,-0.92774 -3.30652,-0.92774 -1.39811,0 -2.4482,0.3528 -3.23994,0.92774 -0.7919,0.588 -1.32563,1.41121 -1.67819,2.36508 -0.3526,0.95387 -0.53703,2.03841 -0.63055,3.16215 -0.0934,1.11067 -0.0957,2.26055 -0.11002,3.33202 l -0.21103,36.09032 -37.57957,-0.026 0.14536,-36.06419 c 0.001,-1.07147 0.003,-2.22135 -0.086,-3.33201 -0.0763,-1.12375 -0.25771,-2.20828 -0.61081,-3.16216 -0.35289,-0.96693 -0.89075,-1.77707 -1.69303,-2.36508 -0.80221,-0.588 -1.8822,-0.92773 -3.31952,-0.92773 -1.38508,0 -2.435,0.33973 -3.21383,0.92773 -0.79174,0.57494 -1.3124,1.39815 -1.66496,2.35202 -0.35277,0.96694 -0.52413,2.05147 -0.61761,3.17522 -0.0933,1.11066 -0.0957,2.24747 -0.097,3.31894 l -0.11935,36.07726 -37.56672,-0.013 0.0799,-72.990782 35.60113,0 -0.038,12.975272 1.21518,0 c 0.80121,-2.24748 2.01745,-4.27283 3.54426,-6.06297 1.52673,-1.79014 3.37699,-3.34509 5.44549,-4.61256 2.08157,-1.267473 4.36857,-2.260541 6.7818,-2.926946 2.41342,-0.67947 4.95311,-1.032272 7.52726,-1.032272 2.86161,0 5.50944,0.352802 7.9305,1.045338 2.40823,0.67947 4.58971,1.698677 6.51875,3.03148 1.92901,1.33281 3.60571,2.96615 5.01709,4.90003 1.39844,1.92081 2.53151,4.14215 3.38666,6.62484 l 0.9016,0 c 1.15803,-2.54802 2.48203,-4.80856 4.01074,-6.74244 1.5419,-1.94694 3.28868,-3.58029 5.27933,-4.88696 1.99065,-1.306674 4.22551,-2.312812 6.73005,-2.96615 2.51775,-0.666401 5.30551,-1.006138 8.40235,-1.006138" />
    <path
       sodipodi:nodetypes="cccccccccscscccccccccccccc"
       inkscape:connector-curvature="0"
       style="fill:#0082bc;fill-opacity:1;fill-rule:nonzero;stroke:none"
       id="path11113"
       d="m 972.18286,96.517115 c 5.01762,0 9.28161,0.862405 12.8406,2.404281 3.55873,1.528804 6.42607,3.763214 8.6497,6.481094 2.22399,2.73095 3.83091,5.9715 4.85622,9.52566 1.02552,3.56721 1.49572,7.4611 1.47232,11.49872 l -0.32242,45.10637 -39.13514,-0.013 0.17136,-35.69832 c 0.007,-1.07147 0.007,-2.24748 -0.082,-3.42348 -0.10168,-1.16294 -0.30805,-2.32588 -0.72079,-3.35815 -0.41274,-1.03228 -1.03192,-1.93388 -1.97229,-2.56108 -0.92749,-0.64028 -2.18955,-1.01921 -3.86208,-1.01921 -1.63335,0 -2.85397,0.37893 -3.78197,1.01921 -0.92819,0.6272 -1.53727,1.5288 -1.96077,2.56108 -0.41074,1.0192 -0.62261,2.18214 -0.71656,3.35815 -0.10702,1.176 -0.12236,2.35201 -0.12736,3.42348 l -0.13269,35.68526 -39.10901,-0.013 0.12169,-73.304392 36.85678,-0.013 -0.0727,11.786202 0.91466,0 c 1.90654,-2.01228 3.71195,-3.85469 5.52151,-5.48803 1.82242,-1.64641 3.66234,-3.07069 5.65103,-4.24669 2.00168,-1.176011 4.15213,-2.103748 6.59583,-2.744018 2.44396,-0.627204 5.18115,-0.966937 8.34331,-0.966937" />
    <path
       inkscape:connector-curvature="0"
       style="fill:#0082bc;fill-opacity:1;fill-rule:nonzero;stroke:none"
       id="path11117"
       d="m 834.20153,145.32398 c 1.51574,0 2.96616,-0.27441 4.28589,-0.75787 1.30667,-0.49653 2.49574,-1.20214 3.50189,-2.10374 0.99307,-0.90161 1.81629,-1.97308 2.37815,-3.18829 0.57494,-1.2152 0.90159,-2.57414 0.92773,-4.01148 0.0267,-1.48961 -0.22204,-2.90082 -0.71866,-4.19442 -0.48348,-1.29361 -1.22828,-2.45655 -2.15601,-3.43656 -0.9408,-0.96694 -2.0907,-1.76401 -3.41044,-2.31281 -1.31973,-0.53573 -2.8224,-0.83627 -4.44268,-0.84934 -1.63332,0 -3.14906,0.31359 -4.48189,0.84934 -1.34587,0.5488 -2.52188,1.34587 -3.50189,2.31281 -0.96694,0.98001 -1.75094,2.14295 -2.28667,3.43656 -0.53573,1.28053 -0.82321,2.70481 -0.86242,4.19442 -0.0267,1.43734 0.26138,2.79628 0.79711,4.01148 0.52266,1.20215 1.30666,2.28668 2.28667,3.18829 0.96694,0.88854 2.12988,1.60721 3.43654,2.10374 1.2936,0.48347 2.73095,0.75787 4.24668,0.75787 m 0.84935,-48.791186 c 6.65098,0 13.01447,0.849337 18.81609,2.521879 5.80163,1.672547 11.05445,4.181357 15.4449,7.487237 4.3904,3.30589 7.9315,7.40884 10.33575,12.2958 2.41736,4.88696 3.69792,10.55792 3.56727,16.97369 -0.13069,6.07603 -1.71177,11.44646 -4.41658,16.08515 -2.70481,4.62563 -6.52032,8.53258 -11.10673,11.68166 -4.58641,3.14909 -9.94379,5.5403 -15.71928,7.13444 -5.77551,1.59414 -11.96911,2.41735 -18.25425,2.41735 -6.28508,-0.013 -12.46564,-0.82321 -18.17581,-2.43041 -5.72324,-1.60722 -10.98914,-3.99843 -15.471,-7.14751 -4.46882,-3.14908 -8.14057,-7.05604 -10.68859,-11.68166 -2.53494,-4.63869 -3.93309,-10.00912 -3.84164,-16.07209 0.0913,-6.41576 1.56801,-12.08673 4.14216,-16.96062 2.57416,-4.88696 6.25898,-8.98991 10.767,-12.2958 4.49493,-3.30588 9.82617,-5.80163 15.69314,-7.474168 5.8539,-1.685611 12.2566,-2.534948 18.90757,-2.534948" />
    <path
       inkscape:connector-curvature="0"
       style="fill:#0082bc;fill-opacity:1;fill-rule:nonzero;stroke:none"
       id="path11129"
       d="m 719.26194,171.40649 -0.19037,-73.199847 39.14795,0 0.0337,73.212917 -38.99132,-0.013 z" />
    <path
       sodipodi:nodetypes="cccccccccccccc"
       inkscape:connector-curvature="0"
       style="fill:#0082bc;fill-opacity:1;fill-rule:nonzero;stroke:none"
       id="path11133"
       d="m 671.52985,74.495747 -0.19604,24.683061 13.05367,-0.05958 -0.24837,26.811612 -13.01447,0.0609 -0.35279,45.39384 -39.23943,-0.013 0.24837,-45.38078 -9.55178,-0.0734 0.14369,-26.79912 9.55175,0.07265 0.1437,-24.683065 39.46156,-0.013 z" />
    <path
       sodipodi:nodetypes="ccccscccscccscccccccccccscssccccccsscsccc"
       inkscape:connector-curvature="0"
       style="fill:#0082bc;fill-opacity:1;fill-rule:nonzero;stroke:none"
       id="path11137"
       d="m 539.69824,145.2495 c 1.84242,0 3.4235,-0.33973 4.75627,-0.92774 1.31977,-0.588 2.39122,-1.43734 3.2275,-2.45654 0.84932,-1.01921 1.45039,-2.22134 1.85546,-3.51495 0.40508,-1.30668 0.58804,-2.69175 0.58804,-4.10296 0,-1.4112 -0.26138,-2.73095 -0.7579,-3.92002 -0.48345,-1.176 -1.21518,-2.23441 -2.12988,-3.09682 -0.91466,-0.87547 -2.02532,-1.568 -3.29281,-2.05147 -1.26746,-0.4704 -2.69174,-0.73174 -4.24668,-0.73174 -1.54188,0 -2.95309,0.28745 -4.19441,0.8232 -1.24135,0.52267 -2.31284,1.26748 -3.1883,2.19522 -0.87548,0.91467 -1.56801,2.01227 -2.02535,3.20135 -0.47039,1.18907 -0.7056,2.49574 -0.7056,3.84162 0,1.43734 0.18304,2.83548 0.57494,4.11602 0.40507,1.28054 1.00614,2.44348 1.81625,3.42348 0.82322,0.98001 1.86857,1.77708 3.14909,2.33895 1.28056,0.5488 2.7963,0.8624 4.57338,0.8624 m 10.45911,-47.027178 37.07765,0 -0.20904,73.121458 -36.90782,-0.013 -0.007,-9.59099 -0.9016,0 c -1.77708,1.71174 -3.50188,3.26668 -5.26589,4.65176 -1.76402,1.37201 -3.56723,2.56108 -5.48804,3.54108 -1.92081,0.98001 -3.9592,1.73788 -6.21976,2.26055 -2.24747,0.52267 -4.704,0.784 -7.44805,0.784 -5.42269,0 -10.24431,-1.2544 -14.42565,-3.41042 -4.18137,-2.15601 -7.72246,-5.21362 -10.59714,-8.82004 -2.87467,-3.61949 -5.06989,-7.78778 -6.54642,-12.16513 -1.47656,-4.36429 -2.2475,-8.95072 -2.26057,-13.38034 -0.0133,-4.61256 0.73173,-9.32965 2.22136,-13.81154 1.4896,-4.49496 3.72399,-8.74165 6.66405,-12.4134 2.92691,-3.68482 6.58563,-6.78163 10.92379,-8.96378 4.32507,-2.182145 9.34268,-3.43655 15.01369,-3.43655 2.41732,0 4.73013,0.196002 6.93839,0.60107 2.20832,0.405068 4.29899,1.032272 6.27207,1.881612 1.97305,0.836271 3.81548,1.907738 5.52721,3.214418 1.71177,1.30667 3.29282,2.84855 4.7171,4.65175 l 0.91466,0 0.007,-8.702439" />
    <path
       inkscape:connector-curvature="0"
       style="fill:#0082bc;fill-opacity:1;fill-rule:nonzero;stroke:none"
       id="path11141"
       d="m 74.26373,0.32503 c 3.52802,0 7.853107,1.09761 10.936858,2.86162 l -3.60642,7.0691 C 79.934692,8.85761 77.79175,7.92987 75.570401,7.92987 c -1.685608,0 -3.906953,0.98001 -3.906953,2.91389 0,2.05147 2.469613,2.84854 4.037623,3.35815 l 2.338943,0.67947 c 4.847762,1.43734 8.624046,3.90695 8.624046,9.577915 0,3.449617 -0.836271,7.029903 -3.619486,9.394983 -2.730946,2.338946 -6.415766,3.305883 -9.917651,3.305883 -4.416557,0 -8.728578,-1.502675 -12.308864,-3.998421 l 3.906954,-7.317371 c 2.273611,1.986142 4.965356,3.619484 8.075242,3.619484 2.129876,0 4.403488,-1.084539 4.403488,-3.528017 0,-2.56108 -3.580282,-3.44962 -5.540295,-3.998422 -5.684027,-1.633344 -9.460317,-3.109884 -9.460317,-9.878454 0,-7.1083 5.069895,-11.73393 12.060599,-11.73393" />
    <path
       inkscape:connector-curvature="0"
       style="fill:#0082bc;fill-opacity:1;fill-rule:nonzero;stroke:none"
       id="path11145"
       d="m 147.53153,28.57793 c 5.42269,0 9.87845,-4.416557 9.87845,-10.45339 0,-4.80856 -4.45576,-9.22511 -9.87845,-9.22511 -5.43576,0 -9.87845,4.41655 -9.87845,9.22511 0,6.036833 4.45575,10.45339 9.87845,10.45339 m -0.013,-28.49855 c 10.06139,0 19.35184,7.43497 19.35184,18.00596 0,11.328861 -8.11444,19.299571 -19.33877,19.299571 -11.22432,0 -19.33876,-7.97071 -19.35183,-19.299571 0,-10.57099 9.29045,-18.00596 19.33876,-18.00596" />
    <path
       inkscape:connector-curvature="0"
       style="fill:#0082bc;fill-opacity:1;fill-rule:nonzero;stroke:none"
       id="path11149"
       d="m 243.12778,1.25146 0.014,34.979657 -9.09445,0 -16.66009,-21.442517 -0.0784,21.442517 -9.08138,0 -0.014,-34.979657 9.08139,0 16.66009,21.364118 0.0914,-21.364118 9.08138,0 z" />
    <path
       inkscape:connector-curvature="0"
       style="fill:#0082bc;fill-opacity:1;fill-rule:nonzero;stroke:none"
       id="path11153"
       d="m 308.18444,1.25146 10.89766,0 -12.87074,18.17583 0,16.803827 -9.10751,0 -0.014,-16.803827 -12.8838,-18.17583 10.89764,0 6.53337,9.49952 6.54644,-9.49952 z" />
    <path
       inkscape:connector-curvature="0"
       style="fill:#0082bc;fill-opacity:1;fill-rule:nonzero;stroke:none"
       id="path11157"
       d="m 419.3889,17.09358 c 0.82321,0 1.63332,0 2.40429,-0.0653 0.7709,-0.0653 1.47653,-0.20907 2.09067,-0.4704 0.61411,-0.26134 1.12373,-0.66641 1.47653,-1.26748 0.35279,-0.60107 0.56186,-1.4112 0.56186,-2.48268 0,-1.0976 -0.19603,-1.92081 -0.53573,-2.54801 -0.33972,-0.6272 -0.82321,-1.04534 -1.42428,-1.31974 -0.58797,-0.28747 -1.30666,-0.4312 -2.0776,-0.5096 -0.77094,-0.0653 -1.62029,-0.0653 -2.49574,-0.0653 l -1.54187,0 0,8.72858 1.54187,0 m 3.27974,-16.05901 c 1.8816,0 3.61948,0.22213 5.16135,0.6664 1.5419,0.45733 2.90084,1.1368 4.01151,2.07761 1.12373,0.9408 1.99922,2.12988 2.61336,3.58029 0.60104,1.46347 0.92773,3.18828 0.92773,5.18749 0,2.06454 -0.28738,3.84162 -0.82321,5.34429 -0.53573,1.48961 -1.34587,2.71789 -2.39122,3.684823 -1.05843,0.966938 -2.35199,1.672542 -3.88082,2.142944 -1.54188,0.470404 -3.30589,0.692538 -5.27897,0.692538 l -5.16134,0 0,11.603261 -9.08141,0 -0.0133,-34.979646 13.91609,0" />
    <path
       inkscape:connector-curvature="0"
       style="fill:#0082bc;fill-opacity:1;fill-rule:nonzero;stroke:none"
       id="path11161"
       d="m 493.03954,1.03717 0.0133,34.97965 -9.09444,0 0,-34.97965 9.08137,0 z" />
    <path
       inkscape:connector-curvature="0"
       style="fill:#0082bc;fill-opacity:1;fill-rule:nonzero;stroke:none"
       id="path11165"
       d="m 561.9339,0.00229 c 0.73173,0 1.45042,0.0392 2.15601,0.1176 0.70563,0.0784 1.39815,0.196 2.09067,0.33973 0.67949,0.1568 1.37201,0.33974 2.03843,0.56187 0.67945,0.20907 1.35894,0.4704 2.02532,0.7448 l -0.0133,10.89766 c -0.45731,-0.6272 -0.99308,-1.18907 -1.58105,-1.65947 -0.58803,-0.48347 -1.24135,-0.88854 -1.93387,-1.21521 -0.67949,-0.32667 -1.41122,-0.57494 -2.15605,-0.73174 -0.75787,-0.16986 -1.5288,-0.24826 -2.29974,-0.24826 -1.38508,0 -2.6656,0.26133 -3.8024,0.7448 -1.12373,0.48347 -2.11681,1.18907 -2.94002,2.06454 -0.81014,0.87547 -1.45039,1.92081 -1.89467,3.08375 -0.44428,1.16294 -0.67949,2.45655 -0.67949,3.80242 0,1.38508 0.23505,2.66562 0.67949,3.81549 0.44428,1.149872 1.09759,2.169079 1.92081,3.00535 0.83628,0.849337 1.84242,1.51574 2.99229,1.973076 1.14984,0.457336 2.44347,0.71867 3.86772,0.71867 0.73176,0 1.47656,-0.09148 2.19522,-0.261336 0.73173,-0.169866 1.43735,-0.418135 2.11684,-0.744804 0.66638,-0.326668 1.31973,-0.71867 1.9077,-1.16294 0.58804,-0.457335 1.13684,-0.966938 1.60722,-1.541875 l -0.0133,10.897662 c -0.74479,0.235208 -1.45039,0.444268 -2.12987,0.640269 -0.66639,0.196002 -1.31974,0.378934 -1.94695,0.522669 -0.64028,0.143726 -1.28052,0.261346 -1.9208,0.339737 -0.65335,0.07838 -1.31974,0.130656 -2.02533,0.130656 -1.21521,0 -2.41736,-0.117587 -3.59336,-0.339736 -1.17601,-0.235208 -2.32588,-0.561869 -3.43658,-1.006138 -1.11063,-0.431203 -2.18212,-0.980006 -3.18826,-1.620276 -1.01921,-0.627203 -1.98615,-1.372007 -2.88774,-2.195212 -0.96694,-0.862405 -1.80322,-1.803209 -2.50881,-2.796282 -0.70563,-0.993072 -1.29363,-2.051477 -1.75095,-3.16215 -0.45734,-1.110671 -0.79707,-2.273611 -1.03228,-3.488817 -0.22204,-1.215203 -0.32672,-2.469613 -0.32672,-3.763223 0,-1.20214 0.11768,-2.37814 0.33972,-3.54108 0.22204,-1.16294 0.56187,-2.28668 0.99308,-3.37122 0.44428,-1.08454 0.98001,-2.14295 1.62025,-3.12295 0.64028,-0.99307 1.38508,-1.92081 2.20829,-2.78322 0.86242,-0.87547 1.81629,-1.67254 2.84857,-2.36507 1.01918,-0.69254 2.11678,-1.28054 3.25361,-1.77708 1.14987,-0.48347 2.32588,-0.86241 3.54106,-1.11067 1.20218,-0.26134 2.43043,-0.39201 3.65871,-0.39201" />
    <path
       inkscape:connector-curvature="0"
       style="fill:#0082bc;fill-opacity:1;fill-rule:nonzero;stroke:none"
       id="path11169"
       d="m 641.83047,0.92872 0,7.6963 -7.52642,0 -0.0133,27.283347 -9.0814,0 0.0133,-27.283347 -7.51336,0 0,-7.6963 24.12119,0 z" />
    <path
       inkscape:connector-curvature="0"
       style="fill:#0082bc;fill-opacity:1;fill-rule:nonzero;stroke:none"
       id="path11173"
       d="m 720.93518,0.93133 -0.0133,19.6785 c 0,1.123743 -0.0133,2.234416 -0.0913,3.345088 -0.0653,1.097607 -0.19603,2.182146 -0.44428,3.227485 -0.23504,1.058405 -0.58797,2.064543 -1.09759,3.031481 -0.50959,0.966938 -1.17601,1.868544 -2.0384,2.717881 -0.73172,0.718673 -1.56801,1.319739 -2.46963,1.816277 -0.90159,0.496538 -1.8816,0.901603 -2.88774,1.215208 -1.01922,0.30052 -2.06454,0.522666 -3.10989,0.666401 -1.05842,0.143725 -2.10373,0.20907 -3.12295,0.20907 -1.01918,0 -2.0776,-0.06534 -3.12295,-0.20907 -1.04532,-0.143759 -2.09067,-0.365868 -3.10988,-0.666401 -1.00615,-0.313622 -1.98615,-0.705605 -2.88775,-1.215208 -0.90159,-0.496538 -1.73787,-1.097604 -2.46963,-1.816277 -0.87546,-0.836271 -1.54184,-1.750943 -2.05146,-2.717881 -0.49652,-0.966938 -0.84932,-1.973076 -1.08453,-3.018415 -0.24838,-1.058405 -0.37893,-2.142944 -0.44428,-3.240551 -0.0653,-1.110672 -0.0783,-2.221345 -0.0783,-3.345088 l 0.0133,-19.6785 9.08141,0 -0.0133,18.41103 c 0,1.13681 0.0267,2.299746 0.14369,3.410417 0.11769,1.097608 0.33973,2.142947 0.7448,3.057618 0.41814,0.901604 1.00614,1.659474 1.85546,2.195211 0.84935,0.535736 1.97308,0.849339 3.42351,0.849339 1.46345,0 2.58719,-0.313602 3.43654,-0.849339 0.84931,-0.535737 1.43735,-1.293607 1.84239,-2.195211 0.40507,-0.914671 0.64028,-1.96001 0.75786,-3.057618 0.11769,-1.110671 0.1437,-2.273607 0.1437,-3.410417 l 0.0133,-18.41103 9.08141,0" />
    <path
       inkscape:connector-curvature="0"
       style="fill:#0082bc;fill-opacity:1;fill-rule:nonzero;stroke:none"
       id="path11177"
       d="m 780.27775,16.61272 c 0.7448,0 1.5027,-0.0392 2.23443,-0.14373 0.73173,-0.1176 1.42429,-0.30054 2.02533,-0.61414 0.60107,-0.30054 1.12373,-0.73174 1.47656,-1.31974 0.36586,-0.588 0.57493,-1.33281 0.57493,-2.28668 0,-0.95387 -0.20904,-1.69867 -0.57493,-2.28668 -0.35283,-0.588 -0.86242,-1.0192 -1.47656,-1.31974 -0.60104,-0.3136 -1.2936,-0.49653 -2.02533,-0.61413 -0.73173,-0.1176 -1.48963,-0.15681 -2.23443,-0.15681 l -0.87545,0 -0.0133,8.74165 0.88856,0 m 8.11443,4.965361 10.96301,14.334207 -11.30273,0 -8.57178,-13.458735 -0.0914,13.458735 -9.10751,0 0.0133,-34.979648 13.60247,0 c 1.72481,0 3.35816,0.20907 4.80855,0.6272 1.46349,0.4312 2.77016,1.07147 3.85468,1.94695 1.08456,0.87547 1.96002,1.98614 2.56109,3.34508 0.60107,1.35894 0.92773,2.96615 0.92773,4.83469 0,1.21521 -0.1697,2.37815 -0.50959,3.46269 -0.32673,1.08454 -0.82318,2.09067 -1.46346,2.96615 -0.65335,0.87547 -1.45042,1.63334 -2.40429,2.22134 -0.9408,0.588 -2.03839,1.019206 -3.27975,1.241341" />
    <path
       inkscape:connector-curvature="0"
       style="fill:#0082bc;fill-opacity:1;fill-rule:nonzero;stroke:none"
       id="path11181"
       d="m 865.36701,0.92872 0,7.6963 -10.80617,0 0,5.84083 10.24431,0 -0.0133,7.709379 -10.24434,0 0,6.036832 10.80621,0 -0.0133,7.696306 -19.90065,0 0.0133,-34.979647 19.91371,0 z" />
    <path
       inkscape:connector-curvature="0"
       style="fill:#0082bc;fill-opacity:1;fill-rule:nonzero;stroke:none"
       id="path11185"
       d="m 925.5302,-3.3e-4 c 0.88852,0 1.81625,0.0653 2.75709,0.196 0.95387,0.13067 1.9208,0.32667 2.87467,0.57494 0.95387,0.24827 1.89467,0.5488 2.79626,0.9016 0.90163,0.35281 1.75094,0.75787 2.52191,1.20214 l -3.6195,7.05604 c -0.41814,-0.3528 -0.86242,-0.6664 -1.3328,-0.95387 -0.47042,-0.2744 -0.96694,-0.52267 -1.47656,-0.73174 -0.50959,-0.196 -1.03225,-0.3528 -1.58105,-0.4704 -0.53573,-0.10453 -1.08456,-0.1568 -1.64642,-0.1568 -0.41814,0 -0.86239,0.0523 -1.30667,0.16987 -0.44428,0.13066 -0.87549,0.3136 -1.25439,0.5488 -0.37896,0.24827 -0.70562,0.5488 -0.94083,0.91467 -0.23504,0.36587 -0.37893,0.784 -0.37893,1.26747 0,0.50961 0.15669,0.95387 0.40507,1.31974 0.26138,0.37894 0.61414,0.67947 1.01918,0.94081 0.4051,0.26133 0.86242,0.4704 1.3067,0.64027 0.45734,0.18293 0.90162,0.32667 1.30666,0.45733 l 2.31284,0.67947 c 1.21518,0.36587 2.36505,0.78401 3.39734,1.30668 1.03228,0.52267 1.96001,1.1368 2.73094,1.89467 0.77094,0.75788 1.39815,1.63335 1.81626,2.69175 0.43121,1.045342 0.66642,2.260548 0.66642,3.684822 0,0.862406 -0.0524,1.737877 -0.18304,2.587214 -0.11768,0.862405 -0.31372,1.711742 -0.588,2.521879 -0.27438,0.810139 -0.64028,1.581075 -1.11066,2.299746 -0.47042,0.731738 -1.04535,1.398141 -1.73788,1.986146 -0.67948,0.574935 -1.42428,1.084538 -2.20829,1.502672 -0.784,0.418137 -1.60721,0.75787 -2.45656,1.032272 -0.84932,0.261346 -1.72478,0.457338 -2.61333,0.588004 -0.87546,0.117587 -1.76401,0.182932 -2.65254,0.182932 -1.09759,0 -2.19522,-0.09148 -3.27974,-0.274382 -1.07149,-0.182932 -2.14295,-0.444271 -3.17523,-0.784005 -1.04535,-0.339733 -2.05146,-0.770939 -3.0315,-1.254408 -0.96694,-0.496534 -1.90774,-1.058407 -2.80933,-1.67254 l 3.90696,-7.33044 c 0.57493,0.496536 1.16293,0.980006 1.77708,1.398141 0.62717,0.431202 1.26745,0.836272 1.94694,1.149872 0.66638,0.339735 1.37201,0.601071 2.09067,0.784005 0.73176,0.182929 1.47656,0.287467 2.24746,0.287467 0.53576,0 1.08456,-0.06533 1.59415,-0.209067 0.52269,-0.143742 1.00614,-0.352803 1.42428,-0.640271 0.41815,-0.287467 0.75787,-0.653335 1.00615,-1.097605 0.24838,-0.444268 0.392,-0.966938 0.392,-1.581075 0,-0.64027 -0.22204,-1.176006 -0.588,-1.620276 -0.36587,-0.457334 -0.87549,-0.823203 -1.43736,-1.136805 -0.57493,-0.300537 -1.18907,-0.535737 -1.80318,-0.744805 -0.60111,-0.195991 -1.18908,-0.352801 -1.68563,-0.496534 -1.42425,-0.405069 -2.73095,-0.797069 -3.88082,-1.280539 -1.14987,-0.47041 -2.15601,-1.01921 -2.97919,-1.72481 -0.82322,-0.71867 -1.47656,-1.58108 -1.90777,-2.70482 -0.44428,-1.11067 -0.67946,-2.46961 -0.67946,-4.16828 0,-1.77708 0.31373,-3.39736 0.9016,-4.8347 0.588,-1.42427 1.43735,-2.66561 2.50881,-3.69788 1.05842,-1.01921 2.35201,-1.81628 3.8024,-2.36508 1.46359,-0.54882 3.08388,-0.83629 4.83482,-0.83629" />
  </g>
</svg>
