<?xml version="1.0" encoding="UTF-8"?>
<svg xmlns="http://www.w3.org/2000/svg" xmlns:xlink="http://www.w3.org/1999/xlink" width="1000px" height="286px" viewBox="0 0 999 286" version="1.1">
<g id="surface1">
<path style=" stroke:none;fill-rule:nonzero;fill:rgb(0%,0%,0%);fill-opacity:1;" d="M 0 287.140625 L 0 0 L 288.546875 0 L 288.546875 287.140625 Z M 0 287.140625 "/>
<path style=" stroke:none;fill-rule:nonzero;fill:rgb(0%,0%,0%);fill-opacity:1;" d="M 388.9375 22.289062 C 383.878906 20.328125 378.410156 19.320312 373.078125 19.320312 C 366.203125 19.320312 358.515625 21.964844 358.515625 30.277344 C 358.515625 36.65625 362.386719 40.148438 373.566406 44.457031 C 387.234375 49.71875 394.324219 55.117188 394.324219 66.183594 C 394.324219 80.308594 381.957031 85.898438 369.992188 85.898438 C 363.714844 85.898438 355.484375 84.507812 348.691406 81.507812 L 350.882812 73.980469 C 357.515625 77.199219 364.550781 78.617188 370.234375 78.617188 C 378.980469 78.617188 385.476562 74.746094 385.476562 66.8125 C 385.476562 59.476562 379.113281 55.796875 368.234375 51.351562 C 355.917969 46.5 349.71875 40.394531 349.71875 30.851562 C 349.71875 17.65625 362.277344 12.039062 373.160156 12.039062 C 379.546875 12.039062 385.878906 13.046875 391.078125 15.066406 "/>
<path style=" stroke:none;fill-rule:nonzero;fill:rgb(0%,0%,0%);fill-opacity:1;" d="M 428.882812 85.890625 C 413.589844 85.890625 404.140625 75.363281 404.140625 58.132812 C 404.140625 40.984375 413.589844 30.652344 428.882812 30.652344 C 444.066406 30.652344 453.59375 40.984375 453.59375 58.132812 C 453.59375 75.363281 444.066406 85.890625 428.882812 85.890625 Z M 428.882812 37.359375 C 417.785156 37.359375 412.695312 45.976562 412.695312 58.132812 C 412.695312 70.484375 417.972656 79.183594 428.882812 79.183594 C 439.953125 79.183594 445.011719 70.484375 445.011719 58.132812 C 445.011719 45.976562 439.953125 37.359375 428.882812 37.359375 "/>
<path style=" stroke:none;fill-rule:nonzero;fill:rgb(0%,0%,0%);fill-opacity:1;" d="M 475.464844 31.859375 L 475.464844 39.710938 L 475.570312 39.710938 C 478.820312 34.066406 485.019531 30.660156 492.378906 30.660156 C 504.371094 30.660156 511.515625 38.265625 511.515625 49.851562 L 511.515625 84.75 L 502.855469 84.75 L 502.855469 53.070312 C 502.855469 43.390625 499.984375 37.363281 490.351562 37.363281 C 483.070312 37.363281 475.84375 42.4375 475.84375 54.785156 L 475.84375 84.75 L 467.179688 84.75 L 467.179688 31.859375 "/>
<path style=" stroke:none;fill-rule:nonzero;fill:rgb(0%,0%,0%);fill-opacity:1;" d="M 546.199219 74.421875 L 546.417969 74.421875 L 562.25 31.863281 L 571.289062 31.863281 L 542.167969 104.25 L 533.152344 104.25 L 541.597656 83.800781 L 521 31.863281 L 530.394531 31.863281 "/>
<path style=" stroke:none;fill-rule:nonzero;fill:rgb(0%,0%,0%);fill-opacity:1;" d="M 351.449219 111.542969 L 391.050781 111.542969 L 391.050781 118.820312 L 360.21875 118.820312 L 360.21875 142.59375 L 388.613281 142.59375 L 388.613281 149.875 L 360.21875 149.875 L 360.21875 175.691406 L 391.835938 175.691406 L 391.835938 182.972656 L 351.449219 182.972656 "/>
<path style=" stroke:none;fill-rule:nonzero;fill:rgb(0%,0%,0%);fill-opacity:1;" d="M 413.285156 130.101562 L 413.285156 137.953125 L 413.367188 137.953125 C 416.613281 132.394531 422.8125 128.957031 430.148438 128.957031 C 442.164062 128.957031 449.257812 136.507812 449.257812 148.152344 L 449.257812 182.996094 L 440.703125 182.996094 L 440.703125 151.394531 C 440.703125 141.636719 437.917969 135.609375 428.117188 135.609375 C 420.863281 135.609375 413.609375 140.734375 413.609375 153.085938 L 413.609375 182.996094 L 405.003906 182.996094 L 405.003906 130.101562 "/>
<path style=" stroke:none;fill-rule:nonzero;fill:rgb(0%,0%,0%);fill-opacity:1;" d="M 458.480469 130.101562 L 467.980469 130.101562 L 467.980469 116.796875 L 476.5625 116.796875 L 476.5625 130.101562 L 488.902344 130.101562 L 488.902344 136.808594 L 476.5625 136.808594 L 476.5625 168.460938 C 476.5625 175.6875 477.238281 176.96875 483.328125 176.96875 C 485.65625 176.96875 487.199219 176.777344 488.984375 176.585938 L 488.984375 182.996094 C 487.0625 183.292969 483.734375 183.675781 480.917969 183.675781 C 469.769531 183.675781 467.980469 178.359375 467.980469 168.980469 L 467.980469 136.808594 L 458.480469 136.808594 "/>
<path style=" stroke:none;fill-rule:nonzero;fill:rgb(0%,0%,0%);fill-opacity:1;" d="M 504.777344 158.847656 C 505.371094 170.132812 512.328125 177.46875 523.667969 177.46875 C 528.648438 177.46875 533.898438 176.597656 537.988281 174.878906 L 539.449219 181.339844 C 535.007812 183.304688 529.054688 184.175781 523.425781 184.175781 C 505.804688 184.175781 496.464844 172.398438 496.464844 156.640625 C 496.464844 140.691406 505.695312 128.964844 520.5 128.964844 C 535.496094 128.964844 542.667969 139.109375 542.667969 154.785156 L 542.667969 158.847656 Z M 504.777344 152.140625 L 534.875 152.140625 L 534.875 151.757812 C 534.875 141.644531 529.136719 135.617188 520.664062 135.617188 C 511 135.617188 505.695312 142.460938 504.777344 152.140625 "/>
<path style=" stroke:none;fill-rule:nonzero;fill:rgb(0%,0%,0%);fill-opacity:1;" d="M 581.804688 135.933594 C 580.585938 135.742188 579.070312 135.605469 577.363281 135.605469 C 570.300781 135.605469 564.644531 139.722656 564.644531 152.070312 L 564.644531 182.988281 L 556.0625 182.988281 L 556.0625 130.097656 L 564.316406 130.097656 L 564.316406 137.269531 L 564.425781 137.269531 C 567.050781 131.679688 571.492188 128.953125 578.339844 128.953125 C 579.257812 128.953125 580.746094 128.953125 582.183594 129.144531 "/>
<path style=" stroke:none;fill-rule:nonzero;fill:rgb(0%,0%,0%);fill-opacity:1;" d="M 585.671875 130.101562 L 595.171875 130.101562 L 595.171875 116.796875 L 603.722656 116.796875 L 603.722656 130.101562 L 616.066406 130.101562 L 616.066406 136.808594 L 603.722656 136.808594 L 603.722656 168.460938 C 603.722656 175.6875 604.453125 176.96875 610.492188 176.96875 C 612.847656 176.96875 614.363281 176.777344 616.148438 176.585938 L 616.148438 182.996094 C 614.226562 183.292969 610.949219 183.675781 608.082031 183.675781 C 596.957031 183.675781 595.171875 178.359375 595.171875 168.980469 L 595.171875 136.808594 L 585.671875 136.808594 "/>
<path style=" stroke:none;fill-rule:nonzero;fill:rgb(0%,0%,0%);fill-opacity:1;" d="M 657.476562 148.535156 C 657.476562 139.867188 653.363281 135.613281 644.621094 135.613281 C 640.316406 135.613281 635.28125 136.757812 630.898438 138.722656 L 629.003906 132.070312 C 633.171875 130.351562 639.421875 128.960938 644.972656 128.960938 C 658.046875 128.960938 666.140625 135.039062 666.140625 147.910156 L 666.140625 170.945312 C 666.140625 174.355469 666.410156 179.371094 667.085938 182.96875 L 659.480469 182.96875 C 658.886719 180.761719 658.585938 178.171875 658.316406 175.0625 L 658.125 175.0625 C 655.285156 180.054688 649.734375 184.171875 640.992188 184.171875 C 632.277344 184.171875 623.453125 179.507812 623.453125 168.273438 C 623.453125 153.089844 639.234375 150.0625 657.476562 150.0625 Z M 655.121094 156.117188 C 643.050781 156.117188 631.789062 158.160156 631.789062 167.839844 C 631.789062 173.347656 634.6875 177.464844 641.535156 177.464844 C 652.199219 177.464844 657.476562 169.554688 657.476562 160.613281 L 657.476562 156.117188 "/>
<path style=" stroke:none;fill-rule:nonzero;fill:rgb(0%,0%,0%);fill-opacity:1;" d="M 691.226562 110.214844 L 691.226562 119.019531 L 681.96875 119.019531 L 681.96875 110.214844 Z M 690.875 130.089844 L 690.875 182.980469 L 682.265625 182.980469 L 682.265625 130.089844 "/>
<path style=" stroke:none;fill-rule:nonzero;fill:rgb(0%,0%,0%);fill-opacity:1;" d="M 715.410156 130.101562 L 715.410156 137.953125 L 715.574219 137.953125 C 718.765625 132.394531 724.910156 128.957031 732.300781 128.957031 C 744.34375 128.957031 751.410156 136.507812 751.410156 148.152344 L 751.410156 182.996094 L 742.882812 182.996094 L 742.882812 151.394531 C 742.882812 141.636719 739.988281 135.609375 730.296875 135.609375 C 723.042969 135.609375 715.734375 140.734375 715.734375 153.085938 L 715.734375 182.996094 L 707.128906 182.996094 L 707.128906 130.101562 "/>
<path style=" stroke:none;fill-rule:nonzero;fill:rgb(0%,0%,0%);fill-opacity:1;" d="M 775.453125 130.101562 L 775.453125 138.28125 L 775.480469 138.28125 C 778.132812 132.585938 784.386719 128.957031 791.53125 128.957031 C 799.652344 128.957031 804.929688 132.066406 807.417969 137.574219 L 807.742188 137.574219 C 811.480469 131.25 817.730469 128.957031 824.578125 128.957031 C 837.03125 128.957031 843.203125 136.945312 843.203125 148.152344 L 843.203125 182.996094 L 834.648438 182.996094 L 834.648438 151.394531 C 834.648438 142.019531 832.078125 135.609375 822.65625 135.609375 C 816.054688 135.609375 809.585938 139.917969 809.585938 150.441406 L 809.585938 182.996094 L 800.949219 182.996094 L 800.949219 150.441406 C 800.949219 141.199219 798.867188 135.609375 789.285156 135.609375 C 782.273438 135.609375 775.695312 140.734375 775.695312 152.078125 L 775.695312 182.996094 L 767.117188 182.996094 L 767.117188 130.101562 "/>
<path style=" stroke:none;fill-rule:nonzero;fill:rgb(0%,0%,0%);fill-opacity:1;" d="M 864.464844 158.847656 C 865.03125 170.132812 872.015625 177.46875 883.355469 177.46875 C 888.308594 177.46875 893.558594 176.597656 897.703125 174.878906 L 899.109375 181.339844 C 894.699219 183.304688 888.742188 184.175781 883.140625 184.175781 C 865.492188 184.175781 856.128906 172.398438 856.128906 156.640625 C 856.128906 140.691406 865.328125 128.964844 880.191406 128.964844 C 895.15625 128.964844 902.355469 139.109375 902.355469 154.785156 L 902.355469 158.847656 Z M 864.464844 152.140625 L 894.5625 152.140625 L 894.5625 151.757812 C 894.5625 141.644531 888.878906 135.617188 880.324219 135.617188 C 870.6875 135.617188 865.328125 142.460938 864.464844 152.140625 "/>
<path style=" stroke:none;fill-rule:nonzero;fill:rgb(0%,0%,0%);fill-opacity:1;" d="M 924 130.101562 L 924 137.953125 L 924.054688 137.953125 C 927.355469 132.394531 933.527344 128.957031 940.863281 128.957031 C 952.878906 128.957031 959.945312 136.507812 959.945312 148.152344 L 959.945312 182.996094 L 951.390625 182.996094 L 951.390625 151.394531 C 951.390625 141.636719 948.578125 135.609375 938.832031 135.609375 C 931.578125 135.609375 924.324219 140.734375 924.324219 153.085938 L 924.324219 182.996094 L 915.71875 182.996094 L 915.71875 130.101562 "/>
<path style=" stroke:none;fill-rule:nonzero;fill:rgb(0%,0%,0%);fill-opacity:1;" d="M 969.195312 130.101562 L 978.695312 130.101562 L 978.695312 116.796875 L 987.304688 116.796875 L 987.304688 130.101562 L 999.59375 130.101562 L 999.59375 136.808594 L 987.304688 136.808594 L 987.304688 168.460938 C 987.304688 175.6875 988.007812 176.96875 994.042969 176.96875 C 996.398438 176.96875 997.886719 176.777344 999.671875 176.585938 L 999.671875 182.996094 C 997.777344 183.292969 994.421875 183.675781 991.660156 183.675781 C 980.484375 183.675781 978.695312 178.359375 978.695312 168.980469 L 978.695312 136.808594 L 969.195312 136.808594 "/>
<path style=" stroke:none;fill-rule:nonzero;fill:rgb(0%,0%,0%);fill-opacity:1;" d="M 396.015625 271.035156 L 396.207031 271.035156 L 396.207031 208.765625 L 404.460938 208.765625 L 404.460938 280.222656 L 391.523438 280.222656 L 359.882812 217.433594 L 359.691406 217.433594 L 359.691406 280.222656 L 351.464844 280.222656 L 351.464844 208.765625 L 364.671875 208.765625 "/>
<path style=" stroke:none;fill-rule:nonzero;fill:rgb(0%,0%,0%);fill-opacity:1;" d="M 426.808594 256.082031 C 427.429688 267.480469 434.386719 274.703125 445.78125 274.703125 C 450.652344 274.703125 455.929688 273.832031 460.046875 272.113281 L 461.507812 278.628906 C 457.042969 280.539062 451.113281 281.410156 445.566406 281.410156 C 427.808594 281.410156 418.523438 269.632812 418.523438 253.875 C 418.523438 237.898438 427.699219 226.175781 442.558594 226.175781 C 457.5 226.175781 464.699219 236.371094 464.699219 252.019531 L 464.699219 256.082031 Z M 426.808594 249.375 L 456.960938 249.375 L 456.960938 249.050781 C 456.960938 238.851562 451.167969 232.910156 442.75 232.910156 C 433.140625 232.910156 427.699219 239.671875 426.808594 249.375 "/>
<path style=" stroke:none;fill-rule:nonzero;fill:rgb(0%,0%,0%);fill-opacity:1;" d="M 470.589844 227.386719 L 480.089844 227.386719 L 480.089844 214.027344 L 488.671875 214.027344 L 488.671875 227.386719 L 501.039062 227.386719 L 501.039062 234.09375 L 488.671875 234.09375 L 488.671875 265.71875 C 488.671875 272.945312 489.402344 274.253906 495.492188 274.253906 C 497.765625 274.253906 499.28125 274.007812 501.121094 273.816406 L 501.121094 280.222656 C 499.253906 280.523438 495.84375 280.988281 493.054688 280.988281 C 481.90625 280.988281 480.089844 275.671875 480.089844 266.292969 L 480.089844 234.09375 L 470.589844 234.09375 "/>
<path style=" stroke:none;fill-rule:nonzero;fill:rgb(0%,0%,0%);fill-opacity:1;" d="M 561.550781 272.933594 L 561.765625 272.933594 L 573.429688 227.375 L 582.578125 227.375 L 567.015625 280.210938 L 556 280.210938 L 544.6875 234.410156 L 544.496094 234.410156 L 532.886719 280.210938 L 521.761719 280.210938 L 506.386719 227.375 L 515.726562 227.375 L 527.28125 272.933594 L 527.554688 272.933594 L 538.785156 227.375 L 550.453125 227.375 "/>
<path style=" stroke:none;fill-rule:nonzero;fill:rgb(0%,0%,0%);fill-opacity:1;" d="M 614.953125 281.417969 C 599.6875 281.417969 590.160156 270.894531 590.160156 253.746094 C 590.160156 236.515625 599.6875 226.183594 614.953125 226.183594 C 630.191406 226.183594 639.691406 236.515625 639.691406 253.746094 C 639.691406 270.894531 630.191406 281.417969 614.953125 281.417969 Z M 614.953125 232.890625 C 603.828125 232.890625 598.824219 241.503906 598.824219 253.746094 C 598.824219 266.015625 604.046875 274.710938 614.953125 274.710938 C 626.078125 274.710938 631.113281 266.015625 631.113281 253.746094 C 631.113281 241.503906 626.078125 232.890625 614.953125 232.890625 "/>
<path style=" stroke:none;fill-rule:nonzero;fill:rgb(0%,0%,0%);fill-opacity:1;" d="M 679.050781 233.152344 C 677.859375 232.960938 676.316406 232.90625 674.613281 232.90625 C 667.574219 232.90625 661.890625 236.941406 661.890625 249.292969 L 661.890625 280.210938 L 653.285156 280.210938 L 653.285156 227.371094 L 661.566406 227.371094 L 661.566406 234.488281 L 661.621094 234.488281 C 664.273438 228.84375 668.738281 226.171875 675.613281 226.171875 C 676.535156 226.171875 677.941406 226.171875 679.429688 226.363281 "/>
<path style=" stroke:none;fill-rule:nonzero;fill:rgb(0%,0%,0%);fill-opacity:1;" d="M 729.65625 227.386719 L 706.351562 251.023438 L 730.6875 280.222656 L 719.644531 280.222656 L 697.152344 252.46875 L 696.933594 252.46875 L 696.933594 280.222656 L 688.355469 280.222656 L 688.355469 206.664062 L 696.933594 206.664062 L 696.933594 250.207031 L 697.152344 250.207031 L 718.777344 227.386719 "/>
<path style=" stroke:none;fill-rule:nonzero;fill:rgb(100%,100%,100%);fill-opacity:1;" d="M 114.210938 162.589844 C 106.617188 162.589844 99.582031 160.324219 94.894531 156.105469 C 91.5 153.054688 89.585938 148.6875 89.636719 144.125 C 89.625 139.582031 91.535156 135.246094 94.894531 132.1875 C 99.246094 128.226562 106.953125 125.710938 114.210938 125.710938 C 122.238281 125.710938 128.667969 127.738281 133.578125 132.195312 C 136.925781 135.253906 138.808594 139.589844 138.765625 144.125 C 138.742188 148.660156 136.867188 152.988281 133.578125 156.105469 C 129.003906 160.351562 121.816406 162.589844 114.210938 162.589844 L 114.210938 157.734375 C 118.234375 157.734375 121.972656 156.34375 124.578125 153.746094 C 127.1875 151.148438 128.375 147.996094 128.375 144.109375 C 128.375 140.394531 127.070312 136.925781 124.578125 134.46875 C 122.003906 131.933594 118.179688 130.507812 114.210938 130.507812 C 110.242188 130.507812 106.402344 131.921875 103.824219 134.46875 C 101.34375 136.929688 100.054688 140.414062 100.054688 144.109375 C 99.980469 147.695312 101.335938 151.164062 103.824219 153.746094 C 106.402344 156.316406 110.214844 157.734375 114.210938 157.734375 Z M 58.773438 125.710938 C 54.714844 125.710938 50.105469 126.476562 46.210938 128.226562 C 42.574219 129.851562 39.613281 132.464844 39.613281 136.792969 C 39.609375 139.058594 40.46875 141.242188 42.023438 142.894531 C 43.074219 143.867188 44.769531 145.515625 49.199219 146.488281 C 51.179688 146.90625 55.414062 147.582031 59.632812 148.027344 C 63.847656 148.46875 67.9375 148.863281 69.609375 149.3125 C 70.941406 149.652344 73.183594 150.113281 73.183594 152.628906 C 73.183594 155.140625 70.824219 155.894531 70.414062 156.058594 C 70.003906 156.222656 67.175781 157.523438 62.089844 157.523438 C 58.722656 157.429688 55.382812 156.855469 52.175781 155.816406 C 50.28125 155.136719 48.292969 154.246094 46.4375 151.976562 C 45.6875 150.910156 45.273438 149.644531 45.242188 148.339844 L 40.636719 148.339844 L 40.636719 161.246094 L 45.753906 161.246094 L 45.753906 159.5 C 45.75 159.234375 45.894531 158.992188 46.121094 158.863281 C 46.351562 158.730469 46.632812 158.734375 46.859375 158.871094 C 49.269531 159.921875 51.777344 160.730469 54.347656 161.292969 C 57.035156 161.855469 58.773438 162.261719 62.113281 162.261719 C 65.640625 162.328125 69.15625 161.832031 72.527344 160.789062 C 74.761719 160.175781 76.863281 159.140625 78.710938 157.734375 C 80.816406 156.117188 82.042969 153.601562 82.023438 150.941406 C 82.042969 148.453125 81.082031 146.054688 79.347656 144.261719 C 78.382812 143.328125 77.269531 142.5625 76.046875 142.003906 C 74.734375 141.410156 73.375 140.9375 71.976562 140.585938 C 69.320312 139.933594 63.359375 139.121094 60.507812 138.835938 C 57.515625 138.527344 52.328125 138.09375 50.253906 137.453125 C 49.628906 137.257812 48.347656 136.648438 48.347656 135.160156 C 48.347656 134.101562 48.933594 133.203125 50.085938 132.480469 C 51.925781 131.328125 55.636719 130.609375 59.507812 130.609375 C 63.25 130.566406 66.964844 131.292969 70.417969 132.742188 C 71.347656 133.148438 72.21875 133.667969 73.015625 134.292969 C 74.3125 135.402344 75.210938 136.90625 75.574219 138.578125 L 79.707031 138.578125 L 79.707031 127.34375 L 75.101562 127.34375 L 75.101562 128.644531 C 75.101562 129.066406 74.683594 129.617188 73.84375 129.160156 C 71.769531 128.078125 65.929688 125.742188 58.773438 125.710938 Z M 159.902344 127.773438 L 182.417969 148.101562 L 182.1875 134.414062 C 182.160156 132.617188 181.835938 131.867188 179.890625 131.867188 L 175.664062 131.867188 L 175.664062 127.773438 L 194.925781 127.773438 L 194.925781 131.867188 L 190.792969 131.867188 C 188.816406 131.867188 188.699219 132.503906 188.664062 134.414062 L 189.011719 160.570312 L 182.417969 160.570312 L 156.480469 137.410156 L 156.480469 153.84375 C 156.503906 155.632812 156.585938 156.472656 158.425781 156.472656 L 163.03125 156.472656 L 163.03125 160.570312 L 144.148438 160.570312 L 144.148438 156.472656 L 148.570312 156.472656 C 150.222656 156.472656 150.15625 154.898438 150.15625 153.75 L 150.15625 134.570312 C 150.15625 133.3125 149.980469 131.871094 147.390625 131.871094 L 143.804688 131.871094 L 143.804688 127.773438 Z M 216.902344 156.464844 C 217.285156 156.464844 217.664062 156.441406 218.042969 156.394531 C 218.441406 156.277344 218.765625 155.988281 218.929688 155.605469 C 218.988281 155.316406 219.015625 155.019531 219.019531 154.722656 L 219.019531 148.25 C 219.019531 148.03125 219.019531 148.027344 218.742188 147.683594 C 218.464844 147.339844 206.949219 134.273438 206.425781 133.6875 C 205.773438 132.972656 204.625 131.871094 202.878906 131.871094 L 198.878906 131.871094 L 198.878906 127.773438 L 221.453125 127.773438 L 221.453125 131.863281 L 218.730469 131.863281 C 218.101562 131.863281 217.683594 132.464844 218.21875 133.121094 C 218.21875 133.121094 225.816406 142.214844 225.886719 142.3125 C 225.957031 142.40625 226.019531 142.429688 226.117188 142.339844 C 226.210938 142.253906 233.902344 133.203125 233.960938 133.121094 C 234.144531 132.878906 234.171875 132.546875 234.027344 132.277344 C 233.882812 132.007812 233.597656 131.84375 233.289062 131.863281 L 230.496094 131.863281 L 230.496094 127.773438 L 249.003906 127.773438 L 249.003906 131.871094 L 244.871094 131.871094 C 243.371094 131.871094 242.773438 132.148438 241.632812 133.421875 L 229.171875 147.644531 C 229.050781 147.820312 228.996094 148.035156 229.023438 148.25 L 229.023438 154.71875 C 229.023438 155.015625 229.054688 155.3125 229.113281 155.601562 C 229.277344 155.984375 229.601562 156.273438 230 156.390625 C 230.375 156.441406 230.75 156.464844 231.128906 156.460938 L 235.355469 156.460938 L 235.355469 160.558594 L 212.898438 160.558594 L 212.898438 156.460938 Z M 216.902344 156.464844 "/>
</g>
</svg>
