<svg version="1.1" xmlns="http://www.w3.org/2000/svg" xmlns:xlink="http://www.w3.org/1999/xlink" width="1053.07274" height="358.26603" viewBox="0,0,1053.07274,358.26603"><g transform="translate(286.53637,-0.86698)"><g data-paper-data="{&quot;isPaintingLayer&quot;:true}" fill="#231916" fill-rule="nonzero" stroke="none" stroke-width="1" stroke-linecap="butt" stroke-linejoin="miter" stroke-miterlimit="10" stroke-dasharray="" stroke-dashoffset="0" style="mix-blend-mode: normal"><path d="M-222.49587,284.13435h9.39245v9.56519c3.62787,-7.68307 11.30187,-11.15638 19.53048,-11.15638c9.59247,0 17.80291,4.07341 23.73116,11.15638c0.61827,0.92742 1.17292,1.83668 1.77302,2.85504c0.48188,-1.01836 0.89108,-1.83668 1.50935,-2.85504c5.10084,-7.08297 14.60241,-11.15638 23.13107,-11.15638c7.98312,0 15.548,3.87337 22.79463,11.15638c5.82822,5.79187 6.89203,13.32945 6.89203,21.87632v41.72505h-9.98346v-40.77034c0,-5.32815 -0.42733,-11.19272 -3.64604,-15.72074c-3.95519,-5.68277 -9.81069,-8.77419 -16.4936,-8.77419c-6.33741,0 -12.72938,3.22781 -16.26632,8.31048c-3.14598,4.58257 -3.05504,10.8563 -3.05504,16.18445v40.77034h-9.88345v-41.82505c0,-5.49182 -0.27274,-9.74707 -3.55511,-14.65696c-3.7097,-5.28267 -9.84707,-8.74688 -16.3936,-8.74688c-6.24648,0 -12.35658,2.64589 -16.12083,7.78311c-3.29144,4.77351 -3.44603,9.99253 -3.44603,15.62073v41.82505h-9.91073z"/><path d="M-90.7279,321.08132c0,16.10266 13.93865,28.55012 29.60487,28.55012c15.22068,0 28.26828,-13.12033 28.26828,-28.42284c0,-16.19355 -12.28384,-29.1684 -28.53195,-29.1684c-16.12083,0 -29.3412,12.89302 -29.3412,29.04112M-23.28955,357.29634h-9.56519v-13.72951c-5.6282,10.30168 -16.77548,15.56618 -28.26828,15.56618c-10.92905,0 -22.87647,-4.86441 -32.23255,-15.56618c-2.77317,-2.95505 -7.30122,-12.18384 -7.30122,-23.25838c0,-9.8289 4.94628,-19.77594 7.65583,-22.26727c11.08365,-11.8292 21.38533,-15.49345 31.61428,-15.49345c11.4837,0 23.13106,5.08266 28.53195,15.49345v-13.9023h9.56519z"/><path d="M-3.57723,258.45559h9.91983v69.41138l33.68735,-43.73443h12.59296l-28.25918,36.70601l30.23224,36.46052h-12.77484l-23.79483,-28.84108l-11.68371,14.97519v13.86589h-9.91983z"/><path d="M123.22902,315.35403c-2.53678,-12.98395 -14.40236,-23.31294 -27.93185,-23.31294c-13.82044,0 -26.00428,9.74707 -28.45012,23.31294zM66.84705,324.30095c0.63648,13.87499 14.10235,25.33142 27.70457,25.33142c10.79267,0 21.73083,-6.06464 26.14063,-16.03899h10.30171c-5.14629,14.68424 -20.07606,25.53146 -35.61496,25.53146c-21.32167,0 -38.32446,-16.9028 -38.32446,-38.27902c0,-21.34894 16.87548,-38.29719 38.13353,-38.29719c11.4746,0 22.05818,5.22816 29.42303,14.17508c6.78292,8.44683 8.29224,17.02097 8.54684,27.57725z"/><path d="M226.24503,300.81982c-5.73732,5.8646 -7.79218,12.50205 -7.79218,20.52155c0,16.33904 13.29307,28.28646 29.423,28.28646c15.83895,0 28.78652,-13.06578 28.78652,-28.91384c0,-16.60271 -13.20216,-28.67744 -29.51393,-28.67744c-7.88311,0 -15.40251,3.22781 -20.9034,8.78326M209.28771,258.45832h9.9289v39.3519c4.79169,-10.17439 16.86638,-15.26613 27.66815,-15.26613c21.24894,0 39.63378,16.25721 39.63378,37.92441c0,10.49262 -4.69167,19.87598 -8.77415,24.27671c-10.15622,11.58371 -19.19405,14.38416 -29.86854,14.38416c-10.63811,0 -23.47661,-4.85531 -29.25027,-14.38416v12.55659h-9.33787z"/><path d="M364.37221,315.35403c-2.46405,-12.98395 -14.40236,-23.31294 -27.93186,-23.31294c-13.78409,0 -25.98607,9.74707 -28.42284,23.31294zM308.01751,324.30095c0.51826,13.87499 14.07503,25.33142 27.65908,25.33142c10.80177,0 21.73086,-6.06464 26.2316,-16.03899h10.31078c-5.12811,14.68424 -20.15785,25.53146 -35.62402,25.53146c-21.49443,0 -38.43358,-16.9028 -38.43358,-38.27902c0,-21.34894 16.83914,-38.29719 38.07897,-38.29719c11.64736,0 22.05815,5.22816 29.50483,14.17508c6.8193,8.44683 8.29227,17.02097 8.61049,27.57725z"/><path d="M390.72928,258.45652h9.85614v98.84347h-9.85614z"/><path d="M419.52491,284.13343h9.86524v73.16656h-9.86524zM419.52491,258.45652h9.86524v16.86638h-9.86524z"/><path d="M512.07008,315.35403c-2.53678,-12.98395 -14.48416,-23.31294 -27.9682,-23.31294c-13.82955,0 -25.96793,9.74707 -28.41377,23.31294zM455.6881,324.30095c0.56372,13.87499 14.08413,25.33142 27.61363,25.33142c10.82905,0 21.80355,-6.06464 26.23157,-16.03899h10.2835c-5.10084,14.68424 -20.02143,25.53146 -35.52398,25.53146c-21.48533,0 -38.49724,-16.9028 -38.49724,-38.27902c0,-21.34894 16.83003,-38.29719 38.1517,-38.29719c11.50187,0 22.13092,5.22816 29.45031,14.17508c6.79202,8.44683 8.29227,17.02097 8.52866,27.57725z"/><path d="M524.98037,284.13435h10.71087l25.26776,60.60995l25.32235,-60.60995h10.71084l-30.9687,73.16656h-10.26533z"/><path d="M666.21447,315.35403c-2.5004,-12.98395 -14.37509,-23.31294 -27.89548,-23.31294c-13.78409,0 -25.98607,9.74707 -28.36829,23.31294zM609.9507,324.30095c0.55465,13.87499 14.12049,25.33142 27.56815,25.33142c10.79267,0 21.87632,-6.06464 26.19522,-16.03899h10.2653c-5.08267,14.68424 -20.02143,25.53146 -35.52399,25.53146c-21.43078,0 -38.38812,-16.9028 -38.38812,-38.27902c0,-21.34894 16.83003,-38.29719 38.10625,-38.29719c11.51098,0 22.13092,5.22816 29.40483,14.17508c6.94658,8.44683 8.41955,17.02097 8.61959,27.57725z"/><path d="M182.49693,344.06963c0,7.90128 -6.25558,14.27508 -14.18415,14.27508c-7.81039,0 -14.18414,-6.37379 -14.18414,-14.27508c0,-7.774 6.37375,-14.21142 14.18414,-14.21142c7.92856,0 14.18415,6.43742 14.18415,14.21142"/><path d="M605.21899,155.47417l5.64638,-0.37281c2.21856,-0.6092 3.6188,-2.18214 4.49167,-3.85515l0.33639,-4.52802v-32.49625c0,-0.80014 0.00003,-1.09109 -1.42748,-2.89139c-1.35476,-1.86395 -59.14608,-67.42925 -61.83742,-70.28425c-3.29144,-3.64604 -8.97423,-9.19241 -17.80294,-9.19241h-20.1942v-20.50336h113.54588v20.50336h-13.71133c-3.01867,0 -5.29178,2.98228 -2.48222,6.40103l38.50631,46.0803l1.10926,0.11821l39.53377,-46.19851c1.8003,-2.22763 0.66375,-6.40103 -3.49149,-6.40103h-13.92047v-20.50336h93.01526v20.50336h-20.75795c-7.54668,0 -10.59265,1.38206 -16.23904,7.83766c-2.68227,2.94594 -61.11911,69.64776 -62.64663,71.43895l-0.80921,3.09143v32.49625l0.44554,4.52802c0.6092,1.67301 2.17307,3.24595 4.4098,3.85515l5.59183,0.31826h21.36712v20.66701h-112.92758v-20.61246zM318.48104,11.35053l113.19132,102.07126l-1.16385,-68.76579c-0.09094,-8.94692 -1.81847,-12.80211 -11.4746,-12.80211h-21.33987v-20.50336h96.83407v20.50336h-20.81251c-9.85617,0 -10.41079,3.26419 -10.6199,12.80211l1.76392,131.43063h-33.18725l-130.43051,-116.36454v82.50443c0.15456,9.12876 0.65465,13.24766 9.87434,13.24766h23.23111v20.61246h-95.16109v-20.61246h22.33096c8.32865,0 7.95584,-7.83766 7.95584,-13.6386v-96.41581c0,-6.23737 -0.9456,-13.5295 -13.93865,-13.5295h-17.98478v-20.53973zM-190.06601,0.88516c36.01501,0.18183 65.32893,11.92924 75.68517,17.43013c4.24614,2.18217 6.41921,-0.49096 6.41921,-2.65496v-6.54652h23.20383v56.42743h-20.86706c-2.23673,-10.41989 -8.3832,-17.87564 -12.81121,-21.48533c-3.97336,-3.2096 -8.89237,-5.80097 -13.12034,-7.84676c-12.34747,-5.56455 -31.78701,-10.68356 -54.87263,-10.6199c-19.32136,0 -38.12442,3.53693 -47.31684,9.28332c-5.76459,3.71881 -8.83782,8.2741 -8.83782,13.56588c0,7.41029 6.51925,10.55627 9.71979,11.51097c10.32895,3.21871 36.48776,5.34633 51.49932,6.99207c14.25687,1.44569 44.25272,5.44634 57.59128,8.80143c6.8193,1.59118 15.0934,4.63712 20.4579,7.09207c6.11009,2.84593 11.86559,6.53742 16.63909,11.33821c3.55514,3.46421 13.41128,14.98428 13.41128,33.58734c0,19.33953 -11.32003,30.014 -16.57543,34.10558c-9.50157,7.62851 -21.35805,12.57478 -31.15967,15.39344c-10.11074,2.90048 -24.86771,7.32846 -52.31768,7.32846c-16.7482,0 -25.50414,-2.0003 -38.98818,-4.81896c-16.61182,-3.44603 -32.37804,-9.61068 -37.72438,-12.12018c-4.21886,-2.03669 -5.55544,2.19128 -5.55544,3.04598v8.77415h-25.77696v-64.83791h23.34929c0,7.64672 3.53693,15.46617 5.88277,18.24845c9.33791,11.43825 19.30319,16.02082 28.78655,19.47592c8.29227,2.83683 30.95959,8.50138 49.86269,8.50138c25.65874,0 39.81561,-6.48288 41.92506,-7.35575c2.10035,-0.80014 13.94775,-4.60074 13.94775,-17.26647c0,-12.57479 -11.17454,-14.9297 -17.88474,-16.62999c-8.4741,-2.09124 -29.26844,-4.22797 -50.28099,-6.41014c-21.26712,-2.38222 -42.54333,-5.63727 -52.41767,-7.82855c-22.34003,-4.81896 -30.8778,-13.17489 -36.2514,-18.08479c0.37277,0.36371 -12.09291,-11.08365 -12.09291,-30.61413c0,-21.83087 15.01156,-34.9512 33.24184,-43.0707c19.54865,-8.72871 42.807,-12.71117 63.22852,-12.71117M88.6161,161.8661c-19.99419,0 -39.17006,-7.13752 -52.20856,-20.03054c-12.3384,-12.4293 -18.98494,-29.81398 -18.98494,-48.35337c0,-18.63033 6.55563,-36.10595 18.98494,-48.4898c13.0385,-12.80211 32.21437,-19.99419 52.20856,-19.99419c20.01237,0 39.27917,7.31939 52.17219,19.99419c12.59296,12.38385 19.13949,29.69581 19.13949,48.4898c0,19.43954 -6.0646,35.2967 -19.13949,48.35337c-13.06578,12.94757 -31.75973,20.03054 -52.17219,20.03054v24.46765c38.36085,0 74.51222,-11.29276 97.42506,-32.72354c17.0937,-15.77533 26.08611,-38.69724 26.08611,-60.12802c0,-22.22181 -8.48321,-43.96178 -26.08611,-59.99167c-24.63131,-22.39458 -56.90025,-32.62353 -97.42506,-32.62353c-36.36961,0 -75.14869,12.593 -97.13412,32.52353c-17.43924,15.94806 -26.48616,37.99715 -26.48616,60.09168c0,22.33093 8.73781,44.1072 26.48616,60.12802c23.77662,21.26712 59.1006,32.72354 97.13412,32.72354z"/></g></g></svg>