<?xml version="1.0" encoding="UTF-8"?>
<svg xmlns="http://www.w3.org/2000/svg" xmlns:xlink="http://www.w3.org/1999/xlink" width="782px" height="1000px" viewBox="0 0 782 1000" version="1.1">
<g id="surface1">
<path style=" stroke:none;fill-rule:nonzero;fill:rgb(20%,72.156864%,35.686275%);fill-opacity:1;" d="M 2.3125 762.867188 L 2.3125 185.375 L 781.625 185.375 L 781.625 762.867188 Z M 2.3125 762.867188 "/>
<path style=" stroke:none;fill-rule:nonzero;fill:rgb(26.666668%,29.411766%,65.098041%);fill-opacity:1;" d="M 126.636719 185.601562 L 780.128906 185.5625 C 780.710938 185.5625 781.183594 186.035156 781.183594 186.617188 L 781.097656 345.792969 L 612.40625 345.242188 C 611.179688 345.242188 610.179688 344.242188 610.167969 343.003906 C 610.167969 315.324219 599.117188 287.816406 574.398438 274.992188 C 548.535156 261.554688 519.019531 254.824219 485.847656 254.796875 C 458.71875 254.753906 416.4375 258.050781 399.113281 282.621094 C 389.582031 296.121094 389.183594 315.578125 396.113281 330.011719 C 405.132812 348.8125 426.261719 362.230469 445.554688 370.828125 C 474.519531 383.757812 505.09375 392.675781 534.71875 400.300781 C 583.609375 412.894531 632.691406 424.914062 681.730469 439.957031 C 715.394531 450.28125 748.511719 463.183594 781.078125 478.664062 L 781.164062 761.496094 C 781.164062 762.195312 780.585938 762.765625 779.875 762.765625 L 628.105469 762.828125 C 636.246094 748.363281 637.796875 733.96875 632.753906 719.644531 C 629.417969 710.179688 623.605469 701.925781 615.324219 694.882812 C 594.066406 676.816406 565.3125 666.421875 538.246094 658.289062 C 516.792969 651.851562 494.980469 645.980469 472.808594 640.667969 C 438.257812 632.371094 405.164062 623.878906 373.527344 615.1875 C 336.929688 605.144531 302.160156 592.90625 269.214844 578.46875 C 244.71875 567.738281 221.96875 554.996094 200.96875 540.25 C 136.636719 495.078125 100.964844 433.941406 93.949219 356.839844 C 92.359375 339.433594 92.210938 320.933594 93.507812 301.339844 C 96.15625 261.015625 107.199219 222.433594 126.636719 185.601562 Z M 126.636719 185.601562 "/>
<path style=" stroke:none;fill-rule:nonzero;fill:rgb(0%,0%,0%);fill-opacity:1;" d="M 23.464844 125.199219 C 23.085938 126.917969 23.027344 128.679688 23.296875 130.480469 C 23.550781 132.128906 22.84375 132.945312 21.183594 132.933594 L 5.84375 132.867188 C 4.40625 132.855469 3.6875 132.128906 3.6875 130.691406 L 3.644531 85.332031 C 3.644531 84.988281 3.917969 84.710938 4.257812 84.699219 L 20.632812 84.632812 C 21.015625 84.632812 21.210938 84.824219 21.226562 85.207031 C 21.710938 102.488281 39.964844 111.339844 55.582031 115.144531 C 75.800781 120.042969 99.296875 121.183594 117.53125 112.375 C 126.277344 108.148438 129.171875 95.410156 119.050781 90.824219 C 114.488281 88.753906 109.628906 87.445312 104.472656 86.894531 C 86.667969 84.980469 69.863281 82.980469 54.058594 80.894531 C 34.09375 78.253906 7.722656 73.839844 1.40625 51.085938 C -3.769531 32.449219 5.800781 18.0625 22.554688 10.308594 C 55.730469 -5.074219 96.042969 -2.621094 129.53125 13.539062 C 130.035156 13.785156 130.636719 13.71875 131.074219 13.371094 C 132.230469 12.457031 132.59375 11.0625 132.171875 9.1875 C 131.679688 7.117188 132.503906 6.074219 134.644531 6.0625 L 147.617188 6.039062 C 149.179688 6.027344 149.964844 6.800781 149.964844 8.363281 L 149.984375 47.28125 C 149.984375 47.828125 149.539062 48.273438 148.992188 48.273438 L 135.808594 48.253906 C 134.949219 48.253906 134.390625 47.835938 134.136719 47.007812 C 130.855469 36.300781 123.269531 28.898438 111.382812 24.800781 C 88.507812 16.914062 66.554688 16.140625 45.523438 22.476562 C 40.621094 23.957031 34.324219 27.695312 32.972656 33.082031 C 30.753906 41.894531 40.324219 44.472656 47.617188 45.464844 C 72.84375 48.867188 99.359375 50.492188 123.023438 56.15625 C 139.292969 60.042969 153.957031 69.148438 157.71875 86.8125 C 166.84375 129.722656 104.707031 138.40625 76.730469 136.441406 C 60.503906 135.3125 43.636719 131.109375 26.128906 123.828125 C 24.703125 123.234375 23.816406 123.691406 23.464844 125.199219 Z M 23.464844 125.199219 "/>
<path style=" stroke:none;fill-rule:nonzero;fill:rgb(0%,0%,0%);fill-opacity:1;" d="M 355.335938 109.164062 C 321.378906 149.179688 226.679688 148.207031 196.742188 102.445312 C 189.515625 91.386719 186.226562 79.464844 186.875 66.675781 C 190.023438 4.265625 270.164062 -8.769531 317.027344 5.109375 C 340.542969 12.0625 363.722656 29.535156 368.835938 54.761719 C 373.046875 75.480469 368.546875 93.613281 355.335938 109.164062 Z M 332.0625 69.898438 C 332.605469 41.574219 309.144531 18.152344 279.664062 17.585938 C 250.179688 17.019531 225.839844 39.523438 225.296875 67.847656 C 224.753906 96.175781 248.210938 119.59375 277.695312 120.160156 C 307.175781 120.726562 331.515625 98.222656 332.0625 69.898438 Z M 332.0625 69.898438 "/>
<path style=" stroke:none;fill-rule:nonzero;fill:rgb(0%,0%,0%);fill-opacity:1;" d="M 437.1875 44.429688 C 437.070312 44.320312 436.898438 44.289062 436.75 44.355469 C 436.605469 44.417969 436.507812 44.5625 436.511719 44.726562 C 436.3125 64.867188 436.3125 85.351562 436.511719 106.183594 C 436.53125 109.585938 436.933594 114.613281 441.476562 114.742188 C 448.097656 114.910156 454.125 114.9375 459.5625 114.824219 C 460.632812 114.8125 461.167969 115.332031 461.167969 116.390625 L 461.167969 128.664062 C 461.167969 129.761719 460.625 130.3125 459.542969 130.3125 L 391.527344 130.355469 C 390.753906 130.355469 390.367188 129.96875 390.367188 129.191406 L 390.492188 115.839844 C 390.492188 115.09375 390.867188 114.726562 391.613281 114.742188 L 406.71875 114.933594 C 410.707031 114.988281 412.710938 113.015625 412.742188 109.015625 C 412.882812 86.691406 412.917969 63.238281 412.847656 38.660156 C 412.804688 30.019531 413.796875 23.363281 403.488281 23.070312 C 398.949219 22.957031 394.535156 22.921875 390.238281 22.964844 C 389.519531 22.964844 389.160156 22.597656 389.160156 21.863281 L 389.289062 8.746094 C 389.300781 8.039062 389.660156 7.6875 390.367188 7.6875 C 409.140625 7.800781 427.726562 7.820312 446.125 7.75 C 448.460938 7.738281 450.457031 8.476562 452.105469 9.96875 C 477.375 32.886719 504.085938 57.085938 532.246094 82.5625 C 532.453125 82.75 532.746094 82.792969 533 82.679688 C 533.25 82.566406 533.410156 82.3125 533.40625 82.035156 L 532.519531 29.28125 C 532.460938 25.792969 529.625 22.996094 526.140625 22.984375 L 508.6875 22.941406 C 508.394531 22.941406 508.160156 22.695312 508.160156 22.394531 L 508.179688 8.238281 C 508.195312 7.929688 508.355469 7.773438 508.664062 7.773438 L 579.59375 7.75 C 579.933594 7.75 580.101562 7.921875 580.101562 8.257812 L 580.101562 22.414062 C 580.101562 22.730469 579.847656 22.984375 579.53125 22.984375 C 574.585938 22.941406 569.628906 22.894531 564.65625 22.835938 C 555.570312 22.753906 556.542969 29.238281 556.691406 36.652344 C 557.339844 67.316406 557.8125 98.15625 558.105469 129.171875 C 558.105469 129.835938 557.566406 130.375 556.902344 130.375 C 550.988281 130.320312 544.613281 130.382812 537.78125 130.566406 C 534.992188 130.652344 532.632812 129.828125 530.703125 128.09375 C 500.136719 100.726562 468.964844 72.839844 437.1875 44.429688 Z M 437.1875 44.429688 "/>
<path style=" stroke:none;fill-rule:nonzero;fill:rgb(0%,0%,0%);fill-opacity:1;" d="M 667.976562 23.429688 C 667.226562 23.589844 666.617188 24.132812 666.367188 24.859375 C 666.113281 25.582031 666.261719 26.386719 666.75 26.976562 L 695.421875 61.394531 C 695.648438 61.667969 695.984375 61.828125 696.335938 61.832031 C 696.691406 61.835938 697.027344 61.683594 697.261719 61.414062 L 725.867188 27.757812 C 726.597656 26.898438 726.761719 25.691406 726.292969 24.664062 C 725.820312 23.636719 724.800781 22.976562 723.671875 22.964844 L 714.902344 22.964844 C 713.605469 22.964844 712.960938 22.316406 712.960938 21.019531 L 713.023438 9.609375 C 713.023438 8.371094 713.640625 7.75 714.882812 7.75 L 780.738281 7.75 C 781.710938 7.75 782.191406 8.238281 782.175781 9.210938 L 782.09375 21.503906 C 782.09375 22.546875 781.5625 23.054688 780.507812 23.027344 C 771.210938 22.816406 761.617188 21.105469 755.660156 27.84375 C 738.996094 46.730469 723.234375 64.734375 708.375 81.847656 C 707.867188 82.4375 707.613281 83.128906 707.613281 83.917969 L 707.71875 111.277344 C 707.730469 113.164062 709.242188 114.699219 711.121094 114.71875 L 729.863281 114.953125 C 730.734375 114.953125 731.179688 115.390625 731.195312 116.261719 L 731.320312 128.8125 C 731.320312 129.8125 730.828125 130.3125 729.839844 130.3125 L 647.757812 130.355469 C 647.363281 130.355469 647.164062 130.15625 647.164062 129.761719 L 647.269531 115.164062 C 647.269531 114.8125 647.453125 114.644531 647.820312 114.65625 C 653.285156 114.9375 658.90625 114.988281 664.679688 114.804688 C 668.371094 114.707031 670.214844 112.839844 670.214844 109.207031 C 670.1875 100.8125 670.195312 93.035156 670.238281 85.882812 C 670.238281 84.261719 669.644531 82.699219 668.566406 81.488281 C 653.636719 64.5 638.367188 47.203125 622.761719 29.597656 C 615.113281 21 605.433594 22.753906 595.355469 23.007812 C 594.960938 23.019531 594.765625 22.828125 594.765625 22.433594 L 594.808594 8.238281 C 594.820312 7.914062 594.984375 7.75 595.292969 7.75 L 677 7.773438 C 678.519531 7.773438 679.28125 8.535156 679.28125 10.054688 L 679.28125 20.449219 C 679.292969 22.648438 678.222656 23.511719 676.070312 23.046875 C 673.984375 22.582031 671.285156 22.710938 667.976562 23.429688 Z M 667.976562 23.429688 "/>
<path style=" stroke:none;fill-rule:nonzero;fill:rgb(98.431373%,23.137255%,22.745098%);fill-opacity:1;" d="M 407.964844 762.871094 L 112.734375 762.871094 C 112.691406 762.871094 112.65625 762.847656 112.628906 762.808594 C 112.53125 762.667969 112.425781 762.523438 112.3125 762.382812 C 112.355469 762.273438 112.210938 762.144531 111.890625 762.003906 C 111.675781 761.90625 111.570312 761.742188 111.570312 761.519531 L 111.53125 678.929688 C 111.53125 678.042969 112.25 677.324219 113.136719 677.324219 L 405.261719 677.324219 C 407.007812 677.324219 407.882812 678.207031 407.882812 679.964844 Z M 407.964844 762.871094 "/>
<path style=" stroke:none;fill-rule:nonzero;fill:rgb(0%,0%,0%);fill-opacity:1;" d="M 408.910156 829.664062 C 408.398438 829.660156 407.980469 829.660156 407.980469 829.660156 L 408.035156 814.363281 C 408.035156 814.363281 408.449219 814.363281 408.964844 814.367188 L 428.53125 814.433594 C 429.042969 814.4375 429.460938 814.4375 429.460938 814.4375 L 429.40625 829.734375 C 429.40625 829.734375 428.988281 829.734375 428.476562 829.730469 Z M 408.910156 829.664062 "/>
<path style=" stroke:none;fill-rule:nonzero;fill:rgb(0%,0%,0%);fill-opacity:1;" d="M 27.480469 834.554688 L 27.523438 843.324219 C 27.523438 843.777344 27.890625 844.148438 28.347656 844.148438 L 56.765625 844.042969 C 57.21875 844.042969 57.589844 844.410156 57.589844 844.867188 L 57.609375 860.457031 C 57.609375 860.914062 57.238281 861.28125 56.785156 861.28125 L 28.324219 861.28125 C 27.871094 861.28125 27.5 861.652344 27.5 862.105469 L 27.417969 871.996094 C 27.417969 872.449219 27.785156 872.816406 28.238281 872.816406 L 63.695312 872.796875 C 64.148438 872.796875 64.519531 873.164062 64.519531 873.621094 L 64.496094 889.042969 C 64.496094 889.5 64.128906 889.867188 63.671875 889.867188 L 3.878906 889.847656 C 3.421875 889.847656 3.054688 889.476562 3.054688 889.023438 L 3.117188 817.125 C 3.117188 816.671875 3.488281 816.300781 3.941406 816.300781 L 62.128906 816.300781 C 62.585938 816.300781 62.953125 816.671875 62.953125 817.125 L 63.164062 832.867188 C 63.164062 833.320312 62.796875 833.691406 62.34375 833.691406 L 28.304688 833.730469 C 27.847656 833.730469 27.480469 834.101562 27.480469 834.554688 Z M 27.480469 834.554688 "/>
<path style=" stroke:none;fill-rule:nonzero;fill:rgb(0%,0%,0%);fill-opacity:1;" d="M 143.414062 835.210938 L 143.179688 821.160156 C 143.167969 820.148438 143.667969 819.632812 144.679688 819.617188 L 163.1875 819.554688 C 164.117188 819.554688 164.578125 820.019531 164.5625 820.949219 L 164.332031 835.335938 C 164.332031 835.933594 164.8125 836.414062 165.40625 836.414062 L 172.761719 836.351562 C 173.832031 836.351562 174.367188 836.878906 174.367188 837.9375 L 174.34375 846.597656 C 174.34375 848.121094 173.585938 848.867188 172.0625 848.839844 L 165.683594 848.710938 C 164.824219 848.699219 164.394531 849.121094 164.394531 849.980469 L 164.582031 871.253906 C 164.597656 872.914062 165.867188 874.292969 167.519531 874.445312 L 172.507812 874.886719 C 173.664062 874.988281 174.234375 875.613281 174.21875 876.769531 L 174.199219 888.179688 C 174.199219 889.472656 173.554688 890.183594 172.273438 890.3125 C 165.089844 891.03125 158.203125 890.777344 151.609375 889.550781 C 144.554688 888.242188 142.992188 880.890625 142.84375 874.761719 C 142.644531 866.410156 142.707031 858.21875 143.03125 850.191406 C 143.074219 849.261719 142.625 848.804688 141.679688 848.816406 L 137.433594 848.921875 C 136.109375 848.949219 135.441406 848.304688 135.425781 846.980469 L 135.40625 837.640625 C 135.40625 836.808594 135.820312 836.394531 136.652344 836.394531 L 142.25 836.394531 C 143.039062 836.394531 143.425781 836 143.414062 835.210938 Z M 143.414062 835.210938 "/>
<path style=" stroke:none;fill-rule:nonzero;fill:rgb(0%,0%,0%);fill-opacity:1;" d="M 320.789062 850.167969 L 321.125 871.824219 C 321.152344 873.101562 322.125 874.15625 323.386719 874.277344 L 329.175781 874.847656 C 330.21875 874.945312 330.734375 875.515625 330.71875 876.558594 L 330.699219 888.285156 C 330.683594 889.535156 330.058594 890.21875 328.816406 890.332031 C 322.972656 890.867188 316.851562 890.761719 310.457031 890.015625 C 303.738281 889.226562 300.1875 885.542969 299.808594 878.964844 C 299.273438 869.769531 299.175781 860.15625 299.511719 850.128906 C 299.554688 849.097656 299.0625 848.621094 298.03125 848.691406 L 293.976562 848.984375 C 293.46875 849.023438 292.96875 848.84375 292.601562 848.5 C 292.230469 848.15625 292.023438 847.671875 292.03125 847.167969 L 292.136719 837.914062 C 292.152344 836.816406 292.703125 836.273438 293.785156 836.289062 L 298.414062 836.375 C 298.8125 836.378906 299.195312 836.222656 299.472656 835.9375 C 299.753906 835.65625 299.902344 835.269531 299.890625 834.875 L 299.554688 821.691406 C 299.527344 820.308594 300.195312 819.617188 301.5625 819.617188 L 319.140625 819.617188 C 320.464844 819.617188 321.113281 820.289062 321.085938 821.625 L 320.832031 834.875 C 320.804688 835.902344 321.308594 836.414062 322.351562 836.414062 L 329.324219 836.351562 C 330.523438 836.351562 331.105469 836.949219 331.078125 838.148438 L 330.867188 847.085938 C 330.839844 848.308594 330.210938 848.910156 328.988281 848.878906 L 322.183594 848.773438 C 321.238281 848.761719 320.773438 849.226562 320.789062 850.167969 Z M 320.789062 850.167969 "/>
<path style=" stroke:none;fill-rule:nonzero;fill:rgb(0%,0%,0%);fill-opacity:1;" d="M 771.992188 850.0625 L 772.078125 870.851562 C 772.078125 873.207031 773.253906 874.445312 775.605469 874.570312 L 780.761719 874.847656 C 781.492188 874.875 781.859375 875.253906 781.859375 875.988281 L 781.902344 888.621094 C 781.902344 889.566406 781.429688 890.085938 780.488281 890.183594 C 772.964844 890.972656 766.148438 890.789062 760.035156 889.636719 C 750.167969 887.796875 750.484375 877.65625 750.589844 869.816406 C 750.6875 862.902344 750.738281 856.226562 750.738281 849.789062 C 750.738281 849.21875 750.265625 848.753906 749.679688 848.753906 L 744.800781 848.839844 C 743.492188 848.851562 742.84375 848.203125 742.855469 846.894531 L 742.960938 838.125 C 742.984375 837.1875 743.746094 836.4375 744.671875 836.4375 L 749.851562 836.394531 C 750.722656 836.394531 751.160156 835.949219 751.160156 835.0625 L 751.011719 820.949219 C 751.011719 820.046875 751.460938 819.597656 752.363281 819.597656 L 771.273438 819.617188 C 771.894531 819.617188 772.195312 819.929688 772.183594 820.546875 L 771.992188 835.210938 C 771.980469 836.054688 772.402344 836.472656 773.261719 836.457031 L 779.832031 836.351562 C 781.367188 836.324219 782.140625 837.078125 782.15625 838.613281 L 782.199219 846.957031 C 782.210938 848.28125 781.550781 848.929688 780.210938 848.902344 L 773.410156 848.691406 C 772.464844 848.664062 771.992188 849.121094 771.992188 850.0625 Z M 771.992188 850.0625 "/>
<path style=" stroke:none;fill-rule:nonzero;fill:rgb(0%,0%,0%);fill-opacity:1;" d="M 93.84375 841.738281 C 99.167969 835.65625 106.210938 833.507812 114.972656 835.296875 C 127.585938 837.851562 130.292969 848.164062 130.121094 859.382812 C 129.996094 869.410156 130.011719 879.351562 130.164062 889.214844 C 130.164062 889.707031 129.925781 889.953125 129.445312 889.953125 L 109.460938 889.953125 C 108.980469 889.964844 108.742188 889.734375 108.742188 889.253906 L 108.761719 860.480469 C 108.761719 856.648438 107.050781 853.867188 103.628906 852.132812 C 102.597656 851.613281 101.515625 851.492188 100.375 851.773438 C 95.710938 852.902344 93.378906 855.867188 93.378906 860.667969 L 93.378906 888.789062 C 93.378906 889.355469 92.929688 889.8125 92.367188 889.824219 L 72.863281 889.972656 C 72.386719 889.972656 71.996094 889.585938 71.996094 889.105469 L 71.933594 837.683594 C 71.933594 836.839844 72.363281 836.410156 73.222656 836.394531 L 89.976562 836.332031 C 90.851562 836.332031 91.332031 836.765625 91.414062 837.640625 C 91.515625 838.597656 91.484375 839.570312 91.332031 840.554688 C 90.78125 843.894531 91.621094 844.289062 93.84375 841.738281 Z M 93.84375 841.738281 "/>
<path style=" stroke:none;fill-rule:nonzero;fill:rgb(0%,0%,0%);fill-opacity:1;" d="M 202.828125 868.042969 C 200.53125 868.042969 199.882812 869.078125 200.882812 871.148438 C 203.671875 876.867188 207.734375 879.246094 213.074219 878.289062 C 216.75 877.636719 217.914062 873.769531 222.054688 873.851562 C 227.660156 873.964844 233.082031 873.929688 238.324219 873.746094 C 238.621094 873.730469 238.90625 873.863281 239.085938 874.101562 C 239.261719 874.339844 239.308594 874.652344 239.210938 874.929688 C 233.398438 891.789062 211.152344 894.15625 196.890625 889.382812 C 185.671875 885.640625 179.203125 875.523438 179.4375 863.585938 C 179.859375 842.140625 198.917969 830.964844 218.378906 835.84375 C 232.335938 839.351562 240 849.386719 241.367188 865.953125 C 241.476562 867.375 240.824219 868.085938 239.402344 868.085938 Z M 201.011719 857.183594 L 219.351562 857.308594 C 219.453125 857.316406 219.554688 857.277344 219.632812 857.207031 C 219.707031 857.136719 219.75 857.035156 219.75 856.929688 L 219.75 856.699219 C 219.785156 851.972656 215.667969 848.113281 210.558594 848.078125 L 209.96875 848.078125 C 207.511719 848.058594 205.152344 848.945312 203.402344 850.539062 C 201.65625 852.128906 200.667969 854.300781 200.652344 856.570312 L 200.652344 856.804688 C 200.652344 857.003906 200.808594 857.171875 201.011719 857.183594 Z M 201.011719 857.183594 "/>
<path style=" stroke:none;fill-rule:nonzero;fill:rgb(0%,0%,0%);fill-opacity:1;" d="M 268.621094 845.332031 C 269.242188 844.304688 269.832031 843.246094 270.398438 842.160156 C 273.207031 836.667969 279.945312 834.367188 286.03125 834.808594 C 286.917969 834.878906 287.371094 835.367188 287.382812 836.265625 L 287.425781 854.921875 C 287.425781 855.992188 286.898438 856.457031 285.839844 856.316406 C 276.09375 854.980469 270.863281 858.773438 270.144531 867.707031 C 269.636719 874.070312 269.574219 880.945312 269.953125 888.324219 C 269.976562 888.753906 269.820312 889.175781 269.527344 889.484375 C 269.230469 889.796875 268.820312 889.972656 268.390625 889.972656 L 249.734375 889.890625 C 248.804688 889.890625 248.332031 889.425781 248.316406 888.496094 L 248.316406 838.484375 C 248.316406 837.078125 249.019531 836.375 250.429688 836.375 L 265.9375 836.394531 C 267.65625 836.394531 268.355469 837.238281 268.03125 838.929688 C 267.636719 841.070312 267.53125 843.132812 267.714844 845.121094 C 267.796875 846.089844 268.101562 846.164062 268.621094 845.332031 Z M 268.621094 845.332031 "/>
<path style=" stroke:none;fill-rule:nonzero;fill:rgb(0%,0%,0%);fill-opacity:1;" d="M 375.238281 885.453125 C 368.265625 890.523438 363.234375 892.066406 354.128906 891.429688 C 340.585938 890.5 332.492188 878.164062 339.847656 866.417969 C 343.226562 861.007812 350.769531 859.128906 356.75 858.28125 C 361.523438 857.628906 371.414062 857.585938 374.625 853.761719 C 375.222656 853.046875 375.457031 852.09375 375.253906 851.179688 C 375.050781 850.269531 374.4375 849.507812 373.589844 849.113281 C 367.96875 846.492188 363.828125 847.375 361.164062 851.753906 C 360.714844 852.488281 360.066406 852.851562 359.222656 852.851562 L 341.707031 852.894531 C 341.382812 852.894531 341.070312 852.761719 340.847656 852.527344 C 340.621094 852.289062 340.503906 851.972656 340.523438 851.648438 C 340.925781 843.746094 346.398438 838.421875 353.792969 836.667969 C 364.335938 834.175781 388.019531 832.148438 394.125 843.238281 C 395.816406 846.28125 396.675781 850.167969 396.703125 854.902344 C 396.746094 864.917969 396.746094 874.566406 396.703125 883.847656 C 396.703125 884.691406 396.929688 885.472656 397.378906 886.191406 L 399.050781 888.917969 C 399.558594 889.734375 399.332031 890.136719 398.375 890.121094 L 378.765625 889.953125 C 377.894531 889.9375 377.394531 889.5 377.265625 888.644531 L 376.84375 886.105469 C 376.675781 885.007812 376.140625 884.789062 375.238281 885.453125 Z M 374.75 867.007812 C 370.082031 868 359.160156 868.992188 359.390625 875.542969 C 359.441406 877.210938 360.640625 878.621094 362.285156 878.945312 C 370.820312 880.636719 375.257812 876.902344 375.597656 867.746094 C 375.605469 867.527344 375.515625 867.316406 375.351562 867.175781 C 375.1875 867.03125 374.964844 866.96875 374.75 867.007812 Z M 374.75 867.007812 "/>
<path style=" stroke:none;fill-rule:nonzero;fill:rgb(0%,0%,0%);fill-opacity:1;" d="M 462.5625 842.859375 C 475.070312 828.34375 499.222656 833.371094 499.558594 854.921875 C 499.726562 865.980469 499.742188 877.382812 499.601562 889.128906 C 499.601562 889.582031 499.222656 889.953125 498.757812 889.953125 L 479.382812 889.953125 C 478.9375 889.953125 478.578125 889.59375 478.578125 889.148438 L 478.558594 860.164062 C 478.558594 856.234375 476.738281 853.527344 473.105469 852.050781 C 472.175781 851.683594 471.226562 851.5625 470.253906 851.691406 C 465.351562 852.324219 462.902344 855.113281 462.902344 860.058594 L 462.902344 889.128906 C 462.902344 889.570312 462.542969 889.929688 462.097656 889.929688 L 442.808594 889.972656 C 442.003906 889.972656 441.601562 889.570312 441.601562 888.769531 L 441.582031 838 C 441.582031 836.914062 442.125 836.375 443.207031 836.375 L 459.5625 836.394531 C 461 836.394531 461.570312 837.089844 461.273438 838.484375 C 461.007812 839.839844 460.9375 841.132812 461.0625 842.375 C 461.203125 843.695312 461.703125 843.859375 462.5625 842.859375 Z M 462.5625 842.859375 "/>
<path style=" stroke:none;fill-rule:nonzero;fill:rgb(0%,0%,0%);fill-opacity:1;" d="M 529.921875 841.230469 C 529.667969 843.246094 530.230469 843.507812 531.609375 842.015625 C 540.78125 832.042969 555.550781 832.230469 563.621094 843.027344 C 564.101562 843.675781 564.605469 843.699219 565.140625 843.089844 C 571.042969 836.316406 578.574219 833.65625 587.730469 835.105469 C 598.527344 836.839844 602.941406 844.550781 603.046875 855.09375 C 603.144531 866.542969 603.1875 877.917969 603.175781 889.214844 C 603.175781 889.667969 602.804688 890.035156 602.351562 890.035156 L 583.292969 889.847656 C 582.234375 889.832031 581.707031 889.289062 581.707031 888.21875 L 581.75 858.9375 C 581.765625 855.273438 580.023438 852.878906 576.53125 851.753906 C 574.121094 850.992188 571.472656 852.378906 568.585938 855.917969 C 567.832031 856.859375 567.417969 858.035156 567.402344 859.253906 L 567.359375 888.472656 C 567.359375 889.234375 566.738281 889.855469 565.964844 889.867188 L 547.140625 889.953125 C 546.871094 889.957031 546.609375 889.851562 546.417969 889.660156 C 546.226562 889.46875 546.121094 889.210938 546.125 888.9375 C 546.226562 878.867188 546.15625 868.726562 545.914062 858.515625 C 545.746094 851.226562 536.703125 848.964844 533.449219 854.964844 C 531.984375 857.628906 531.289062 861.199219 531.359375 865.675781 C 531.484375 874.140625 531.503906 882.085938 531.421875 889.507812 C 531.421875 889.847656 531.253906 890.015625 530.914062 890.015625 L 511.09375 889.996094 C 510.664062 889.996094 510.3125 889.644531 510.3125 889.214844 L 510.3125 837.703125 C 510.3125 836.832031 510.75 836.394531 511.625 836.394531 L 528.863281 836.375 C 529.992188 836.359375 530.484375 836.910156 530.34375 838.019531 Z M 529.921875 841.230469 "/>
<path style=" stroke:none;fill-rule:nonzero;fill:rgb(0%,0%,0%);fill-opacity:1;" d="M 632.035156 869.710938 C 632.445312 871.527344 633.246094 873.101562 634.445312 874.421875 C 639.347656 879.890625 644.507812 880.078125 649.933594 874.996094 C 650.664062 874.304688 651.53125 873.957031 652.53125 873.957031 L 669.898438 873.894531 C 670.191406 873.898438 670.460938 874.042969 670.625 874.277344 C 670.789062 874.515625 670.828125 874.8125 670.722656 875.078125 C 665.039062 890.355469 647.183594 893.375 632.671875 890.648438 C 618.660156 888.007812 610.378906 876.960938 610.929688 862.71875 C 611.753906 842.140625 630.535156 831.132812 649.382812 835.761719 C 664.230469 839.421875 672.019531 849.746094 672.75 866.734375 C 672.769531 867.082031 672.644531 867.417969 672.402344 867.671875 C 672.164062 867.921875 671.832031 868.066406 671.484375 868.0625 L 633.347656 868.0625 C 632.21875 868.0625 631.78125 868.613281 632.035156 869.710938 Z M 632.351562 857.164062 L 651.050781 857.289062 C 651.144531 857.296875 651.238281 857.261719 651.304688 857.199219 C 651.371094 857.132812 651.410156 857.042969 651.410156 856.953125 L 651.410156 856.71875 C 651.441406 851.996094 647.292969 848.136719 642.136719 848.097656 L 641.417969 848.097656 C 638.941406 848.082031 636.554688 848.964844 634.792969 850.558594 C 633.03125 852.152344 632.03125 854.320312 632.015625 856.59375 L 632.015625 856.824219 C 632.015625 857.011719 632.167969 857.164062 632.351562 857.164062 Z M 632.351562 857.164062 "/>
<path style=" stroke:none;fill-rule:nonzero;fill:rgb(0%,0%,0%);fill-opacity:1;" d="M 701.421875 842.984375 C 702.28125 842.183594 703.085938 841.34375 703.832031 840.472656 C 708.078125 835.464844 716.214844 834.027344 722.46875 835.085938 C 734.996094 837.238281 738.800781 846.132812 738.863281 857.585938 C 738.949219 868.09375 738.953125 878.585938 738.882812 889.066406 C 738.882812 889.566406 738.476562 889.972656 737.976562 889.972656 L 718.8125 889.910156 C 718.050781 889.898438 717.4375 889.277344 717.4375 888.515625 L 717.417969 859.316406 C 717.417969 854.175781 714.847656 851.632812 709.707031 851.691406 C 709.101562 851.703125 708.5 851.808594 707.910156 852.007812 C 703.964844 853.332031 701.992188 856.078125 701.992188 860.246094 L 701.992188 889.359375 C 701.992188 889.726562 701.808594 889.910156 701.445312 889.910156 L 681.5625 889.972656 C 681.109375 889.972656 680.886719 889.75 680.886719 889.296875 L 680.886719 837.449219 C 680.886719 836.863281 681.363281 836.382812 681.964844 836.375 L 698.84375 836.375 C 699.382812 836.367188 699.886719 836.628906 700.199219 837.070312 C 700.507812 837.511719 700.589844 838.078125 700.410156 838.589844 C 699.957031 839.875 699.816406 841.167969 699.984375 842.480469 C 700.140625 843.5625 700.621094 843.734375 701.421875 842.984375 Z M 701.421875 842.984375 "/>
<path style=" stroke:none;fill-rule:nonzero;fill:rgb(0%,0%,0%);fill-opacity:1;" d="M 408.9375 889.996094 C 408.425781 889.996094 408.007812 889.996094 408.007812 889.996094 L 408.007812 836.375 C 408.007812 836.375 408.425781 836.375 408.9375 836.375 L 428.503906 836.375 C 429.015625 836.375 429.433594 836.375 429.433594 836.375 L 429.433594 889.996094 C 429.433594 889.996094 429.015625 889.996094 428.503906 889.996094 Z M 408.9375 889.996094 "/>
<path style=" stroke:none;fill-rule:nonzero;fill:rgb(0%,0%,0%);fill-opacity:1;" d="M 380.71875 936.648438 C 380.167969 936.648438 379.722656 936.648438 379.722656 936.648438 L 379.75 921.265625 C 379.75 921.265625 380.195312 921.265625 380.746094 921.265625 L 400.308594 921.300781 C 400.859375 921.300781 401.300781 921.304688 401.300781 921.304688 L 401.277344 936.683594 C 401.277344 936.683594 400.832031 936.683594 400.28125 936.683594 Z M 380.71875 936.648438 "/>
<path style=" stroke:none;fill-rule:nonzero;fill:rgb(0%,0%,0%);fill-opacity:1;" d="M 287.273438 936.589844 C 286.769531 936.585938 286.363281 936.585938 286.363281 936.585938 L 286.417969 921.289062 C 286.417969 921.289062 286.824219 921.289062 287.328125 921.292969 L 307.101562 921.363281 C 307.605469 921.363281 308.011719 921.363281 308.011719 921.363281 L 307.957031 936.660156 C 307.957031 936.660156 307.550781 936.660156 307.050781 936.65625 Z M 287.273438 936.589844 "/>
<path style=" stroke:none;fill-rule:nonzero;fill:rgb(0%,0%,0%);fill-opacity:1;" d="M 48.757812 943.382812 L 48.757812 996.117188 C 48.757812 996.574219 48.386719 996.941406 47.933594 996.941406 L 25.21875 996.921875 C 24.765625 996.921875 24.394531 996.550781 24.394531 996.097656 L 24.5 943.363281 C 24.5 942.90625 24.132812 942.539062 23.675781 942.539062 L 3.667969 942.6875 C 3.210938 942.6875 2.84375 942.316406 2.84375 941.863281 L 2.800781 924.179688 C 2.800781 923.722656 3.171875 923.355469 3.625 923.355469 L 69.527344 923.355469 C 69.980469 923.355469 70.351562 923.722656 70.351562 924.179688 L 70.222656 941.777344 C 70.222656 942.234375 69.855469 942.601562 69.398438 942.601562 L 49.582031 942.558594 C 49.125 942.558594 48.757812 942.929688 48.757812 943.382812 Z M 48.757812 943.382812 "/>
<path style=" stroke:none;fill-rule:nonzero;fill:rgb(0%,0%,0%);fill-opacity:1;" d="M 129.933594 996.941406 C 129.628906 996.941406 129.382812 996.941406 129.382812 996.941406 L 129.382812 923.335938 C 129.382812 923.335938 129.628906 923.335938 129.933594 923.335938 L 150.089844 923.335938 C 150.394531 923.335938 150.640625 923.335938 150.640625 923.335938 L 150.640625 996.941406 C 150.640625 996.941406 150.394531 996.941406 150.089844 996.941406 Z M 129.933594 996.941406 "/>
<path style=" stroke:none;fill-rule:nonzero;fill:rgb(0%,0%,0%);fill-opacity:1;" d="M 82.859375 975.160156 C 80.519531 975.160156 79.871094 976.203125 80.914062 978.285156 C 84.28125 984.964844 89.105469 987.019531 95.386719 984.457031 C 96.046875 984.179688 96.613281 983.710938 97.015625 983.105469 C 97.984375 981.582031 99.367188 980.800781 101.15625 980.757812 C 107.058594 980.617188 112.796875 980.582031 118.375 980.652344 C 118.628906 980.660156 118.863281 980.785156 119.011719 980.996094 C 119.15625 981.203125 119.195312 981.46875 119.113281 981.710938 C 113.917969 997.027344 94.859375 1000.828125 81.039062 997.554688 C 67.195312 994.257812 59.933594 985.652344 59.257812 971.738281 C 58.285156 951.328125 76.285156 939.222656 95.070312 942.242188 C 111.15625 944.835938 119.863281 955.039062 121.1875 972.855469 C 121.296875 974.421875 120.574219 975.195312 119.007812 975.179688 Z M 80.828125 964.066406 L 99.210938 964.195312 C 99.316406 964.199219 99.417969 964.164062 99.496094 964.089844 C 99.570312 964.019531 99.613281 963.917969 99.613281 963.8125 L 99.613281 963.625 C 99.644531 958.828125 95.503906 954.914062 90.359375 954.878906 L 89.851562 954.878906 C 87.378906 954.859375 85.003906 955.757812 83.242188 957.375 C 81.484375 958.992188 80.484375 961.195312 80.46875 963.496094 L 80.46875 963.6875 C 80.46875 963.890625 80.628906 964.054688 80.828125 964.066406 Z M 80.828125 964.066406 "/>
<path style=" stroke:none;fill-rule:nonzero;fill:rgb(0%,0%,0%);fill-opacity:1;" d="M 180.453125 976.640625 C 182.5 985.320312 191.628906 988.746094 198.285156 981.75 C 198.972656 981.019531 199.828125 980.652344 200.839844 980.652344 L 218.1875 980.652344 C 218.503906 980.652344 218.800781 980.808594 218.984375 981.070312 C 219.164062 981.332031 219.207031 981.664062 219.097656 981.960938 C 211.660156 1001.316406 180.769531 1003.660156 167.015625 990.519531 C 157.929688 981.816406 156.703125 966.6875 162.808594 956.101562 C 167.148438 948.59375 173.703125 944.058594 182.480469 942.496094 C 203.988281 938.652344 220.40625 951.011719 220.871094 973.449219 C 220.898438 974.601562 220.335938 975.179688 219.179688 975.179688 L 181.636719 975.160156 C 180.605469 975.160156 180.210938 975.652344 180.453125 976.640625 Z M 180.832031 964.109375 L 199.003906 964.238281 C 199.101562 964.242188 199.199219 964.207031 199.269531 964.140625 C 199.34375 964.070312 199.382812 963.976562 199.382812 963.878906 L 199.382812 963.667969 C 199.414062 958.847656 195.292969 954.914062 190.171875 954.878906 L 189.832031 954.878906 C 187.371094 954.859375 185.003906 955.761719 183.253906 957.386719 C 181.503906 959.011719 180.507812 961.226562 180.492188 963.539062 L 180.492188 963.75 C 180.492188 963.941406 180.640625 964.097656 180.832031 964.109375 Z M 180.832031 964.109375 "/>
<path style=" stroke:none;fill-rule:nonzero;fill:rgb(0%,0%,0%);fill-opacity:1;" d="M 350.347656 980.632812 C 349.859375 979.464844 348.832031 978.613281 347.601562 978.351562 C 341.148438 977.027344 335.007812 975.503906 329.175781 973.785156 C 314.9375 969.601562 314.21875 951.730469 326.851562 945.390625 C 334.5 941.546875 343.902344 940.75 355.058594 943.003906 C 363.382812 944.679688 368.371094 949.433594 370.019531 957.265625 C 370.101562 957.640625 370.007812 958.035156 369.761719 958.335938 C 369.515625 958.632812 369.140625 958.808594 368.75 958.808594 L 352.925781 958.890625 C 352.09375 958.890625 351.417969 958.566406 350.898438 957.917969 C 347.9375 954.222656 345.804688 952.171875 340.417969 954.308594 C 338.628906 955.011719 338.035156 956.378906 338.640625 958.40625 C 338.953125 959.453125 339.828125 960.238281 340.902344 960.433594 C 349.144531 961.996094 356.398438 963.960938 362.664062 966.328125 C 378.214844 972.179688 373.460938 991.597656 359.8125 996.117188 C 345.65625 1000.828125 320.21875 1000.976562 316.371094 981.6875 C 316.296875 981.320312 316.390625 980.9375 316.628906 980.644531 C 316.867188 980.355469 317.222656 980.1875 317.597656 980.1875 L 334.988281 980.167969 C 335.832031 980.167969 336.410156 980.554688 336.71875 981.328125 C 338.917969 986.710938 342.820312 988.203125 348.425781 985.808594 C 350.734375 984.820312 351.375 983.097656 350.347656 980.632812 Z M 350.347656 980.632812 "/>
<path style=" stroke:none;fill-rule:nonzero;fill:rgb(0%,0%,0%);fill-opacity:1;" d="M 471.425781 973.226562 C 471.296875 980.015625 468.472656 986.476562 463.582031 991.183594 C 458.6875 995.894531 452.121094 998.464844 445.332031 998.335938 L 436.164062 998.160156 C 422.023438 997.886719 410.78125 986.207031 411.050781 972.066406 L 411.144531 967.25 C 411.273438 960.460938 414.097656 954 418.992188 949.289062 C 423.886719 944.582031 430.449219 942.007812 437.238281 942.140625 L 446.40625 942.316406 C 460.546875 942.585938 471.792969 954.269531 471.519531 968.410156 Z M 441.277344 984.433594 C 443.753906 984.445312 446.136719 982.953125 447.898438 980.292969 C 449.65625 977.632812 450.652344 974.019531 450.667969 970.25 C 450.679688 966.476562 449.707031 962.855469 447.96875 960.183594 C 446.226562 957.511719 443.855469 956.003906 441.378906 955.996094 C 438.902344 955.988281 436.519531 957.476562 434.757812 960.136719 C 433 962.800781 432.003906 966.414062 431.988281 970.183594 C 431.976562 973.953125 432.949219 977.574219 434.691406 980.246094 C 436.429688 982.917969 438.800781 984.425781 441.277344 984.433594 Z M 441.277344 984.433594 "/>
<path style=" stroke:none;fill-rule:nonzero;fill:rgb(0%,0%,0%);fill-opacity:1;" d="M 501.546875 949.171875 C 507.6875 942.285156 515.433594 940.144531 524.785156 942.75 C 533.378906 945.144531 537.816406 951.335938 538.097656 961.320312 C 538.394531 971.476562 538.464844 982.960938 538.308594 995.78125 C 538.308594 996.539062 537.921875 996.921875 537.148438 996.921875 L 517.960938 996.941406 C 517.425781 996.941406 517.160156 996.675781 517.160156 996.140625 L 516.988281 965.125 C 516.960938 960.953125 514.871094 958.855469 510.714844 958.828125 L 509.382812 958.808594 C 504.046875 958.765625 501.382812 961.40625 501.398438 966.730469 L 501.398438 996.371094 C 501.398438 996.675781 501.152344 996.921875 500.847656 996.921875 L 480.734375 996.964844 C 480.367188 996.964844 480.183594 996.78125 480.183594 996.414062 L 480.203125 944.292969 C 480.203125 943.699219 480.5 943.40625 481.09375 943.40625 L 498.375 943.363281 C 499.023438 943.363281 499.445312 943.671875 499.644531 944.292969 C 500.023438 945.503906 500.039062 946.800781 499.6875 948.179688 C 498.925781 951.082031 499.542969 951.414062 501.546875 949.171875 Z M 501.546875 949.171875 "/>
<path style=" stroke:none;fill-rule:nonzero;fill:rgb(0%,0%,0%);fill-opacity:1;" d="M 252.226562 974.96875 L 260.550781 943.890625 C 260.636719 943.589844 260.914062 943.382812 261.226562 943.382812 L 280.410156 943.339844 C 280.636719 943.34375 280.847656 943.453125 280.980469 943.636719 C 281.109375 943.820312 281.140625 944.058594 281.066406 944.269531 L 263.53125 996.457031 C 263.429688 996.742188 263.15625 996.929688 262.855469 996.921875 L 239.90625 996.941406 C 239.605469 996.949219 239.332031 996.761719 239.230469 996.476562 L 221.25 944.269531 C 221.175781 944.058594 221.207031 943.820312 221.339844 943.636719 C 221.46875 943.453125 221.679688 943.34375 221.90625 943.339844 L 241.871094 943.425781 C 242.1875 943.425781 242.464844 943.632812 242.550781 943.933594 L 250.875 974.96875 C 250.953125 975.28125 251.230469 975.496094 251.550781 975.496094 C 251.871094 975.496094 252.148438 975.28125 252.226562 974.96875 Z M 252.226562 974.96875 "/>
<path style=" stroke:none;fill-rule:nonzero;fill:rgb(0%,0%,0%);fill-opacity:1;" d="M 287.214844 996.921875 C 286.75 996.921875 286.371094 996.921875 286.371094 996.921875 L 286.371094 943.339844 C 286.371094 943.339844 286.75 943.339844 287.214844 943.339844 L 307.117188 943.339844 C 307.585938 943.339844 307.964844 943.339844 307.964844 943.339844 L 307.964844 996.921875 C 307.964844 996.921875 307.585938 996.921875 307.117188 996.921875 Z M 287.214844 996.921875 "/>
<path style=" stroke:none;fill-rule:nonzero;fill:rgb(0%,0%,0%);fill-opacity:1;" d="M 380.351562 996.921875 C 379.964844 996.921875 379.652344 996.921875 379.652344 996.921875 L 379.652344 943.300781 C 379.652344 943.300781 379.964844 943.300781 380.351562 943.300781 L 400.550781 943.300781 C 400.933594 943.300781 401.246094 943.300781 401.246094 943.300781 L 401.246094 996.921875 C 401.246094 996.921875 400.933594 996.921875 400.550781 996.921875 Z M 380.351562 996.921875 "/>
</g>
</svg>
