<svg version="1.1" xmlns="http://www.w3.org/2000/svg" xmlns:xlink="http://www.w3.org/1999/xlink" width="287.88061" height="67.16813" viewBox="0,0,287.88061,67.16813"><defs><linearGradient x1="225.35705" y1="173.53875" x2="251.03378" y2="173.53875" gradientUnits="userSpaceOnUse" id="color-1"><stop offset="0" stop-color="#0071bc"/><stop offset="1" stop-color="#ed1c24"/></linearGradient></defs><g transform="translate(-96.05969,-146.41593)"><g data-paper-data="{&quot;isPaintingLayer&quot;:true}" stroke="none" stroke-width="1" stroke-linecap="butt" stroke-linejoin="miter" stroke-miterlimit="10" stroke-dasharray="" stroke-dashoffset="0" style="mix-blend-mode: normal"><path d="M293.17968,180.19605v-1.14046c2.25264,0 3.63816,-0.38643 3.98218,-3.15746l1.39023,-11.17366c0.34403,-2.86528 -0.95194,-3.34125 -2.77574,-3.34125v-1.14517h9.8824l12.91732,14.80238l12.22455,-14.80238h9.35931v1.14517c-2.08299,0 -3.03494,0.38171 -2.86057,1.90861l2.08296,13.75617c0.16966,1.62115 1.64475,2.00757 3.723,2.00757v1.14046h-14.03894v-1.14046c2.68622,0 3.98689,-0.67391 3.46852,-4.10942l-1.55988,-11.65434l-13.95882,16.90422h-2.0783l-14.13317,-16.42352l-1.47505,11.64963c-0.34403,3.44022 1.64941,3.63343 3.20929,3.63343v1.14046h-9.35928" fill="#000000" fill-rule="evenodd"/><path d="M380.99018,174.94617v3.81724c-6.75792,1.43264 -11.09826,1.91332 -16.03236,1.91332c-12.22459,0 -20.28319,-4.01045 -20.28319,-10.02848c0,-4.20367 4.59484,-10.8909 21.14558,-10.8909c5.81068,0 9.79757,0.86242 11.791,0.86242c0.69278,0 1.12633,-0.09425 1.47035,-0.38172h1.21586v6.01803h-1.1263c-1.38551,-3.44022 -6.0699,-4.68435 -12.3094,-4.68435c-9.01526,0 -14.90608,2.95953 -14.90608,8.6948c0,6.494 7.4507,8.40263 14.73171,8.40263c2.68622,0 5.1179,-0.00001 7.62975,-0.76346v-2.95953c0,-2.19608 -1.99344,-2.48356 -4.16596,-2.48356v-1.14517h13.78916v1.14517c-2.60137,0 -2.95009,1.23943 -2.95009,2.48356" fill="#000000" fill-rule="evenodd"/><path d="M267.067,174.75767c0,2.48356 2.16781,3.52976 7.19147,3.52976c5.20274,0 8.66654,-1.14989 8.66654,-4.01046c0,-3.15277 -4.07172,-4.39217 -11.61193,-4.39217h-4.24608zM260.38919,164.63022c0,-2.77103 -1.29597,-3.24699 -4.15654,-3.24699v-1.14517c1.9039,0 3.11977,-0.09425 5.80595,-0.09425c2.34219,-0.09897 6.84746,-0.19322 8.93044,-0.19322c10.31124,0 17.07386,0.8624 17.07386,4.67964c0,2.38931 -2.86057,3.82195 -7.10666,4.20367c5.72114,0.6692 9.27447,2.57781 9.27447,5.34884c0,3.62872 -4.85401,6.01332 -15.16996,6.01332h-18.80812v-1.14046c1.99344,0 4.15654,-0.48068 4.15654,-2.29504zM267.067,161.85921v6.21125h5.28286c5.72114,0 8.67125,-0.6692 8.67125,-3.0585c0,-2.3846 -2.59666,-3.247 -9.44884,-3.247c-1.30069,0 -3.2093,0 -4.50527,0.09426" fill="#000000" fill-rule="evenodd"/><path d="M150.39634,170.16286c0,-2.28562 -0.853,-4.38746 -2.39874,-5.90022c-1.63999,-1.54103 -4.00574,-2.43643 -6.5317,-2.43643c-2.49298,0 -4.887,0.8624 -6.52699,2.43643c-1.54574,1.48448 -2.37045,3.61458 -2.37045,5.90022c0,2.25264 0.82472,4.38276 2.37045,5.86723c1.63999,1.57402 4.03401,2.43643 6.52699,2.43643c2.55424,0 4.89171,-0.82942 6.5317,-2.43643c1.63999,-1.57875 2.39874,-3.52034 2.39874,-5.86723zM141.4659,158.89024c5.08022,0 9.11896,1.23943 12.21043,3.95391c2.17724,1.94632 3.25173,4.59952 3.25173,7.31871c0,2.59195 -1.14046,5.40539 -3.25173,7.31871c-2.90298,2.59195 -7.41297,3.98218 -12.21043,3.98218c-4.76447,0 -9.1802,-1.41851 -12.14446,-3.98218c-2.23851,-1.94631 -3.31297,-4.59952 -3.31297,-7.31871c0,-2.7192 1.13575,-5.37239 3.31297,-7.31871c2.74275,-2.44114 7.60147,-3.95391 12.14446,-3.95391" fill="#000000" fill-rule="nonzero"/><path d="M118.96309,168.86688c0.75873,0.33932 1.48448,0.80116 2.08298,1.35725c0.44299,0.43356 1.70126,1.85206 1.70126,4.10942c0,2.34218 -1.4515,3.63816 -2.08298,4.13297c-1.23,0.92839 -2.70977,1.54574 -3.91149,1.88505c-1.25827,0.3393 -3.09149,0.89541 -6.527,0.89541c-2.11598,0 -3.18574,-0.24505 -4.89171,-0.58437c-2.04999,-0.43356 -4.03872,-1.20643 -4.69848,-1.47977c-0.53725,-0.24978 -0.69278,0.24034 -0.69278,0.36758c0,0 0,0.21679 0,1.07919h-3.22344v-7.90308h2.87471c0,0.92839 0.47126,1.88033 0.75873,2.21965c1.16402,1.39494 2.427,1.91805 3.62401,2.3469c1.0085,0.34403 3.85022,1.05563 6.21595,1.05563c3.21874,0 4.98596,-0.77759 5.23573,-0.90012c0.28747,-0.09425 1.76724,-0.55608 1.76724,-2.09711c0,-1.51276 -1.41849,-1.7908 -2.27148,-2.00759c-1.0415,-0.24978 -3.62872,-0.5231 -6.27723,-0.80585c-2.6485,-0.27333 -5.30172,-0.64563 -6.5647,-0.92367c-2.77103,-0.58908 -3.8455,-1.6023 -4.50998,-2.19608c0.06599,0.03299 -1.51276,-1.35725 -1.51276,-3.76539c0,-2.62492 1.86148,-4.23195 4.13297,-5.21689c2.45999,-1.07919 5.36298,-1.54574 7.91722,-1.54574c4.50998,0 8.17171,1.42322 9.49597,2.10183c0.50426,0.24505 0.79171,-0.06125 0.79171,-0.31102v-0.80114h2.89828v6.88515h-2.61552c-0.28276,-1.26298 -1.04148,-2.19137 -1.61172,-2.62494c-0.47126,-0.40056 -1.10276,-0.7116 -1.64001,-0.95665c-1.54574,-0.67862 -3.97275,-1.29598 -6.84274,-1.29598c-2.43171,0 -4.76447,0.43356 -5.9332,1.14046c-0.72575,0.43356 -1.10276,0.98965 -1.10276,1.63999c0,0.92367 0.82,1.29126 1.19701,1.41851c1.32424,0.3723 4.57597,0.64563 6.46573,0.83414c1.80023,0.18379 5.5562,0.67862 7.1962,1.05092c0.84829,0.21206 1.88976,0.58437 2.55424,0.89541" fill="#000000" fill-rule="nonzero"/><path d="M209.81794,160.15794h11.64019v2.50241c-1.73426,0 -2.58724,0 -2.58724,0c-0.94725,0 -1.35252,0.1508 -2.04999,0.95665c-0.31575,0.33932 -7.63447,8.45918 -7.82768,8.67597c-0.12253,0.12253 -0.08952,0.27804 -0.08952,0.37229c0,0.15551 0,3.60988 0,3.94918c0,0.09425 0,0.46655 0.02828,0.5608c0.09897,0.21206 0.28747,0.39587 0.57024,0.49483c0.09425,0.02828 0.5985,0.02828 0.72575,0.02828c0,0 0.50425,0 2.6485,0v2.50241h-14.13319v-2.50241h2.52598c0.12725,0 0.63148,0 0.72575,-0.02828c0.28276,-0.09896 0.47128,-0.28276 0.53252,-0.49483c0.06597,-0.09425 0.06597,-0.46655 0.06597,-0.52781c0,-3.82666 0,-3.98217 0,-3.98217c0,-0.09425 0,-0.12724 -0.15551,-0.3393c-0.1885,-0.21679 -7.41297,-8.21412 -7.76171,-8.55814c-0.41,-0.42885 -1.13575,-1.10747 -2.23851,-1.10747c0,0 -0.55609,0 -1.62114,0v-2.50241h13.32261v2.50241c-1.39023,0 -1.73424,0 -1.73424,0c-0.38174,0 -0.66448,0.36758 -0.31576,0.76815c4.79276,5.5609 4.82575,5.62218 4.82575,5.62218c0.06126,0.06126 0.09426,0.06126 0.16022,0c0.06126,-0.03299 4.88701,-5.58919 4.91998,-5.62218c0.2215,-0.27334 0.06126,-0.76815 -0.41,-0.76815c0,0 -0.34874,0 -1.76724,0v-2.50241" fill="#000000" fill-rule="nonzero"/><path d="M187.90891,162.66035c-1.23,0 -1.35723,0.36758 -1.32426,1.54103l0.2215,15.99939h-4.16126l-16.31514,-14.14262v10.03319c0,1.11219 0.06599,1.60701 1.23472,1.60701c0,0 1.64001,0 2.90299,0v2.50241h-11.8947v-2.50241c1.16873,0 2.80874,0 2.80874,0c1.0085,0 0.98023,-0.95665 0.98023,-1.66827v-11.73446c0,-0.74459 -0.09897,-1.63528 -1.73897,-1.63528h-2.24322v-2.50241h10.13216l14.13319,12.41307l-0.12724,-8.36963c-0.03299,-1.07919 -0.2215,-1.54103 -1.4515,-1.54103c0,0 -1.63999,0 -2.6485,0v-2.50241h11.20664v2.50241c-0.84356,0 -1.7154,0 -1.7154,0" fill="#000000" fill-rule="nonzero"/><path d="M256.21852,191.12466h124.76223v1.50803h-124.76223z" fill="#000000" fill-rule="nonzero"/><path d="M96.6959,191.12466h124.84235v1.50803h-124.84235z" fill="#000000" fill-rule="nonzero"/><path d="M244.14004,154.54519c-0.16535,1.61938 -1.13747,3.02352 -2.35632,4.24137l-0.58908,0.58908l-0.70689,0.58908l-0.82472,0.70689v1.06035v10.95688c1.1189,0.00644 2.62423,0.30429 3.88792,0.82471c1.84651,0.80461 3.68766,2.37211 4.83044,4.35918l0.23563,0.47126c0.3787,0.81121 0.95489,2.25128 1.00517,4.10399c0.09639,5.1317 -2.54885,7.858 -7.01378,9.68046v-0.58908v-0.82472v-0.23563c1.30116,-0.6698 2.91254,-1.97162 3.53447,-3.53447c0.46776,-1.26041 0.86761,-2.77665 0.58908,-4.24137c-0.02781,-0.36467 -0.10855,-0.70962 -0.23563,-1.06034l-0.23563,-0.58908l-0.23563,-0.47126c-0.34764,-0.69528 -0.70295,-1.23858 -1.29597,-1.76723l-0.47126,-0.47128c-0.54699,-0.4376 -1.10672,-0.79906 -1.76724,-1.06034l-0.58908,-0.23563c-0.73864,-0.21104 -1.46041,-0.35538 -2.23849,-0.35345v14.37353v0.47128v0.47126v0.35345v0.23563v8.01147h-1.5316v-8.01147c-5.67499,-0.14736 -10.19454,-3.33078 -12.72411,-8.01147c-0.15709,-0.39272 -0.31416,-0.78545 -0.47125,-1.17815l-0.23563,-0.70689c-1.79062,-5.50526 0.53092,-11.06869 4.35918,-15.31605l0.58908,-0.58908l0.47126,-0.47128c2.30351,-2.07314 4.41326,-3.66097 7.06895,-5.65516l0.94252,-0.70689v-0.58908v-0.58908v-11.78158v-0.35345v-0.23563c2.83741,1.03206 6.68156,3.76584 6.00861,8.12929zM239.66304,158.78656l0.70689,-0.70689l0.23563,-0.23563l0.35345,-0.35345c0.43419,-0.43419 0.69179,-0.80429 1.06035,-1.29597c1.23063,-2.00454 0.66281,-4.34678 -0.82472,-6.12641c-0.51165,-0.51165 -0.87681,-0.88544 -1.5316,-1.29598zM231.18029,167.38712l-0.35343,0.35345c-4.13297,4.30665 -6.98809,11.56025 -3.29884,17.55456l0.23563,0.35345c2.4187,3.37788 6.0763,5.47981 10.36779,5.41953v-29.33613c-2.05616,1.66878 -4.79341,3.55863 -6.95115,5.65516z" fill="url(#color-1)" fill-rule="nonzero"/><path d="M270.81083,206.63169c0,-2.12326 0,-2.51349 -0.02518,-2.96249c-0.02937,-0.47417 -0.14267,-0.70075 -0.60006,-0.79727c-0.11331,-0.02518 -0.35246,-0.04196 -0.5455,-0.04196c-0.15527,0 -0.23919,-0.02937 -0.23919,-0.12589c0,-0.09652 0.0965,-0.12589 0.30631,-0.12589c0.37765,0 0.7847,0.01261 1.13297,0.01261c0.36506,0.01679 0.68398,0.02937 0.88119,0.02937c0.44479,0 3.22686,0 3.49121,-0.01261c0.26435,-0.02937 0.49095,-0.05875 0.60006,-0.08393c0.07133,-0.01261 0.15525,-0.05454 0.2266,-0.05454c0.06714,0 0.08392,0.05454 0.08392,0.12169c0,0.10071 -0.07133,0.26854 -0.11331,0.91056c-0.01261,0.13848 -0.04196,0.75531 -0.07133,0.92316c-0.01261,0.06714 -0.04194,0.15106 -0.13846,0.15106c-0.09652,0 -0.12589,-0.06713 -0.12589,-0.19301c0,-0.10071 -0.01679,-0.3357 -0.08393,-0.50354c-0.09652,-0.25178 -0.23917,-0.41962 -0.93575,-0.50355c-0.23499,-0.02937 -1.70364,-0.05454 -1.98479,-0.05454c-0.06714,0 -0.09652,0.04196 -0.09652,0.13848v3.53317c0,0.10071 0.01261,0.15525 0.09652,0.15525c0.30631,0 1.91764,0 2.23654,-0.02936c0.33569,-0.02518 0.54551,-0.06714 0.67139,-0.2098c0.09652,-0.1091 0.15106,-0.18044 0.2224,-0.18044c0.05456,0 0.0965,0.02937 0.0965,0.11329c0,0.08392 -0.05454,0.30631 -0.11329,1.01966c-0.01261,0.27695 -0.05456,0.83504 -0.05456,0.93575c0,0.1091 0,0.26435 -0.12589,0.26435c-0.09652,0 -0.12589,-0.05454 -0.12589,-0.12588c-0.01261,-0.13848 -0.0126,-0.31891 -0.05454,-0.50354c-0.07133,-0.28114 -0.26435,-0.48675 -0.78048,-0.54131c-0.26435,-0.02937 -1.6491,-0.04616 -1.98479,-0.04616c-0.07133,0 -0.08392,0.05875 -0.08392,0.14267v1.1036c0,0.47417 -0.01679,1.7582 0,2.16522c0.02937,0.96092 0.25177,1.17074 1.67847,1.17074c0.36087,0 0.94833,-0.00001 1.3092,-0.16785c0.36506,-0.16365 0.53291,-0.46158 0.62943,-1.03225c0.02937,-0.15527 0.05875,-0.20981 0.15527,-0.20981c0.11331,0 0.11329,0.11331 0.11329,0.25178c0,0.3189 -0.11331,1.27143 -0.18464,1.55258c-0.09652,0.36087 -0.22238,0.36086 -0.7553,0.36086c-1.04485,0 -1.81274,-0.02518 -2.41699,-0.04196c-0.60006,-0.02518 -1.03226,-0.04196 -1.45187,-0.04196c-0.15527,0 -0.46158,0.00001 -0.79727,0.0168c-0.31891,0 -0.68398,0.02517 -0.96092,0.02517c-0.18464,0 -0.28114,-0.04194 -0.28114,-0.13846c0,-0.07133 0.05454,-0.11331 0.2224,-0.11331c0.20981,0 0.37766,-0.02937 0.50354,-0.05456c0.28114,-0.05456 0.35246,-0.36506 0.40702,-0.76788c0.06714,-0.58747 0.06714,-1.69107 0.06714,-2.97509v-2.45895" fill="#5c5c5f" fill-rule="nonzero"/><path d="M282.59758,207.7353c0,0.15527 0.02936,0.20981 0.12588,0.25177c0.29374,0.09652 0.70916,0.13848 1.06164,0.13848c0.5581,0 0.74271,-0.05456 0.99029,-0.23499c0.41962,-0.31052 0.82666,-0.95254 0.82666,-2.09809c0,-1.98479 -1.31341,-2.55547 -2.14005,-2.55547c-0.34827,0 -0.60006,0.01261 -0.73853,0.05456c-0.09652,0.02937 -0.12588,0.08393 -0.12588,0.19723zM280.94848,206.6317c0,-2.12326 0.00001,-2.51349 -0.02936,-2.96249c-0.02937,-0.47417 -0.13848,-0.70077 -0.60006,-0.79728c-0.11331,-0.02518 -0.34827,-0.04196 -0.54131,-0.04196c-0.15946,0 -0.23919,-0.02937 -0.23919,-0.12589c0,-0.09652 0.09652,-0.12588 0.30633,-0.12588c0.73853,0 1.61972,0.04196 1.91345,0.04196c0.47836,0 1.53999,-0.04196 1.968,-0.04196c0.88119,0 1.81693,0.08393 2.57224,0.60006c0.39025,0.26856 0.94835,0.97771 0.94835,1.91345c0,1.03645 -0.43219,1.98479 -1.8421,3.13033c1.24206,1.56518 2.20717,2.81144 3.02962,3.67586c0.78468,0.80985 1.35535,0.90637 1.56937,0.94833c0.15106,0.02937 0.27694,0.04196 0.39025,0.04196c0.1091,0 0.16366,0.04196 0.16366,0.11331c0,0.11331 -0.09652,0.13846 -0.26016,0.13846h-1.33018c-0.78049,0 -1.13297,-0.06713 -1.49383,-0.26435c-0.60006,-0.3231 -1.13296,-0.97771 -1.91345,-2.05193c-0.5581,-0.77208 -1.20012,-1.72042 -1.38473,-1.93023c-0.07133,-0.08393 -0.15106,-0.09652 -0.25177,-0.09652l-1.21689,-0.02937c-0.06714,0 -0.1091,0.02937 -0.1091,0.11331v0.19302c0,1.30081 0,2.40441 0.06713,2.99186c0.04196,0.40283 0.1301,0.71334 0.5497,0.76789c0.20562,0.02518 0.51193,0.05456 0.67979,0.05456c0.11331,0 0.16784,0.04196 0.16784,0.11329c0,0.09652 -0.0965,0.13848 -0.27694,0.13848c-0.80985,0 -1.84631,-0.04196 -2.05612,-0.04196c-0.26435,0 -1.14556,0.04196 -1.70364,0.04196c-0.18044,0 -0.27694,-0.04196 -0.27694,-0.13848c0,-0.07133 0.05454,-0.11329 0.2224,-0.11329c0.20981,0 0.37765,-0.02937 0.50354,-0.05456c0.27695,-0.05456 0.34829,-0.36506 0.40285,-0.76789c0.07133,-0.58747 0.07133,-1.69106 0.07133,-2.97509v-2.45895" fill="#5c5c5f" fill-rule="nonzero"/><path d="M293.25134,203.42506l-2.08549,0.05456c-0.81406,0.02937 -1.14976,0.09652 -1.35957,0.40283c-0.13848,0.21402 -0.2098,0.38185 -0.23917,0.49095c-0.02518,0.11331 -0.06714,0.16785 -0.15106,0.16785c-0.09652,0 -0.12589,-0.06713 -0.12589,-0.2224c0,-0.2224 0.26437,-1.49383 0.28954,-1.60714c0.04616,-0.18044 0.08812,-0.26856 0.17204,-0.26856c0.11331,0 0.25177,0.14267 0.60004,0.16784c0.40702,0.04196 0.93994,0.07133 1.40152,0.07133h5.54733c0.44479,0 0.75531,-0.04196 0.96512,-0.07133c0.20981,-0.03777 0.3231,-0.06713 0.37766,-0.06713c0.09652,0 0.11329,0.08392 0.11329,0.29373c0,0.29374 -0.04196,1.25884 -0.04196,1.61971c-0.01261,0.14265 -0.04196,0.22241 -0.12588,0.22241c-0.11331,0 -0.13848,-0.06714 -0.15527,-0.27695l-0.01261,-0.15525c-0.02937,-0.36506 -0.40702,-0.75531 -1.65329,-0.78049l-1.76659,-0.04196v5.72777c0,1.28402 0,2.38762 0.07133,2.98767c0.04196,0.39025 0.13008,0.70075 0.5455,0.7553c0.19723,0.02518 0.50354,0.05456 0.71335,0.05456c0.15527,0 0.22659,0.04196 0.22659,0.11331c0,0.09652 -0.11329,0.13846 -0.26854,0.13846c-0.92316,0 -1.80435,-0.04196 -2.1946,-0.04196c-0.3231,0 -1.20431,0.04196 -1.76658,0.04196c-0.18044,0 -0.28114,-0.04194 -0.28114,-0.13846c0,-0.07133 0.05875,-0.11331 0.2266,-0.11331c0.20981,0 0.37765,-0.02937 0.50354,-0.05456c0.27694,-0.05456 0.36506,-0.36506 0.40283,-0.76789c0.07133,-0.58747 0.07133,-1.69106 0.07133,-2.97509v-5.72777" fill="#5c5c5f" fill-rule="nonzero"/><path d="M305.2629,208.92129c0.07133,0 0.08392,-0.04196 0.07133,-0.08392l-1.25884,-3.44926c-0.01261,-0.05875 -0.02937,-0.12589 -0.06714,-0.12589c-0.04196,0 -0.07133,0.06714 -0.08392,0.12589l-1.28822,3.43247c-0.01261,0.05875 -0.00001,0.10071 0.05454,0.10071zM302.41372,209.61786c-0.06714,0 -0.09652,0.02936 -0.12589,0.11329l-0.75531,1.99737c-0.13848,0.34827 -0.20981,0.68398 -0.20981,0.85183c0,0.25177 0.12589,0.43221 0.5581,0.43221h0.20981c0.16785,0 0.20981,0.02937 0.20981,0.11331c0,0.11331 -0.08392,0.13846 -0.23917,0.13846c-0.44479,0 -1.04485,-0.04196 -1.47706,-0.04196c-0.15527,0 -0.92316,0.04196 -1.6491,0.04196c-0.18044,0 -0.26435,-0.02517 -0.26435,-0.13846c0,-0.08392 0.05454,-0.11331 0.16784,-0.11331c0.12589,0 0.3189,-0.01261 0.43221,-0.02937c0.64202,-0.07973 0.90637,-0.55388 1.18752,-1.25465l3.508,-8.77419c0.16785,-0.40283 0.24758,-0.55808 0.39023,-0.55808c0.1217,0 0.20562,0.12589 0.34829,0.44898c0.33569,0.76789 2.56805,6.46629 3.46184,8.58955c0.53291,1.25466 0.93992,1.45187 1.23367,1.5232c0.20561,0.04196 0.41962,0.05456 0.58327,0.05456c0.11331,0 0.18464,0.01679 0.18464,0.11331c0,0.11331 -0.12589,0.13846 -0.64202,0.13846c-0.50354,0 -1.5232,0.00001 -2.64358,-0.02517c-0.24757,-0.01679 -0.41542,-0.01679 -0.41542,-0.11331c0,-0.08392 0.05456,-0.11329 0.19304,-0.12589c0.09652,-0.02937 0.19721,-0.15525 0.12588,-0.3231l-1.11618,-2.9583c-0.02937,-0.07133 -0.07132,-0.10071 -0.14265,-0.10071h-3.11355" fill="#5c5c5f" fill-rule="nonzero"/><path d="M312.90422,206.69388c0,-2.12326 0,-2.51349 -0.02518,-2.96249c-0.02937,-0.47417 -0.16785,-0.71335 -0.47417,-0.7847c-0.15527,-0.03777 -0.33569,-0.05454 -0.50773,-0.05454c-0.13848,0 -0.2224,-0.02937 -0.2224,-0.13848c0,-0.08392 0.11328,-0.11331 0.33569,-0.11331c0.53291,0 1.41412,0.04196 1.81695,0.04196c0.34827,0 1.17493,-0.04196 1.70364,-0.04196c0.18463,0 0.29373,0.02937 0.29373,0.11331c0,0.1091 -0.08392,0.13848 -0.2224,0.13848c-0.13848,0 -0.25177,0.01679 -0.41962,0.04196c-0.37765,0.07133 -0.49095,0.30633 -0.51612,0.79728c-0.02937,0.449 -0.02937,0.83923 -0.02937,2.96249v2.45895c0,1.35535 0.00001,2.45895 0.05457,3.05901c0.04616,0.37765 0.14267,0.62942 0.56229,0.68396c0.19304,0.02518 0.50354,0.05456 0.70915,0.05456c0.15527,0 0.22659,0.04196 0.22659,0.11331c0,0.09652 -0.11329,0.13846 -0.26435,0.13846c-0.92315,0 -1.80436,-0.04196 -2.18201,-0.04196c-0.31891,0 -1.20009,0.04196 -1.75818,0.04196c-0.18044,0 -0.28114,-0.04194 -0.28114,-0.13846c0,-0.07133 0.05456,-0.11331 0.2266,-0.11331c0.20981,0 0.37346,-0.02937 0.50354,-0.05456c0.27694,-0.05456 0.35667,-0.29373 0.40283,-0.69656c0.06714,-0.58747 0.06714,-1.69106 0.06714,-3.04642v-2.45895" fill="#5c5c5f" fill-rule="nonzero"/><path d="M321.28844,211.30548c0.02508,1.08681 0.20561,1.45186 0.48674,1.54837c0.23501,0.08392 0.50354,0.0965 0.72595,0.0965c0.15525,0 0.2392,0.02937 0.2392,0.11331c0,0.11331 -0.12588,0.13846 -0.3231,0.13846c-0.90637,0 -1.46446,-0.04196 -1.73303,-0.04196c-0.12589,0 -0.78049,0.04196 -1.50643,0.04196c-0.18042,0 -0.30631,-0.0126 -0.30631,-0.13846c0,-0.08392 0.07971,-0.11331 0.2224,-0.11331c0.18042,0 0.43221,-0.0126 0.62943,-0.06713c0.36506,-0.11331 0.41962,-0.51612 0.43221,-1.73302l0.12588,-8.27065c0,-0.28114 0.04197,-0.47417 0.18044,-0.47417c0.15525,0 0.28114,0.18044 0.52034,0.43222c0.16363,0.18044 2.29111,2.45895 4.33046,4.48571c0.94832,0.94833 2.8366,2.96249 3.07156,3.18489h0.07133l-0.13845,-6.27327c-0.01682,-0.85181 -0.14268,-1.11618 -0.47836,-1.25885c-0.20983,-0.08392 -0.54551,-0.08392 -0.73855,-0.08392c-0.16782,0 -0.22659,-0.04197 -0.22659,-0.12589c0,-0.11331 0.1553,-0.12589 0.36509,-0.12589c0.72595,0 1.3973,0.04196 1.69104,0.04196c0.15106,0 0.68398,-0.04196 1.36794,-0.04196c0.18042,0 0.32312,0.01261 0.32312,0.12589c0,0.08392 -0.08392,0.12589 -0.25177,0.12589c-0.14268,0 -0.25177,-0.00001 -0.41962,0.04196c-0.39023,0.11331 -0.50354,0.40702 -0.51612,1.18752l-0.15525,8.81615c0,0.30631 -0.05454,0.43221 -0.18042,0.43221c-0.15525,0 -0.3231,-0.15106 -0.47836,-0.30631c-0.877,-0.83923 -2.66459,-2.66876 -4.11647,-4.10805c-1.52738,-1.50643 -3.07578,-3.25625 -3.32757,-3.52059h-0.04193l0.15525,5.87045" fill="#5c5c5f" fill-rule="nonzero"/><path d="M335.83377,202.82351c0.04193,-0.23917 0.12589,-0.36506 0.23917,-0.36506c0.10909,0 0.19304,0.07132 0.37347,0.43219l3.81849,7.88041l3.79754,-7.97691c0.11328,-0.2266 0.18044,-0.33569 0.30631,-0.33569c0.13008,0 0.2098,0.13846 0.25177,0.43219l1.27142,8.63572c0.12589,0.877 0.26857,1.28403 0.68401,1.40991c0.40702,0.12589 0.68817,0.13848 0.8686,0.13848c0.12589,0 0.2224,0.0168 0.2224,0.10071c0,0.1091 -0.16785,0.15106 -0.36508,0.15106c-0.34824,0 -2.27431,-0.04196 -2.83239,-0.08392c-0.32312,-0.02518 -0.40704,-0.06714 -0.40704,-0.15106c0,-0.07133 0.05873,-0.11329 0.15525,-0.15527c0.0839,-0.02937 0.12589,-0.20981 0.07135,-0.60006l-0.83923,-6.14738h-0.05876l-3.04642,6.3404c-0.31888,0.65881 -0.38603,0.78468 -0.51611,0.78468c-0.12589,0 -0.26438,-0.28114 -0.48675,-0.70075c-0.33572,-0.64202 -1.43929,-2.77786 -1.60714,-3.16811c-0.12589,-0.29373 -0.96512,-2.0561 -1.4519,-3.10516h-0.05454l-0.73013,5.55992c-0.02508,0.25597 -0.04194,0.4364 -0.04194,0.65881c0,0.26435 0.18463,0.39025 0.41961,0.449c0.25178,0.05456 0.44479,0.06713 0.58744,0.06713c0.10913,0 0.20984,0.02936 0.20984,0.10071c0,0.12589 -0.12589,0.15106 -0.33572,0.15106c-0.58744,0 -1.21688,-0.04196 -1.46865,-0.04196c-0.26015,0 -0.93575,0.04196 -1.38055,0.04196c-0.13845,0 -0.25173,-0.02517 -0.25173,-0.15106c0,-0.07133 0.07973,-0.10071 0.22238,-0.10071c0.11331,0 0.20983,0.00001 0.41962,-0.04196c0.39023,-0.08392 0.50354,-0.62943 0.5707,-1.1036l1.38473,-9.10568" fill="#5c5c5f" fill-rule="nonzero"/><path d="M350.86326,206.75606c0,-2.12326 0,-2.51349 -0.0292,-2.96249c-0.02508,-0.47417 -0.14268,-0.70077 -0.60006,-0.79728c-0.11328,-0.02518 -0.34829,-0.04196 -0.54551,-0.04196c-0.15525,0 -0.23917,-0.02937 -0.23917,-0.12589c0,-0.09652 0.10071,-0.12589 0.3105,-0.12589c0.37765,0 0.78049,0.01261 1.12878,0.01261c0.36506,0.01679 0.68396,0.02937 0.88119,0.02937c0.449,0 3.22686,0 3.49542,-0.01261c0.26015,-0.02937 0.48675,-0.05875 0.59582,-0.08393c0.07135,-0.01261 0.15525,-0.05454 0.2266,-0.05454c0.06714,0 0.07973,0.05456 0.07973,0.1217c0,0.10071 -0.06713,0.26854 -0.1091,0.91055c-0.01271,0.13848 -0.04196,0.75532 -0.07133,0.92316c-0.01271,0.06714 -0.03775,0.15106 -0.13846,0.15106c-0.09652,0 -0.12589,-0.06713 -0.12589,-0.19301c0,-0.10071 -0.01271,-0.3357 -0.08395,-0.50354c-0.09649,-0.25178 -0.23497,-0.41962 -0.93575,-0.50354c-0.23497,-0.02937 -1.70363,-0.05454 -1.98476,-0.05454c-0.06714,0 -0.09652,0.04196 -0.09652,0.13848v3.53317c0,0.10071 0.01683,0.15524 0.09652,0.15524c0.30631,0 1.91764,0 2.23653,-0.02936c0.33991,-0.02518 0.54551,-0.06714 0.67139,-0.2098c0.09652,-0.1091 0.15106,-0.18044 0.22241,-0.18044c0.05873,0 0.10071,0.02937 0.10071,0.11329c0,0.08392 -0.05876,0.30631 -0.11331,1.01966c-0.01682,0.27695 -0.05873,0.83504 -0.05873,0.93575c0,0.1091 0,0.26435 -0.1217,0.26435c-0.09652,0 -0.13007,-0.05454 -0.13007,-0.12588c-0.01271,-0.13848 -0.0127,-0.31891 -0.05035,-0.50354c-0.07135,-0.28114 -0.26856,-0.48675 -0.78467,-0.54131c-0.26437,-0.02937 -1.64913,-0.04616 -1.9848,-0.04616c-0.06714,0 -0.0839,0.05875 -0.0839,0.14267v1.1036c0,0.47417 -0.01271,1.7582 0,2.16522c0.02953,0.96092 0.25177,1.17074 1.67844,1.17074c0.36089,0 0.94833,-0.00001 1.31339,-0.16785c0.36089,-0.16365 0.52871,-0.46158 0.62524,-1.03225c0.0292,-0.15527 0.05876,-0.20981 0.15525,-0.20981c0.11331,0 0.11332,0.11331 0.11332,0.25178c0,0.3189 -0.11332,1.27143 -0.18463,1.55258c-0.09652,0.36087 -0.2224,0.36086 -0.75531,0.36086c-1.04486,0 -1.81274,-0.02518 -2.4128,-0.04196c-0.60006,-0.02518 -1.03645,-0.04196 -1.45608,-0.04196c-0.15106,0 -0.46158,0.00001 -0.79725,0.0168c-0.31893,0 -0.67976,0.02517 -0.96094,0.02517c-0.18042,0 -0.27695,-0.04194 -0.27695,-0.13846c0,-0.07133 0.05459,-0.11331 0.22241,-0.11331c0.20561,0 0.37765,-0.02937 0.50354,-0.05456c0.27695,-0.05456 0.34408,-0.36506 0.40283,-0.76788c0.07135,-0.58747 0.07135,-1.69107 0.07135,-2.97509v-2.45895" fill="#5c5c5f" fill-rule="nonzero"/><path d="M360.45719,211.36765c0.0292,1.08681 0.2098,1.45187 0.49093,1.54839c0.23501,0.08392 0.50354,0.0965 0.72595,0.0965c0.15525,0 0.23917,0.02937 0.23917,0.11331c0,0.11331 -0.12588,0.13846 -0.32307,0.13846c-0.91056,0 -1.46869,-0.04196 -1.73303,-0.04196c-0.12589,0 -0.78049,0.04196 -1.51062,0.04196c-0.18042,0 -0.30631,-0.0126 -0.30631,-0.13846c0,-0.08392 0.08809,-0.11331 0.2224,-0.11331c0.18463,0 0.4364,-0.0126 0.62943,-0.06713c0.36506,-0.11331 0.41959,-0.51612 0.43638,-1.73303l0.1217,-8.27064c0,-0.28114 0.04616,-0.47417 0.18461,-0.47417c0.15525,0 0.28114,0.18044 0.51615,0.43221c0.16782,0.18044 2.29108,2.45895 4.33041,4.48571c0.94835,0.94833 2.83663,2.96249 3.07578,3.18489h0.06714l-0.13849,-6.27327c-0.01271,-0.85181 -0.13845,-1.11618 -0.47833,-1.25885c-0.20565,-0.08392 -0.54132,-0.08392 -0.73855,-0.08392c-0.16363,0 -0.22241,-0.04197 -0.22241,-0.12589c0,-0.11331 0.1553,-0.12589 0.36509,-0.12589c0.72595,0 1.39731,0.04197 1.68687,0.04197c0.15525,0 0.68815,-0.04197 1.37213,-0.04197c0.18042,0 0.31893,0.01261 0.31893,0.12589c0,0.08392 -0.0839,0.12589 -0.25176,0.12589c-0.13849,0 -0.25178,0 -0.41964,0.04196c-0.39023,0.11331 -0.49935,0.40701 -0.51193,1.1875l-0.15525,8.81615c0,0.30631 -0.05454,0.43221 -0.18044,0.43221c-0.1553,0 -0.3231,-0.15106 -0.47836,-0.30631c-0.877,-0.83923 -2.66459,-2.66876 -4.12066,-4.10805c-1.5232,-1.50643 -3.07578,-3.25625 -3.32336,-3.52059h-0.04193l0.15105,5.87045" fill="#5c5c5f" fill-rule="nonzero"/><path d="M375.25499,203.54942l-2.08132,0.05456c-0.80985,0.02937 -1.14553,0.09652 -1.35537,0.40283c-0.13845,0.21402 -0.20981,0.38185 -0.23498,0.49095c-0.0292,0.11331 -0.07133,0.16785 -0.15524,0.16785c-0.10071,0 -0.12589,-0.06714 -0.12589,-0.2224c0,-0.2224 0.26434,-1.49383 0.29374,-1.60712c0.04193,-0.18044 0.08392,-0.26856 0.16782,-0.26856c0.10913,0 0.25178,0.14267 0.60006,0.16784c0.40702,0.04196 0.93573,0.07133 1.39734,0.07133h5.53472c0.44481,0 0.75113,-0.04196 0.96092,-0.07133c0.2098,-0.03777 0.3231,-0.06713 0.37765,-0.06713c0.09652,0 0.11331,0.08392 0.11331,0.29373c0,0.29374 -0.04197,1.25884 -0.04197,1.61971c-0.01682,0.14265 -0.04616,0.22241 -0.12588,0.22241c-0.11331,0 -0.14267,-0.06714 -0.15525,-0.27695l-0.01271,-0.15525c-0.0292,-0.36506 -0.40283,-0.75531 -1.64908,-0.78049l-1.76239,-0.04196v5.72777c0,1.28402 0,2.38762 0.07133,2.98767c0.04193,0.39025 0.12589,0.70075 0.54547,0.7553c0.19723,0.02518 0.50354,0.05456 0.71338,0.05456c0.15106,0 0.22241,0.04196 0.22241,0.11331c0,0.09652 -0.11331,0.13846 -0.26437,0.13846c-0.92316,0 -1.80433,-0.04196 -2.1946,-0.04196c-0.32312,0 -1.20012,0.04196 -1.7582,0.04196c-0.18463,0 -0.28114,-0.04194 -0.28114,-0.13846c0,-0.07133 0.05456,-0.11331 0.22241,-0.11331c0.2098,0 0.37766,-0.02937 0.50354,-0.05456c0.28113,-0.05456 0.36505,-0.36506 0.40702,-0.76789c0.06714,-0.58747 0.06714,-1.69106 0.06714,-2.97509v-5.72777" fill="#5c5c5f" fill-rule="nonzero"/><path d="M206.03303,202.70677c0.04616,-0.23919 0.13427,-0.36506 0.24758,-0.36506c0.11748,0 0.20562,0.07135 0.39025,0.43641l3.94859,7.91816l3.93601,-8.01887c0.11331,-0.2224 0.18463,-0.3357 0.31471,-0.3357c0.1301,0 0.21821,0.14268 0.26016,0.43641l1.3176,8.67347c0.13008,0.88958 0.27275,1.29241 0.70915,1.41831c0.41962,0.1301 0.70915,0.14267 0.89379,0.14267c0.13427,0 0.23498,0.01679 0.23498,0.10071c0,0.1091 -0.17623,0.15106 -0.37765,0.15106c-0.36087,0 -2.35824,-0.04196 -2.93312,-0.08392c-0.3357,-0.02518 -0.41962,-0.06714 -0.41962,-0.15106c0,-0.07552 0.05454,-0.11331 0.15525,-0.15946c0.08812,-0.02518 0.13008,-0.20981 0.07554,-0.60425l-0.86862,-6.17256h-0.05875l-3.15132,6.37398c-0.33148,0.65881 -0.40702,0.78468 -0.53712,0.78468c-0.13008,0 -0.27275,-0.28113 -0.50354,-0.70496c-0.34829,-0.64202 -1.48964,-2.79045 -1.66587,-3.1849c-0.1301,-0.29373 -0.99449,-2.06451 -1.50222,-3.11776h-0.05875l-0.75112,5.58929c-0.02937,0.25178 -0.04196,0.43221 -0.04196,0.65881c0,0.26854 0.18464,0.39444 0.43221,0.449c0.26016,0.05875 0.46158,0.07133 0.60425,0.07133c0.11748,0 0.21821,0.02936 0.21821,0.10071c0,0.12589 -0.13007,0.15106 -0.34408,0.15106c-0.60845,0 -1.25885,-0.04196 -1.51901,-0.04196c-0.27695,0 -0.96931,0.04196 -1.43089,0.04196c-0.14686,0 -0.26016,-0.02518 -0.26016,-0.15106c0,-0.07133 0.08393,-0.10071 0.22659,-0.10071c0.11748,0 0.21821,0.00001 0.4364,-0.04196c0.40702,-0.08392 0.52033,-0.62943 0.59166,-1.11199l1.43089,-9.15184" fill="#5c5c5f" fill-rule="nonzero"/><path d="M133.6894,206.7097c0,-2.13585 0,-2.52609 -0.02937,-2.97928c-0.02937,-0.47417 -0.17204,-0.71334 -0.49095,-0.78468c-0.15946,-0.04196 -0.34827,-0.05456 -0.52031,-0.05456c-0.14686,0 -0.23079,-0.02937 -0.23079,-0.14268c0,-0.08392 0.11329,-0.11331 0.34408,-0.11331c0.5497,0 1.46027,0.04616 1.87987,0.04616c0.36506,0 1.21689,-0.04616 1.76239,-0.04616c0.19304,0 0.30633,0.02937 0.30633,0.11331c0,0.11331 -0.08393,0.14268 -0.23079,0.14268c-0.14267,0 -0.26016,0.0126 -0.43221,0.04196c-0.39025,0.07133 -0.50773,0.31052 -0.53291,0.79727c-0.02937,0.45319 -0.02937,0.84342 -0.02937,2.97928v2.47154c0,1.35956 0.00001,2.47154 0.05456,3.07159c0.04196,0.38185 0.14686,0.63362 0.57906,0.68817c0.20142,0.02937 0.52031,0.05875 0.73852,0.05875c0.15946,0 0.23079,0.04196 0.23079,0.11331c0,0.09652 -0.1175,0.13848 -0.27695,0.13848c-0.95252,0 -1.8631,-0.04196 -2.25334,-0.04196c-0.3357,0 -1.24626,0.04196 -1.82114,0.04196c-0.18883,0 -0.28952,-0.04196 -0.28952,-0.13848c0,-0.07133 0.05454,-0.11331 0.23078,-0.11331c0.21821,0 0.39025,-0.02937 0.52033,-0.05875c0.28954,-0.05456 0.37346,-0.29373 0.41961,-0.69656c0.07133,-0.59166 0.07133,-1.70366 0.07133,-3.06321v-2.47154" fill="#5c5c5f" fill-rule="nonzero"/><path d="M235.99608,206.55849c0,-2.13585 0.00001,-2.52609 -0.02936,-2.97928c-0.02937,-0.47417 -0.14268,-0.70075 -0.60426,-0.79727c-0.11329,-0.02937 -0.35248,-0.04196 -0.5497,-0.04196c-0.15106,0 -0.23498,-0.02936 -0.23498,-0.12589c0,-0.10071 0.09652,-0.1301 0.30633,-0.1301c0.38185,0 0.78468,0.0168 1.13716,0.0168c0.36506,0.01261 0.68818,0.02936 0.88539,0.02936c0.449,0 3.24362,0 3.51218,-0.0168c0.26435,-0.02937 0.49097,-0.05454 0.60006,-0.08392c0.07133,-0.01261 0.15944,-0.05456 0.22659,-0.05456c0.07133,0 0.08392,0.05454 0.08392,0.12589c0,0.09652 -0.07132,0.26856 -0.11329,0.91056c-0.0126,0.14267 -0.03777,0.7595 -0.06714,0.92735c-0.0168,0.07133 -0.04194,0.15527 -0.14267,0.15527c-0.09652,0 -0.12589,-0.07133 -0.12589,-0.19723c0,-0.09652 -0.0126,-0.33569 -0.08392,-0.50354c-0.09652,-0.25178 -0.23919,-0.42381 -0.93994,-0.50773c-0.23919,-0.02518 -1.71624,-0.05454 -1.99319,-0.05454c-0.07133,0 -0.10071,0.04194 -0.10071,0.13846v3.55415c0,0.09652 0.0126,0.15525 0.10071,0.15525c0.30633,0 1.92186,0 2.24496,-0.02937c0.33988,-0.02937 0.54969,-0.07133 0.67557,-0.20981c0.09652,-0.11331 0.15106,-0.18463 0.22241,-0.18463c0.05873,0 0.10071,0.02937 0.10071,0.11329c0,0.08392 -0.05875,0.3105 -0.11329,1.02385c-0.0168,0.28114 -0.05875,0.84343 -0.05875,0.93995c0,0.11331 0,0.26854 -0.12588,0.26854c-0.09652,0 -0.12589,-0.05454 -0.12589,-0.12589c-0.0126,-0.14267 -0.0126,-0.32312 -0.05456,-0.50773c-0.07133,-0.27695 -0.26857,-0.48675 -0.78889,-0.5455c-0.26435,-0.02937 -1.6533,-0.04194 -1.99318,-0.04194c-0.07133,0 -0.08392,0.05454 -0.08392,0.13846v1.11199c0,0.47417 -0.0126,1.76659 0,2.17782c0.02937,0.96931 0.25177,1.17492 1.68266,1.17492c0.36927,0 0.95673,0 1.32179,-0.16784c0.36506,-0.16785 0.53291,-0.46158 0.63362,-1.03645c0.02518,-0.15527 0.05456,-0.20981 0.15527,-0.20981c0.10909,0 0.1091,0.10912 0.1091,0.25177c0,0.3231 -0.1091,1.27564 -0.18463,1.55678c-0.09652,0.36506 -0.2224,0.36506 -0.75531,0.36506c-1.05324,0 -1.82533,-0.02518 -2.42958,-0.04196c-0.60004,-0.02518 -1.04066,-0.04196 -1.46027,-0.04196c-0.15106,0 -0.46577,0 -0.80147,0.0168c-0.31891,0 -0.68398,0.02518 -0.96512,0.02518c-0.18463,0 -0.28114,-0.04196 -0.28114,-0.13848c0,-0.07133 0.05456,-0.11329 0.2224,-0.11329c0.20981,0 0.38185,-0.02937 0.50773,-0.05875c0.27695,-0.05456 0.34829,-0.36087 0.40704,-0.76791c0.07133,-0.59166 0.07133,-1.69944 0.07133,-2.99186v-2.47155" fill="#5c5c5f" fill-rule="nonzero"/><path d="M246.95467,211.29287c0.02937,1.0952 0.2098,1.46027 0.49513,1.56097c0.23498,0.08392 0.50355,0.0965 0.72595,0.0965c0.15525,0 0.23917,0.02937 0.23917,0.11331c0,0.11331 -0.12589,0.13846 -0.3231,0.13846c-0.91056,0 -1.47284,-0.04196 -1.7414,-0.04196c-0.12588,0 -0.78468,0.04196 -1.51481,0.04196c-0.18463,0 -0.30633,-0.0126 -0.30633,-0.13846c0,-0.08392 0.08393,-0.11331 0.2224,-0.11331c0.18044,0 0.4364,-0.0126 0.62942,-0.07133c0.36927,-0.11331 0.42381,-0.51612 0.4406,-1.74141l0.12169,-8.3126c0,-0.27694 0.04615,-0.47417 0.18461,-0.47417c0.15525,0 0.28114,0.18044 0.52033,0.4364c0.16784,0.18044 2.3037,2.46736 4.35142,4.50669c0.95252,0.95252 2.85339,2.97508 3.08838,3.19747h0.06714l-0.13846,-6.30264c-0.0126,-0.856 -0.13846,-1.12456 -0.47836,-1.26303c-0.20981,-0.08392 -0.54131,-0.08393 -0.74272,-0.08393c-0.16784,0 -0.2224,-0.04616 -0.2224,-0.12589c0,-0.11331 0.15525,-0.1301 0.36506,-0.1301c0.73013,0 1.40572,0.04616 1.69525,0.04616c0.15525,0 0.69237,-0.04616 1.38054,-0.04616c0.18044,0 0.31891,0.0168 0.31891,0.1301c0,0.07973 -0.08392,0.12589 -0.25177,0.12589c-0.13846,0 -0.25177,-0.00001 -0.41961,0.04196c-0.39444,0.11331 -0.50354,0.40704 -0.52033,1.19172l-0.15525,8.8623c0,0.30631 -0.05456,0.43221 -0.18044,0.43221c-0.15525,0 -0.32309,-0.15106 -0.47836,-0.30631c-0.88539,-0.84345 -2.68135,-2.68136 -4.14163,-4.12904c-1.5316,-1.51481 -3.08837,-3.27301 -3.34015,-3.53736h-0.04196l0.15108,5.89561" fill="#5c5c5f" fill-rule="nonzero"/><path d="M262.27191,203.43689l-2.09389,0.05456c-0.81406,0.02937 -1.14975,0.10071 -1.35954,0.40702c-0.14267,0.21402 -0.21402,0.38185 -0.24339,0.49095c-0.02518,0.11331 -0.06713,0.16785 -0.15106,0.16785c-0.10071,0 -0.12589,-0.06714 -0.12589,-0.22241c0,-0.2224 0.26435,-1.50222 0.29373,-1.61552c0.04616,-0.18044 0.08393,-0.26435 0.16785,-0.26435c0.11331,0 0.25596,0.13846 0.60423,0.16784c0.40702,0.04196 0.94414,0.07135 1.40572,0.07135h5.55993c0.449,0 0.7595,-0.04616 0.96931,-0.07135c0.20981,-0.04196 0.3231,-0.07133 0.37766,-0.07133c0.09652,0 0.11331,0.0839 0.11331,0.29792c0,0.29374 -0.04196,1.26305 -0.04196,1.62393c-0.01679,0.14267 -0.04196,0.2266 -0.12589,0.2266c-0.11331,0 -0.14267,-0.06713 -0.15944,-0.28114l-0.0126,-0.15525c-0.02518,-0.36506 -0.40283,-0.75951 -1.65749,-0.7847l-1.76659,-0.04196v5.75714c0,1.29241 0,2.4002 0.06714,3.00446c0.04196,0.39444 0.13008,0.70077 0.5497,0.75531c0.19721,0.02937 0.50354,0.05875 0.71754,0.05875c0.15525,0 0.2266,0.04196 0.2266,0.11331c0,0.09652 -0.1175,0.13846 -0.26856,0.13846c-0.92737,0 -1.81273,-0.04196 -2.20718,-0.04196c-0.31891,0 -1.20431,0.04196 -1.76659,0.04196c-0.18044,0 -0.28114,-0.04194 -0.28114,-0.13846c0,-0.07133 0.05454,-0.11331 0.2224,-0.11331c0.214,0 0.38187,-0.02937 0.50774,-0.05875c0.28114,-0.05456 0.36508,-0.36087 0.40704,-0.76791c0.07133,-0.59166 0.07133,-1.69945 0.07133,-2.99186v-5.75714" fill="#5c5c5f" fill-rule="nonzero"/><path d="M221.37399,206.67684c0,-2.13585 0.00001,-2.52609 -0.02936,-2.97928c-0.02937,-0.47417 -0.14268,-0.70075 -0.60426,-0.79727c-0.11329,-0.02937 -0.35248,-0.04196 -0.5497,-0.04196c-0.15106,0 -0.23498,-0.02936 -0.23498,-0.12589c0,-0.10071 0.09652,-0.1301 0.30633,-0.1301c0.38185,0 0.78468,0.0168 1.13716,0.0168c0.36506,0.01261 0.68817,0.02937 0.88539,0.02937c0.449,0 3.24363,-0.00001 3.51219,-0.0168c0.26435,-0.02937 0.49097,-0.05454 0.60006,-0.08392c0.07133,-0.01261 0.15944,-0.05456 0.22659,-0.05456c0.07133,0 0.08393,0.05454 0.08393,0.12589c0,0.09652 -0.07132,0.26856 -0.11329,0.91056c-0.0126,0.14267 -0.03778,0.7595 -0.06716,0.92735c-0.0168,0.07133 -0.04194,0.15527 -0.14267,0.15527c-0.09652,0 -0.12588,-0.07133 -0.12588,-0.19721c0,-0.09652 -0.0126,-0.33569 -0.08393,-0.50354c-0.09652,-0.25178 -0.23919,-0.42381 -0.93994,-0.50773c-0.23919,-0.02518 -1.71623,-0.05456 -1.99318,-0.05456c-0.07133,0 -0.10071,0.04194 -0.10071,0.13846v3.55415c0,0.09652 0.0126,0.15525 0.10071,0.15525c0.30633,0 1.92185,0 2.24495,-0.02937c0.33988,-0.02937 0.54969,-0.07133 0.67558,-0.2098c0.09652,-0.11331 0.15106,-0.18463 0.2224,-0.18463c0.05873,0 0.10071,0.02937 0.10071,0.11329c0,0.08392 -0.05875,0.3105 -0.11331,1.02385c-0.0168,0.28114 -0.05875,0.84343 -0.05875,0.93995c0,0.11331 0,0.26854 -0.12588,0.26854c-0.09652,0 -0.12588,-0.05454 -0.12588,-0.12589c-0.0126,-0.14267 -0.0126,-0.32312 -0.05456,-0.50773c-0.07133,-0.27695 -0.26857,-0.48675 -0.78889,-0.5455c-0.26435,-0.02937 -1.6533,-0.04194 -1.99318,-0.04194c-0.07133,0 -0.08393,0.05454 -0.08393,0.13846v1.11199c0,0.47417 -0.0126,1.76659 0,2.17782c0.02937,0.96931 0.25178,1.17492 1.68268,1.17492c0.36927,0 0.95673,0 1.32179,-0.16784c0.36506,-0.16785 0.53291,-0.46158 0.63362,-1.03645c0.02518,-0.15527 0.05454,-0.20981 0.15525,-0.20981c0.10909,0 0.1091,0.10912 0.1091,0.25177c0,0.3231 -0.10912,1.27564 -0.18464,1.55678c-0.09652,0.36506 -0.2224,0.36506 -0.75531,0.36506c-1.05324,0 -1.82534,-0.02518 -2.42959,-0.04196c-0.60004,-0.02518 -1.04066,-0.04196 -1.46027,-0.04196c-0.15106,0 -0.46577,0 -0.80147,0.0168c-0.31891,0 -0.68398,0.02518 -0.96512,0.02518c-0.18463,0 -0.28114,-0.04196 -0.28114,-0.13848c0,-0.07133 0.05456,-0.11329 0.22241,-0.11329c0.20981,0 0.38185,-0.02937 0.50773,-0.05875c0.27695,-0.05456 0.34829,-0.36087 0.40702,-0.76791c0.07133,-0.59166 0.07133,-1.69944 0.07133,-2.99185v-2.47155" fill="#5c5c5f" fill-rule="nonzero"/><path d="M113.31832,206.63709c0,-2.13585 0,-2.52608 -0.02937,-2.97927c-0.02937,-0.47417 -0.17204,-0.71335 -0.49095,-0.78468c-0.15946,-0.04196 -0.34827,-0.05456 -0.52031,-0.05456c-0.14686,0 -0.23079,-0.02937 -0.23079,-0.14268c0,-0.08392 0.11329,-0.11329 0.34408,-0.11329c0.5497,0 1.46027,0.04616 1.87987,0.04616c0.36506,0 1.21689,-0.04616 1.76239,-0.04616c0.19304,0 0.30633,0.02937 0.30633,0.11329c0,0.11331 -0.08393,0.14268 -0.23079,0.14268c-0.14267,0 -0.26016,0.0126 -0.43221,0.04196c-0.39025,0.07133 -0.50773,0.31052 -0.53291,0.79728c-0.02937,0.45319 -0.02936,0.84342 -0.02936,2.97927v2.47154c0,1.35956 0,2.47154 0.05456,3.07159c0.04196,0.38185 0.14686,0.63362 0.57906,0.68818c0.20142,0.02937 0.52031,0.05875 0.73852,0.05875c0.15946,0 0.23079,0.04196 0.23079,0.11331c0,0.09652 -0.1175,0.13846 -0.27695,0.13846c-0.95252,0 -1.86308,-0.04196 -2.25333,-0.04196c-0.3357,0 -1.24626,0.04196 -1.82114,0.04196c-0.18883,0 -0.28954,-0.04194 -0.28954,-0.13846c0,-0.07133 0.05454,-0.11331 0.23079,-0.11331c0.21821,0 0.39023,-0.02937 0.52033,-0.05875c0.28954,-0.05456 0.37346,-0.29373 0.41961,-0.69656c0.07133,-0.59166 0.07133,-1.70366 0.07133,-3.06321v-2.47154" fill="#5c5c5f" fill-rule="nonzero"/><path d="M142.74337,203.32959l-2.08549,0.05456c-0.81406,0.02937 -1.14976,0.09652 -1.35957,0.40283c-0.13848,0.21402 -0.2098,0.38185 -0.23917,0.49095c-0.02518,0.11331 -0.06714,0.16785 -0.15106,0.16785c-0.09652,0 -0.12589,-0.06713 -0.12589,-0.2224c0,-0.2224 0.26437,-1.49383 0.28954,-1.60714c0.04616,-0.18044 0.08812,-0.26856 0.17204,-0.26856c0.11331,0 0.25177,0.14267 0.60004,0.16784c0.40702,0.04196 0.93994,0.07133 1.40152,0.07133h5.54733c0.44479,0 0.75531,-0.04196 0.96512,-0.07133c0.20981,-0.03777 0.3231,-0.06713 0.37766,-0.06713c0.09652,0 0.11329,0.08392 0.11329,0.29373c0,0.29374 -0.04196,1.25884 -0.04196,1.61971c-0.01261,0.14265 -0.04196,0.22241 -0.12588,0.22241c-0.11331,0 -0.13848,-0.06714 -0.15527,-0.27695l-0.01261,-0.15525c-0.02937,-0.36506 -0.40702,-0.75531 -1.65329,-0.78049l-1.76659,-0.04196v5.72777c0,1.28402 0,2.38762 0.07133,2.98767c0.04196,0.39025 0.13008,0.70075 0.5455,0.7553c0.19723,0.02518 0.50354,0.05456 0.71335,0.05456c0.15527,0 0.22659,0.04196 0.22659,0.11331c0,0.09652 -0.11329,0.13846 -0.26854,0.13846c-0.92316,0 -1.80435,-0.04196 -2.1946,-0.04196c-0.3231,0 -1.20431,0.04196 -1.76658,0.04196c-0.18044,0 -0.28114,-0.04194 -0.28114,-0.13846c0,-0.07133 0.05875,-0.11331 0.2266,-0.11331c0.20981,0 0.37765,-0.02937 0.50354,-0.05456c0.27694,-0.05456 0.36506,-0.36506 0.40283,-0.76789c0.07133,-0.58747 0.07133,-1.69106 0.07133,-2.97509v-5.72777" fill="#5c5c5f" fill-rule="nonzero"/><path d="M154.75492,208.82582c0.07133,0 0.08392,-0.04196 0.07133,-0.08392l-1.25884,-3.44926c-0.01261,-0.05875 -0.02937,-0.12589 -0.06714,-0.12589c-0.04196,0 -0.07133,0.06714 -0.08392,0.12589l-1.28822,3.43247c-0.01261,0.05875 -0.00001,0.10071 0.05454,0.10071zM151.90573,209.52238c-0.06714,0 -0.09652,0.02936 -0.12589,0.11329l-0.75531,1.99737c-0.13848,0.34827 -0.20981,0.68398 -0.20981,0.85183c0,0.25177 0.12589,0.43221 0.5581,0.43221h0.20981c0.16785,0 0.20981,0.02937 0.20981,0.11331c0,0.11331 -0.08392,0.13846 -0.23917,0.13846c-0.44479,0 -1.04485,-0.04196 -1.47706,-0.04196c-0.15527,0 -0.92316,0.04196 -1.6491,0.04196c-0.18044,0 -0.26435,-0.02517 -0.26435,-0.13846c0,-0.08392 0.05454,-0.11331 0.16784,-0.11331c0.12589,0 0.3189,-0.01261 0.43221,-0.02937c0.64202,-0.07973 0.90637,-0.55388 1.18752,-1.25465l3.508,-8.77419c0.16785,-0.40283 0.24758,-0.55808 0.39023,-0.55808c0.1217,0 0.20562,0.12589 0.34829,0.44898c0.33569,0.76789 2.56805,6.46629 3.46184,8.58955c0.53291,1.25466 0.93992,1.45187 1.23367,1.5232c0.20561,0.04196 0.41962,0.05456 0.58327,0.05456c0.11331,0 0.18464,0.01679 0.18464,0.11331c0,0.11331 -0.12589,0.13846 -0.64202,0.13846c-0.50354,0 -1.5232,0.00001 -2.64358,-0.02517c-0.24757,-0.01679 -0.41542,-0.01679 -0.41542,-0.11331c0,-0.08392 0.05456,-0.11329 0.19304,-0.12589c0.09652,-0.02937 0.19721,-0.15525 0.12588,-0.3231l-1.11618,-2.9583c-0.02937,-0.07133 -0.07132,-0.10071 -0.14265,-0.10071h-3.11355" fill="#5c5c5f" fill-rule="nonzero"/><path d="M160.60914,202.2274c0.7014,0 1.66105,0.03369 2.072,0.03369c0.35956,0 1.5922,-0.03369 2.17505,-0.03369c0.2226,0 0.32503,0.03401 0.32503,0.13674c0,0.10273 -0.08549,0.15359 -0.27448,0.15359c-0.17058,0 -0.41078,0.01728 -0.58263,0.05152c-0.4103,0.06849 -0.52956,0.27406 -0.56381,0.78775c-0.03427,0.46229 -0.03471,0.8735 -0.03471,3.08171v2.56944c0,1.86636 0.00066,2.7909 0.32601,3.06486c0.25687,0.2226 0.83829,0.30816 2.00264,0.30816c0.8048,0 1.3865,-0.0174 1.76383,-0.41123c0.18835,-0.18833 0.34231,-0.59902 0.37655,-0.87298c0.01712,-0.13699 0.0522,-0.22294 0.17143,-0.22294c0.10337,0 0.13674,0.15379 0.13674,0.32501c0,0.17123 -0.10211,1.24989 -0.22196,1.67859c-0.10273,0.32533 -0.17154,0.3934 -0.95918,0.3934c-1.07877,0 -1.95216,-0.01728 -2.70618,-0.05152c-0.7528,-0.01712 -1.38622,-0.03369 -2.00264,-0.03369c-0.17123,0 -0.49656,0.01685 -0.85615,0.01685c-0.3596,0.01712 -0.73621,0.03468 -1.04442,0.03468c-0.18835,0 -0.29133,-0.05184 -0.29133,-0.15459c0,-0.06849 0.05145,-0.15359 0.23981,-0.15359c0.22261,0 0.39416,-0.01728 0.53114,-0.05152c0.30821,-0.06909 0.39356,-0.34284 0.44492,-0.7709c0.06849,-0.61641 0.06837,-1.76297 0.06837,-3.09855v-2.56944c0,-2.20821 0.00026,-2.61939 -0.01685,-3.08171c-0.03424,-0.49655 -0.17158,-0.65077 -0.65102,-0.78775c-0.12049,-0.03424 -0.30809,-0.05152 -0.49645,-0.05152c-0.17123,0 -0.25664,-0.05085 -0.25664,-0.15359c0,-0.10273 0.10179,-0.13674 0.32503,-0.13674z" fill="#5c5c5f" fill-rule="nonzero"/><path d="M125.02101,202.43722c1.02189,0 2.31076,0.16711 2.61201,0.23385c0.30214,0.05051 0.82013,0.13437 1.17188,0.15061c0.16776,0.01714 0.20082,0.06768 0.20082,0.16778c0,0.16776 -0.10042,0.55216 -0.10042,2.34249c0,0.21737 -0.08357,0.31841 -0.20082,0.31841c-0.10101,0 -0.13348,-0.0673 -0.15061,-0.18364c-0.03247,-0.31839 -0.11693,-0.77097 -0.50205,-1.17324c-0.43563,-0.45191 -1.53952,-1.08737 -3.19727,-1.08737c-0.80273,0 -1.82488,0.01777 -2.84587,0.83764c-0.81984,0.66924 -1.35551,1.72342 -1.35551,3.46415c0,3.06207 1.97541,5.29003 5.12226,5.29003c0.38516,0 0.68583,0 1.03849,-0.15061c0.21646,-0.10101 0.28405,-0.25264 0.28405,-0.50337v-1.30402c0,-0.70351 0.00039,-1.24051 -0.01584,-1.67525c-0.01803,-0.48614 -0.16782,-0.63677 -0.63682,-0.77025c-0.11634,-0.03338 -0.36872,-0.05021 -0.57076,-0.05021c-0.13258,0 -0.23385,-0.06674 -0.23385,-0.15061c0,-0.11636 0.11818,-0.13343 0.31841,-0.13343c0.77025,0 1.82407,0.03303 2.26061,0.03303c0.4681,0 1.2389,-0.03303 1.72413,-0.03303c0.20113,0 0.30123,0.01709 0.30123,0.13343c0,0.08388 -0.08395,0.15061 -0.18497,0.15061c-0.11634,0 -0.23436,0.01683 -0.40032,0.05021c-0.40316,0.06675 -0.5532,0.26788 -0.56944,0.77025c-0.01714,0.43473 -0.01718,1.00475 -0.01718,1.70826v1.57226c0,0.38513 0.00035,0.40283 -0.18366,0.50205c-0.98853,0.48614 -2.44443,0.6368 -3.5989,0.6368c-3.61495,0 -6.81339,-1.63989 -6.81339,-5.57414c0,-2.27648 1.22203,-3.86677 2.57763,-4.65326c1.40613,-0.81984 2.7288,-0.91952 3.96625,-0.91952z" fill="#5c5c5f" fill-rule="nonzero"/><path d="M98.31636,202.82712c0.73945,0 1.64099,0.03166 2.04258,0.03166c0.43433,0 1.44814,-0.03166 2.30137,-0.03166c1.76883,0 4.14933,-0.00014 5.6937,1.56029c0.70785,0.70785 1.33504,1.84957 1.33504,3.47441c0,1.72073 -0.7392,3.02497 -1.54356,3.81326c-0.64287,0.64349 -2.13997,1.60777 -4.74611,1.60777c-0.51422,0 -1.12578,-0.04729 -1.6888,-0.08006c-0.56246,-0.04826 -1.07851,-0.08006 -1.43184,-0.08006c-0.16145,0 -0.46654,0.01582 -0.80436,0.01582c-0.33723,0.01549 -0.69168,0.03258 -0.98126,0.03258c-0.17636,0 -0.27372,-0.04871 -0.27372,-0.14524c0,-0.06435 0.04894,-0.14524 0.2253,-0.14524c0.20913,0 0.36996,-0.01565 0.49806,-0.0484c0.29016,-0.06378 0.37008,-0.32179 0.41893,-0.72338c0.06376,-0.57914 0.06424,-1.65696 0.06424,-2.91114v-2.41308c0,-2.07528 -0.00033,-2.46191 -0.01582,-2.89627c-0.03274,-0.46652 -0.16121,-0.6114 -0.61165,-0.74011c-0.1126,-0.03218 -0.35408,-0.0484 -0.56323,-0.0484c-0.14418,0 -0.2402,-0.04778 -0.2402,-0.1443c0,-0.09652 0.11146,-0.12848 0.3212,-0.12848zM102.38743,203.53446c-0.29019,0 -0.75661,0.03247 -0.86862,0.09682c-0.12929,0.04826 -0.17781,0.11131 -0.17781,0.27278c-0.01608,0.46651 -0.01582,1.59314 -0.01582,2.67096v1.72136c0,1.44785 0.01559,2.49337 0.03166,2.76685c0.01669,0.33786 0.04878,0.82065 0.16199,0.96542c0.17694,0.25681 0.73887,0.54648 1.84891,0.54648c1.28698,0 2.23634,-0.22531 3.089,-0.93377c0.91695,-0.7555 1.20653,-1.97769 1.20653,-3.39337c0,-1.73742 -0.69182,-2.86318 -1.3192,-3.41016c-1.30309,-1.15829 -2.84723,-1.30337 -3.95667,-1.30337z" fill="#5c5c5f" fill-rule="nonzero"/><path d="M178.11171,206.98127h5.5812c0.044,0 0.08619,-0.02712 0.08619,-0.10124v-0.30735c0,-2.2226 0,-2.63239 -0.03073,-3.09946c-0.02592,-0.49659 -0.14102,-0.73102 -0.62495,-0.83589c-0.11751,-0.02592 -0.36401,-0.04098 -0.57193,-0.04098c-0.1591,0 -0.24589,-0.02953 -0.24589,-0.13078c0,-0.10487 0.10185,-0.13439 0.30675,-0.13439c0.78646,0 1.70793,0.0458 2.10146,0.0458c0.35196,0 1.2722,-0.0458 1.84293,-0.0458c0.2049,0 0.30977,0.02953 0.30977,0.13439c0,0.10124 -0.08859,0.13078 -0.26516,0.13078c-0.11631,0 -0.24709,0.01507 -0.42487,0.04098c-0.39413,0.07412 -0.50925,0.32362 -0.54118,0.83589c-0.02953,0.46766 -0.02953,0.87687 -0.02953,3.09946v2.57334c0,1.34271 0,2.4962 0.07292,3.12839c0.0446,0.4086 0.1356,0.72741 0.57071,0.78887c0.2049,0.02832 0.52854,0.05665 0.74548,0.05665c0.16573,0 0.23323,0.0458 0.23323,0.11751c0,0.10366 -0.11571,0.14585 -0.28867,0.14585c-0.9534,0 -1.87366,-0.04219 -2.27984,-0.04219c-0.3393,0 -1.26076,0.04219 -1.82544,0.04219c-0.20972,0 -0.30855,-0.04219 -0.30855,-0.14585c0,-0.07171 0.05544,-0.11751 0.23382,-0.11751c0.21575,0 0.39354,-0.02832 0.5219,-0.05665c0.2965,-0.06147 0.36701,-0.38028 0.42487,-0.80394c0.07292,-0.61651 0.07292,-1.77 0.07292,-3.11332v-1.28788c0,-0.05665 -0.04219,-0.08739 -0.08619,-0.08739h-5.5812c-0.04822,0 -0.0898,0.01446 -0.0898,0.08739v1.28788c0,1.34271 0,2.4962 0.07051,3.12839c0.0452,0.4086 0.1356,0.72741 0.57252,0.78887c0.20189,0.02832 0.52371,0.05665 0.74488,0.05665c0.16031,0 0.23443,0.0458 0.23443,0.11751c0,0.10366 -0.11812,0.14585 -0.29228,0.14585c-0.94979,0 -1.87245,-0.04219 -2.27984,-0.04219c-0.33567,0 -1.25714,0.04219 -1.84232,0.04219c-0.19165,0 -0.29409,-0.04219 -0.29409,-0.14585c0,-0.07171 0.06027,-0.11751 0.23684,-0.11751c0.21756,0 0.39413,-0.02832 0.52491,-0.05665c0.29409,-0.06147 0.36823,-0.38028 0.42247,-0.80394c0.07534,-0.61651 0.07534,-1.77 0.07534,-3.11332v-2.57334c0,-2.2226 0,-2.63239 -0.03195,-3.09946c-0.02953,-0.49659 -0.14705,-0.73102 -0.62615,-0.83589c-0.11631,-0.02592 -0.3646,-0.04098 -0.57193,-0.04098c-0.16151,0 -0.24709,-0.02953 -0.24709,-0.13078c0,-0.10487 0.10004,-0.13439 0.30675,-0.13439c0.79009,0 1.71154,0.0458 2.10387,0.0458c0.35074,0 1.27341,-0.0458 1.84413,-0.0458c0.20249,0 0.30616,0.02953 0.30616,0.13439c0,0.10124 -0.09039,0.13078 -0.26457,0.13078c-0.11571,0 -0.24648,0.01507 -0.42306,0.04098c-0.39293,0.07412 -0.51045,0.32362 -0.53998,0.83589c-0.02953,0.46766 -0.02953,0.87687 -0.02953,3.09946v0.30735c0,0.07412 0.04158,0.10124 0.0898,0.10124" fill="#5c5c5f" fill-rule="nonzero"/><path d="M189.59136,207.85263c0,-2.43514 1.61091,-5.58062 5.88179,-5.58062c3.5441,0 5.75381,2.06529 5.75381,5.32349c0,3.26113 -2.27487,5.83952 -5.89236,5.83952c-4.0889,0.00059 -5.74324,-3.06212 -5.74324,-5.58239M199.23153,208.12562c0,-3.1901 -1.83869,-5.17145 -4.17226,-5.17145c-1.63497,0 -3.50301,0.91289 -3.50301,4.45699c0,2.96173 1.63967,5.30998 4.36893,5.30998c1.00095,0 3.30634,-0.48139 3.30634,-4.59553z" fill="#5c5c5f" fill-rule="nonzero"/></g></g></svg>