<?xml version="1.0" encoding="UTF-8" standalone="no"?>
<!-- Created with Inkscape (http://www.inkscape.org/) -->

<svg
   xmlns:dc="http://purl.org/dc/elements/1.1/"
   xmlns:cc="http://creativecommons.org/ns#"
   xmlns:rdf="http://www.w3.org/1999/02/22-rdf-syntax-ns#"
   xmlns:svg="http://www.w3.org/2000/svg"
   xmlns="http://www.w3.org/2000/svg"
   xmlns:sodipodi="http://sodipodi.sourceforge.net/DTD/sodipodi-0.dtd"
   xmlns:inkscape="http://www.inkscape.org/namespaces/inkscape"
   width="194.46875mm"
   height="35.71875mm"
   viewBox="0 0 194.46875 35.71875"
   version="1.1"
   id="svg8"
   inkscape:version="0.92.5 (2060ec1f9f, 2020-04-08)"
   sodipodi:docname="lenovo center.svg">
  <defs
     id="defs2">
    <clipPath
       id="clip0_142_754">
      <rect
         id="rect843"
         height="43"
         width="233.537"
         x="0"
         y="0"
         style="fill:#ffffff" />
    </clipPath>
  </defs>
  <sodipodi:namedview
     id="base"
     pagecolor="#ffffff"
     bordercolor="#666666"
     borderopacity="1.0"
     inkscape:pageopacity="0.0"
     inkscape:pageshadow="2"
     inkscape:zoom="0.49497475"
     inkscape:cx="-280.63326"
     inkscape:cy="420.2497"
     inkscape:document-units="mm"
     inkscape:current-layer="layer1"
     showgrid="false"
     inkscape:pagecheckerboard="true"
     fit-margin-top="0"
     fit-margin-left="0"
     fit-margin-right="0"
     fit-margin-bottom="0"
     inkscape:window-width="1920"
     inkscape:window-height="1009"
     inkscape:window-x="1912"
     inkscape:window-y="70"
     inkscape:window-maximized="1" />
  <metadata
     id="metadata5">
    <rdf:RDF>
      <cc:Work
         rdf:about="">
        <dc:format>image/svg+xml</dc:format>
        <dc:type
           rdf:resource="http://purl.org/dc/dcmitype/StillImage" />
        <dc:title></dc:title>
      </cc:Work>
    </rdf:RDF>
  </metadata>
  <g
     inkscape:label="Layer 1"
     inkscape:groupmode="layer"
     id="layer1"
     transform="translate(-10.682382,-127.1186)">
    <g
       style="fill:none;stroke-width:0.31812772"
       id="g870"
       transform="matrix(0.83271066,0,0,0.8306686,10.682382,127.1186)">
      <g
         id="g841"
         clip-path="url(#clip0_142_754)"
         style="stroke-width:0.31812772">
        <path
           id="path815"
           d="M 128.997,0 H 0 v 43 h 128.997 z"
           inkscape:connector-curvature="0"
           style="fill:#e1251b;stroke-width:0.31812772" />
        <path
           id="path817"
           d="m 56.1981,14.4922 c -1.904,0 -4.0707,0.8822 -5.3973,2.65 v -2.3711 h -4.5443 v 16.5487 h 4.5443 v -9.4161 c 0,-1.6963 1.3136,-3.4965 3.7463,-3.4965 1.8813,0 3.8274,1.3071 3.8274,3.4965 v 9.4161 h 4.5442 V 21.0604 c 0,-3.8047 -2.7213,-6.5682 -6.7206,-6.5682 z"
           inkscape:connector-curvature="0"
           style="fill:#ffffff;stroke-width:0.31812772" />
        <path
           id="path819"
           d="M 95.2182,14.7712 91.1086,26.0426 87.0022,14.7712 h -5.1929 l 6.8115,16.5422 h 4.9788 l 6.8084,-16.5422 z"
           inkscape:connector-curvature="0"
           style="fill:#ffffff;stroke-width:0.31812772" />
        <path
           id="path821"
           d="m 41.4204,26.2307 c -1.9137,1.4142 -3.0068,1.7547 -4.7486,1.7547 -1.5699,0 -2.7992,-0.4865 -3.6653,-1.3428 L 44.625,21.8227 c -0.253,-1.797 -0.9341,-3.3993 -1.9851,-4.6189 -1.5277,-1.7742 -3.7852,-2.7116 -6.5358,-2.7116 -4.9983,0 -8.7641,3.6879 -8.7641,8.5565 0,4.8686 3.7755,8.5533 9.2669,8.5533 3.0749,0 6.2212,-1.4563 7.6905,-3.1592 l -2.8738,-2.2089 z m -8.7285,-6.4742 c 0.7752,-1.0379 2.0078,-1.6477 3.4966,-1.6477 1.638,0 2.8803,0.9341 3.5225,2.3159 l -7.9403,3.2922 c -0.2173,-1.6899 0.2141,-3.0133 0.9212,-3.9604 z"
           inkscape:connector-curvature="0"
           style="fill:#ffffff;stroke-width:0.31812772" />
        <path
           id="path823"
           d="M 26.9054,27.1454 H 16.5779 V 9.82153 H 11.972 V 31.3199 h 14.9334 z"
           inkscape:connector-curvature="0"
           style="fill:#ffffff;stroke-width:0.31812772" />
        <path
           id="path825"
           d="m 108.569,31.5988 c -4.969,0 -8.8649,-3.7009 -8.8649,-8.5533 0,-4.8524 3.9219,-8.5533 8.9259,-8.5533 5.005,0 8.862,3.7009 8.862,8.5533 0,4.8524 -3.922,8.5533 -8.923,8.5533 z m 0,-13.2143 c -2.537,0 -4.379,1.9234 -4.379,4.661 0,2.7376 1.953,4.6577 4.44,4.6577 2.488,0 4.379,-1.9753 4.379,-4.6577 0,-2.6825 -1.952,-4.661 -4.44,-4.661 z"
           inkscape:connector-curvature="0"
           style="fill:#ffffff;stroke-width:0.31812772" />
        <path
           id="path827"
           d="m 73.5804,31.5988 c -4.9692,0 -8.8647,-3.7009 -8.8647,-8.5533 0,-4.8524 3.9215,-8.5533 8.9263,-8.5533 5.0048,0 8.8614,3.7009 8.8614,8.5533 0,4.8524 -3.9214,8.5533 -8.923,8.5533 z m 0,-13.2143 c -2.5365,0 -4.3788,1.9234 -4.3788,4.661 0,2.7376 1.9526,4.6577 4.4404,4.6577 2.4878,0 4.3788,-1.9753 4.3788,-4.6577 0,-2.6825 -1.9526,-4.661 -4.4404,-4.661 z"
           inkscape:connector-curvature="0"
           style="fill:#ffffff;stroke-width:0.31812772" />
        <path
           id="path829"
           d="m 138.465,20.5511 v -0.0616 c 0,-6.1498 4.635,-11.18384 11.274,-11.18384 4.078,0 6.52,1.35904 8.528,3.33764 l -3.027,3.4901 c -1.667,-1.5148 -3.366,-2.4392 -5.53,-2.4392 -3.646,0 -6.27,3.0263 -6.27,6.7337 v 0.0616 c 0,3.7074 2.566,6.7953 6.27,6.7953 2.472,0 3.987,-0.9893 5.686,-2.5333 l 3.026,3.0587 c -2.225,2.3776 -4.696,3.8631 -8.868,3.8631 -6.363,0 -11.089,-4.9107 -11.089,-11.1222 z"
           inkscape:connector-curvature="0"
           style="fill:#000000;stroke-width:0.31812772" />
        <path
           id="path831"
           d="m 158.695,23.1168 v -0.0616 c 0,-4.7259 3.367,-8.6182 8.187,-8.6182 5.53,0 8.063,4.2945 8.063,8.9912 0,0.3698 -0.029,0.8044 -0.061,1.2358 h -11.525 c 0.464,2.131 1.946,3.2436 4.048,3.2436 1.576,0 2.718,-0.4931 4.016,-1.6997 l 2.689,2.3776 c -1.544,1.9137 -3.769,3.0878 -6.767,3.0878 -4.975,0 -8.65,-3.49 -8.65,-8.5565 z m 11.68,-1.3915 c -0.279,-2.1018 -1.515,-3.5225 -3.49,-3.5225 -1.975,0 -3.214,1.3915 -3.584,3.5225 z"
           inkscape:connector-curvature="0"
           style="fill:#000000;stroke-width:0.31812772" />
        <path
           id="path833"
           d="m 196.048,26.607 v -7.8462 h -1.979 v -4.0155 h 1.979 v -4.2328 h 4.696 v 4.2328 h 3.893 v 4.0155 h -3.893 v 7.0743 c 0,1.0801 0.464,1.6055 1.515,1.6055 0.866,0 1.638,-0.2173 2.316,-0.587 v 3.769 c -0.989,0.5871 -2.131,0.9568 -3.707,0.9568 -2.874,0 -4.82,-1.1449 -4.82,-4.9756 z"
           inkscape:connector-curvature="0"
           style="fill:#000000;stroke-width:0.31812772" />
        <path
           id="path835"
           d="m 205.62,23.1168 v -0.0616 c 0,-4.7259 3.366,-8.6182 8.186,-8.6182 5.531,0 8.064,4.2945 8.064,8.9912 0,0.3698 -0.033,0.8044 -0.062,1.2358 h -11.524 c 0.464,2.131 1.946,3.2436 4.048,3.2436 1.576,0 2.718,-0.4931 4.015,-1.6997 l 2.689,2.3776 c -1.544,1.9137 -3.769,3.0878 -6.766,3.0878 -4.975,0 -8.65,-3.49 -8.65,-8.5565 z m 11.676,-1.3915 c -0.279,-2.1018 -1.514,-3.5225 -3.49,-3.5225 -1.975,0 -3.214,1.3915 -3.584,3.5225 z"
           inkscape:connector-curvature="0"
           style="fill:#000000;stroke-width:0.31812772" />
        <path
           id="path837"
           d="m 223.557,14.7452 h 4.696 v 3.3376 c 0.957,-2.2867 2.501,-3.769 5.284,-3.6457 v 4.9107 h -0.247 c -3.12,0 -5.037,1.8846 -5.037,5.8385 v 6.1173 h -4.696 z"
           inkscape:connector-curvature="0"
           style="fill:#000000;stroke-width:0.31812772" />
        <path
           id="path839"
           d="m 186.135,14.4922 c -1.819,0 -3.892,0.8822 -5.157,2.65 v -2.3711 h -4.343 v 16.5487 h 4.343 v -9.4161 c 0,-1.6963 1.255,-3.4965 3.581,-3.4965 1.797,0 3.656,1.3071 3.656,3.4965 v 9.4161 h 4.343 V 21.0604 c 0,-3.8047 -2.602,-6.5682 -6.423,-6.5682 z"
           inkscape:connector-curvature="0"
           style="fill:#000000;stroke-width:0.31812772" />
      </g>
    </g>
  </g>
</svg>
