<?xml version="1.0" encoding="UTF-8"?>
<svg id="Layer_1" xmlns="http://www.w3.org/2000/svg" viewBox="0 0 527.12 163.19">
  <defs>
    <style>
      .cls-1 {
        fill: #3ca147;
      }

      .cls-2 {
        fill: #009345;
      }
    </style>
  </defs>
  <g>
    <path class="cls-2" d="M53.04,67.22c-2.8.09-5.17.61-6.96,2.13h-.09v-11h-6.6v28.77h6.6v-1.4h.09c1.42,1.09,3.35,1.88,5.97,1.88,2.91,0,5.58-.83,7.32-2.78,1.74-1.96,2.6-3.82,2.6-7.07,0-2.99-1.08-5.68-2.57-7.39-1.5-1.74-3.98-3.22-6.37-3.14ZM53.75,81.09c-.91.91-2,1.36-3.27,1.36s-2.34-.45-3.22-1.36c-.89-.92-1.33-2.01-1.33-3.3s.44-2.39,1.33-3.3c.89-.91,1.96-1.36,3.22-1.36s2.36.45,3.27,1.36c.91.9,1.36,2.01,1.36,3.3s-.45,2.38-1.36,3.3Z"/>
    <path class="cls-2" d="M97.48,70.22c-1.07-1-2.3-1.76-3.69-2.3-1.38-.53-2.85-.8-4.4-.8s-2.96.27-4.32.8c-1.39.53-2.61,1.29-3.7,2.3-1.11,1.06-1.95,2.22-2.52,3.5-.57,1.28-.85,2.63-.85,4.06s.28,2.79.85,4.05c.58,1.28,1.41,2.44,2.52,3.49,1.09,1,2.32,1.77,3.7,2.31,1.37.53,2.81.8,4.32.8s3.02-.27,4.4-.8c1.39-.53,2.62-1.3,3.69-2.31,1.08-1.01,1.9-2.16,2.47-3.45.56-1.29.85-2.66.85-4.1s-.29-2.82-.85-4.1c-.57-1.29-1.39-2.45-2.47-3.46ZM92.65,81.05c-.91.9-1.99,1.36-3.27,1.36s-2.32-.46-3.22-1.36c-.89-.92-1.34-2.01-1.34-3.31s.45-2.39,1.34-3.29c.89-.91,1.97-1.36,3.22-1.36s2.36.44,3.27,1.36c.91.9,1.37,2.01,1.37,3.29s-.46,2.39-1.37,3.31Z"/>
    <path class="cls-2" d="M63.55,57.75v7.13s3.25.54,3.25,4.65v17.81h6.74v-17.59c-.56-11.42-9.99-12-9.99-12Z"/>
    <path class="cls-2" d="M165.06,82.06C160.79,30.41,151.45,0,82.9,0S5.02,30.41.76,82.06c-5.51,66.68,18.73,81.13,82.15,81.13s87.67-14.45,82.16-81.13ZM139.13,100.89c0,6.73-5.51,12.26-12.26,12.26h-34.65s-7.21,18.2-9.64,18.2-9.09-18.2-9.09-18.2h-34.53c-6.74,0-12.25-5.52-12.25-12.26v-49.73c0-6.74,5.51-12.26,12.25-12.26h87.92c6.75,0,12.26,5.52,12.26,12.26v49.73Z"/>
    <path class="cls-2" d="M119.86,68.9h-.08c-1.59-1.44-3.22-2.07-5.8-2.07-2.9,0-5.42.97-7.19,3.02-1.77,2.07-2.66,4.85-2.66,8.37,0,3.13.79,5.63,2.38,7.49,1.59,1.86,3.95,2.87,6.65,2.87,2.92,0,5.12-.76,6.62-2.84h.08v1.35c0,3.48-3.68,5.25-6.37,4.97v5.23c3.21.46,7.04.28,9.71-2.27,2.25-2.14,3.21-5.22,3.21-10.27v-17.42h-6.56v1.58ZM118.6,81.09c-.91.91-1.99,1.36-3.27,1.36s-2.32-.45-3.22-1.36c-.89-.92-1.34-2.01-1.34-3.3s.45-2.39,1.34-3.3c.89-.91,1.96-1.36,3.22-1.36s2.36.45,3.27,1.36c.91.9,1.36,2.01,1.36,3.3s-.45,2.38-1.36,3.3Z"/>
  </g>
  <g>
    <path class="cls-1" d="M306.2,125.14V59.12c0-15.24-12.04-17.24-12.04-17.24V15.46s34.96,2.13,36.99,44.49v65.18h-24.95Z"/>
    <path class="cls-1" d="M347.62,89.72c0-5.3,1.06-10.32,3.18-15.05,2.11-4.73,5.24-9.04,9.37-12.94,4.02-3.7,8.58-6.54,13.67-8.52,5.08-1.97,10.45-2.96,16.05-2.96s11.16.98,16.31,2.96c5.14,1.98,9.69,4.82,13.66,8.52,4.01,3.75,7.07,8.02,9.17,12.8,2.09,4.78,3.14,9.84,3.14,15.2s-1.05,10.42-3.14,15.2c-2.1,4.78-5.15,9.04-9.17,12.79-3.97,3.71-8.52,6.55-13.66,8.52-5.15,1.97-10.59,2.97-16.31,2.97s-10.97-.99-16.05-2.97c-5.09-1.97-9.65-4.82-13.67-8.52-4.13-3.9-7.25-8.21-9.37-12.94-2.12-4.72-3.18-9.74-3.18-15.04ZM372.99,89.56c0,4.78,1.65,8.86,4.96,12.22,3.3,3.37,7.28,5.05,11.92,5.05s8.76-1.68,12.12-5.05c3.37-3.37,5.05-7.44,5.05-12.22s-1.68-8.86-5.05-12.22c-3.37-3.37-7.4-5.05-12.12-5.05s-8.62,1.68-11.92,5.05c-3.31,3.36-4.96,7.44-4.96,12.22Z"/>
    <path class="cls-1" d="M278.77,62.17c-5.52-6.38-14.75-11.93-23.61-11.64-10.37.34-19.15,2.26-25.77,7.91h-.31V17.67h-24.46v106.67h24.46v-5.18h.31c5.26,4.01,12.38,6.93,22.14,6.93,10.78,0,20.68-3.07,27.13-10.34,6.45-7.27,9.65-14.15,9.65-26.17,0-11.06-4.02-21.04-9.53-27.42ZM257.82,101.94c-3.37,3.37-7.4,5.05-12.12,5.05s-8.62-1.68-11.92-5.05c-3.3-3.36-4.96-7.44-4.96-12.22s1.66-8.86,4.96-12.22c3.3-3.37,7.28-5.05,11.92-5.05s8.75,1.68,12.12,5.05c3.37,3.37,5.05,7.44,5.05,12.22s-1.69,8.86-5.05,12.22Z"/>
    <path class="cls-1" d="M502.82,50.99v5.83h-.32c-5.92-5.38-11.95-7.71-21.54-7.71-10.71,0-20.08,3.56-26.64,11.23-6.57,7.65-9.85,17.98-9.85,30.99,0,11.61,2.95,20.86,8.85,27.76,5.89,6.91,14.59,10.61,24.64,10.61,10.82,0,18.97-2.8,24.54-10.5h.32v4.97c.02,12.9-13.67,19.45-23.62,18.45v19.36c11.92,1.71,26.08,1.04,36.01-8.39,8.37-7.94,11.91-19.36,11.91-38.09V50.99h-24.3ZM498.13,101.94c-3.37,3.37-7.4,5.05-12.12,5.05s-8.62-1.68-11.92-5.05c-3.31-3.36-4.96-7.44-4.96-12.22s1.65-8.86,4.96-12.22c3.3-3.37,7.28-5.05,11.92-5.05s8.75,1.68,12.12,5.05c3.37,3.37,5.05,7.44,5.05,12.22s-1.68,8.86-5.05,12.22Z"/>
  </g>
</svg>