<?xml version="1.0" encoding="UTF-8"?>
<svg width="249.99915" height="110.824" version="1.1" viewBox="0 0 249.99915 110.824" xml:space="preserve" xmlns="http://www.w3.org/2000/svg" xmlns:cc="http://creativecommons.org/ns#" xmlns:dc="http://purl.org/dc/elements/1.1/" xmlns:rdf="http://www.w3.org/1999/02/22-rdf-syntax-ns#"><metadata><rdf:RDF><cc:Work rdf:about=""><dc:format>image/svg+xml</dc:format><dc:type rdf:resource="http://purl.org/dc/dcmitype/StillImage"/></cc:Work></rdf:RDF></metadata><g transform="matrix(1.3333333,0,0,-1.3333333,-282.99999,583.41199)"><g transform="scale(.1)" fill="#000000"><g><path d="m2191.79 4181.43v121.86h-31.79v34.8h107.93v-34.8h-33.42v-121.86h-42.72"/><path d="m2283.24 4181.43v156.66h42.72v-58.62h55.67v58.62h42.72v-156.66h-42.72v63.21h-55.67v-63.21h-42.72"/><path d="m2454.75 4181.43v156.66h89.9v-35.02h-46.6v-23.41h44.77v-38.13h-44.77v-22.11h46.6v-37.99h-89.9"/><path d="m3120.92 3809.89v312.82h82.9v-312.82h-82.9"/><path d="m3108.63 3586.38 26.36 158.8 42.27-0.37 30.2-78.82 30.21 78.82 42.26 0.37 26.36-158.8h-42.76l-13.72 82.64-31.68-82.64h-21.34l-31.67 82.64-13.72-82.64h-42.77"/><path d="m3443.65 3586.38 60.72 158.79h45.93l60.72-158.79h-47.06l-8.51 25.46h-56.23l-8.52-25.46zm83.69 105.27-15.8-45.11h31.59z"/><path d="m3849.26 3586.74v74.87l-58.85 83.56 51.82 0.01 28.53-43.12 28.53 43.12 51.82-0.01-59.38-84.32v-74.11h-42.47"/><path d="m2986.49 3809.89-74.45 115.9v-115.9h-84.29v312.82h139.8c56.22 0 93.02-44.32 93.02-95.94 0-43.82-22.84-78.91-66.61-88.9l95.42-124.44v-3.54zm-74.45 248.32v-72.17h23.07c24 0 39.01 16.24 39.01 36.09 0 19.84-19.16 36.08-39.01 36.08h-23.07"/><path d="m3327.75 3586.74v158.43h60.75c45.88 0 61.66-25.05 61.66-54.22 0-29.42-15.98-53.27-53.72-53.27h-24.33v-50.94zm44.36 121.97v-35.76h14.52c24.9 0 24.21 35.76 1.04 35.76h-15.56"/><path d="m3797.32 3921.65v66.46h161.36c11-99.4-47.45-186.96-161.57-186.96-95.71 0-165.65 67.16-165.65 165.82s68.28 166.26 166.52 166.26c69.23 0 120.38-32.27 146.24-89.19l-79.95-34.21c-12.15 33.28-36.06 49.54-66.87 49.54-44.84 0-77.81-37.09-76.92-92.74 0-56.1 27.11-90.72 76.5-90.72 33.47 0 59.98 11.63 65.33 45.74h-64.99"/><path d="m3265.83 3809.89v312.82h84.28l145.41-184.87v184.87h83.45v-312.82h-83.45l-145.41 185.36v-185.36h-84.28"/><path d="m3623.97 3586.74v158.43h42.68l72.59-93.37v93.37h42.26v-158.43h-42.05l-72.8 92.8v-92.8h-42.68"/></g><g fill-rule="evenodd"><path d="m2607.15 4132.47c103.11 0 173.36-74.17 173.36-165.66s-72.93-165.66-173.36-165.66-173.36 74.17-173.36 165.66 70.26 165.66 173.36 165.66"/><path d="m3006.34 3706.38c25.24 0 42.44-18.45 42.44-41.2s-17.86-41.2-42.44-41.2c-24.6 0-42.45 18.45-42.45 41.2s17.2 41.2 42.45 41.2zm0 42.07c51.87 0 87.22-37.28 87.22-83.27s-36.69-83.27-87.22-83.27c-50.54 0-87.23 37.28-87.23 83.27s35.35 83.27 87.23 83.27"/><path d="m2250.86 3939.91 18.7 0.05c31.07 0.08 52.08-10.39 52.08-31.67 0-20.3-15.95-30.83-38.66-31.15l-32.12-0.47zm0 119.87h14.04c17.8 0 34.3-8.57 34.3-29.29 0-20.24-16.51-29.29-34.3-29.29h-14.04zm-84.28-249.89v312.82h130.38c56.53 0 80.21-37.1 80.21-79.87 0-28.54-11.27-52.91-32.14-63.91 41.2-9.49 61.79-36.93 61.79-73.99 0-48.95-27.14-95.05-113.62-95.05h-126.62"/><path d="m2862.5 3748.45c14.18 0 27.04-3.09 38.19-8.59v-49.61h-2.59c-7.21 9.8-18.85 16.12-33.17 16.12-24.48 0-41.15-18.44-41.15-41.19s17.31-41.19 41.15-41.19c13.93 0 25.62 6.3 32.95 16.08h2.81v-49.29c-11.24-5.67-24.15-8.87-38.19-8.87-47.94 0-82.77 37.28-82.77 83.27s33.55 83.27 82.77 83.27"/></g></g></g></svg>
