<?xml version="1.0" encoding="UTF-8" standalone="no"?>
<!-- Created with Inkscape (http://www.inkscape.org/) -->

<svg
   width="1321.4814mm"
   height="277.85925mm"
   viewBox="0 0 1321.4814 277.85925"
   version="1.1"
   id="svg1"
   xml:space="preserve"
   inkscape:version="1.4 (86a8ad7, 2024-10-11)"
   sodipodi:docname="amazon mgm.svg"
   xmlns:inkscape="http://www.inkscape.org/namespaces/inkscape"
   xmlns:sodipodi="http://sodipodi.sourceforge.net/DTD/sodipodi-0.dtd"
   xmlns="http://www.w3.org/2000/svg"
   xmlns:svg="http://www.w3.org/2000/svg"><sodipodi:namedview
     id="namedview1"
     pagecolor="#ffffff"
     bordercolor="#000000"
     borderopacity="0.25"
     inkscape:showpageshadow="2"
     inkscape:pageopacity="0.0"
     inkscape:pagecheckerboard="0"
     inkscape:deskcolor="#d1d1d1"
     inkscape:document-units="mm"
     inkscape:zoom="3.0135764"
     inkscape:cx="3103.2895"
     inkscape:cy="868.07157"
     inkscape:window-width="1368"
     inkscape:window-height="842"
     inkscape:window-x="-6"
     inkscape:window-y="-6"
     inkscape:window-maximized="1"
     inkscape:current-layer="layer1" /><defs
     id="defs1" /><g
     inkscape:label="Layer 1"
     inkscape:groupmode="layer"
     id="layer1"
     transform="translate(708.50279,135.23459)"><path
       style="fill:#d3ad37;stroke:none"
       d="m -68.422805,-135.20015 c -1.30374,0.17123 -2.66539,0.051 -3.97934,0.14097 -2.34999,0.16088 -4.70904,0.45649 -7.02733,0.89084 -9.85689,1.84677 -19.141692,6.68081 -25.799155,14.25693 -4.64898,5.29051 -7.87036,11.66817 -9.93225,18.37267 -1.85833,6.04267 -2.60486,12.2586 -2.87995,18.542 -0.70358,16.07039 3.21762,33.79388 15.24335,45.29333 11.505495,11.00199 28.015575,14.36849 43.434007,12.34081 5.16686,-0.67949 10.265498,-2.04585 14.986,-4.27559 3.16578,-1.49537 6.170744,-3.36721 8.889999,-5.57363 13.891783,-11.27185 18.370434,-29.71192 17.950573,-46.85359 -0.154202,-6.29654 -0.888255,-12.55617 -2.661791,-18.62667 -2.181324,-7.46644 -5.913023,-14.52515 -11.232389,-20.23533 -6.992317,-7.50605 -16.754364,-12.08528 -26.831722,-13.56966 -2.60937,-0.38434 -5.236602,-0.65434 -7.874002,-0.65434 -0.76225,0 -1.52686,-0.14846 -2.286,-0.0487 M -708.50279,-27.45542 h 13.63133 3.556 l 1.30698,-0.087 0.66857,-1.77564 1.55222,-4.826 4.26372,-13.29266 2.02984,-6.43467 h 30.81867 8.128 c 0.73845,0 2.47907,-0.32366 3.09719,0.087 0.40372,0.26822 0.53796,1.25111 0.68459,1.69098 l 1.52399,4.572 4.76956,14.30866 1.32644,3.97933 c 0.15308,0.45922 0.26351,1.29257 0.60763,1.64224 0.26118,0.26539 0.94269,0.13576 1.28326,0.13576 h 3.38667 13.88533 l -8.66206,-24.04533 -19.72734,-54.77933 -7.18686,-19.98133 -1.73567,-4.826 -0.73672,-1.64224 -1.32135,-0.0511 h -3.048 -10.922 -3.38666 l -1.27046,0.13576 -0.96681,2.48891 -2.20133,6.01133 -7.92724,21.67467 -17.86467,48.85266 -9.56282,26.162 m 152.39999,-105.32533 v 105.32533 h 17.018 v -78.48599 h 0.0847 l 5.73637,11.34534 13.54673,26.75466 5.08,9.99066 1.35466,2.70934 0.72606,1.18297 1.07284,0.087 h 2.45534 9.31333 2.70933 l 1.13139,-0.087 0.58291,-1.01364 1.23727,-2.37067 5.08,-9.73666 13.2012,-25.31533 4.95019,-9.48267 2.18037,-4.318 h 0.0847 v 78.73999 h 17.10267 v -105.32533 h -14.732 -3.89467 c -0.38772,0 -1.13963,-0.14366 -1.47005,0.087 -0.37693,0.26316 -0.59382,1.0345 -0.79505,1.43698 -0.5672,1.1344 -1.16731,2.25173 -1.73513,3.38667 -2.01586,4.02925 -4.1656,7.99252 -6.18067,12.02267 -4.99824,9.99651 -10.01315,20.05668 -15.32989,29.88733 -1.70495,3.15247 -3.20584,6.41509 -4.91067,9.56734 -1.06854,1.97571 -2.56916,4.19072 -3.1912,6.34999 h -0.16934 l -2.34977,-4.82599 -4.91066,-9.73667 -15.83267,-31.41134 -6.01133,-11.938 -1.69334,-3.38667 -0.75218,-1.35231 -1.55471,-0.087 h -3.97934 -15.15533 m 160.528,105.32533 h 13.63133 3.556 l 1.307,-0.087 0.66857,-1.77564 1.55219,-4.826 4.26372,-13.29266 2.02985,-6.43467 h 30.81867 8.128 c 0.73839,0 2.4791,-0.32366 3.09719,0.087 0.40378,0.26828 0.53793,1.25105 0.68457,1.69098 l 1.524,4.572 4.76957,14.30866 1.32643,3.97933 c 0.15305,0.45918 0.26355,1.29262 0.60763,1.64224 0.2612,0.26537 0.94271,0.13576 1.28327,0.13576 h 3.38667 13.88533 l -8.66204,-24.04533 -19.72733,-54.77933 -7.18691,-19.98133 -1.73567,-4.826 -0.7367,-1.64224 -1.32135,-0.0511 h -3.048 -10.922 -3.38666 l -1.27046,0.13576 -0.9668,2.48891 -2.20133,6.01133 -7.92725,21.67467 -17.86467,48.85266 -9.56282,26.162 m 152.48466,-105.32533 v 14.90134 h 55.118 c -1.59036,2.4064 -3.50912,4.64901 -5.25913,6.94266 -3.05412,4.00286 -6.08993,8.01981 -9.144,12.02267 -8.6224,11.30098 -17.1813,22.65032 -25.80374,33.95133 -4.17165,5.46759 -8.26906,10.99714 -12.49172,16.42533 -1.32796,1.7071 -2.63496,3.43446 -3.9327,5.16467 -0.508,0.67731 -1.39423,1.4753 -1.6563,2.286 -0.38265,1.1838 -0.0478,2.98773 -0.0478,4.23333 v 9.398 h 76.962 v -11.176 -2.70933 l -0.13576,-0.92898 -1.04957,-0.087 h -2.87867 -11.176 -43.09533 c 3.58957,-4.52313 6.98608,-9.20975 10.48887,-13.80066 9.35459,-12.26063 18.59202,-24.6141 28.00495,-36.83 4.63115,-6.01022 9.1227,-12.12991 13.78144,-18.11867 1.43635,-1.8464 2.84683,-3.71653 4.25045,-5.588 0.53855,-0.71809 1.50965,-1.58686 1.76617,-2.45533 0.35889,-1.215 0.0435,-2.96522 0.0435,-4.23334 v -9.398 h -73.74466 m 287.612665,0 v 105.32531 h 17.017998 v -79.41732 h 0.08467 l 1.236183,2.20133 2.5061,4.14867 7.957757,13.208 23.555111,39.11599 8.974576,14.90133 2.43855,4.064 1.11149,1.69098 1.58089,0.087 h 3.97933 14.64733 v -105.32531 h -17.01806 v 79.41734 l -10.7696,-17.86467 -24.07717,-39.96266 -9.2815,-15.40934 -2.590767,-4.318 -1.149697,-1.77564 -1.576586,-0.087 h -3.894665 -14.732 m -114.808,13.1475 c 2.83633,-0.33474 5.91038,0.0131 8.720672,0.39917 2.52371,0.34672 5.0272,1.08003 7.366,2.08098 1.67096,0.71514 3.26876,1.63304 4.741328,2.69627 11.602683,8.37746 13.622074,24.47688 13.042017,37.72541 -0.491009,11.2148 -3.048827,23.72928 -12.618677,30.85002 -1.806898,1.34448 -3.762298,2.42288 -5.842008,3.28241 -2.59788,1.07367 -5.42276,1.70735 -8.212662,2.00618 -9.08303,0.97294 -18.76438,-0.68754 -25.654,-7.10551 -4.26538,-3.97336 -6.972722,-9.49972 -8.479492,-15.0631 -1.18587,-4.37854 -1.74009,-8.86019 -1.93786,-13.37733 -0.53479,-12.21461 0.79524,-26.58647 9.923732,-35.71497 3.35848,-3.35847 7.67085,-5.64873 12.26228,-6.79659 2.21477,-0.55368 4.43702,-0.7172 6.68867,-0.98294 m -590.126655,3.70117 c 0.9184,1.45956 1.25824,3.53962 1.8366,5.16466 1.39151,3.90976 2.6725,7.85891 4.064,11.76867 2.48268,6.97566 4.82352,14.00247 7.25187,20.99733 l 2.45533,7.112 c 0.38659,1.11359 0.98397,2.3051 1.1562,3.47133 h -33.35867 c 0.20659,-1.37924 0.91259,-2.83331 1.38074,-4.14866 0.76005,-2.13554 1.44127,-4.29911 2.20133,-6.43467 2.29941,-6.46071 4.45062,-12.98217 6.66234,-19.47333 1.4527,-4.26351 2.89667,-8.52984 4.37379,-12.78467 0.61288,-1.76539 0.98397,-4.09536 1.97647,-5.67266 m 312.92799,0 c 0.91844,1.4594 1.25834,3.53969 1.83662,5.16466 1.39142,3.90982 2.67258,7.85887 4.064,11.76867 2.4825,6.9757 4.82348,14.00245 7.25186,20.99733 l 2.45533,7.112 c 0.38658,1.11354 0.984,2.30512 1.15619,3.47133 h -33.35867 c 0.20655,-1.37926 0.91261,-2.83327 1.38072,-4.14866 0.75997,-2.13554 1.44131,-4.29911 2.20133,-6.43467 2.29923,-6.46077 4.45058,-12.98215 6.66237,-19.47333 1.45273,-4.26351 2.89661,-8.52982 4.37377,-12.78467 0.61288,-1.76533 0.98392,-4.09548 1.97648,-5.67266 m -121.666,151.807321 c -1.95231,1.15135 -4.00517,2.22441 -6.26533,2.58757 -4.31924,0.69399 -8.96325,-0.69369 -13.208,-1.39543 -3.80526,-0.62911 -7.66818,-0.92735 -11.51466,-1.02156 -18.37226,-0.45004 -36.07218,9.34033 -45.65134,24.97542 -12.77571,20.8525 -10.21284,50.275759 7.97467,67.217769 5.14916,4.79653 11.32051,8.51175 17.94933,10.87097 20.91943,7.44529 44.16828,2.22248 63.246,-7.8154 -0.17006,-0.98775 -0.75158,-1.93882 -1.09616,-2.87867 -0.59587,-1.62524 -1.0925,-3.30026 -1.44357,-4.99533 -0.83712,-4.04186 -0.76227,-8.08699 -0.76227,-12.192 0,-4.09951 -0.0562,-8.29031 1.05193,-12.276669 0.67617,-2.43249 1.79189,-4.68862 3.21055,-6.77333 0.80107,-1.17719 2.14699,-2.45707 2.59552,-3.81 h -35.052 c 0.34138,0.88741 1.11859,1.68376 1.6687,2.45533 1.19478,1.67578 2.43799,3.37063 3.30051,5.24933 2.59376,5.649599 1.97346,12.400509 1.97346,18.457339 v 4.65666 c 0,0.54135 0.17022,1.42933 -0.0511,1.92832 -0.24834,0.55988 -1.77488,0.85345 -2.31957,1.03502 -2.39762,0.7992 -4.86579,1.35599 -7.366,1.71625 -11.14113,1.60543 -22.76967,-1.50864 -30.07326,-10.52159 -13.18741,-16.273829 -9.90964,-45.964609 9.9226,-55.616859 2.86566,-1.39468 5.90636,-2.36287 9.05933,-2.85188 9.90455,-1.53609 20.52811,1.24452 29.04066,6.35211 1.97043,1.18227 3.82408,2.54957 5.588,4.01917 1.00933,0.8409 2.1076,2.08438 3.302,2.63146 l -0.99301,-6.51933 -2.35773,-14.90133 -1.15749,-7.366 -0.57177,-3.21734 m 918.97198,0.20526 c -1.36261,0.17891 -2.77507,0.0995 -4.14867,0.23246 -2.73232,0.2644 -5.47067,0.71649 -8.128,1.41515 -12.35802,3.24929 -23.25605,10.90203 -30.31042,21.5998 -12.54265,19.02065 -11.81232,45.381539 2.23697,63.415329 3.30548,4.24297 7.28654,7.95189 11.73278,10.97753 4.92704,3.35287 10.48891,5.78129 16.256,7.25716 6.59383,1.68747 13.5857,2.01565 20.32,1.13013 5.23503,-0.68837 10.36018,-2.20318 15.15534,-4.40494 19.33318,-8.87719 31.23017,-29.69754 30.30735,-50.773879 -0.32948,-7.52578 -2.06317,-14.96022 -5.3526,-21.75933 -6.37232,-13.17131 -18.29569,-23.03872 -32.32075,-27.06869 -3.65282,-1.04964 -7.39304,-1.63579 -11.176,-1.89488 -1.47588,-0.1011 -3.09836,-0.31929 -4.572,-0.12584 m -641.60398,74.470739 0.8255,4.91067 1.69333,9.82133 2.01724,11.684 0.88259,4.99534 c 2.18108,-1.01823 3.98967,-2.37871 6.43467,-2.75808 3.34016,-0.51825 6.71512,0.20634 9.99067,0.86157 3.90268,0.78069 7.80248,1.58783 11.76866,1.96681 13.20155,1.2614 27.64619,-2.83071 35.44623,-14.2943 2.34338,-3.44401 3.94423,-7.38411 4.53938,-11.51467 0.37889,-2.62975 0.44235,-5.31841 0.12221,-7.95867 -0.28071,-2.31481 -0.81037,-4.59771 -1.65315,-6.77333 -4.24218,-10.951209 -15.45663,-16.408839 -25.58533,-20.756069 -4.31027,-1.84997 -8.69913,-3.56745 -12.78467,-5.89016 -2.58444,-1.46926 -5.23317,-3.24623 -6.8838,-5.7811 -2.68961,-4.13048 -2.07107,-10.11252 1.63447,-13.44758 2.13531,-1.9218 5.1943,-2.90673 8.04333,-2.97652 8.61227,-0.21096 17.05322,3.81017 24.21466,8.24736 2.77937,1.72208 5.3641,3.88003 8.21267,5.4674 l -1.45599,-7.62 -2.59135,-13.54666 -1.54066,-8.128 c -1.13709,0.20269 -2.22692,1.05601 -3.302,1.48596 -1.6684,0.66727 -3.4622,0.90562 -5.24933,0.88437 -4.10634,-0.0488 -8.15471,-1.38513 -12.192,-2.00841 -6.45373,-0.99632 -12.88343,-1.11814 -19.21933,0.69027 -6.51648,1.85994 -12.51335,5.76724 -16.47383,11.30914 -7.64923,10.70359 -7.03399,26.69815 2.16851,36.322 8.02874,8.39635 19.17906,11.68698 29.29132,16.743099 4.71152,2.35577 10.65849,5.51574 11.72972,11.1969 1.54289,8.18257 -6.65163,13.462 -13.93106,13.462 -10.07616,0 -18.91638,-4.45542 -27.09333,-10.01981 -3.07107,-2.08984 -5.9122,-4.61512 -9.05933,-6.57486 m 730.84264,0 2.0955,12.192 3.32317,19.21934 c 2.46608,-1.06276 4.34975,-2.52396 7.112,-2.85451 3.06949,-0.36729 6.2268,0.34051 9.22866,0.94101 3.93031,0.78623 7.85879,1.60212 11.85334,1.9838 13.38113,1.27856 27.90601,-2.943 35.69932,-14.63297 2.29385,-3.44082 3.86837,-7.48543 4.36116,-11.59933 0.33081,-2.76184 0.33453,-5.53794 -0.0371,-8.29734 -0.27765,-2.06153 -0.82509,-4.06794 -1.55798,-6.01133 -4.13288,-10.959209 -15.52807,-16.434879 -25.59604,-20.756069 -4.50883,-1.9352 -9.15657,-3.70821 -13.37733,-6.23569 -2.59639,-1.55476 -5.06537,-3.38547 -6.63749,-6.02824 -2.31965,-3.8993 -1.50416,-9.60409 1.81149,-12.69243 2.16727,-2.01865 5.27504,-3.06704 8.21266,-3.139 9.092,-0.2227 17.9132,4.22701 25.4,8.97794 2.38415,1.51292 4.62641,3.25507 7.02734,4.73682 l -1.45604,-7.70466 -2.67593,-13.97 -1.45603,-7.62 c -1.16401,0.20751 -2.28534,1.08481 -3.38667,1.524 -1.63686,0.65275 -3.41296,0.86717 -5.16467,0.84633 -4.23573,-0.0504 -8.44773,-1.43404 -12.61533,-2.08041 -6.39175,-0.99128 -12.79897,-0.98181 -19.05,0.84667 -6.5887,1.92728 -12.5897,5.97375 -16.50785,11.64807 -7.45819,10.80094 -6.49221,26.5325 2.62582,36.068 7.9404,8.30395 19.12152,11.57352 29.12203,16.573769 4.58068,2.29032 10.49676,5.36749 11.66614,10.85823 0.21729,1.02014 0.27037,2.01541 0.19472,3.048 -0.49932,6.81691 -7.52649,10.75267 -13.80819,10.75267 -10.4097,0 -19.40661,-4.69106 -27.85534,-10.38603 -2.88586,-1.94525 -5.53648,-4.49077 -8.55133,-6.20864 M -699.44346,37.060591 v 61.04466 17.525999 c 0,4.75076 0.12544,9.61988 -1.22127,14.224 -0.86814,2.96803 -2.71041,5.49565 -4.6208,7.874 -0.85054,1.0589 -2.14395,2.15253 -2.70926,3.38667 h 35.47533 c -2.52932,-3.69904 -5.77809,-6.55689 -7.27467,-10.922 -1.80695,-5.27038 -1.27667,-11.19828 -1.27667,-16.67933 V 85.997921 h 0.0847 l 3.45944,4.91067 7.00356,9.736659 11.93774,16.59467 6.89393,9.56733 h 0.0847 c 6.7788,-8.79485 13.09374,-18.00518 19.59394,-27.008659 2.12227,-2.93959 4.24012,-5.88512 6.38893,-8.80534 1.16984,-1.58981 2.68639,-3.22948 3.5658,-4.99533 h 0.0847 v 27.093329 c 0,5.33706 0.54505,11.0749 -0.99236,16.256 -0.83093,2.80031 -2.2793,5.25428 -4.0879,7.53534 -1.04677,1.32023 -2.68678,2.7059 -3.38641,4.23333 h 39.03133 c -0.91593,-1.38466 -2.14207,-2.59815 -3.17931,-3.89467 -1.71092,-2.13861 -3.2023,-4.42251 -4.09536,-7.02733 -1.55446,-4.53401 -1.27666,-9.5054 -1.27666,-14.224 V 95.141921 37.060591 h -6.43467 c -0.59737,0 -1.92862,-0.24772 -2.41176,0.13576 -0.54634,0.43363 -0.94298,1.24848 -1.34951,1.81157 -0.91644,1.26936 -1.82036,2.54899 -2.74826,3.81 -3.21654,4.37125 -6.37192,8.79297 -9.52814,13.208 -6.17211,8.63373 -12.41454,17.2185 -18.62692,25.82333 -1.792,2.48213 -3.55854,4.98494 -5.37294,7.45067 -1.10922,1.50738 -2.40075,3.02187 -3.3118,4.65667 l -3.14547,-4.318 -7.30446,-10.16 -18.80906,-26.162 -8.40487,-11.684 -2.24981,-3.13267 -1.0729,-1.35231 -2.5321,-0.087 h -6.18066 m 290.99932,0 v 61.12933 18.203329 c 0,4.16029 0.24385,8.47837 -0.88259,12.53067 -0.81347,2.92646 -2.25689,5.49333 -4.13058,7.874 -1.06298,1.35062 -2.74042,2.76126 -3.45349,4.318 h 35.47533 c -2.51013,-3.67103 -5.75554,-6.51082 -7.25219,-10.83733 -1.83449,-5.3031 -1.29914,-11.24562 -1.29914,-16.764 V 85.997941 h 0.0847 c 0.50414,1.06094 1.37393,2.00976 2.05656,2.96333 1.43611,2.00612 2.88625,4.00216 4.31808,6.01134 4.5589,6.397129 9.13507,12.787499 13.76321,19.134659 2.10865,2.8919 4.18162,5.81141 6.26625,8.72067 0.88267,1.2318 1.77684,3.05455 2.97523,3.97933 l 18.67541,-25.73866 7.30444,-10.075339 3.65349,-4.99533 v 27.008669 c 0,5.46908 0.52015,11.292 -1.07694,16.59466 -0.8539,2.83508 -2.43458,5.32429 -4.27397,7.62 -0.97152,1.21254 -2.46968,2.48395 -3.11576,3.89467 h 39.03133 c -0.85712,-1.29569 -2.00426,-2.43177 -2.97999,-3.64067 -1.7527,-2.17152 -3.3025,-4.46753 -4.24272,-7.112 -1.62772,-4.57803 -1.32862,-9.61648 -1.32862,-14.39333 V 95.057251 37.060591 h -6.43467 c -0.60672,0 -1.92004,-0.24605 -2.41601,0.13576 -0.54653,0.42073 -0.9585,1.25231 -1.35831,1.81157 -0.91033,1.27339 -1.83625,2.53554 -2.74501,3.81 -2.88846,4.05081 -5.80227,8.08736 -8.73348,12.10733 -6.23234,8.5472 -12.37316,17.16212 -18.56511,25.73867 l -6.35,8.80533 c -1.04072,1.44153 -2.38981,2.89603 -3.18141,4.48734 l -3.27744,-4.48734 -5.96404,-8.29733 -19.96852,-27.77067 -8.39481,-11.684 -2.32193,-3.21733 -1.06662,-1.35231 -2.5253,-0.087 h -6.26534 m 328.845335,0.42333 -1.34789,8.382 -3.22411,19.64267 c 1.7097,-0.97404 3.24085,-2.39938 4.826,-3.5658 2.41138,-1.77442 4.99583,-3.38592 7.70466,-4.66543 7.46832,-3.52758 15.391722,-3.36811 23.45267,-3.36811 v 50.122669 13.716 c 0,4.15768 0.0174,8.45441 -1.31366,12.446 -0.878118,2.63345 -2.418288,4.96954 -4.156768,7.112 -1.00136,1.23408 -2.28653,2.43413 -3.0809,3.81 h 40.893995 c -0.871802,-1.3939 -2.129234,-2.61749 -3.165574,-3.89467 -1.667371,-2.05486 -3.172602,-4.33813 -4.030844,-6.858 -1.361943,-3.99897 -1.354915,-8.2736 -1.354915,-12.446 v -13.716 -50.291999 c 8.156526,0 16.175549,-0.15068 23.70666594,3.49323 2.87643396,1.39175 5.55963996,3.15522 8.12799966,5.04831 1.340941,0.98838 2.6560864,2.3144 4.1486674,3.0578 l -3.4362764,-20.828 -0.860806,-5.24934 -0.410352,-1.86031 -1.5578997,-0.087 H 1.0039989 -15.506001 -79.598665 m 121.83533,0 c 0.763075,1.6658 2.53661,3.11214 3.650423,4.572 2.231099,2.92435 3.85316,6.00832 4.510236,9.652 0.975072,5.4068 0.560007,11.11957 0.560007,16.59467 v 27.26266 c 0,7.990499 0.02803,15.696309 2.914551,23.283339 2.624005,6.89711 7.375838,12.95538 13.595448,16.9594 6.67213,4.29534 14.568289,6.32135 22.436666,6.66593 14.743824,0.64568 29.991334,-4.23807 38.264854,-17.27533 3.48978,-5.4991 5.46869,-11.82051 6.08608,-18.288 0.35826,-3.75312 0.18372,-7.574259 0.18372,-11.345339 v -27.0087 c 0,-5.4068 -0.37124,-10.98678 0.45922,-16.34067 0.56075,-3.61499 2.06152,-6.83735 4.27236,-9.73667 0.83799,-1.09889 1.72897,-2.1559 2.61351,-3.21733 0.4631,-0.55567 1.07354,-1.11853 1.37558,-1.778 h -34.96747 c 0.95357,1.65119 2.51569,3.06534 3.68945,4.572 1.92484,2.47077 3.38459,5.15404 4.10964,8.21267 0.78391,3.30688 0.75224,6.7004 0.75224,10.07533 v 10.414 22.77533 c 0,5.37034 0.28715,10.759239 -1.09091,16.001999 -0.77556,2.95056 -2.06177,5.78663 -3.92435,8.21267 -3.99885,5.20859 -10.47716,7.60708 -16.913398,7.44943 -2.274011,-0.0557 -4.606643,-0.38369 -6.773333,-1.09949 -1.605276,-0.53035 -3.083553,-1.26086 -4.487333,-2.20133 -10.288984,-6.89312 -8.805333,-21.10786 -8.805333,-31.834609 v -8.55133 -11.26067 -10.16 c 0,-3.25495 -0.0036,-6.54862 0.752244,-9.73667 0.742073,-3.13041 2.224318,-5.85328 4.194307,-8.382 1.127869,-1.44772 2.76564,-2.86076 3.604782,-4.48733 H 42.236525 m 137.413985,0 c 0.75927,1.214 1.83952,2.27579 2.74224,3.38667 1.87515,2.30737 3.63538,4.76175 4.56068,7.62 1.94394,6.0049 1.24841,12.74181 1.24841,18.96533 v 32.512 16.594669 c 0,4.34421 0.15198,8.73232 -1.05221,12.954 -0.82831,2.90401 -2.49221,5.45585 -4.36653,7.78933 -0.95226,1.18558 -2.41532,2.42898 -3.04792,3.81 h 34.29 c 5.90467,0 11.90426,0.30022 17.78,-0.26837 8.72496,-0.84433 17.42149,-3.67144 24.80733,-8.42623 6.54439,-4.21306 12.12296,-9.80292 16.18737,-16.4514 8.89529,-14.5508 10.03788,-33.694289 2.92117,-49.191329 -2.43367,-5.29952 -5.84878,-10.02385 -9.96454,-14.13934 -3.68242,-3.68219 -8.15992,-6.8784 -12.86933,-9.11688 -6.65485,-3.16321 -13.66474,-5.06937 -20.99734,-5.77006 -5.90252,-0.56406 -11.9332,-0.26839 -17.86466,-0.26839 h -34.37467 m 140.462,0 c 2.4722,3.61609 5.71086,6.4227 7.22271,10.668 2.12237,5.95978 1.41329,12.83043 1.41329,19.05 v 32.68133 16.425339 c 0,4.3249 0.12311,8.74481 -1.0289,12.954 -0.80458,2.93989 -2.42226,5.50883 -4.30543,7.874 -1.03618,1.30133 -2.38547,2.53942 -3.21701,3.97933 h 40.894 c -0.72735,-1.25948 -1.89756,-2.34001 -2.8107,-3.47133 -1.88797,-2.33913 -3.60271,-4.81499 -4.52619,-7.70467 -1.88855,-5.90939 -1.21444,-12.59284 -1.21444,-18.71133 v -32.173339 -16.764 c 0,-4.3457 -0.15205,-8.81662 1.05221,-13.03866 0.84064,-2.94719 2.48238,-5.50123 4.38341,-7.874 0.97011,-1.2108 2.48419,-2.47799 3.11571,-3.89467 h -40.97866 m 128.94733,14.75618 c 11.1034,-1.3101 20.38275,6.8554 24.50438,16.48582 1.41263,3.30059 2.40134,6.78908 2.99136,10.32933 0.45352,2.72106 0.74381,5.46121 0.86428,8.21267 0.0825,1.88491 0.004,3.79371 -0.0781,5.67267 -0.54173,12.373899 -5.19865,27.091369 -17.95264,31.807689 -1.76866,0.65404 -3.62306,1.16555 -5.50333,1.36758 -2.83501,0.30463 -5.67201,0.25671 -8.46667,-0.36053 -9.45042,-2.08734 -15.69723,-10.31677 -18.62667,-19.09874 -1.03691,-3.10836 -1.71789,-6.32119 -2.14056,-9.567339 -0.34883,-2.67936 -0.4841,-5.3426 -0.4841,-8.04333 0,-13.13491 3.65877,-29.02514 16.93333,-34.89437 2.55753,-1.13076 5.20708,-1.58679 7.95867,-1.91145 m -236.982,73.043149 V 54.078591 c 4.6021,0 9.30689,-0.27447 13.88534,0.18363 6.54744,0.65514 12.96326,3.16847 18.034,7.38854 10.10419,8.4092 13.09133,21.96384 11.28357,34.50716 -1.38113,9.583059 -6.118,18.811229 -14.41624,24.156069 -4.12279,2.65548 -8.91902,4.29718 -13.80067,4.78563 -4.9377,0.49404 -10.02274,0.18363 -14.986,0.18363 z"
       id="path1" /></g></svg>
