<?xml version="1.0" encoding="UTF-8"?>
<svg width="100px" height="55px" viewBox="0 0 100 55" version="1.1" xmlns="http://www.w3.org/2000/svg" xmlns:xlink="http://www.w3.org/1999/xlink">
  <title>One logo dark</title>
  <g id="Desktop" stroke="none" stroke-width="1" fill="none" fill-rule="evenodd">
    <g id="Desktop-16" transform="translate(-670.000000, -40.000000)">
      <g id="Group-3" transform="translate(670.000000, 40.000000)">
        <g id="Group" transform="translate(56.006579, 20.000000)" fill="#232F3E">
          <path d="M6.37744016,0.000147703734 C8.38236819,0.000147703734 9.94650688,0.615087585 11.0698563,1.84398266 C12.1932056,3.07386242 12.7553717,4.78821043 12.7553717,6.98702669 C12.7553717,9.18633529 12.1932056,10.9051144 11.0698563,12.1428717 C9.94650688,13.3811214 8.38236819,14 6.37744016,14 C4.37251214,14 2.80837344,13.3811214 1.68502407,12.1428717 C0.561674688,10.9051144 -1.38555833e-13,9.18633529 -1.38555833e-13,6.98702669 C-1.38555833e-13,4.78821043 0.561674688,3.07386242 1.68502407,1.84398266 C2.80837344,0.615087585 4.37251214,0.000147703734 6.37744016,0.000147703734 Z M36.8385868,4.92345782e-05 C38.5324561,4.92345782e-05 39.8332023,0.463346615 40.7408254,1.38994138 C41.6474656,2.31604379 42.1015228,3.6281453 42.1015228,5.32476886 C42.1015228,6.2252693 42.026338,7.03074699 41.8759684,7.74021727 L33.7019555,7.74021727 C33.7515873,9.05625754 34.1068724,10.0217476 34.765845,10.6361952 C35.4253091,11.251135 36.4405496,11.5583588 37.8096009,11.5583588 C39.0449904,11.5583588 40.3801349,11.3161247 41.8160172,10.8311641 L41.8160172,12.9871463 C41.2287895,13.2988011 40.5329615,13.5454664 39.7295161,13.727142 C38.9255793,13.9093099 38.0916668,13.9999015 37.2277787,13.9999015 C35.0503679,13.9999015 33.3992507,13.4115483 32.2759013,12.2338572 C31.1525519,11.0561661 30.5908773,9.34231044 30.5908773,7.09081318 C30.5908773,4.85704037 31.1397754,3.11659803 32.2370804,1.86997851 C33.3343854,0.623358994 34.8685484,4.92345782e-05 36.8385868,4.92345782e-05 Z M23.7467999,3.55271368e-15 C25.0087252,3.55271368e-15 25.9679457,0.33381044 26.6249527,0.999954282 C27.2814684,1.66708282 27.6097262,2.63257289 27.6097262,3.89642451 L27.6097262,13.6104068 L24.5507368,13.6104068 L24.5507368,4.85699113 C24.5507368,4.0091717 24.3772712,3.38980071 24.0318142,2.99986285 C23.6863572,2.61041733 23.1330364,2.4154484 22.3728345,2.4154484 C21.232286,2.4154484 20.0656931,2.79652404 18.8730558,3.55818296 L18.8730558,13.6104068 L15.8145577,13.6104068 L15.8145577,0.389445513 L18.355116,0.389445513 L18.6656833,1.8443273 C20.2902647,0.614939881 21.984134,3.55271368e-15 23.7467999,3.55271368e-15 Z M6.37744016,2.41559611 C4.20002936,2.41559611 3.11156967,3.9394063 3.11156967,6.98702669 C3.11156967,10.0518792 4.20002936,11.5845516 6.37744016,11.5845516 C8.55534237,11.5845516 9.64380207,10.0518792 9.64380207,6.98702669 C9.64380207,3.9394063 8.55534237,2.41559611 6.37744016,2.41559611 Z M36.8233533,2.23382205 C35.9383348,2.23382205 35.2169538,2.54547692 34.6606846,3.16878668 C34.1029411,3.79258879 33.7835286,4.63253069 33.7019555,5.68861239 L39.3791451,5.68861239 L39.3791451,5.48035013 C39.3791451,4.42476077 39.162436,3.61928307 38.7280349,3.06490172 C38.2936338,2.51101272 37.6587399,2.23382205 36.8233533,2.23382205 Z" id="One"/>
        </g>
        <g id="Group-2" transform="translate(0.006579, 0.000000)">
          <path d="M20.8817311,54.2206297 L6.85774032,51.6849154 C5.48809786,51.437735 5.48809786,49.1548402 6.85774032,48.9067199 L20.8817311,46.3714756 C21.2914363,46.2972274 21.7085637,46.2972274 22.1187637,46.3714756 L36.1422597,48.9067199 C37.5119021,49.1548402 37.5119021,51.437735 36.1422597,51.6849154 L22.1187637,54.2206297 C21.7085637,54.2948778 21.2914363,54.2948778 20.8817311,54.2206297" id="Device" fill="#232F3E"/>
          <path d="M43,19.1776316 C43,8.58618532 33.374332,0 21.5002492,0 C9.62616638,0 0,8.58618532 0,19.1776316 C0,29.7690778 9.62616638,38.3552632 21.5002492,38.3552632 C33.374332,38.3552632 43,29.7690778 43,19.1776316" id="Palm" fill="#FF6138"/>
        </g>
      </g>
    </g>
  </g>
</svg>
