<?xml version="1.0" encoding="utf-8"?>
<!-- Generator: Adobe Illustrator 15.0.0, SVG Export Plug-In . SVG Version: 6.00 Build 0)  -->
<!DOCTYPE svg PUBLIC "-//W3C//DTD SVG 1.1//EN" "http://www.w3.org/Graphics/SVG/1.1/DTD/svg11.dtd">
<svg version="1.1" id="LOGOS" xmlns="http://www.w3.org/2000/svg" xmlns:xlink="http://www.w3.org/1999/xlink" x="0px" y="0px"
	 width="314.646px" height="243.779px" viewBox="0 0 314.646 243.779" enable-background="new 0 0 314.646 243.779"
	 xml:space="preserve">
<g id="LOGO_NOIR">
	<g id="Logo_ICE_2_ligne">
		<g id="Watch">
			<path fill="#EF8215" d="M12.916,196.349h12.089l9.903,21.043l10.648-21.043h7.388l10.453,20.801l9.893-20.801h12.157
				l-17.941,36.982h-7.8l-10.522-21.075l-10.797,21.075h-7.721L12.916,196.349z"/>
			<path fill="#EF8215" d="M128.636,196.349h12.349v36.982h-12.349v-3.918c-2.399,1.721-4.818,2.966-7.233,3.728
				c-2.421,0.757-5.042,1.139-7.864,1.139c-6.344,0-11.825-1.854-16.453-5.555c-4.628-3.707-6.942-8.309-6.942-13.815
				c0-5.714,2.235-10.39,6.72-14.038c4.475-3.654,9.919-5.476,16.315-5.476c2.938,0,5.708,0.423,8.293,1.255
				c2.589,0.842,4.972,2.097,7.165,3.78V196.349z M115.689,203.963c-3.808,0-6.969,1.012-9.479,3.039
				c-2.516,2.023-3.777,4.624-3.777,7.79c0,3.193,1.277,5.82,3.845,7.88c2.558,2.06,5.713,3.087,9.458,3.087
				c3.871,0,7.069-1.011,9.616-3.034c2.546-2.027,3.828-4.681,3.828-7.964c0-3.215-1.282-5.814-3.828-7.811
				C122.806,204.959,119.586,203.963,115.689,203.963z"/>
			<path fill="#EF8215" d="M154.959,182.708h12.354v13.641h7.351v7.975h-7.351v29.008h-12.354v-29.008h-6.323v-7.975h6.323V182.708z
				"/>
			<path fill="#EF8215" d="M229.322,203.836l-10.246,4.246c-1.928-1.508-3.829-2.558-5.709-3.15
				c-1.88-0.587-4.088-0.884-6.613-0.884c-4.607,0-8.33,1.038-11.168,3.103c-2.849,2.07-4.274,4.714-4.274,7.943
				c0,3.135,1.372,5.698,4.11,7.685c2.738,1.99,6.338,2.98,10.786,2.98c5.507,0,9.798-1.414,12.868-4.258l9.706,5.021
				c-5.263,5.173-12.702,7.758-22.305,7.758c-8.636,0-15.399-1.922-20.297-5.777c-4.888-3.85-7.333-8.361-7.333-13.53
				c0-3.579,1.187-6.873,3.568-9.886c2.373-3.013,5.693-5.38,9.955-7.106c4.253-1.721,9.019-2.584,14.287-2.584
				c4.876,0,9.256,0.735,13.138,2.197S226.855,201.136,229.322,203.836z"/>
			<path fill="#EF8215" d="M240.479,182.071h12.232v18.031c2.411-1.567,4.836-2.748,7.276-3.532
				c2.441-0.778,4.914-1.175,7.419-1.175c4.882,0,8.992,1.271,12.332,3.808c2.866,2.197,4.302,5.427,4.302,9.689v24.438h-12.169
				v-16.204c0-4.278-0.275-7.175-0.81-8.689c-0.552-1.521-1.474-2.652-2.782-3.395c-1.312-0.752-2.934-1.128-4.859-1.128
				c-2.495,0-4.656,0.625-6.435,1.87c-1.8,1.243-3.04,2.938-3.729,5.094c-0.365,1.107-0.546,3.648-0.546,7.609v14.843h-12.232
				V182.071z"/>
		</g>
		<g>
			<g id="Point_i">
				<g>
					<path fill-rule="evenodd" clip-rule="evenodd" fill="#EF8215" d="M48.93,27.981v-0.005c0,0.001,0,0.003,0.001,0.004L59.515,9.5
						l-20.363,6.228l0.029,0.031c-0.725-0.328-1.475-0.624-2.253-0.857c-9.137-2.696-18.732,2.521-21.43,11.661
						c-0.773,2.604-0.792,5.337-0.357,7.852c1.036,5.751,5.033,10.845,10.72,13.106c0.429,0.164,0.858,0.322,1.303,0.455
						c9.129,2.696,18.717-2.515,21.423-11.655c0.825-2.811,0.895-5.663,0.345-8.341L48.93,27.981z M19.622,39.461
						c-2.2-3.432-2.962-7.752-1.715-11.973c1.438-4.866,5.19-8.409,9.707-9.801L30.695,31.2L19.622,39.461z M27.756,45.583
						c-2.579-0.758-4.776-2.182-6.481-4.014l10.636-7.933l13.251,3.907C42.239,44.117,34.844,47.68,27.756,45.583z M46.025,35.007
						l-12.561-3.706l-3.235-14.165c1.885-0.212,3.842-0.063,5.77,0.509C43.476,19.847,47.823,27.515,46.025,35.007z M47.619,24.65
						l-5.375-6.667l12.391-4.449L47.619,24.65z"/>
				</g>
			</g>
			<g id="Ice">
				<rect x="19.974" y="62.099" width="24.521" height="97.591"/>
				<path d="M162.217,81.851L141.87,93.075c-3.821-3.993-7.599-6.765-11.34-8.306c-3.73-1.563-8.107-2.341-13.128-2.341
					c-9.143,0-16.537,2.728-22.188,8.179c-5.644,5.455-8.469,12.439-8.469,20.954c0,8.283,2.725,15.045,8.163,20.292
					c5.431,5.243,12.577,7.869,21.426,7.869c10.924,0,19.439-3.749,25.537-11.248l19.27,13.256
					c-10.454,13.65-25.223,20.471-44.289,20.471c-17.152,0-30.581-5.077-40.295-15.245c-9.707-10.166-14.564-22.07-14.564-35.701
					c0-9.447,2.353-18.153,7.08-26.098c4.723-7.954,11.305-14.203,19.771-18.751c8.454-4.538,17.917-6.82,28.375-6.82
					c9.678,0,18.381,1.938,26.087,5.793C151.014,69.243,157.318,74.734,162.217,81.851z"/>
				<path d="M282.002,117.955H203.27c1.139,6.944,4.168,12.463,9.112,16.571c4.931,4.094,11.238,6.144,18.884,6.144
					c9.156,0,17.025-3.198,23.607-9.606l20.643,9.696c-5.143,7.297-11.308,12.693-18.488,16.193s-15.7,5.247-25.564,5.247
					c-15.319,0-27.791-4.829-37.418-14.482c-9.632-9.664-14.454-21.759-14.454-36.279c0-14.896,4.801-27.258,14.412-37.096
					c9.601-9.833,21.636-14.758,36.118-14.758c15.379,0,27.881,4.925,37.525,14.753c9.626,9.834,14.449,22.815,14.449,38.953
					L282.002,117.955z M257.452,98.698c-1.621-5.455-4.804-9.878-9.573-13.294c-4.755-3.415-10.286-5.126-16.575-5.126
					c-6.832,0-12.825,1.922-17.973,5.756c-3.229,2.388-6.223,6.617-8.981,12.664H257.452z"/>
			</g>
		</g>
		<rect id="Ligne" x="12.916" y="171.217" width="271.125" height="5.039"/>
	</g>
	<g>
		<path d="M285.913,21.669c8.802,0,15.816,7.159,15.816,16.108c0,9.087-7.015,16.172-15.894,16.172
			c-8.803,0-15.961-7.085-15.961-16.172c0-8.949,7.158-16.108,15.961-16.108H285.913z M285.836,24.173
			c-7.08,0-12.88,6.084-12.88,13.604c0,7.658,5.8,13.67,12.957,13.67c7.155,0.071,12.878-6.012,12.878-13.602
			c0-7.588-5.723-13.672-12.878-13.672H285.836z M282.833,47.15h-2.862V29.188c1.502-0.218,2.934-0.429,5.084-0.429
			c2.719,0,4.504,0.572,5.577,1.355c1.074,0.79,1.65,2.002,1.65,3.723c0,2.361-1.578,3.796-3.508,4.369v0.137
			c1.572,0.291,2.646,1.722,3.007,4.369c0.429,2.794,0.854,3.867,1.145,4.438h-3.008c-0.428-0.571-0.86-2.216-1.214-4.581
			c-0.431-2.287-1.576-3.147-3.87-3.147h-2.001V47.15z M282.833,37.201h2.073c2.366,0,4.369-0.858,4.369-3.077
			c0-1.572-1.146-3.146-4.369-3.146c-0.931,0-1.576,0.072-2.073,0.144V37.201z"/>
	</g>
</g>
</svg>
