<svg xmlns="http://www.w3.org/2000/svg" id="svg1679" width="291.3" height="110" version="1.1" viewBox="0 0 291.3 110"><defs id="defs1611"><style id="style1609">.cls-1{fill:#23398c}.cls-2{fill:#231f20}</style></defs><g id="Layer_2" data-name="Layer 2" transform="translate(0,31.949999)"><g id="Layer_1-2" data-name="Layer 1"><g id="g1771"><g id="g4720" transform="matrix(2.3057413,0,0,2.3057413,5,-129.97052)"><path id="path1613" d="m 8.1,57.87 a 2.45,2.45 0 0 1 0,1.31 1.53,1.53 0 0 1 -1.71,1.18 1.56,1.56 0 0 1 -1.75,-1.6 v -1.7 H 0 v 1.36 c 0,3.92 3.06,5.1 6.34,5.1 3.28,0 5.74,-1.08 6.16,-4 a 8.93,8.93 0 0 0 0,-2.88 C 11.76,52.95 5.14,51.86 4.64,49.8 a 2.42,2.42 0 0 1 0,-0.93 1.42,1.42 0 0 1 1.59,-1.17 1.48,1.48 0 0 1 1.62,1.58 v 1.09 h 4.35 v -1.26 c 0,-3.82 -3.41,-4.43 -5.88,-4.43 -3.1,0 -5.63,1 -6.1,3.92 A 6.09,6.09 0 0 0 0.25,51 c 0.75,3.6 7,4.64 7.85,6.91" class="cls-1"/><path id="path1615" d="m 64.78,57.84 a 2.25,2.25 0 0 1 0,1.28 1.49,1.49 0 0 1 -1.69,1.17 1.54,1.54 0 0 1 -1.73,-1.57 V 57 h -4.59 v 1.33 c 0,3.88 3,5.06 6.28,5.06 3.28,0 5.68,-1.07 6.1,-4 a 8.53,8.53 0 0 0 0,-2.85 C 68.43,52.89 61.88,51.8 61.38,49.76 a 2,2 0 0 1 0,-0.91 1.41,1.41 0 0 1 1.57,-1.17 1.47,1.47 0 0 1 1.6,1.58 v 1.07 h 4.3 v -1.16 c 0,-3.79 -3.37,-4.39 -5.82,-4.39 -3,0 -5.57,1 -6,3.87 A 6.44,6.44 0 0 0 57,51 c 0.75,3.56 6.89,4.58 7.77,6.84" class="cls-1"/><path id="polygon1617" d="M94.42 48.03 94.67 62.64 90.37 62.64 90.37 45.24 96.85 45.24 100.96 59.4 100.72 45.24 105.03 45.24 105.03 62.64 98.83 62.64z" class="cls-1"/><path id="polygon1619" d="M20.15 62.82 15.44 62.82 18.68 45.24 26.43 45.24 29.64 62.82 24.95 62.82 22.59 46.55z" class="cls-1"/><path id="polygon1621" d="M40.59 62.82 37.6 46.55 37.48 62.82 33.12 62.82 33.51 45.24 40.62 45.24 42.82 58.99 45.02 45.24 52.12 45.24 52.5 62.82 48.14 62.82 48.03 46.55 45.02 62.82z" class="cls-1"/><path id="path1623" d="m 79.42,60.2 a 1.59,1.59 0 0 0 1.68,-1.27 4.83,4.83 0 0 0 0,-0.67 v -13 h 4.41 v 12.6 c 0,0.33 0,1 0,1.16 -0.3,3.28 -2.87,4.34 -6.08,4.34 -3.21,0 -5.79,-1.07 -6.09,-4.36 0,-0.17 -0.06,-0.83 0,-1.16 V 45.25 h 4.42 v 13 a 3.66,3.66 0 0 0 0,0.67 1.57,1.57 0 0 0 1.67,1.27" class="cls-1"/><path id="path1625" d="m 115.79,60 a 1.64,1.64 0 0 0 1.79,-1.28 4.73,4.73 0 0 0 0,-0.67 v -2.53 h -1.8 V 53 H 122 v 4.72 c 0,0.32 0,0.56 -0.06,1.15 -0.29,3.2 -3,4.34 -6.13,4.34 -3.13,0 -5.81,-1.21 -6.14,-4.38 a 11.2,11.2 0 0 1 0,-1.15 v -7.41 c 0,-0.31 0,-0.86 0.07,-1.16 0.39,-3.29 3,-4.34 6.12,-4.34 3.12,0 5.79,1 6.13,4.34 0,0.57 0,1.16 0,1.16 v 0.59 h -4.39 v -1 c 0,0 0,-0.42 -0.06,-0.68 a 1.82,1.82 0 0 0 -3.47,0 A 3.63,3.63 0 0 0 114,50 v 8 a 3.6,3.6 0 0 0 0,0.67 1.64,1.64 0 0 0 1.79,1.33" class="cls-1"/><path id="path1627" d="M 0.93,87.68 V 72.31 h 5.21 c 2.22,0 3,0.73 3.57,1.58 a 4,4 0 0 1 0.64,2 c 0,1.91 -0.68,3.19 -2.74,3.64 v 0.11 a 3.31,3.31 0 0 1 3.28,3.68 c 0,3.94 -3,4.32 -4.81,4.32 z m 2,-8.9 h 3 A 2.3902563,2.3902563 0 1 0 5.86,74 H 3 Z M 3,86 H 5.86 A 2.65,2.65 0 0 0 8.8,83.36 C 8.8,80.91 7.23,80.49 5.14,80.49 H 3 Z" class="cls-2"/><path id="rect1629" d="M14.54 72.31H16.58V87.68H14.54z" class="cls-2"/><path id="path1631" d="M 20.37,82.06 V 77 c 0,-3.07 1.64,-5 5,-5 3.36,0 5,2 5,5 v 5 c 0,4.26 -1.65,5.94 -5,5.94 -3.35,0 -5,-1.68 -5,-5.94 m 8,0.09 V 77 c 0,-3.21 -2.3,-3.32 -3,-3.32 -0.7,0 -2.94,0.11 -2.94,3.32 v 5.2 c 0,3.36 1,4.21 2.94,4.21 1.94,0 3,-0.85 3,-4.21" class="cls-2"/><path id="polygon1633" d="M36.02 85.98 41.89 85.98 41.89 87.68 33.98 87.68 33.98 72.31 36.02 72.31z" class="cls-2"/><path id="path1635" d="M 43.76,82.06 V 77 c 0,-3.07 1.64,-5 5,-5 3.36,0 5,2 5,5 v 5 c 0,4.26 -1.64,5.94 -5,5.94 -3.36,0 -5,-1.68 -5,-5.94 m 8,0.09 V 77 c 0,-3.21 -2.31,-3.32 -3,-3.32 -0.69,0 -2.95,0.11 -2.95,3.32 v 5.2 c 0,3.36 1,4.21 2.95,4.21 1.95,0 3,-0.85 3,-4.21" class="cls-2"/><path id="path1637" d="m 65,76.42 c 0,-1.81 -0.77,-2.79 -2.83,-2.79 -0.65,0 -3,0.11 -3,3.32 v 5.2 c 0,3.36 1,4.21 3,4.21 a 5.21,5.21 0 0 0 2.86,-0.68 v -4.6 h -3 v -1.7 h 5 v 7.47 A 10.22,10.22 0 0 1 62.2,88 c -3.39,0 -5,-1.68 -5,-5.94 V 77 c 0,-3.07 1.64,-5 5,-5 3.36,0 5.1,1.22 5,4.43 z" class="cls-2"/><path id="rect1639" d="M71.17 72.31H73.21V87.68H71.17z" class="cls-2"/><path id="path1641" d="m 84.12,76.55 a 3.5,3.5 0 0 0 -0.47,-2.24 2.71,2.71 0 0 0 -1.79,-0.66 2.52,2.52 0 0 0 -2.42,1.19 C 79.37,75 79,75.4 79,78 v 4.11 c 0,3.76 1.28,4.21 2.86,4.21 0.62,0 2.5,-0.21 2.52,-3.21 h 2.11 C 86.56,88 83,88 82,88 80,88 76.94,87.87 76.94,81.91 v -4.34 c 0,-4.34 2,-5.58 5.14,-5.58 3.14,0 4.39,1.58 4.19,4.56 z" class="cls-2"/><path id="path1643" d="m 91,83.1 v 0.45 a 2.48,2.48 0 0 0 2.68,2.75 c 1.62,0 2.86,-0.66 2.86,-2.49 0,-3.41 -7.18,-3 -7.18,-7.65 0,-2.72 2,-4.17 4.69,-4.17 2.93,0 4.57,1.36 4.44,4.49 h -2.18 c 0,-1.68 -0.53,-2.79 -2.46,-2.79 A 2.2,2.2 0 0 0 91.39,76 c 0,3.39 7.18,2.9 7.18,7.77 0,3.24 -2.33,4.28 -5,4.28 -4.73,0 -4.73,-3.43 -4.68,-4.9 z" class="cls-2"/></g></g></g></g></svg>