<?xml version="1.0" encoding="UTF-8"?>
<svg width="500" height="500" version="1.1" viewBox="0 0 500 500" xmlns="http://www.w3.org/2000/svg">
 <path d="m3.75e-6 125c0-69.036 55.964-125 125-125h250c69.036 0 125 55.964 125 125v250c0 69.036-55.964 125-125 125h-250c-69.036 0-125-55.964-125-125z" stroke-linecap="square" stroke-width="1.2162" style="paint-order:markers stroke fill"/>
 <path id="a" d="m230.36 64.454c-40.644 0-76.751 26.13-89.335 64.721l-0.0273 0.17148a93.149 93.149 0 0 0-61.504 44.891c-20.321 35.198-15.746 79.533 11.383 109.73l0.13281 0.10976a93.149 93.149 0 0 0 8.125 75.71c20.322 35.199 61.005 53.403 100.72 45.005l0.16172-0.0598a93.149 93.149 0 0 0 69.629 30.817c40.644 0 76.751-26.13 89.335-64.721l0.0274-0.17148a93.149 93.149 0 0 0 61.504-44.889c20.322-35.199 15.746-79.534-11.383-109.73l-0.11758-0.0984a93.149 93.149 0 0 0-8.1389-75.722c-20.322-35.199-61.005-53.403-100.72-45.005l-0.16211 0.05976a93.149 93.149 0 0 0-69.629-30.817zm0 24.117v2e-3l-0.12343 0.12344c16.285 0 31.934 5.6011 44.488 15.957l-75.863 43.8c-0.96785 0.55879-1.8325 1.2311-2.5888 1.9913-2.3238 2.2495-3.6625 5.3931-3.6625 8.763v100.03l-31.662-18.249-0.0156-82.636c-0.0117-7.9968 1.3884-15.895 4.0519-23.371l-0.21992-0.0539c9.5679-26.968 35.302-46.306 65.592-46.354zm90.794 28.93c23.493 0.52062 46.171 12.933 58.828 34.775l-2e-3 2e-3 -0.16757-0.0461c8.1425 14.103 11.117 30.458 8.4258 46.508l-75.865-43.8c-0.96519-0.55726-1.9756-0.97039-3.0091-1.2453-3.1128-0.89156-6.5084-0.47812-9.4301 1.2086l-86.627 50.013-0.0273-36.542 71.558-41.331c6.9206-4.007 14.46-6.746 22.266-8.1771l-0.0637-0.21797c4.6882-0.86613 9.4157-1.251 14.112-1.147zm-184.67 38.412v87.6c0 1.12 0.14844 2.2072 0.42989 3.2443 0.78714 3.1352 2.8409 5.8626 5.7579 7.5468l86.627 50.015-31.635 18.295-71.572-41.308c-6.9305-3.9898-13.072-9.1492-18.214-15.194l-0.15625 0.16367c-18.572-21.77-22.452-53.725-7.3482-79.982h2e-3l0.0442 0.16953c8.1424-14.103 20.818-24.857 36.064-30.551zm165.84 21.472 71.572 41.308c6.9305 3.9898 13.072 9.1492 18.214 15.194l0.15625-0.16367c18.572 21.77 22.452 53.725 7.3482 79.982h-2e-3l-0.0445-0.16953c-8.1424 14.103-20.818 24.857-36.064 30.551v-87.6c0-1.12-0.14844-2.2072-0.42989-3.2443-0.78711-3.1352-2.8409-5.8626-5.7579-7.5468l-86.627-50.015zm-52.332 30.166 36.76 21.223v42.451l-36.76 21.223-36.76-21.225v-42.449zm57.39 33.213 31.662 18.249 0.0117 82.636c0.0117 7.9969-1.3884 15.895-4.052 23.371l0.21992 0.0539c-9.5677 26.968-35.301 46.306-65.592 46.354v-2e-3l0.12344-0.12344c-16.285 0-31.934-5.6011-44.488-15.957l75.864-43.8c0.96785-0.55879 1.8325-1.2311 2.5889-1.9912 2.3238-2.2495 3.6625-5.3932 3.6625-8.7631zm-20.697 54.319 0.0273 36.542-71.558 41.331c-6.9206 4.007-14.46 6.746-22.266 8.1771l0.0637 0.21797c-28.14 5.1986-57.753-7.4193-72.941-33.628l2e-3 -2e-3 0.16758 0.0461c-8.1425-14.103-11.117-30.458-8.4258-46.508l75.865 43.8c0.96519 0.55723 1.9756 0.97032 3.0091 1.2452 3.1128 0.89156 6.5084 0.4782 9.4301-1.2086z" fill="#fff"/>
</svg>
