<?xml version="1.0" encoding="UTF-8" standalone="no"?>
<svg
   xmlns:dc="http://purl.org/dc/elements/1.1/"
   xmlns:cc="http://creativecommons.org/ns#"
   xmlns:rdf="http://www.w3.org/1999/02/22-rdf-syntax-ns#"
   xmlns:svg="http://www.w3.org/2000/svg"
   xmlns="http://www.w3.org/2000/svg"
   xml:space="preserve"
   id="svg2"
   height="108.4893"
   width="524.64746"
   version="1.0"><metadata
     id="metadata52"><rdf:RDF><cc:Work
         rdf:about=""><dc:format>image/svg+xml</dc:format><dc:type
           rdf:resource="http://purl.org/dc/dcmitype/StillImage" /><dc:title></dc:title></cc:Work></rdf:RDF></metadata><defs
     id="defs5"><clipPath
       id="clipPath17"><path
         id="path19"
         d="M 0,0 L 595.276,0 L 595.276,841.89 L 0,841.89 L 0,0 z" /></clipPath><clipPath
       id="clipPath25"><path
         id="path27"
         d="M 299.764,254.207 L 526.715,254.207 L 526.715,375.591 L 299.764,375.591 L 299.764,254.207 z" /></clipPath><clipPath
       id="clipPath33"><path
         id="path35"
         d="M 299.197,253.234 L 527.683,253.234 L 527.683,371.055 L 299.197,371.055 L 299.197,253.234 z" /></clipPath><clipPath
       id="clipPath193"><path
         id="path195"
         d="M 480.585,271.376 L 566.025,271.376 L 566.025,185.936 L 480.585,185.936 L 480.585,271.376 z" /></clipPath><clipPath
       id="clipPath213"><path
         id="path215"
         d="M 480.585,271.376 L 566.025,271.376 L 566.025,185.936 L 480.585,185.936 L 480.585,271.376 z" /></clipPath><clipPath
       id="clipPath337"><path
         id="path339"
         d="M 205.857,785.339 L 379.97,785.339 L 379.97,812.789 L 205.857,812.789 L 205.857,785.339 z" /></clipPath><clipPath
       id="clipPath345"><path
         id="path347"
         d="M 205.857,812.789 L 379.97,812.789 L 379.97,785.339 L 205.857,785.339 L 205.857,812.789 z" /></clipPath><clipPath
       id="clipPath353"><path
         id="path355"
         d="M 205.857,812.789 L 379.97,812.789 L 379.97,785.339 L 205.857,785.339 L 205.857,812.789 z" /></clipPath><clipPath
       id="clipPath361"><path
         id="path363"
         d="M 153.926,906.59 L 431.756,906.59 L 431.756,691.903 L 153.926,691.903 L 153.926,906.59 z" /></clipPath><clipPath
       id="clipPath393"><path
         id="path395"
         d="M 29.764,29.764 L 565.512,29.764 L 565.512,87.874 L 29.764,87.874 L 29.764,29.764 z" /></clipPath></defs><g
     id="g11"
     transform="matrix(1.25,0,0,-1.25,-30.178282,1013.6841)"><g
       id="g13"><g
         id="g15"
         clip-path="url(#clipPath17)"><g
           id="g333"
           transform="matrix(3.1618013,0,0,3.1618013,-630.71553,-1758.93)"><g
             id="g335"
             clip-path="url(#clipPath337)"><g
               id="g341"><g
                 id="g343"
                 clip-path="url(#clipPath345)"><g
                   id="g349"><g
                     id="g351"
                     clip-path="url(#clipPath353)"><g
                       id="g357"><g
                         id="g359"
                         clip-path="url(#clipPath361)"><path
                           style="fill:#000000;fill-opacity:1;fill-rule:nonzero;stroke:none"
                           id="path365"
                           d="M 227.80312,798.42516 C 227.77079,801.67728 230.46188,803.2558 230.5836,803.33093 C 229.06213,805.55226 226.70196,805.85466 225.86896,805.88318 C 223.8844,806.08572 221.9645,804.69073 220.95178,804.69073 C 219.921,804.69073 218.36624,805.8575 216.69074,805.82517 C 214.53026,805.79284 212.50862,804.54239 211.40175,802.60633 C 209.1224,798.64863 210.82074,792.83569 213.01165,789.64442 C 214.10805,788.07445 215.38323,786.32478 217.06064,786.39228 C 218.69907,786.4541 219.31051,787.43449 221.28936,787.43449 C 223.24919,787.43449 223.82354,786.39228 225.53424,786.42557 C 227.29248,786.4541 228.39934,788.00029 229.45771,789.57975 C 230.71862,791.37698 231.22831,793.14188 231.25019,793.23602 C 231.20834,793.24838 227.8383,794.53307 227.80312,798.42516" /><path
                           style="fill:#000000;fill-opacity:1;fill-rule:nonzero;stroke:none"
                           id="path367"
                           d="M 224.57001,807.97899 C 225.45626,809.083 226.05819,810.58451 225.89178,812.10406 C 224.6147,812.04891 223.02287,811.21781 222.10049,810.14423 C 221.2865,809.19237 220.56285,807.63857 220.75019,806.17321 C 222.18321,806.06576 223.65143,806.89971 224.57001,807.97899" /><path
                           style="fill:#000000;fill-opacity:1;fill-rule:nonzero;stroke:none"
                           id="path369"
                           d="M 245.59758,786.39038 L 241.71214,786.39038 L 241.71214,803.90052 L 245.59758,803.90052 L 245.59758,786.39038 z M 246.035,809.1277 C 246.035,808.43354 245.80678,807.86869 245.34939,807.43792 C 244.89296,807.00621 244.30433,806.79035 243.58354,806.79035 C 242.93407,806.79035 242.38729,807.01287 241.94226,807.45599 C 241.49819,807.89912 241.27472,808.45636 241.27472,809.1277 C 241.27472,809.79905 241.5039,810.35057 241.96033,810.7823 C 242.41773,811.21305 242.98161,811.42891 243.65486,811.42891 C 244.32811,811.42891 244.89296,811.21305 245.34939,810.7823 C 245.80678,810.35057 246.035,809.79905 246.035,809.1277" /><path
                           style="fill:#000000;fill-opacity:1;fill-rule:nonzero;stroke:none"
                           id="path371"
                           d="M 260.87972,803.42507 C 260.87972,804.83812 260.42329,805.92312 259.51136,806.67815 C 258.59943,807.43412 257.32806,807.80974 255.69629,807.80974 C 254.61605,807.80974 253.74026,807.73842 253.06796,807.59483 L 253.06796,798.89396 C 253.62044,798.75132 254.37642,798.67906 255.33589,798.67906 C 257.0637,798.67906 258.41876,799.0984 259.40295,799.93712 C 260.3862,800.77582 260.87972,801.93879 260.87972,803.42507 M 264.73378,803.61049 C 264.73378,801.3787 264.07384,799.59098 262.75398,798.24734 C 261.04993,796.4948 258.5652,795.61901 255.30071,795.61901 C 254.34029,795.61901 253.59667,795.67607 253.06796,795.78827 L 253.06796,786.39038 L 249.2063,786.39038 L 249.2063,810.34297 C 251.05678,810.67865 253.16971,810.846 255.54699,810.846 C 258.6213,810.846 260.93963,810.18607 262.50008,808.86619 C 263.98922,807.57105 264.73378,805.81852 264.73378,803.61049" /><path
                           style="fill:#000000;fill-opacity:1;fill-rule:nonzero;stroke:none"
                           id="path373"
                           d="M 281.90919,786.39038 L 278.02376,786.39038 L 278.02376,796.36643 C 278.02376,799.5111 276.84557,801.08297 274.48826,801.08297 C 272.68437,801.08297 271.44534,800.17104 270.77208,798.34719 C 270.65227,797.96206 270.59141,797.49422 270.59141,796.94173 L 270.59141,786.39038 L 266.70692,786.39038 L 266.70692,811.93956 L 270.59141,811.93956 L 270.59141,801.41293 L 270.66463,801.41293 C 271.89036,803.31286 273.64385,804.26473 275.92604,804.26473 C 277.53689,804.26473 278.86912,803.73601 279.92654,802.67955 C 281.24831,801.35778 281.90919,799.39984 281.90919,796.8048 L 281.90919,786.39038 z" /><path
                           style="fill:#000000;fill-opacity:1;fill-rule:nonzero;stroke:none"
                           id="path375"
                           d="M 297.24173,795.19396 C 297.24173,796.80195 296.8937,798.18267 296.19763,799.33423 C 295.38175,800.72732 294.21593,801.42339 292.70302,801.42339 C 291.14258,801.42339 289.95298,800.72732 289.13614,799.33423 C 288.44007,798.18267 288.09204,796.77818 288.09204,795.12168 C 288.09204,793.51369 288.44007,792.13201 289.13614,790.98045 C 289.97675,789.58737 291.15399,788.89129 292.66594,788.89129 C 294.15602,788.89129 295.32089,789.59972 296.1615,791.01658 C 296.88134,792.19287 297.24173,793.58501 297.24173,795.19396 M 301.27647,795.2957 C 301.27647,792.60557 300.50813,790.39659 298.97145,788.66782 C 297.3625,786.89057 295.22485,786.00146 292.55944,786.00146 C 289.98911,786.00146 287.94084,786.85348 286.41653,788.55942 C 284.89126,790.26441 284.12958,792.41348 284.12958,795.00662 C 284.12958,797.72148 284.91504,799.94282 286.48975,801.67158 C 288.06161,803.40034 290.1812,804.26473 292.84661,804.26473 C 295.41693,804.26473 297.48327,803.41175 299.04277,801.70771 C 300.53285,800.05028 301.27647,797.91262 301.27647,795.2957" /><path
                           style="fill:#000000;fill-opacity:1;fill-rule:nonzero;stroke:none"
                           id="path377"
                           d="M 318.7866,786.39038 L 314.90022,786.39038 L 314.90022,796.43775 C 314.90022,799.53488 313.72298,801.08297 311.36567,801.08297 C 310.21126,801.08297 309.27271,800.6579 308.55191,799.80493 C 307.83017,798.95292 307.46882,797.94971 307.46882,796.79814 L 307.46882,786.39038 L 303.58339,786.39038 L 303.58339,798.89206 C 303.58339,800.42969 303.53489,802.09854 303.43789,803.90052 L 306.86023,803.90052 L 307.04186,801.19707 L 307.14931,801.19707 C 307.60575,802.03863 308.27805,802.73755 309.16716,803.29003 C 310.22267,803.94047 311.40085,804.26473 312.69694,804.26473 C 314.33062,804.26473 315.68852,803.73601 316.76876,802.67955 C 318.11431,801.38155 318.7866,799.4474 318.7866,796.87707 L 318.7866,786.39038 z" /><path
                           style="fill:#000000;fill-opacity:1;fill-rule:nonzero;stroke:none"
                           id="path379"
                           d="M 332.83446,796.98167 C 332.85728,798.13513 332.60529,799.13073 332.07753,799.97135 C 331.40429,801.05254 330.37064,801.59265 328.9766,801.59265 C 327.70238,801.59265 326.66969,801.06395 325.87662,800.00748 C 325.22715,799.16688 324.84202,798.15795 324.72316,796.98167 L 332.83446,796.98167 z M 336.54968,795.9718 C 336.54968,795.27573 336.50214,794.68806 336.40609,794.20785 L 324.72316,794.20785 C 324.76976,792.47814 325.33555,791.15732 326.41674,790.2454 C 327.40188,789.42856 328.67612,789.01966 330.23751,789.01966 C 331.96818,789.01966 333.54194,789.29638 334.95975,789.84886 L 335.5731,787.15302 C 333.91565,786.43413 331.95772,786.07469 329.70024,786.07469 C 326.98634,786.07469 324.85439,786.87155 323.3063,788.46909 C 321.7563,790.06472 320.98321,792.20618 320.98321,794.89442 C 320.98321,797.5332 321.70306,799.72886 323.14464,801.48235 C 324.6585,803.3528 326.69916,804.28849 329.27043,804.28849 C 331.79321,804.28849 333.70265,803.3528 335.00064,801.48045 C 336.03333,799.99227 336.54968,798.15605 336.54968,795.9718" /></g></g></g></g></g></g></g></g><path
           style="fill:none;stroke:#65a1bc;stroke-width:0.40000001;stroke-linecap:butt;stroke-linejoin:miter;stroke-miterlimit:4;stroke-dasharray:none;stroke-opacity:1"
           id="path1019"
           d="M 0.208,841.685 L 0.208,0.205 L 595.068,0.205 L 595.068,841.685 L 0.208,841.685 z" /></g></g></g></svg>