<?xml version="1.0" encoding="UTF-8" standalone="no"?>
<svg
   xmlns:svg="http://www.w3.org/2000/svg"
   xmlns="http://www.w3.org/2000/svg"
   xmlns:xlink="http://www.w3.org/1999/xlink"
   width="364"
   height="282"
   id="svg2"
   version="1.0">
  <path
     d="M 253.755,103.816 H 363.633 V 0.272 H 253.755 Z m -126.708,0 H 236.925 V 0.272 H 127.047 Z M 0.338,0.272 H 110.216 V 103.816 H 0.338 Z"
     id="path4" />
  <path
     style="fill:#ffffff"
     d="m 70.466,67.188 c 0,11.25 -14,10.583 -14,10.583 h -14 V 26.438 h 10.667 c 11.083,0.584 10.666,8.833 10.666,8.833 0,10.25 -12.25,10.417 -12.25,10.417 H 42 v 11.75 h 14.466 c 14.417,-0.083 14,9.75 14,9.75 m -2.583,-17.5 c 0,0 9.583,-4.083 9.5,-14.917 0,0 1.457,-17.749 -22.063,-19.916 H 29.216 v 74.416 h 29.917 c 0,0 25,0.084 25,-21 0,0 0.583,-14.333 -16.25,-18.583"
     id="path6" />
  <use
     xlink:href="#path6"
     transform="translate(126.666)"
     id="use8" />
  <path
     style="fill:#ffffff"
     d="m 341.216,20.189 v 13.75 c 0,0 -13.417,-8.25 -28.25,-8.417 0,0 -27.666,-0.54 -28.916,26.522 0,0 -1,24.895 28.583,26.312 0,0 12.417,1.5 29.25,-9.25 v 14.25 c 0,0 -22.583,13.416 -48.75,3.083 0,0 -22,-8.04 -22.834,-34.395 0,0 -0.917,-27.105 28.417,-36.105 0,0 7.834,-3 21.917,-1.667 0,0 8.416,0.834 20.583,5.917"
     id="path10" />
  <path
     d="m 0.338,151.938 v 4.86 h 363.295 v -4.86"
     id="path12" />
  <g
     style="font-family:GillSans"
     id="g20">
    <path
       d="m 123.882,243.278 q 3.428,1.16 6.645,4.957 3.27,3.797 6.539,10.442 l 10.811,21.517 h -11.444 l -10.072,-20.198 q -3.903,-7.911 -7.594,-10.495 -3.639,-2.584 -9.967,-2.584 H 97.1978 v 33.277 H 86.5451 v -78.735 h 24.0479 q 13.5,0 20.145,5.642 6.645,5.643 6.645,17.034 0,7.436 -3.481,12.34 -3.428,4.905 -10.02,6.803 z M 97.1978,210.213 v 27.95 h 13.3952 q 7.699,0 11.602,-3.534 3.955,-3.586 3.955,-10.494 0,-6.908 -3.955,-10.389 -3.903,-3.533 -11.602,-3.533"
       id="path14" />
    <path
       d="m 174.752,237.846 q -4.799,4.272 -7.066,8.544 -2.215,4.219 -2.215,8.859 0,7.7 5.59,12.815 5.59,5.116 14.028,5.116 5.01,0 9.387,-1.635 4.377,-1.688 8.226,-5.063 z m 7.436,-5.906 26.79,27.423 q 3.111,-4.694 4.852,-10.02 1.74,-5.379 2.056,-11.391 h 9.809 q -0.632,6.961 -3.375,13.764 -2.742,6.803 -7.646,13.448 l 14.713,15.03 h -13.29 l -7.541,-7.753 q -5.484,4.694 -11.496,7.014 -6.012,2.268 -12.921,2.268 -12.709,0 -20.778,-7.225 -8.068,-7.278 -8.068,-18.616 0,-6.75 3.533,-12.657 3.533,-5.959 10.6,-11.18 -2.531,-3.322 -3.85,-6.592 -1.318,-3.322 -1.318,-6.486 0,-8.543 5.854,-13.712 5.853,-5.22 15.557,-5.22 4.377,0 8.701,0.949 4.377,0.949 8.86,2.848 v 9.598 q -4.588,-2.479 -8.754,-3.745 -4.167,-1.318 -7.753,-1.318 -5.537,0 -9.017,2.953 -3.428,2.901 -3.428,7.541 0,2.69 1.529,5.432 1.582,2.69 6.381,7.647"
       id="path16" />
    <path
       d="m 251.358,210.213 v 61.226 h 12.867 q 16.296,0 23.837,-7.383 7.594,-7.383 7.594,-23.309 0,-15.821 -7.594,-23.151 -7.541,-7.383 -23.837,-7.383 z m -10.653,-8.754 h 21.885 q 22.888,0 33.593,9.545 10.706,9.492 10.706,29.743 0,20.356 -10.758,29.901 -10.759,9.546 -33.541,9.546 h -21.885"
       id="path18" />
  </g>
</svg>
