<?xml version="1.0" encoding="UTF-8" standalone="no"?>
<!-- Created with Inkscape (http://www.inkscape.org/) -->

<svg
   width="105.093mm"
   height="71.569mm"
   viewBox="0 0 105.093 71.569"
   version="1.1"
   id="svg844"
   xmlns="http://www.w3.org/2000/svg"
   xmlns:svg="http://www.w3.org/2000/svg">
  <defs
     id="defs841" />
  <g
     id="layer1">
    <text
       xml:space="preserve"
       style="font-weight:bold;font-size:10.5833px;line-height:1.25;font-family:'BBC Reith Sans';-inkscape-font-specification:'BBC Reith Sans Bold';stroke-width:0.264583"
       x="64.092484"
       y="131.04623"
       id="text1841"><tspan
         id="tspan1839"
         style="stroke-width:0.264583"
         x="64.092484"
         y="131.04623" /></text>
    <g
       id="g2403"
       transform="translate(-49.184085,-95.854604)">
      <g
         aria-label="R&amp;D"
         id="text1845"
         style="font-weight:bold;font-size:10.5833px;line-height:1.25;font-family:'BBC Reith Sans';-inkscape-font-specification:'BBC Reith Sans Bold';stroke-width:0.264583"
         transform="matrix(4.3849592,0,0,4.2429892,-227.24412,-517.76059)">
        <g
           id="g2420"
           transform="translate(-0.02992437,-0.02229168)">
          <g
             id="g2429"
             transform="matrix(1,0,0,1.0017474,0,-0.25275764)">
            <g
               id="g839"
               transform="matrix(0.2280523,0,0,0.2356829,18.636319,144.62586)">
              <path
                 id="path25841"
                 d="M 194.83961,0.08390077 V 30.179998 h 30.10722 V 0.08390077 Z m 37.40235,0 V 30.179998 h 30.13278 V 0.08390077 Z M 203.33532,6.9354038 h 6.28747 c 1.86227,0 3.3174,0.368314 4.33582,1.077267 1.01844,0.737312 1.54234,1.758455 1.54234,3.1196522 0,0.794056 -0.17425,1.446349 -0.55252,2.041869 -0.37827,0.56716 -0.90235,1.020914 -1.6298,1.361247 0.98934,0.311935 1.74601,0.822041 2.26978,1.531016 0.52377,0.680606 0.78556,1.531374 0.78556,2.523913 0.0292,0.992572 -0.23247,1.843255 -0.75624,2.552209 -0.52376,0.708962 -1.25169,1.247746 -2.18283,1.616414 -0.96024,0.368675 -2.09473,0.567444 -3.40414,0.567444 h -6.69544 z m 37.42277,0 h 6.31389 c 1.86228,0 3.31738,0.368314 4.33583,1.077267 1.01843,0.737312 1.54233,1.758455 1.54233,3.1196522 0,0.794056 -0.17425,1.446349 -0.55253,2.041869 -0.37827,0.56716 -0.90233,1.020914 -1.62978,1.361247 0.98933,0.311935 1.74599,0.822041 2.26977,1.531016 0.52376,0.680606 0.78557,1.531374 0.78557,2.523913 -0.0291,0.992572 -0.29091,1.843255 -0.78557,2.552209 -0.52378,0.708962 -1.25119,1.247746 -2.18232,1.616414 -0.96024,0.368675 -2.09472,0.567444 -3.40414,0.567444 h -6.69305 z m -34.04453,2.665388 v 4.0837392 h 2.58924 c 0.90204,0 1.57168,-0.19829 2.03724,-0.566928 0.46558,-0.368676 0.69812,-0.90811 0.69812,-1.560341 0,-1.304507 -0.90218,-1.9564702 -2.73536,-1.9564702 z m 37.42037,0 v 4.0837392 h 2.58926 c 0.90204,0 1.57115,-0.19829 2.03672,-0.566928 0.46557,-0.368676 0.69863,-0.90811 0.69863,-1.560341 0,-1.304507 -0.90217,-1.9564702 -2.73535,-1.9564702 z m -37.42037,6.6642422 v 4.423794 h 2.96788 c 1.01843,0 1.80385,-0.198262 2.35672,-0.56693 0.55286,-0.368647 0.81489,-0.906916 0.81489,-1.6159 0.0292,-1.502994 -1.01842,-2.240964 -3.11348,-2.240964 z m 37.42037,0 v 4.423794 h 2.96737 c 1.01844,0 1.80437,-0.198262 2.35724,-0.56693 0.55285,-0.368647 0.81489,-0.906916 0.81489,-1.6159 0.0291,-1.502994 -1.01841,-2.240964 -3.11347,-2.240964 z"
                 style="stroke-width:0.263401" />
              <path
                 id="path6041"
                 d="M 269.87823,0.08390077 V 30.179998 h 30.05394 V 0.08390077 Z m 16.24506,6.40495703 c 0.9016,0 1.74675,0.08643 2.56381,0.287065 0.81707,0.200641 1.54959,0.45871 2.25395,0.831359 v 3.2101952 c -0.61985,-0.429966 -1.32426,-0.745051 -2.05681,-0.9743762 -0.76073,-0.229308 -1.54986,-0.344547 -2.31058,-0.315875 -1.127,0 -2.08478,0.20076 -2.87367,0.6307212 -0.78891,0.401298 -1.40861,1.060592 -1.80306,1.834544 -0.42262,0.802577 -0.62024,1.777083 -0.62024,2.923645 0,1.146541 0.19762,2.149848 0.62024,2.952453 0.39445,0.802591 1.01455,1.433388 1.77526,1.863353 0.78891,0.429967 1.71825,0.630722 2.81706,0.630722 1.69048,0 3.27843,-0.458734 4.71535,-1.347356 v 3.1819 h -0.0283 c -0.6762,0.372639 -1.50303,0.687816 -2.37645,0.888462 -0.90159,0.229295 -1.83146,0.315361 -2.81759,0.315361 -1.29603,0 -2.47924,-0.200459 -3.5217,-0.573102 -1.04247,-0.401308 -1.91622,-0.946114 -2.64875,-1.662716 -0.73254,-0.716601 -1.26757,-1.605324 -1.66202,-2.665904 -0.39444,-1.060556 -0.56362,-2.235835 -0.56362,-3.554364 0,-1.289901 0.19698,-2.436156 0.59142,-3.496747 0.39445,-1.031922 0.98609,-1.9206382 1.71865,-2.6659032 0.7607,-0.745261 1.66237,-1.318368 2.70484,-1.691011 1.04247,-0.401284 2.22618,-0.602426 3.52223,-0.602426 z"
                 style="stroke-width:0.263401" />
            </g>
            <g
               id="g2408"
               transform="matrix(0.98977336,0,0,0.99986156,0.65782397,-0.01255054)">
              <path
                 d="m 65.933222,158.62407 v 2.75166 H 64.32456 v -7.56706 h 2.762241 q 1.492246,0 2.285993,0.62442 0.804331,0.62441 0.804331,1.78858 0,0.75141 -0.359832,1.28057 -0.349249,0.52917 -1.005414,0.81492 0.476249,0.75141 0.941914,1.51341 0.465665,0.75141 0.93133,1.54516 h -1.873244 q -0.761997,-1.39699 -1.576911,-2.75166 -0.08467,0 -0.15875,0 z m 0,-1.28057 h 1.05833 q 0.751414,0 1.142996,-0.26459 0.391582,-0.27516 0.391582,-0.85724 0,-0.58209 -0.391582,-0.85725 -0.380999,-0.27517 -1.132413,-0.27517 h -1.068913 z"
                 id="path1891" />
              <path
                 d="m 76.590596,161.37573 q -0.232833,-0.21166 -0.444499,-0.42333 -0.444498,0.27517 -0.99483,0.42333 -0.539748,0.13759 -1.164163,0.13759 -0.846664,0 -1.481662,-0.254 -0.624414,-0.254 -0.96308,-0.73025 -0.338666,-0.47625 -0.338666,-1.143 0,-0.62441 0.370416,-1.11124 0.370415,-0.48684 1.153579,-0.92075 -0.264582,-0.32808 -0.423332,-0.61383 -0.158749,-0.28575 -0.232832,-0.56092 -0.07408,-0.28575 -0.07408,-0.59266 0,-0.56092 0.275166,-0.99483 0.275165,-0.43392 0.77258,-0.66675 0.497416,-0.24342 1.142997,-0.24342 0.624415,0 1.09008,0.23284 0.476248,0.22225 0.730247,0.63499 0.264583,0.40217 0.264583,0.93133 0,0.62442 -0.402166,1.12183 -0.391582,0.48684 -1.259412,0.94192 0.338665,0.35983 0.730247,0.762 0.402166,0.40216 0.857248,0.84666 0.359832,-0.66675 0.391582,-1.68275 h 1.375829 q -0.02117,0.78317 -0.243416,1.43933 -0.211666,0.65617 -0.592665,1.16417 0.317499,0.30691 0.656165,0.63499 0.338665,0.3175 0.709081,0.66675 z m -3.23849,-5.77848 q 0,0.1905 0.04233,0.35983 0.04233,0.15875 0.15875,0.35984 0.126999,0.19049 0.359832,0.46566 0.529165,-0.254 0.761998,-0.51858 0.243415,-0.27517 0.243415,-0.65617 0,-0.37041 -0.211665,-0.58208 -0.201083,-0.21166 -0.550332,-0.21166 -0.359832,0 -0.582082,0.22225 -0.222249,0.21166 -0.222249,0.56091 z m -0.571498,3.65124 q 0,0.49741 0.359832,0.77258 0.359832,0.27517 0.99483,0.27517 0.624415,0 1.111247,-0.23284 -0.603248,-0.59266 -1.037164,-1.05833 -0.433915,-0.46566 -0.77258,-0.83608 -0.370416,0.22225 -0.518582,0.47625 -0.137583,0.24342 -0.137583,0.60325 z"
                 id="path1893" />
              <path
                 d="m 79.63858,153.80867 h 2.889241 q 1.195913,0 2.042577,0.4445 0.857247,0.4445 1.301746,1.29116 0.444498,0.83608 0.444498,2.032 0,1.19591 -0.455082,2.05316 -0.444498,0.84666 -1.291162,1.30174 -0.846664,0.4445 -2.05316,0.4445 H 79.63858 Z m 2.793991,6.17007 q 1.05833,0 1.619245,-0.61383 0.571498,-0.62442 0.571498,-1.78858 0,-1.15358 -0.560914,-1.75683 -0.550332,-0.61383 -1.619245,-0.61383 h -1.174747 v 4.77307 z"
                 id="path1895" />
            </g>
          </g>
        </g>
      </g>
    </g>
  </g>
</svg>
